<?xml version="1.0" encoding="UTF-8" standalone="no"?>
<!DOCTYPE svg PUBLIC "-//W3C//DTD SVG 1.1//EN" "http://www.w3.org/Graphics/SVG/1.1/DTD/svg11.dtd">
<svg width="100%" height="100%" viewBox="0 0 158 55" version="1.1" xmlns="http://www.w3.org/2000/svg" xmlns:xlink="http://www.w3.org/1999/xlink" xml:space="preserve" xmlns:serif="http://www.serif.com/" style="fill-rule:evenodd;clip-rule:evenodd;stroke-linejoin:round;stroke-miterlimit:2;">
    <g transform="matrix(1,0,0,1,-358,2.66454e-15)">
        <g id="Mode-Isolation" serif:id="Mode Isolation">
        </g>
        <g id="lsilex-logo" transform="matrix(0.240067,0,0,0.240067,272.296,-4.80134)">
            <rect x="357" y="20" width="657.734" height="225.747" style="fill:none;"/>
            <clipPath id="_clip1">
                <rect x="357" y="20" width="657.734" height="225.747"/>
            </clipPath>
            <g clip-path="url(#_clip1)">
                <g transform="matrix(4.17301,0,0,4.17301,355.414,19.9987)">
                    <g transform="matrix(1,0,0,1,0,0.0003)">
                        <rect x="0.24" y="0" width="157.616" height="54.179" style="fill:white;"/>
                    </g>
                    <g transform="matrix(1,0,0,1,57.7295,42.2253)">
                        <path d="M0,-4.692L-0.04,-4.692C-0.122,-4.716 -0.229,-4.741 -0.361,-4.765C-0.493,-4.791 -0.61,-4.803 -0.71,-4.803C-1.031,-4.803 -1.263,-4.733 -1.407,-4.591C-1.552,-4.449 -1.624,-4.193 -1.624,-3.823L-1.624,-3.671L-0.278,-3.671L-0.278,-3.045L-1.6,-3.045L-1.6,0.763L-2.346,0.763L-2.346,-3.045L-2.85,-3.045L-2.85,-3.671L-2.346,-3.671L-2.346,-3.819C-2.346,-4.345 -2.215,-4.75 -1.953,-5.032C-1.691,-5.313 -1.313,-5.455 -0.818,-5.455C-0.651,-5.455 -0.501,-5.446 -0.367,-5.43C-0.234,-5.415 -0.111,-5.396 0,-5.375L0,-4.692Z" style="fill:rgb(51,51,51);fill-rule:nonzero;"/>
                    </g>
                    <g transform="matrix(1,0,0,1,61.3916,42.1743)">
                        <path d="M0,-2.807L-0.04,-2.807C-0.151,-2.833 -0.259,-2.853 -0.363,-2.865C-0.468,-2.877 -0.591,-2.883 -0.734,-2.883C-0.964,-2.883 -1.187,-2.831 -1.401,-2.73C-1.616,-2.628 -1.822,-2.496 -2.021,-2.334L-2.021,0.814L-2.767,0.814L-2.767,-3.621L-2.021,-3.621L-2.021,-2.966C-1.724,-3.204 -1.463,-3.373 -1.237,-3.472C-1.01,-3.571 -0.779,-3.621 -0.543,-3.621C-0.414,-3.621 -0.32,-3.618 -0.262,-3.611C-0.204,-3.604 -0.117,-3.592 0,-3.573L0,-2.807Z" style="fill:rgb(51,51,51);fill-rule:nonzero;"/>
                    </g>
                    <g transform="matrix(1,0,0,1,65.5024,41.245)">
                        <path d="M0,-0.969C-0.002,-1.36 -0.101,-1.663 -0.296,-1.878C-0.49,-2.092 -0.786,-2.199 -1.183,-2.199C-1.583,-2.199 -1.901,-2.082 -2.137,-1.846C-2.375,-1.611 -2.509,-1.318 -2.541,-0.969L0,-0.969ZM0.727,-0.397L-2.541,-0.397C-2.541,-0.124 -2.5,0.114 -2.417,0.315C-2.335,0.518 -2.223,0.684 -2.08,0.814C-1.943,0.941 -1.779,1.036 -1.59,1.1C-1.401,1.163 -1.192,1.195 -0.964,1.195C-0.663,1.195 -0.359,1.135 -0.053,1.014C0.252,0.894 0.47,0.776 0.6,0.659L0.639,0.659L0.639,1.473C0.388,1.579 0.131,1.667 -0.131,1.739C-0.393,1.81 -0.668,1.846 -0.957,1.846C-1.692,1.846 -2.266,1.647 -2.679,1.249C-3.092,0.85 -3.299,0.284 -3.299,-0.448C-3.299,-1.174 -3.101,-1.749 -2.705,-2.176C-2.31,-2.601 -1.789,-2.815 -1.143,-2.815C-0.545,-2.815 -0.084,-2.64 0.24,-2.291C0.564,-1.941 0.727,-1.445 0.727,-0.802L0.727,-0.397Z" style="fill:rgb(51,51,51);fill-rule:nonzero;"/>
                    </g>
                    <g transform="matrix(1,0,0,1,70.7686,41.245)">
                        <path d="M0,-0.969C-0.003,-1.36 -0.101,-1.663 -0.296,-1.878C-0.49,-2.092 -0.786,-2.199 -1.183,-2.199C-1.583,-2.199 -1.901,-2.082 -2.138,-1.846C-2.375,-1.611 -2.509,-1.318 -2.541,-0.969L0,-0.969ZM0.727,-0.397L-2.541,-0.397C-2.541,-0.124 -2.5,0.114 -2.417,0.315C-2.335,0.518 -2.223,0.684 -2.08,0.814C-1.943,0.941 -1.779,1.036 -1.59,1.1C-1.401,1.163 -1.192,1.195 -0.964,1.195C-0.663,1.195 -0.359,1.135 -0.053,1.014C0.252,0.894 0.47,0.776 0.6,0.659L0.639,0.659L0.639,1.473C0.388,1.579 0.131,1.667 -0.131,1.739C-0.393,1.81 -0.668,1.846 -0.957,1.846C-1.692,1.846 -2.267,1.647 -2.68,1.249C-3.092,0.85 -3.299,0.284 -3.299,-0.448C-3.299,-1.174 -3.101,-1.749 -2.705,-2.176C-2.31,-2.601 -1.789,-2.815 -1.144,-2.815C-0.545,-2.815 -0.084,-2.64 0.24,-2.291C0.564,-1.941 0.727,-1.445 0.727,-0.802L0.727,-0.397Z" style="fill:rgb(51,51,51);fill-rule:nonzero;"/>
                    </g>
                    <g transform="matrix(1,0,0,1,81.9082,42.9878)">
                        <path d="M0,-4.434L-1.155,0L-1.846,0L-2.985,-3.418L-4.117,0L-4.804,0L-5.971,-4.434L-5.193,-4.434L-4.379,-1L-3.271,-4.434L-2.656,-4.434L-1.521,-1L-0.75,-4.434L0,-4.434Z" style="fill:rgb(51,51,51);fill-rule:nonzero;"/>
                    </g>
                    <g transform="matrix(1,0,0,1,86.3921,41.245)">
                        <path d="M0,-0.969C-0.002,-1.36 -0.101,-1.663 -0.296,-1.878C-0.49,-2.092 -0.786,-2.199 -1.183,-2.199C-1.583,-2.199 -1.901,-2.082 -2.138,-1.846C-2.375,-1.611 -2.509,-1.318 -2.541,-0.969L0,-0.969ZM0.727,-0.397L-2.541,-0.397C-2.541,-0.124 -2.5,0.114 -2.417,0.315C-2.335,0.518 -2.223,0.684 -2.08,0.814C-1.943,0.941 -1.779,1.036 -1.59,1.1C-1.4,1.163 -1.192,1.195 -0.965,1.195C-0.663,1.195 -0.359,1.135 -0.054,1.014C0.252,0.894 0.47,0.776 0.6,0.659L0.639,0.659L0.639,1.473C0.388,1.579 0.131,1.667 -0.131,1.739C-0.393,1.81 -0.668,1.846 -0.957,1.846C-1.692,1.846 -2.267,1.647 -2.68,1.249C-3.092,0.85 -3.299,0.284 -3.299,-0.448C-3.299,-1.174 -3.102,-1.749 -2.706,-2.176C-2.31,-2.601 -1.789,-2.815 -1.143,-2.815C-0.545,-2.815 -0.084,-2.64 0.24,-2.291C0.564,-1.941 0.727,-1.445 0.727,-0.802L0.727,-0.397Z" style="fill:rgb(51,51,51);fill-rule:nonzero;"/>
                    </g>
                    <g transform="matrix(1,0,0,1,91.8052,39.1649)">
                        <path d="M0,1.592C0,1.063 -0.087,0.661 -0.262,0.387C-0.437,0.113 -0.718,-0.024 -1.107,-0.024C-1.325,-0.024 -1.544,0.023 -1.767,0.117C-1.989,0.211 -2.195,0.332 -2.386,0.48L-2.386,3.021C-2.174,3.116 -1.992,3.182 -1.84,3.219C-1.688,3.257 -1.515,3.275 -1.322,3.275C-0.909,3.275 -0.585,3.139 -0.351,2.868C-0.117,2.597 0,2.172 0,1.592M0.77,1.571C0.77,1.943 0.718,2.276 0.613,2.572C0.508,2.869 0.368,3.117 0.19,3.319C0.003,3.528 -0.204,3.684 -0.429,3.789C-0.653,3.893 -0.901,3.946 -1.171,3.946C-1.423,3.946 -1.642,3.916 -1.831,3.857C-2.018,3.797 -2.203,3.717 -2.386,3.616L-2.434,3.823L-3.132,3.823L-3.132,-2.354L-2.386,-2.354L-2.386,-0.147C-2.177,-0.319 -1.955,-0.46 -1.719,-0.57C-1.483,-0.68 -1.219,-0.735 -0.925,-0.735C-0.401,-0.735 0.013,-0.533 0.315,-0.131C0.619,0.271 0.77,0.839 0.77,1.571" style="fill:rgb(51,51,51);fill-rule:nonzero;"/>
                    </g>
                    <g transform="matrix(1,0,0,1,97.3291,39.8316)">
                        <path d="M0,1.878C0,2.283 -0.167,2.615 -0.502,2.874C-0.837,3.134 -1.294,3.264 -1.874,3.264C-2.202,3.264 -2.503,3.224 -2.777,3.146C-3.051,3.068 -3.28,2.983 -3.465,2.89L-3.465,2.052L-3.426,2.052C-3.19,2.23 -2.928,2.371 -2.64,2.475C-2.351,2.58 -2.075,2.632 -1.811,2.632C-1.482,2.632 -1.225,2.58 -1.041,2.473C-0.855,2.368 -0.762,2.201 -0.762,1.973C-0.762,1.798 -0.812,1.666 -0.913,1.576C-1.014,1.486 -1.207,1.409 -1.493,1.346C-1.599,1.322 -1.736,1.295 -1.908,1.263C-2.078,1.231 -2.234,1.196 -2.374,1.159C-2.763,1.056 -3.039,0.905 -3.202,0.705C-3.364,0.505 -3.446,0.26 -3.446,-0.032C-3.446,-0.214 -3.408,-0.386 -3.333,-0.548C-3.257,-0.709 -3.143,-0.853 -2.989,-0.98C-2.841,-1.105 -2.653,-1.204 -2.424,-1.276C-2.195,-1.349 -1.938,-1.386 -1.655,-1.386C-1.391,-1.386 -1.123,-1.353 -0.851,-1.289C-0.58,-1.223 -0.354,-1.144 -0.175,-1.052L-0.175,-0.254L-0.214,-0.254C-0.405,-0.394 -0.637,-0.513 -0.909,-0.609C-1.182,-0.706 -1.449,-0.754 -1.711,-0.754C-1.983,-0.754 -2.214,-0.702 -2.401,-0.598C-2.589,-0.493 -2.684,-0.337 -2.684,-0.131C-2.684,0.052 -2.626,0.19 -2.513,0.282C-2.401,0.375 -2.222,0.45 -1.973,0.508C-1.835,0.54 -1.681,0.572 -1.51,0.604C-1.339,0.635 -1.197,0.665 -1.083,0.691C-0.737,0.771 -0.47,0.906 -0.282,1.1C-0.094,1.295 0,1.555 0,1.878" style="fill:rgb(51,51,51);fill-rule:nonzero;"/>
                    </g>
                    <g transform="matrix(1,0,0,1,0,25.8453)">
                        <path d="M99.574,17.142L98.828,17.142L98.828,12.708L99.574,12.708L99.574,17.142ZM99.622,11.966L98.78,11.966L98.78,11.192L99.622,11.192L99.622,11.966Z" style="fill:rgb(51,51,51);fill-rule:nonzero;"/>
                    </g>
                    <g transform="matrix(1,0,0,1,103.776,37.4063)">
                        <path d="M0,5.542C-0.14,5.579 -0.293,5.609 -0.458,5.633C-0.623,5.657 -0.771,5.669 -0.901,5.669C-1.353,5.669 -1.697,5.547 -1.933,5.304C-2.169,5.06 -2.286,4.67 -2.286,4.132L-2.286,1.774L-2.79,1.774L-2.79,1.147L-2.286,1.147L-2.286,-0.127L-1.54,-0.127L-1.54,1.147L0,1.147L0,1.774L-1.54,1.774L-1.54,3.795C-1.54,4.028 -1.535,4.21 -1.524,4.341C-1.514,4.472 -1.476,4.594 -1.413,4.708C-1.355,4.814 -1.275,4.891 -1.172,4.94C-1.071,4.989 -0.915,5.014 -0.706,5.014C-0.585,5.014 -0.458,4.996 -0.325,4.96C-0.193,4.924 -0.098,4.895 -0.04,4.871L0,4.871L0,5.542Z" style="fill:rgb(51,51,51);fill-rule:nonzero;"/>
                    </g>
                    <g transform="matrix(1,0,0,1,108.086,41.245)">
                        <path d="M0,-0.969C-0.003,-1.36 -0.101,-1.663 -0.296,-1.878C-0.49,-2.092 -0.786,-2.199 -1.183,-2.199C-1.583,-2.199 -1.901,-2.082 -2.138,-1.846C-2.375,-1.611 -2.509,-1.318 -2.541,-0.969L0,-0.969ZM0.726,-0.397L-2.541,-0.397C-2.541,-0.124 -2.5,0.114 -2.418,0.315C-2.336,0.518 -2.223,0.684 -2.081,0.814C-1.943,0.941 -1.78,1.036 -1.59,1.1C-1.401,1.163 -1.192,1.195 -0.965,1.195C-0.663,1.195 -0.36,1.135 -0.054,1.014C0.252,0.894 0.47,0.776 0.599,0.659L0.639,0.659L0.639,1.473C0.388,1.579 0.131,1.667 -0.131,1.739C-0.393,1.81 -0.669,1.846 -0.957,1.846C-1.693,1.846 -2.267,1.647 -2.68,1.249C-3.093,0.85 -3.299,0.284 -3.299,-0.448C-3.299,-1.174 -3.101,-1.749 -2.705,-2.176C-2.31,-2.601 -1.789,-2.815 -1.144,-2.815C-0.545,-2.815 -0.084,-2.64 0.24,-2.291C0.564,-1.941 0.726,-1.445 0.726,-0.802L0.726,-0.397Z" style="fill:rgb(51,51,51);fill-rule:nonzero;"/>
                    </g>
                    <g transform="matrix(1,0,0,1,116.78,39.1649)">
                        <path d="M0,1.592C0,1.063 -0.088,0.661 -0.262,0.387C-0.437,0.113 -0.719,-0.024 -1.108,-0.024C-1.325,-0.024 -1.545,0.023 -1.767,0.117C-1.989,0.211 -2.196,0.332 -2.386,0.48L-2.386,3.021C-2.174,3.116 -1.993,3.182 -1.84,3.219C-1.688,3.257 -1.516,3.275 -1.322,3.275C-0.91,3.275 -0.586,3.139 -0.351,2.868C-0.118,2.597 0,2.172 0,1.592M0.77,1.571C0.77,1.943 0.718,2.276 0.613,2.572C0.508,2.869 0.368,3.117 0.19,3.319C0.003,3.528 -0.204,3.684 -0.429,3.789C-0.654,3.893 -0.902,3.946 -1.171,3.946C-1.423,3.946 -1.643,3.916 -1.831,3.857C-2.018,3.797 -2.204,3.717 -2.386,3.616L-2.434,3.823L-3.133,3.823L-3.133,-2.354L-2.386,-2.354L-2.386,-0.147C-2.177,-0.319 -1.955,-0.46 -1.719,-0.57C-1.484,-0.68 -1.219,-0.735 -0.926,-0.735C-0.401,-0.735 0.012,-0.533 0.315,-0.131C0.618,0.271 0.77,0.839 0.77,1.571" style="fill:rgb(51,51,51);fill-rule:nonzero;"/>
                    </g>
                    <g transform="matrix(1,0,0,1,122.812,38.6769)">
                        <path d="M0,4.311L-0.746,4.311L-0.746,3.819C-0.998,4.017 -1.238,4.169 -1.469,4.275C-1.699,4.381 -1.953,4.434 -2.231,4.434C-2.697,4.434 -3.059,4.291 -3.319,4.007C-3.578,3.723 -3.708,3.305 -3.708,2.754L-3.708,-0.123L-2.961,-0.123L-2.961,2.401C-2.961,2.626 -2.951,2.819 -2.929,2.979C-2.909,3.139 -2.863,3.276 -2.795,3.39C-2.723,3.506 -2.631,3.591 -2.517,3.644C-2.403,3.697 -2.238,3.723 -2.021,3.723C-1.828,3.723 -1.617,3.673 -1.387,3.573C-1.159,3.472 -0.944,3.344 -0.746,3.187L-0.746,-0.123L0,-0.123L0,4.311Z" style="fill:rgb(51,51,51);fill-rule:nonzero;"/>
                    </g>
                    <g transform="matrix(1,0,0,1,0,25.8453)">
                        <path d="M125.458,17.142L124.712,17.142L124.712,12.708L125.458,12.708L125.458,17.142ZM125.506,11.966L124.664,11.966L124.664,11.192L125.506,11.192L125.506,11.966Z" style="fill:rgb(51,51,51);fill-rule:nonzero;"/>
                    </g>
                    <g transform="matrix(1,0,0,1,0,25.6183)">
                        <rect x="127.366" y="11.192" width="0.746" height="6.177" style="fill:rgb(51,51,51);"/>
                    </g>
                    <g transform="matrix(1,0,0,1,132.862,38.0261)">
                        <path d="M0,3.87L0,1.326C-0.202,1.235 -0.381,1.173 -0.54,1.139C-0.699,1.104 -0.872,1.087 -1.06,1.087C-1.478,1.087 -1.804,1.232 -2.037,1.524C-2.269,1.815 -2.386,2.228 -2.386,2.763C-2.386,3.289 -2.296,3.689 -2.116,3.963C-1.936,4.237 -1.648,4.374 -1.25,4.374C-1.039,4.374 -0.825,4.328 -0.607,4.233C-0.391,4.139 -0.188,4.018 0,3.87M0.747,4.962L0,4.962L0,4.497C-0.215,4.683 -0.438,4.827 -0.671,4.93C-0.904,5.033 -1.157,5.085 -1.429,5.085C-1.959,5.085 -2.379,4.881 -2.689,4.474C-3.001,4.066 -3.156,3.501 -3.156,2.778C-3.156,2.402 -3.103,2.068 -2.995,1.774C-2.888,1.48 -2.743,1.23 -2.561,1.023C-2.381,0.823 -2.171,0.669 -1.931,0.563C-1.692,0.457 -1.444,0.404 -1.187,0.404C-0.954,0.404 -0.748,0.429 -0.568,0.477C-0.388,0.527 -0.199,0.603 0,0.706L0,-1.215L0.747,-1.215L0.747,4.962Z" style="fill:rgb(51,51,51);fill-rule:nonzero;"/>
                    </g>
                    <g transform="matrix(1,0,0,1,138.485,41.245)">
                        <path d="M0,-0.969C-0.003,-1.36 -0.101,-1.663 -0.296,-1.878C-0.49,-2.092 -0.786,-2.199 -1.183,-2.199C-1.583,-2.199 -1.901,-2.082 -2.137,-1.846C-2.374,-1.611 -2.509,-1.318 -2.541,-0.969L0,-0.969ZM0.727,-0.397L-2.541,-0.397C-2.541,-0.124 -2.499,0.114 -2.417,0.315C-2.335,0.518 -2.223,0.684 -2.08,0.814C-1.943,0.941 -1.779,1.036 -1.59,1.1C-1.4,1.163 -1.192,1.195 -0.964,1.195C-0.663,1.195 -0.359,1.135 -0.053,1.014C0.252,0.894 0.47,0.776 0.6,0.659L0.639,0.659L0.639,1.473C0.388,1.579 0.131,1.667 -0.131,1.739C-0.393,1.81 -0.668,1.846 -0.957,1.846C-1.692,1.846 -2.266,1.647 -2.68,1.249C-3.092,0.85 -3.299,0.284 -3.299,-0.448C-3.299,-1.174 -3.101,-1.749 -2.705,-2.176C-2.31,-2.601 -1.789,-2.815 -1.143,-2.815C-0.545,-2.815 -0.084,-2.64 0.24,-2.291C0.565,-1.941 0.727,-1.445 0.727,-0.802L0.727,-0.397Z" style="fill:rgb(51,51,51);fill-rule:nonzero;"/>
                    </g>
                    <g transform="matrix(1,0,0,1,143.533,42.1743)">
                        <path d="M0,-2.807L-0.04,-2.807C-0.151,-2.833 -0.258,-2.853 -0.363,-2.865C-0.467,-2.877 -0.591,-2.883 -0.734,-2.883C-0.964,-2.883 -1.186,-2.831 -1.401,-2.73C-1.615,-2.628 -1.822,-2.496 -2.021,-2.334L-2.021,0.814L-2.767,0.814L-2.767,-3.621L-2.021,-3.621L-2.021,-2.966C-1.724,-3.204 -1.462,-3.373 -1.236,-3.472C-1.01,-3.571 -0.779,-3.621 -0.544,-3.621C-0.414,-3.621 -0.32,-3.618 -0.262,-3.611C-0.203,-3.604 -0.116,-3.592 0,-3.573L0,-2.807Z" style="fill:rgb(51,51,51);fill-rule:nonzero;"/>
                    </g>
                    <g transform="matrix(1,0,0,1,59.7964,18.0592)">
                        <path d="M0,8.019C0.169,8.158 0.385,8.345 0.648,8.578C0.912,8.811 1.212,9.042 1.55,9.271C2.057,9.609 2.559,9.873 3.056,10.061C3.552,10.25 4.074,10.344 4.621,10.344C5.127,10.344 5.552,10.288 5.896,10.173C6.238,10.059 6.509,9.907 6.707,9.719C6.906,9.53 7.047,9.311 7.132,9.063C7.217,8.815 7.259,8.552 7.259,8.274C7.259,7.966 7.142,7.691 6.909,7.448C6.675,7.205 6.389,6.988 6.052,6.8C5.714,6.611 5.361,6.45 4.993,6.316C4.625,6.182 4.308,6.07 4.04,5.98C2.847,5.563 1.803,5.115 0.909,4.633C0.015,4.151 -0.73,3.615 -1.327,3.024C-1.923,2.434 -2.37,1.783 -2.668,1.073C-2.966,0.364 -3.116,-0.429 -3.116,-1.302C-3.116,-2.225 -2.929,-3.064 -2.557,-3.819C-2.184,-4.574 -1.652,-5.219 -0.961,-5.755C-0.271,-6.291 0.561,-6.706 1.535,-6.999C2.509,-7.292 3.597,-7.438 4.799,-7.438C5.703,-7.438 6.571,-7.336 7.4,-7.132C8.23,-6.929 9.048,-6.604 9.853,-6.156C10.19,-5.958 10.511,-5.751 10.814,-5.538C11.117,-5.324 11.383,-5.118 11.611,-4.919C11.84,-4.72 12.021,-4.532 12.155,-4.353C12.29,-4.174 12.357,-4.02 12.357,-3.891C12.357,-3.762 12.324,-3.642 12.26,-3.533C12.195,-3.423 12.098,-3.299 11.969,-3.16L9.688,-0.731C9.52,-0.562 9.35,-0.477 9.182,-0.477C9.042,-0.477 8.916,-0.517 8.801,-0.597C8.687,-0.676 8.561,-0.775 8.421,-0.895L8.287,-1.014C8.088,-1.183 7.868,-1.356 7.624,-1.536C7.38,-1.714 7.12,-1.876 6.841,-2.02C6.563,-2.164 6.27,-2.283 5.962,-2.378C5.654,-2.472 5.341,-2.52 5.023,-2.52C4.695,-2.52 4.387,-2.492 4.099,-2.438C3.811,-2.382 3.557,-2.296 3.339,-2.176C3.12,-2.057 2.946,-1.901 2.817,-1.707C2.688,-1.513 2.623,-1.277 2.623,-0.999C2.623,-0.721 2.693,-0.48 2.832,-0.276C2.971,-0.072 3.18,0.117 3.458,0.29C3.736,0.464 4.082,0.628 4.494,0.782C4.906,0.936 5.386,1.103 5.932,1.282C6.986,1.63 7.957,1.995 8.847,2.377C9.736,2.76 10.503,3.211 11.149,3.733C11.795,4.255 12.3,4.879 12.662,5.604C13.025,6.33 13.206,7.209 13.206,8.243C13.206,9.336 12.983,10.327 12.536,11.216C12.088,12.105 11.475,12.863 10.695,13.489C9.915,14.116 8.998,14.6 7.945,14.942C6.891,15.286 5.758,15.457 4.546,15.457C3.403,15.457 2.28,15.252 1.177,14.844C0.074,14.436 -0.954,13.888 -1.908,13.2C-2.306,12.911 -2.641,12.626 -2.914,12.348C-3.188,12.068 -3.404,11.844 -3.563,11.675L-3.607,11.63C-3.618,11.61 -3.627,11.598 -3.637,11.592C-3.647,11.587 -3.657,11.581 -3.667,11.57C-3.677,11.55 -3.687,11.538 -3.697,11.533C-3.707,11.528 -3.717,11.52 -3.727,11.51C-3.955,11.262 -4.069,11.062 -4.069,10.912C-4.069,10.743 -3.955,10.553 -3.727,10.344L-1.148,7.885C-0.939,7.736 -0.771,7.661 -0.641,7.661C-0.552,7.661 -0.458,7.691 -0.358,7.75C-0.259,7.811 -0.139,7.9 0,8.019" style="fill:rgb(51,51,51);fill-rule:nonzero;"/>
                    </g>
                    <g transform="matrix(1,0,0,1,76.7144,32.577)">
                        <path d="M0,-20.823C0,-21.002 0.055,-21.156 0.164,-21.285C0.273,-21.414 0.437,-21.479 0.656,-21.479L5.038,-21.479C5.187,-21.479 5.346,-21.419 5.515,-21.3C5.684,-21.181 5.768,-21.022 5.768,-20.823L5.768,0C5.768,0.437 5.525,0.656 5.038,0.656L0.656,0.656C0.218,0.656 0,0.437 0,0L0,-20.823Z" style="fill:rgb(51,51,51);fill-rule:nonzero;"/>
                    </g>
                    <g transform="matrix(1,0,0,1,86.8496,32.5769)">
                        <path d="M0,-20.838C0,-21.017 0.06,-21.171 0.179,-21.3C0.299,-21.429 0.462,-21.494 0.671,-21.494L5.083,-21.494C5.252,-21.494 5.406,-21.434 5.545,-21.315C5.685,-21.196 5.759,-21.037 5.769,-20.838L5.769,-4.621L13.967,-4.621C14.146,-4.621 14.299,-4.561 14.429,-4.442C14.559,-4.322 14.623,-4.158 14.623,-3.95L14.623,-0.029C14.623,0.14 14.565,0.294 14.451,0.433C14.337,0.572 14.175,0.646 13.967,0.656L0.656,0.656C0.218,0.656 0,0.438 0,0L0,-20.838Z" style="fill:rgb(51,51,51);fill-rule:nonzero;"/>
                    </g>
                    <g transform="matrix(1,0,0,1,105.035,32.5468)">
                        <path d="M0,-20.763C0,-20.972 0.056,-21.138 0.17,-21.263C0.284,-21.387 0.446,-21.449 0.654,-21.449L15.442,-21.449C15.66,-21.449 15.83,-21.384 15.949,-21.256C16.068,-21.127 16.128,-20.953 16.128,-20.736L16.128,-17.05C16.128,-16.881 16.068,-16.72 15.949,-16.567C15.83,-16.413 15.656,-16.336 15.427,-16.336L5.768,-16.336L5.768,-12.639L13.221,-12.639C13.41,-12.639 13.566,-12.595 13.69,-12.505C13.815,-12.416 13.877,-12.267 13.877,-12.058L13.877,-8.839C13.877,-8.699 13.822,-8.565 13.713,-8.436C13.604,-8.307 13.445,-8.242 13.236,-8.242L5.768,-8.242L5.768,-4.427L15.784,-4.427C16.232,-4.427 16.455,-4.199 16.455,-3.742L16.455,0.003C16.455,0.102 16.416,0.191 16.336,0.27C16.297,0.548 16.093,0.686 15.725,0.686L0.654,0.686C0.456,0.686 0.297,0.634 0.178,0.529C0.059,0.425 0,0.264 0,0.045L0,-20.763Z" style="fill:rgb(51,51,51);fill-rule:nonzero;"/>
                    </g>
                    <g transform="matrix(1,0,0,1,123.085,11.4713)">
                        <path d="M0,21.374C0.079,21.225 0.161,21.074 0.246,20.919C0.33,20.766 0.427,20.609 0.536,20.45L7.244,10.433C6.101,8.714 4.971,7.015 3.853,5.335C2.735,3.656 1.605,1.957 0.462,0.238C0.402,0.158 0.355,0.083 0.32,0.015C0.285,-0.055 0.263,-0.129 0.253,-0.209C0.273,-0.289 0.33,-0.326 0.425,-0.321C0.519,-0.316 0.616,-0.338 0.715,-0.388L5.902,-0.388C6.27,-0.388 6.558,-0.199 6.767,0.178L10.419,5.664L14.115,0.178C14.324,-0.199 14.612,-0.388 14.98,-0.388L19.944,-0.388C20.053,-0.388 20.155,-0.386 20.249,-0.381C20.344,-0.376 20.426,-0.358 20.495,-0.329C20.564,-0.299 20.599,-0.254 20.599,-0.194C20.599,-0.075 20.545,0.054 20.435,0.193L13.579,10.433L20.57,20.867C20.669,21.007 20.746,21.133 20.801,21.248C20.855,21.362 20.877,21.459 20.867,21.538C20.867,21.687 20.778,21.762 20.599,21.762L15.263,21.762C15.094,21.762 14.94,21.712 14.801,21.613C14.662,21.513 14.553,21.379 14.473,21.21L10.419,15.203L6.409,21.21C6.33,21.379 6.22,21.513 6.081,21.613C5.942,21.712 5.788,21.762 5.619,21.762L0.268,21.762C0.188,21.762 0.119,21.739 0.059,21.695C0,21.65 -0.03,21.588 -0.03,21.508C-0.03,21.459 -0.02,21.414 0,21.374" style="fill:rgb(51,51,51);fill-rule:nonzero;"/>
                    </g>
                    <g transform="matrix(1,0,0,1,18.2485,23.4476)">
                        <path d="M0,6.634C0.22,-0.269 2.001,-6.755 4.993,-12.495L-5.282,-12.495L-5.282,19.129L1.379,19.129C0.357,15.143 -0.138,10.953 0,6.634" style="fill:rgb(86,227,255);fill-rule:nonzero;"/>
                    </g>
                    <g transform="matrix(1,0,0,1,19.6279,10.9523)">
                        <path d="M0,31.624L15.145,31.624C9.956,25.293 6.942,17.134 7.223,8.31C7.314,5.435 7.758,2.654 8.497,0L3.614,0C0.622,5.741 -1.16,12.227 -1.379,19.129C-1.517,23.449 -1.022,27.639 0,31.624" style="fill:rgb(136,115,254);fill-rule:nonzero;"/>
                    </g>
                    <g transform="matrix(1,0,0,1,34.7729,10.9523)">
                        <path d="M0,31.624L9.816,31.624L9.816,21.932C3.66,16.742 -0.152,8.892 0.124,0.219C0.126,0.145 0.133,0.074 0.136,0L-6.648,0C-7.387,2.654 -7.831,5.435 -7.922,8.31C-8.203,17.134 -5.189,25.293 0,31.624" style="fill:rgb(255,85,122);fill-rule:nonzero;"/>
                    </g>
                    <g transform="matrix(0,-1,-1,0,50.5704,16.9339)">
                        <path d="M-15.95,5.981L5.981,5.981L5.981,15.661C5.908,15.664 5.836,15.671 5.763,15.673C-2.91,15.95 -10.76,12.138 -15.95,5.981" style="fill:rgb(255,172,84);fill-rule:nonzero;"/>
                    </g>
                    <g transform="matrix(1,0,0,1,0,-0.6507)">
                        <path d="M13.546,42.646L44.008,42.646L44.008,12.184L13.546,12.184L13.546,42.646ZM45.169,43.807L12.385,43.807L12.385,11.023L45.169,11.023L45.169,43.807Z" style="fill:rgb(51,51,51);fill-rule:nonzero;"/>
                    </g>
                    <g transform="matrix(1,0,0,1,47.0112,8.0012)">
                        <path d="M0,5.89L-5.115,5.89C-5.33,5.89 -5.502,5.717 -5.502,5.503L-5.502,0.387C-5.502,0.174 -5.33,0 -5.115,0L0,0C0.214,0 0.387,0.174 0.387,0.387L0.387,5.503C0.387,5.717 0.214,5.89 0,5.89" style="fill:white;fill-rule:nonzero;"/>
                    </g>
                    <g transform="matrix(1,0,0,1,0,-32.2877)">
                        <path d="M42.089,45.598L46.818,45.598L46.818,40.869L42.089,40.869L42.089,45.598ZM47.011,46.759L41.896,46.759C41.362,46.759 40.928,46.325 40.928,45.792L40.928,40.676C40.928,40.142 41.362,39.708 41.896,39.708L47.011,39.708C47.545,39.708 47.979,40.142 47.979,40.676L47.979,45.792C47.979,46.325 47.545,46.759 47.011,46.759" style="fill:rgb(51,51,51);fill-rule:nonzero;"/>
                    </g>
                    <g transform="matrix(1,0,0,1,47.0112,39.6658)">
                        <path d="M0,5.89L-5.115,5.89C-5.33,5.89 -5.502,5.717 -5.502,5.503L-5.502,0.388C-5.502,0.174 -5.33,0 -5.115,0L0,0C0.214,0 0.387,0.174 0.387,0.388L0.387,5.503C0.387,5.717 0.214,5.89 0,5.89" style="fill:white;fill-rule:nonzero;"/>
                    </g>
                    <g transform="matrix(1,0,0,1,0,31.0423)">
                        <path d="M42.089,13.933L46.818,13.933L46.818,9.204L42.089,9.204L42.089,13.933ZM47.011,15.094L41.896,15.094C41.362,15.094 40.928,14.66 40.928,14.126L40.928,9.011C40.928,8.477 41.362,8.043 41.896,8.043L47.011,8.043C47.545,8.043 47.979,8.477 47.979,9.011L47.979,14.126C47.979,14.66 47.545,15.094 47.011,15.094" style="fill:rgb(51,51,51);fill-rule:nonzero;"/>
                    </g>
                    <g transform="matrix(1,0,0,1,15.5239,8.0012)">
                        <path d="M0,5.89L-5.116,5.89C-5.329,5.89 -5.503,5.717 -5.503,5.503L-5.503,0.387C-5.503,0.174 -5.329,0 -5.116,0L0,0C0.214,0 0.387,0.174 0.387,0.387L0.387,5.503C0.387,5.717 0.214,5.89 0,5.89" style="fill:white;fill-rule:nonzero;"/>
                    </g>
                    <g transform="matrix(1,0,0,1,0,-32.2877)">
                        <path d="M10.602,45.598L15.331,45.598L15.331,40.869L10.602,40.869L10.602,45.598ZM15.524,46.759L10.408,46.759C9.875,46.759 9.44,46.325 9.44,45.792L9.44,40.676C9.44,40.142 9.875,39.708 10.408,39.708L15.524,39.708C16.058,39.708 16.492,40.142 16.492,40.676L16.492,45.792C16.492,46.325 16.058,46.759 15.524,46.759" style="fill:rgb(51,51,51);fill-rule:nonzero;"/>
                    </g>
                    <g transform="matrix(1,0,0,1,15.5239,39.6658)">
                        <path d="M0,5.89L-5.116,5.89C-5.329,5.89 -5.503,5.717 -5.503,5.503L-5.503,0.388C-5.503,0.174 -5.329,0 -5.116,0L0,0C0.214,0 0.387,0.174 0.387,0.388L0.387,5.503C0.387,5.717 0.214,5.89 0,5.89" style="fill:white;fill-rule:nonzero;"/>
                    </g>
                    <g transform="matrix(1,0,0,1,0,31.0423)">
                        <path d="M10.602,13.933L15.331,13.933L15.331,9.204L10.602,9.204L10.602,13.933ZM15.524,15.094L10.408,15.094C9.875,15.094 9.44,14.66 9.44,14.126L9.44,9.011C9.44,8.477 9.875,8.043 10.408,8.043L15.524,8.043C16.058,8.043 16.492,8.477 16.492,9.011L16.492,14.126C16.492,14.66 16.058,15.094 15.524,15.094" style="fill:rgb(51,51,51);fill-rule:nonzero;"/>
                    </g>
                </g>
            </g>
        </g>
        <g id="bg-accueil-header">
        </g>
        <g id="HEADER" transform="matrix(0.618135,0,0,0.618135,-1755.35,283.139)">
            <g id="Mode-Isolation1" serif:id="Mode Isolation">
            </g>
            <g transform="matrix(1.61777,0,0,1.61777,925.235,22.9494)">
                <g id="Calque-1" serif:id="Calque 1">
                </g>
            </g>
            <g id="Layer-1" serif:id="Layer 1">
            </g>
        </g>
        <g id="Mode-Isolation2" serif:id="Mode Isolation">
        </g>
        <g id="Calque-11" serif:id="Calque 1">
        </g>
        <g id="Calque-12" serif:id="Calque 1">
        </g>
        <g id="Calque-13" serif:id="Calque 1">
        </g>
        <g transform="matrix(1,0,0,1,-1164.09,2086.05)">
            <g>
                <g id="Calque-14" serif:id="Calque 1">
                </g>
            </g>
        </g>
        <g id="Calque-15" serif:id="Calque 1">
        </g>
        <g id="Calque-16" serif:id="Calque 1">
        </g>
        <g id="Calque-17" serif:id="Calque 1">
        </g>
        <g id="HEADER1" serif:id="HEADER" transform="matrix(0.618135,0,0,0.618135,-4608.18,283.139)">
            <g id="Mode-Isolation3" serif:id="Mode Isolation">
            </g>
            <g transform="matrix(1.61777,0,0,1.61777,925.235,22.9494)">
                <g id="Calque-18" serif:id="Calque 1">
                </g>
            </g>
            <g id="Layer-11" serif:id="Layer 1">
            </g>
        </g>
        <g id="Mode-Isolation4" serif:id="Mode Isolation">
        </g>
        <g id="Calque-19" serif:id="Calque 1">
        </g>
        <g id="Calque-110" serif:id="Calque 1">
        </g>
        <g id="Calque-111" serif:id="Calque 1">
        </g>
        <g transform="matrix(1,0,0,1,-4016.92,2086.05)">
            <g>
                <g id="Calque-112" serif:id="Calque 1">
                </g>
            </g>
        </g>
        <g id="Calque-113" serif:id="Calque 1">
        </g>
        <g id="Calque-114" serif:id="Calque 1">
        </g>
        <g id="Calque-115" serif:id="Calque 1">
        </g>
        <g id="Mode-Isolation5" serif:id="Mode Isolation">
        </g>
        <g id="colors">
        </g>
    </g>
</svg>
