<?xml version="1.0" encoding="UTF-8" standalone="no"?>
<!DOCTYPE svg PUBLIC "-//W3C//DTD SVG 1.1//EN" "http://www.w3.org/Graphics/SVG/1.1/DTD/svg11.dtd">
<svg width="100%" height="100%" viewBox="0 0 1920 525" version="1.1" xmlns="http://www.w3.org/2000/svg" xmlns:xlink="http://www.w3.org/1999/xlink" xml:space="preserve" xmlns:serif="http://www.serif.com/" style="fill-rule:evenodd;clip-rule:evenodd;stroke-linejoin:round;stroke-miterlimit:2;">
    <g transform="matrix(3.24745,0,0,1.59051,-1558.75,-192.653)">
        <g id="bg-accueil-header">
            <rect id="BG" x="479.99" y="121.127" width="591.232" height="330.083" style="fill:none;"/>
            <clipPath id="_clip1">
                <rect id="BG1" serif:id="BG" x="479.99" y="121.127" width="591.232" height="330.083"/>
            </clipPath>
            <g clip-path="url(#_clip1)">
                <g id="rectangles" transform="matrix(0.4619,0,0,1.7278,479.99,61.7357)">
                    <g transform="matrix(0.957057,0.301606,-0.620156,0.586306,4818.26,-3020.35)">
                        <path d="M-54.698,5304C-54.698,5303.85 -54.833,5303.73 -55,5303.73L-473,5303.73C-473.167,5303.73 -473.302,5303.85 -473.302,5304L-473.302,5676.44C-473.302,5676.59 -473.167,5676.7 -473,5676.7L-55,5676.7C-54.833,5676.7 -54.698,5676.59 -54.698,5676.44L-54.698,5304ZM-472.698,5676.17L-55.302,5676.17L-55.302,5304.27L-472.698,5304.27L-472.698,5676.17Z" style="fill:white;fill-opacity:0.1;"/>
                    </g>
                    <g transform="matrix(0.957057,0.301606,-0.620156,0.586306,4818.26,-3020.35)">
                        <rect x="-473" y="5304" width="418" height="372.437" style="fill:white;fill-opacity:0.05;"/>
                    </g>
                    <g transform="matrix(0.525394,0.165572,-0.340446,0.321863,3150.87,-1661.72)">
                        <path d="M-54.451,5304C-54.451,5303.73 -54.697,5303.51 -55,5303.51L-473,5303.51C-473.303,5303.51 -473.549,5303.73 -473.549,5304L-473.549,5676.44C-473.549,5676.71 -473.303,5676.93 -473,5676.93L-55,5676.93C-54.697,5676.93 -54.451,5676.71 -54.451,5676.44L-54.451,5304ZM-472.451,5675.95L-55.549,5675.95L-55.549,5304.49L-472.451,5304.49L-472.451,5675.95Z" style="fill:white;fill-opacity:0.1;"/>
                    </g>
                    <g transform="matrix(0.525394,0.165572,-0.340446,0.321863,3150.87,-1661.72)">
                        <rect x="-473" y="5304" width="418" height="372.437" style="fill:white;fill-opacity:0.05;"/>
                    </g>
                    <g transform="matrix(0.281157,0.0886035,-0.182185,0.172241,2280.77,-759.324)">
                        <path d="M-53.937,5304C-53.937,5303.48 -54.413,5303.05 -55,5303.05L-473,5303.05C-473.587,5303.05 -474.063,5303.48 -474.063,5304L-474.063,5676.44C-474.063,5676.96 -473.587,5677.38 -473,5677.38L-55,5677.38C-54.413,5677.38 -53.937,5676.96 -53.937,5676.44L-53.937,5304ZM-471.937,5675.49L-56.063,5675.49L-56.063,5304.95L-471.937,5304.95L-471.937,5675.49Z" style="fill:white;fill-opacity:0.1;"/>
                    </g>
                    <g transform="matrix(0.281157,0.0886035,-0.182185,0.172241,2280.77,-759.324)">
                        <rect x="-473" y="5304" width="418" height="372.437" style="fill:white;fill-opacity:0.05;"/>
                    </g>
                    <g transform="matrix(0.27757,0.08579,-0.1764,0.170043,1438.58,-811.575)">
                        <path d="M-53.937,5304C-53.937,5303.48 -54.413,5303.05 -55,5303.05L-473,5303.05C-473.587,5303.05 -474.063,5303.48 -474.063,5304L-474.063,5676.44C-474.063,5676.96 -473.587,5677.38 -473,5677.38L-55,5677.38C-54.413,5677.38 -53.937,5676.96 -53.937,5676.44L-53.937,5304ZM-471.937,5675.49L-56.063,5675.49L-56.063,5304.95L-471.937,5304.95L-471.937,5675.49Z" style="fill:white;fill-opacity:0.1;"/>
                    </g>
                    <g transform="matrix(0.27757,0.08579,-0.1764,0.170043,1438.58,-811.575)">
                        <rect x="-473" y="5304" width="418" height="372.437" style="fill:white;fill-opacity:0.05;"/>
                    </g>
                    <g transform="matrix(0.27757,0.08579,-0.1764,0.170043,1616.05,-887.694)">
                        <path d="M-53.937,5304C-53.937,5303.48 -54.413,5303.05 -55,5303.05L-473,5303.05C-473.587,5303.05 -474.063,5303.48 -474.063,5304L-474.063,5676.44C-474.063,5676.96 -473.587,5677.38 -473,5677.38L-55,5677.38C-54.413,5677.38 -53.937,5676.96 -53.937,5676.44L-53.937,5304ZM-471.937,5675.49L-56.063,5675.49L-56.063,5304.95L-471.937,5304.95L-471.937,5675.49Z" style="fill:white;fill-opacity:0.1;"/>
                    </g>
                    <g transform="matrix(0.27757,0.08579,-0.1764,0.170043,1616.05,-887.694)">
                        <rect x="-473" y="5304" width="418" height="372.437" style="fill:white;fill-opacity:0.05;"/>
                    </g>
                    <g transform="matrix(0.27757,0.08579,-0.1764,0.170043,1787.23,-731.433)">
                        <path d="M-53.937,5304C-53.937,5303.48 -54.413,5303.05 -55,5303.05L-473,5303.05C-473.587,5303.05 -474.063,5303.48 -474.063,5304L-474.063,5676.44C-474.063,5676.96 -473.587,5677.38 -473,5677.38L-55,5677.38C-54.413,5677.38 -53.937,5676.96 -53.937,5676.44L-53.937,5304ZM-471.937,5675.49L-56.063,5675.49L-56.063,5304.95L-471.937,5304.95L-471.937,5675.49Z" style="fill:white;fill-opacity:0.1;"/>
                    </g>
                    <g transform="matrix(0.27757,0.08579,-0.1764,0.170043,1787.23,-731.433)">
                        <rect x="-473" y="5304" width="418" height="372.437" style="fill:white;fill-opacity:0.05;"/>
                    </g>
                    <g transform="matrix(0.527915,0.163166,-0.335498,0.323408,2180.19,-1489.23)">
                        <path d="M-54.451,5304C-54.451,5303.73 -54.697,5303.51 -55,5303.51L-473,5303.51C-473.303,5303.51 -473.549,5303.73 -473.549,5304L-473.549,5676.44C-473.549,5676.71 -473.303,5676.93 -473,5676.93L-55,5676.93C-54.697,5676.93 -54.451,5676.71 -54.451,5676.44L-54.451,5304ZM-472.451,5675.95L-55.549,5675.95L-55.549,5304.49L-472.451,5304.49L-472.451,5675.95Z" style="fill:white;fill-opacity:0.1;"/>
                    </g>
                    <g transform="matrix(0.527915,0.163166,-0.335498,0.323408,2180.19,-1489.23)">
                        <rect x="-473" y="5304" width="418" height="372.437" style="fill:white;fill-opacity:0.05;"/>
                    </g>
                    <g transform="matrix(0.850715,0.262935,-0.540643,0.521159,3260.61,-2718.45)">
                        <path d="M-54.451,5304C-54.451,5303.73 -54.697,5303.51 -55,5303.51L-473,5303.51C-473.303,5303.51 -473.549,5303.73 -473.549,5304L-473.549,5676.44C-473.549,5676.71 -473.303,5676.93 -473,5676.93L-55,5676.93C-54.697,5676.93 -54.451,5676.71 -54.451,5676.44L-54.451,5304ZM-472.451,5675.95L-55.549,5675.95L-55.549,5304.49L-472.451,5304.49L-472.451,5675.95Z" style="fill:white;fill-opacity:0.1;"/>
                    </g>
                    <g transform="matrix(0.850715,0.262935,-0.540643,0.521159,3260.61,-2718.45)">
                        <rect x="-473" y="5304" width="418" height="372.437" style="fill:white;fill-opacity:0.05;"/>
                    </g>
                    <g transform="matrix(0.527915,0.163166,-0.335498,0.323408,2311.98,-1714.38)">
                        <path d="M-54.451,5304C-54.451,5303.73 -54.697,5303.51 -55,5303.51L-473,5303.51C-473.303,5303.51 -473.549,5303.73 -473.549,5304L-473.549,5676.44C-473.549,5676.71 -473.303,5676.93 -473,5676.93L-55,5676.93C-54.697,5676.93 -54.451,5676.71 -54.451,5676.44L-54.451,5304ZM-472.451,5675.95L-55.549,5675.95L-55.549,5304.49L-472.451,5304.49L-472.451,5675.95Z" style="fill:white;fill-opacity:0.2;"/>
                    </g>
                    <g transform="matrix(0.527915,0.163166,-0.335498,0.323408,2311.98,-1714.38)">
                        <rect x="-473" y="5304" width="418" height="372.437" style="fill:white;fill-opacity:0.1;"/>
                    </g>
                </g>
            </g>
        </g>
    </g>
</svg>
