<?xml version="1.0" encoding="UTF-8" standalone="no"?>
<!DOCTYPE svg PUBLIC "-//W3C//DTD SVG 1.1//EN" "http://www.w3.org/Graphics/SVG/1.1/DTD/svg11.dtd">
<svg width="100%" height="100%" viewBox="0 0 30 25" version="1.1" xmlns="http://www.w3.org/2000/svg" xmlns:xlink="http://www.w3.org/1999/xlink" xml:space="preserve" xmlns:serif="http://www.serif.com/" style="fill-rule:evenodd;clip-rule:evenodd;stroke-linejoin:round;stroke-miterlimit:2;">
    <g transform="matrix(1,0,0,1,-1026.69,-6629.73)">
        <g transform="matrix(0.955596,0,0,1.69433,410.817,2738.35)">
            <g transform="matrix(1.22723,0,0,0.692155,644.493,2298.32)">
                <path d="M0,15.878C2.294,17.349 5.019,18.207 7.947,18.207C17.572,18.207 23.01,10.077 22.683,2.786C23.695,2.055 24.574,1.143 25.269,0.102C24.339,0.514 23.34,0.793 22.292,0.918C23.362,0.277 24.184,-0.739 24.571,-1.95C23.569,-1.356 22.459,-0.924 21.279,-0.691C20.333,-1.699 18.986,-2.329 17.494,-2.329C14.148,-2.329 11.689,0.794 12.445,4.037C8.136,3.821 4.316,1.757 1.76,-1.38C0.401,0.951 1.055,4 3.364,5.542C2.514,5.515 1.713,5.281 1.015,4.893C0.959,7.296 2.68,9.541 5.173,10.042C4.443,10.241 3.644,10.286 2.833,10.131C3.491,12.191 5.406,13.689 7.675,13.732C5.496,15.441 2.75,16.203 0,15.878" style="fill:white;fill-rule:nonzero;"/>
            </g>
        </g>
    </g>
</svg>
