<?xml version="1.0" encoding="UTF-8" standalone="no"?>
<!DOCTYPE svg PUBLIC "-//W3C//DTD SVG 1.1//EN" "http://www.w3.org/Graphics/SVG/1.1/DTD/svg11.dtd">
<svg width="100%" height="100%" viewBox="0 0 378 310" version="1.1" xmlns="http://www.w3.org/2000/svg" xmlns:xlink="http://www.w3.org/1999/xlink" xml:space="preserve" xmlns:serif="http://www.serif.com/" style="fill-rule:evenodd;clip-rule:evenodd;stroke-linecap:round;stroke-linejoin:bevel;stroke-miterlimit:2;">
    <g transform="matrix(1,0,0,1,-1245.73,-5699.87)">
        <g transform="matrix(1.5,0,0,2.74808,0,160.87)">
            <g transform="matrix(1,0,0,1.02505,-163.51,121.54)">
                <g transform="matrix(0,-0.675156,-1.26791,0,1111.89,1847.76)">
                    <path d="M-81.498,-81.498C-126.507,-81.498 -162.996,-45.011 -162.996,0.001C-162.996,45.01 -126.507,81.498 -81.498,81.498C-36.488,81.498 0.001,45.01 0.001,0.001C0.001,-45.011 -36.488,-81.498 -81.498,-81.498" style="fill:rgb(247,245,255);fill-rule:nonzero;"/>
                </g>
                <g transform="matrix(0.666667,0,0,0.354997,1017.74,1829.55)">
                    <g transform="matrix(1,0,0,1,-1422.38,-5415.46)">
                        <path d="M1426.06,5488.31C1431.46,5481.25 1440.35,5476.77 1449.19,5476.77C1463.78,5476.77 1475.5,5487.16 1476.77,5501.77" style="fill:none;stroke:black;stroke-width:4px;"/>
                    </g>
                    <g transform="matrix(1,0,0,1,-1422.38,-5419.46)">
                        <path d="M1469.75,5506.9C1469.84,5506.9 1469.94,5506.89 1470.03,5506.88C1474.23,5506.24 1478.6,5506.84 1478.85,5506.88C1487.63,5508.54 1494.23,5516.62 1494.23,5525.68C1494.23,5536.09 1485.76,5544.57 1475.35,5544.57L1465.94,5544.57" style="fill:none;stroke:black;stroke-width:4px;stroke-linejoin:round;"/>
                    </g>
                    <g transform="matrix(1,0,0,1,-1422.38,-5419.46)">
                        <path d="M1448.77,5544.57L1445.77,5544.57" style="fill:none;stroke:black;stroke-width:4px;"/>
                    </g>
                    <g transform="matrix(1,0,0,1,-1422.38,-5419.46)">
                        <path d="M1438.77,5544.57L1409.19,5544.57C1397.93,5544.57 1388.77,5535.4 1388.77,5524.14C1388.77,5516.32 1393.86,5508.2 1400.88,5504.83L1401.95,5504.32L1401.95,5503.13C1401.95,5502.89 1401.96,5502.65 1401.98,5502.41L1402,5502.11L1401.97,5501.71C1401.96,5501.56 1401.95,5501.4 1401.95,5501.25C1401.95,5493.98 1407.87,5488.07 1415.13,5488.07C1415.71,5488.07 1416.29,5488.12 1416.86,5488.19C1417.01,5488.21 1417.16,5488.24 1417.3,5488.26C1417.8,5488.34 1418.3,5488.45 1418.79,5488.59C1418.85,5488.61 1418.92,5488.63 1418.99,5488.65C1419.52,5488.81 1420.05,5489.02 1420.56,5489.25C1420.69,5489.31 1420.82,5489.38 1420.95,5489.44C1421.4,5489.66 1421.85,5489.91 1422.28,5490.19C1425.91,5492.54 1428.32,5496.61 1428.32,5501.25" style="fill:none;stroke:black;stroke-width:4px;stroke-linejoin:round;stroke-miterlimit:30;"/>
                    </g>
                </g>
                <g transform="matrix(0.258625,0,0,0.137717,1082.55,1883.01)">
                    <path d="M0,201.766L23.287,201.766C27.43,201.766 30.787,198.409 30.787,194.266C30.787,190.124 27.43,186.766 23.287,186.766L0,186.766L0,67.649L23.288,67.649C27.431,67.649 30.788,64.291 30.788,60.149C30.788,56.007 27.431,52.649 23.288,52.649L0.193,52.649C3.144,-4.772 39.782,-53.434 90.677,-73.926C84.525,-67.483 78.786,-59.874 73.562,-51.168C55.651,-21.316 45.787,18.217 45.787,60.149L45.787,320.883L0,320.883L0,201.766ZM-60.787,67.649L-15,67.649L-15,186.766L-60.787,186.766L-60.787,67.649ZM-121.576,67.649L-75.788,67.649L-75.788,186.766L-121.576,186.766L-121.576,67.649ZM288.744,52.649L243.042,52.649C241.938,13.521 232.214,-23.102 215.375,-51.168C210.151,-59.875 204.412,-67.483 198.26,-73.926C249.155,-53.433 285.793,-4.772 288.744,52.649M243.15,67.649L288.937,67.649L288.937,320.883L243.15,320.883L243.15,67.649ZM182.362,201.766L228.15,201.766L228.15,320.883L182.362,320.883L182.362,201.766ZM121.575,201.766L167.362,201.766L167.362,320.883L121.575,320.883L121.575,201.766ZM60.787,201.766L106.575,201.766L106.575,320.883L60.787,320.883L60.787,201.766ZM124.482,-80.09C121.157,-72.195 118.228,-61.803 115.623,-48.779C110.145,-21.389 106.978,14.387 106.612,52.65L60.901,52.65C61.985,16.229 70.949,-17.658 86.425,-43.449C97.262,-61.513 110.356,-74.012 124.482,-80.09M182.325,52.649C181.958,14.386 178.792,-21.39 173.314,-48.78C170.709,-61.804 167.78,-72.196 164.455,-80.091C178.581,-74.013 191.674,-61.514 202.512,-43.451C217.988,-17.659 226.952,16.227 228.036,52.648L182.325,52.648L182.325,52.649ZM144.468,-84.148C146.048,-82.94 153.06,-75.823 159.364,-41.904C164.181,-15.983 166.976,17.35 167.323,52.649L121.613,52.649C121.961,17.35 124.755,-15.983 129.572,-41.904C135.876,-75.824 142.889,-82.94 144.468,-84.148M228.15,186.766L60.787,186.766L60.787,67.649L228.15,67.649L228.15,186.766ZM306.38,320.883L303.938,320.883L303.938,60.149C303.938,-20.282 244.08,-86.985 166.574,-97.78C168.355,-101.208 169.368,-105.096 169.368,-109.218C169.367,-122.948 158.198,-134.117 144.468,-134.117C137.724,-134.117 131.409,-131.465 126.689,-126.649C123.789,-123.691 123.836,-118.942 126.794,-116.043C129.751,-113.144 134.501,-113.189 137.399,-116.148C139.276,-118.063 141.787,-119.117 144.467,-119.117C149.925,-119.117 154.365,-114.677 154.365,-109.218C154.365,-103.76 149.925,-99.32 144.467,-99.32C59.05,-99.32 -10.89,-31.814 -14.82,52.649L-129.076,52.649C-133.219,52.649 -136.576,56.007 -136.576,60.149L-136.576,194.266C-136.576,198.409 -133.219,201.766 -129.076,201.766L-15.001,201.766L-15.001,320.883L-17.443,320.883C-21.586,320.883 -24.943,324.242 -24.943,328.383C-24.943,332.525 -21.586,335.883 -17.443,335.883L306.379,335.883C310.522,335.883 313.878,332.525 313.878,328.383C313.878,324.242 310.522,320.883 306.38,320.883" style="fill-rule:nonzero;"/>
                </g>
                <g transform="matrix(0.682567,0,0,0.0955762,7.19948,1383.33)">
                    <rect x="1566.16" y="5695" width="127.584" height="26" style="fill:rgb(129,110,245);stroke:rgb(129,110,245);stroke-width:5.46px;stroke-linejoin:round;stroke-miterlimit:1;"/>
                </g>
                <g transform="matrix(0.258625,0,0,0.137717,1044.62,1854.34)">
                    <g transform="matrix(1,0,0,1,764.393,212.488)">
                        <path d="M0,-157.589C-4.723,-167.039 -14.375,-173.004 -24.937,-173.004C-33.712,-173.004 -41.973,-168.873 -47.241,-161.849L-66.641,-140.018L-67.539,-140.818C-67.772,-141.385 -68.027,-141.946 -68.303,-142.497C-71.399,-148.694 -76.958,-153.308 -83.624,-155.21L-109.876,-162.712C-133.13,-169.357 -153.267,-187.171 -166.682,-207.293L-166.682,-179.295C-166.682,-164.966 -164.192,-150.825 -159.397,-137.478C-165.315,-135.779 -171.326,-134.428 -177.399,-133.446C-185.603,-132.116 -193.915,-131.441 -202.254,-131.441L-242.533,-131.441L-223.051,-100.269L-211.424,-81.665C-198.456,-60.92 -175.716,-48.316 -151.257,-48.316L-144.118,-48.316C-143.78,-48.316 -143.448,-48.316 -143.11,-48.321L-200.736,16.911C-206.015,22.19 -204.176,31.137 -197.251,33.905L-169.575,47.574C-164.245,49.704 -158.197,47.117 -156.067,41.787L-135.51,-6.753L-93.947,-6.753C-53.776,-6.753 -18.095,-39.318 -18.095,-79.488L-18.095,-110.66C-18.095,-122.136 -8.79,-131.441 2.687,-131.441L13.077,-131.441L0,-157.589Z" style="fill:rgb(86,227,255);fill-rule:nonzero;"/>
                    </g>
                    <g transform="matrix(1,0,0,1,-12.8887,-18.0441)">
                        <g transform="matrix(1,0,0,1,746.168,55.0699)">
                            <path d="M0,10.391C2.867,10.391 5.195,8.063 5.195,5.196C5.195,2.328 2.867,0 0,0C-2.868,0 -5.196,2.328 -5.196,5.196C-5.196,8.063 -2.868,10.391 0,10.391" style="fill-rule:nonzero;"/>
                        </g>
                        <g transform="matrix(-1,0,0,1,649.535,190.149)">
                            <path d="M0,-10.391C2.867,-10.391 5.195,-8.063 5.195,-5.196C5.195,-2.328 2.867,0 0,0C-2.868,0 -5.195,-2.328 -5.195,-5.196C-5.195,-8.063 -2.868,-10.391 0,-10.391" style="fill-rule:nonzero;"/>
                        </g>
                        <g transform="matrix(1,0,0,1,665.121,133.001)">
                            <path d="M0,51.952C0,54.822 2.326,57.148 5.195,57.148C36.707,57.148 62.344,31.511 62.344,-0.001C62.344,-2.87 60.019,-5.196 57.148,-5.196C54.279,-5.196 51.953,-2.87 51.953,-0.001C51.953,25.781 30.978,46.757 5.195,46.757C2.326,46.757 0,49.083 0,51.952" style="fill-rule:nonzero;"/>
                        </g>
                        <g transform="matrix(1,0,0,1,559.113,181.746)">
                            <path d="M0,-95.142C8.563,-95.142 17.205,-95.839 25.685,-97.214C43.153,-100.038 50.492,-103.886 57.283,-104.986C67.153,-106.583 77.233,-104.609 85.7,-99.529L126.415,-75.101C128.875,-73.624 132.066,-74.422 133.543,-76.882C135.02,-79.342 134.223,-82.534 131.763,-84.011L124.372,-88.444C160.873,-129.527 158.923,-127.299 159.17,-127.628C163.432,-133.311 170.216,-136.705 177.316,-136.705C185.966,-136.705 193.741,-131.899 197.607,-124.162L206.924,-105.533L204.94,-105.533C190.616,-105.533 178.963,-93.879 178.963,-79.556L178.963,-48.384C178.963,-11.774 146.606,19.155 108.307,19.155L66.744,19.155C51.942,19.155 38.638,27.379 32.022,40.616L30.926,42.808C29.643,45.375 30.684,48.495 33.25,49.778C35.816,51.062 38.938,50.021 40.22,47.455C40.824,46.65 44.764,34.945 58.375,30.791L41.403,70.864C41.39,70.897 41.376,70.929 41.362,70.962C40.332,73.542 37.426,74.88 34.767,73.914C5.521,59.476 7.284,60.324 6.933,60.185C3.461,58.796 2.548,54.332 5.191,51.688C5.371,51.508 16.223,39.212 61.552,-12.096C80.609,-12.943 98.44,-20.779 111.981,-34.32C114.01,-36.349 114.01,-39.639 111.981,-41.668C109.952,-43.697 106.663,-43.697 104.634,-41.668C81.508,-18.54 54.055,-22.93 50.997,-22.408C28.179,-22.408 7.333,-33.961 -4.764,-53.314L-8.086,-58.63L-4.335,-57.166C19.451,-47.885 49.152,-51.192 69.626,-64.842C72.014,-66.434 72.658,-69.66 71.067,-72.047C69.476,-74.434 66.25,-75.08 63.862,-73.488C45.879,-61.497 19.99,-58.829 -0.559,-66.846L-17.305,-73.379L-30.905,-95.142L0,-95.142ZM40.768,-160.706C55.085,-143.935 72.799,-131.799 90.95,-126.612L117.205,-119.109C122.325,-117.648 126.641,-114.129 129.115,-109.423L115.306,-93.884L91.046,-108.439C80.537,-114.744 68.031,-117.252 55.621,-115.243C51.722,-114.611 49.232,-113.817 46.17,-112.826C42.585,-124.277 40.768,-136.15 40.768,-148.191L40.768,-160.706ZM-44.823,-102.855C-45.738,-101.204 -45.686,-99.185 -44.685,-97.584L-13.574,-47.807C-0.282,-26.542 22.61,-13.198 47.689,-12.099L-2.28,44.467C-9.979,52.339 -7.303,65.515 2.867,69.749L30.378,83.336C30.5,83.397 30.625,83.452 30.751,83.502C38.707,86.682 47.777,82.821 50.988,74.874L70.187,29.546L108.307,29.546C152.239,29.546 189.354,-6.142 189.354,-48.384L189.354,-79.556C189.354,-88.15 196.346,-95.142 204.94,-95.142L215.331,-95.142C217.131,-95.142 218.804,-96.074 219.75,-97.606C220.697,-99.138 220.782,-101.051 219.978,-102.661L206.901,-128.808C201.265,-140.088 189.929,-147.095 177.316,-147.095C167.037,-147.095 157.215,-142.22 150.992,-134.042L136.316,-117.527C132.405,-123.09 126.667,-127.216 120.058,-129.101L93.806,-136.603C73.709,-142.346 54.06,-157.825 39.896,-179.071C38.625,-180.975 36.259,-181.824 34.067,-181.162C31.876,-180.498 30.377,-178.478 30.377,-176.189L30.377,-148.191C30.377,-135.18 32.326,-122.348 36.176,-109.967C32.141,-108.965 28.072,-108.125 24.023,-107.471C16.09,-106.184 8.008,-105.533 0,-105.533L-40.279,-105.533C-42.168,-105.533 -43.907,-104.508 -44.823,-102.855" style="fill-rule:nonzero;"/>
                        </g>
                    </g>
                </g>
                <g transform="matrix(0.421505,0,0,0.22445,1204.17,1900.92)">
                    <g>
                        <g transform="matrix(1,0,0,1,-1422.38,-5415.46)">
                            <path d="M1426.06,5488.31C1431.46,5481.25 1440.35,5476.77 1449.19,5476.77C1463.78,5476.77 1475.5,5487.16 1476.77,5501.77" style="fill:none;stroke:black;stroke-width:6.33px;"/>
                        </g>
                        <g transform="matrix(1,0,0,1,-1422.38,-5419.46)">
                            <path d="M1469.75,5506.9C1469.84,5506.9 1469.94,5506.89 1470.03,5506.88C1474.23,5506.24 1478.6,5506.84 1478.85,5506.88C1487.63,5508.54 1494.23,5516.62 1494.23,5525.68C1494.23,5536.09 1485.76,5544.57 1475.35,5544.57L1465.94,5544.57" style="fill:none;stroke:black;stroke-width:6.33px;stroke-linejoin:round;"/>
                        </g>
                        <g transform="matrix(1,0,0,1,-1422.38,-5419.46)">
                            <path d="M1448.77,5544.57L1445.77,5544.57" style="fill:none;stroke:black;stroke-width:6.33px;"/>
                        </g>
                        <g transform="matrix(1,0,0,1,-1422.38,-5419.46)">
                            <path d="M1438.77,5544.57L1409.19,5544.57C1397.93,5544.57 1388.77,5535.4 1388.77,5524.14C1388.77,5516.32 1393.86,5508.2 1400.88,5504.83L1401.95,5504.32L1401.95,5503.13C1401.95,5502.89 1401.96,5502.65 1401.98,5502.41L1402,5502.11L1401.97,5501.71C1401.96,5501.56 1401.95,5501.4 1401.95,5501.25C1401.95,5493.98 1407.87,5488.07 1415.13,5488.07C1415.71,5488.07 1416.29,5488.12 1416.86,5488.19C1417.01,5488.21 1417.16,5488.24 1417.3,5488.26C1417.8,5488.34 1418.3,5488.45 1418.79,5488.59C1418.85,5488.61 1418.92,5488.63 1418.99,5488.65C1419.52,5488.81 1420.05,5489.02 1420.56,5489.25C1420.69,5489.31 1420.82,5489.38 1420.95,5489.44C1421.4,5489.66 1421.85,5489.91 1422.28,5490.19C1425.91,5492.54 1428.32,5496.61 1428.32,5501.25" style="fill:none;stroke:black;stroke-width:6.33px;stroke-linejoin:round;stroke-miterlimit:30;"/>
                        </g>
                    </g>
                </g>
            </g>
        </g>
    </g>
</svg>
