<?xml version="1.0" encoding="UTF-8" standalone="no"?>
<!DOCTYPE svg PUBLIC "-//W3C//DTD SVG 1.1//EN" "http://www.w3.org/Graphics/SVG/1.1/DTD/svg11.dtd">
<svg width="100%" height="100%" viewBox="0 0 1764 459" version="1.1" xmlns="http://www.w3.org/2000/svg" xmlns:xlink="http://www.w3.org/1999/xlink" xml:space="preserve" xmlns:serif="http://www.serif.com/" style="fill-rule:evenodd;clip-rule:evenodd;stroke-linecap:round;stroke-linejoin:round;stroke-miterlimit:10;">
    <g transform="matrix(1.5,0,0,2.74808,-60.88,-72.0217)">
        <g>
            <g id="éléments">
                <g id="éléments-middle">
                    <g id="Mode-Isolation" serif:id="Mode Isolation" transform="matrix(0.666667,0,0,0.363891,1032.49,172.374)">
                        <g transform="matrix(1.5154,-0.267206,0.267206,1.5154,-11.5005,-33.3742)">
                            <path d="M0,33.331C2.007,31.324 4.835,34.152 6.843,32.145C8.851,30.138 6.022,27.309 8.03,25.301C10.039,23.292 12.868,26.12 14.877,24.111C16.886,22.102 14.058,19.273 16.066,17.265C18.075,15.256 20.903,18.084 22.913,16.075C24.923,14.065 22.094,11.237 24.104,9.227C26.111,7.219 28.94,10.048 30.948,8.039C32.959,6.029 30.131,3.2 32.141,1.19C34.152,-0.821 36.98,2.007 38.992,-0.005" style="fill:none;fill-rule:nonzero;stroke:rgb(249,249,249);stroke-width:2.6px;"/>
                        </g>
                        <g transform="matrix(1.5154,-0.267206,0.267206,1.5154,-1117.63,-338.871)">
                            <path d="M0,33.331C2.007,31.324 4.835,34.152 6.843,32.145C8.851,30.138 6.022,27.309 8.03,25.301C10.039,23.292 12.868,26.12 14.877,24.111C16.886,22.102 14.058,19.273 16.066,17.265C18.075,15.256 20.903,18.084 22.913,16.075C24.923,14.065 22.094,11.237 24.104,9.227C26.111,7.219 28.94,10.048 30.948,8.039C32.959,6.029 30.131,3.2 32.141,1.19C34.152,-0.821 36.98,2.007 38.992,-0.005" style="fill:none;fill-rule:nonzero;stroke:rgb(249,249,249);stroke-width:2.6px;"/>
                        </g>
                    </g>
                    <g id="rect-point" transform="matrix(0.445701,0.140458,-0.257326,0.24328,-1876.07,-953.178)">
                        <rect x="6736" y="136.726" width="224.73" height="224.73" style="fill:none;"/>
                        <g transform="matrix(0.366574,4.04801e-18,6.96334e-15,0.624824,4728.14,-332.267)">
                            <g transform="matrix(98.4092,0,0,57.7351,5519.79,792.415)">
                                <path d="M0.157,0.012C0.137,0.012 0.12,0.006 0.105,-0.007C0.09,-0.02 0.083,-0.039 0.083,-0.062C0.083,-0.082 0.09,-0.099 0.104,-0.113C0.118,-0.128 0.135,-0.135 0.156,-0.135C0.176,-0.135 0.194,-0.128 0.208,-0.114C0.223,-0.099 0.23,-0.082 0.23,-0.062C0.23,-0.039 0.223,-0.021 0.208,-0.008C0.194,0.006 0.177,0.012 0.157,0.012Z" style="fill:white;fill-rule:nonzero;"/>
                            </g>
                            <g transform="matrix(98.4092,0,0,57.7351,5590.94,792.415)">
                                <path d="M0.157,0.012C0.137,0.012 0.12,0.006 0.105,-0.007C0.09,-0.02 0.083,-0.039 0.083,-0.062C0.083,-0.082 0.09,-0.099 0.104,-0.113C0.118,-0.128 0.135,-0.135 0.156,-0.135C0.176,-0.135 0.194,-0.128 0.208,-0.114C0.223,-0.099 0.23,-0.082 0.23,-0.062C0.23,-0.039 0.223,-0.021 0.208,-0.008C0.194,0.006 0.177,0.012 0.157,0.012Z" style="fill:white;fill-rule:nonzero;"/>
                            </g>
                            <g transform="matrix(98.4092,0,0,57.7351,5662.08,792.415)">
                                <path d="M0.157,0.012C0.137,0.012 0.12,0.006 0.105,-0.007C0.09,-0.02 0.083,-0.039 0.083,-0.062C0.083,-0.082 0.09,-0.099 0.104,-0.113C0.118,-0.128 0.135,-0.135 0.156,-0.135C0.176,-0.135 0.194,-0.128 0.208,-0.114C0.223,-0.099 0.23,-0.082 0.23,-0.062C0.23,-0.039 0.223,-0.021 0.208,-0.008C0.194,0.006 0.177,0.012 0.157,0.012Z" style="fill:white;fill-rule:nonzero;"/>
                            </g>
                            <g transform="matrix(98.4092,0,0,57.7351,5733.23,792.415)">
                                <path d="M0.157,0.012C0.137,0.012 0.12,0.006 0.105,-0.007C0.09,-0.02 0.083,-0.039 0.083,-0.062C0.083,-0.082 0.09,-0.099 0.104,-0.113C0.118,-0.128 0.135,-0.135 0.156,-0.135C0.176,-0.135 0.194,-0.128 0.208,-0.114C0.223,-0.099 0.23,-0.082 0.23,-0.062C0.23,-0.039 0.223,-0.021 0.208,-0.008C0.194,0.006 0.177,0.012 0.157,0.012Z" style="fill:white;fill-rule:nonzero;"/>
                            </g>
                            <g transform="matrix(98.4092,0,0,57.7351,5804.38,792.415)">
                                <path d="M0.157,0.012C0.137,0.012 0.12,0.006 0.105,-0.007C0.09,-0.02 0.083,-0.039 0.083,-0.062C0.083,-0.082 0.09,-0.099 0.104,-0.113C0.118,-0.128 0.135,-0.135 0.156,-0.135C0.176,-0.135 0.194,-0.128 0.208,-0.114C0.223,-0.099 0.23,-0.082 0.23,-0.062C0.23,-0.039 0.223,-0.021 0.208,-0.008C0.194,0.006 0.177,0.012 0.157,0.012Z" style="fill:white;fill-rule:nonzero;"/>
                            </g>
                            <g transform="matrix(98.4092,0,0,57.7351,5875.53,792.415)">
                                <path d="M0.157,0.012C0.137,0.012 0.12,0.006 0.105,-0.007C0.09,-0.02 0.083,-0.039 0.083,-0.062C0.083,-0.082 0.09,-0.099 0.104,-0.113C0.118,-0.128 0.135,-0.135 0.156,-0.135C0.176,-0.135 0.194,-0.128 0.208,-0.114C0.223,-0.099 0.23,-0.082 0.23,-0.062C0.23,-0.039 0.223,-0.021 0.208,-0.008C0.194,0.006 0.177,0.012 0.157,0.012Z" style="fill:white;fill-rule:nonzero;"/>
                            </g>
                            <g transform="matrix(98.4092,0,0,57.7351,5946.68,792.415)">
                                <path d="M0.157,0.012C0.137,0.012 0.12,0.006 0.105,-0.007C0.09,-0.02 0.083,-0.039 0.083,-0.062C0.083,-0.082 0.09,-0.099 0.104,-0.113C0.118,-0.128 0.135,-0.135 0.156,-0.135C0.176,-0.135 0.194,-0.128 0.208,-0.114C0.223,-0.099 0.23,-0.082 0.23,-0.062C0.23,-0.039 0.223,-0.021 0.208,-0.008C0.194,0.006 0.177,0.012 0.157,0.012Z" style="fill:white;fill-rule:nonzero;"/>
                            </g>
                            <g transform="matrix(98.4092,0,0,57.7351,6017.83,792.415)">
                                <path d="M0.157,0.012C0.137,0.012 0.12,0.006 0.105,-0.007C0.09,-0.02 0.083,-0.039 0.083,-0.062C0.083,-0.082 0.09,-0.099 0.104,-0.113C0.118,-0.128 0.135,-0.135 0.156,-0.135C0.176,-0.135 0.194,-0.128 0.208,-0.114C0.223,-0.099 0.23,-0.082 0.23,-0.062C0.23,-0.039 0.223,-0.021 0.208,-0.008C0.194,0.006 0.177,0.012 0.157,0.012Z" style="fill:white;fill-rule:nonzero;"/>
                            </g>
                            <g transform="matrix(98.4092,0,0,57.7351,5519.79,833.654)">
                                <path d="M0.157,0.012C0.137,0.012 0.12,0.006 0.105,-0.007C0.09,-0.02 0.083,-0.039 0.083,-0.062C0.083,-0.082 0.09,-0.099 0.104,-0.113C0.118,-0.128 0.135,-0.135 0.156,-0.135C0.176,-0.135 0.194,-0.128 0.208,-0.114C0.223,-0.099 0.23,-0.082 0.23,-0.062C0.23,-0.039 0.223,-0.021 0.208,-0.008C0.194,0.006 0.177,0.012 0.157,0.012Z" style="fill:white;fill-rule:nonzero;"/>
                            </g>
                            <g transform="matrix(98.4092,0,0,57.7351,5590.94,833.654)">
                                <path d="M0.157,0.012C0.137,0.012 0.12,0.006 0.105,-0.007C0.09,-0.02 0.083,-0.039 0.083,-0.062C0.083,-0.082 0.09,-0.099 0.104,-0.113C0.118,-0.128 0.135,-0.135 0.156,-0.135C0.176,-0.135 0.194,-0.128 0.208,-0.114C0.223,-0.099 0.23,-0.082 0.23,-0.062C0.23,-0.039 0.223,-0.021 0.208,-0.008C0.194,0.006 0.177,0.012 0.157,0.012Z" style="fill:white;fill-rule:nonzero;"/>
                            </g>
                            <g transform="matrix(98.4092,0,0,57.7351,5662.08,833.654)">
                                <path d="M0.157,0.012C0.137,0.012 0.12,0.006 0.105,-0.007C0.09,-0.02 0.083,-0.039 0.083,-0.062C0.083,-0.082 0.09,-0.099 0.104,-0.113C0.118,-0.128 0.135,-0.135 0.156,-0.135C0.176,-0.135 0.194,-0.128 0.208,-0.114C0.223,-0.099 0.23,-0.082 0.23,-0.062C0.23,-0.039 0.223,-0.021 0.208,-0.008C0.194,0.006 0.177,0.012 0.157,0.012Z" style="fill:white;fill-rule:nonzero;"/>
                            </g>
                            <g transform="matrix(98.4092,0,0,57.7351,5733.23,833.654)">
                                <path d="M0.157,0.012C0.137,0.012 0.12,0.006 0.105,-0.007C0.09,-0.02 0.083,-0.039 0.083,-0.062C0.083,-0.082 0.09,-0.099 0.104,-0.113C0.118,-0.128 0.135,-0.135 0.156,-0.135C0.176,-0.135 0.194,-0.128 0.208,-0.114C0.223,-0.099 0.23,-0.082 0.23,-0.062C0.23,-0.039 0.223,-0.021 0.208,-0.008C0.194,0.006 0.177,0.012 0.157,0.012Z" style="fill:white;fill-rule:nonzero;"/>
                            </g>
                            <g transform="matrix(98.4092,0,0,57.7351,5804.38,833.654)">
                                <path d="M0.157,0.012C0.137,0.012 0.12,0.006 0.105,-0.007C0.09,-0.02 0.083,-0.039 0.083,-0.062C0.083,-0.082 0.09,-0.099 0.104,-0.113C0.118,-0.128 0.135,-0.135 0.156,-0.135C0.176,-0.135 0.194,-0.128 0.208,-0.114C0.223,-0.099 0.23,-0.082 0.23,-0.062C0.23,-0.039 0.223,-0.021 0.208,-0.008C0.194,0.006 0.177,0.012 0.157,0.012Z" style="fill:white;fill-rule:nonzero;"/>
                            </g>
                            <g transform="matrix(98.4092,0,0,57.7351,5875.53,833.654)">
                                <path d="M0.157,0.012C0.137,0.012 0.12,0.006 0.105,-0.007C0.09,-0.02 0.083,-0.039 0.083,-0.062C0.083,-0.082 0.09,-0.099 0.104,-0.113C0.118,-0.128 0.135,-0.135 0.156,-0.135C0.176,-0.135 0.194,-0.128 0.208,-0.114C0.223,-0.099 0.23,-0.082 0.23,-0.062C0.23,-0.039 0.223,-0.021 0.208,-0.008C0.194,0.006 0.177,0.012 0.157,0.012Z" style="fill:white;fill-rule:nonzero;"/>
                            </g>
                            <g transform="matrix(98.4092,0,0,57.7351,5946.68,833.654)">
                                <path d="M0.157,0.012C0.137,0.012 0.12,0.006 0.105,-0.007C0.09,-0.02 0.083,-0.039 0.083,-0.062C0.083,-0.082 0.09,-0.099 0.104,-0.113C0.118,-0.128 0.135,-0.135 0.156,-0.135C0.176,-0.135 0.194,-0.128 0.208,-0.114C0.223,-0.099 0.23,-0.082 0.23,-0.062C0.23,-0.039 0.223,-0.021 0.208,-0.008C0.194,0.006 0.177,0.012 0.157,0.012Z" style="fill:white;fill-rule:nonzero;"/>
                            </g>
                            <g transform="matrix(98.4092,0,0,57.7351,6017.83,833.654)">
                                <path d="M0.157,0.012C0.137,0.012 0.12,0.006 0.105,-0.007C0.09,-0.02 0.083,-0.039 0.083,-0.062C0.083,-0.082 0.09,-0.099 0.104,-0.113C0.118,-0.128 0.135,-0.135 0.156,-0.135C0.176,-0.135 0.194,-0.128 0.208,-0.114C0.223,-0.099 0.23,-0.082 0.23,-0.062C0.23,-0.039 0.223,-0.021 0.208,-0.008C0.194,0.006 0.177,0.012 0.157,0.012Z" style="fill:white;fill-rule:nonzero;"/>
                            </g>
                            <g transform="matrix(98.4092,0,0,57.7351,5519.79,874.894)">
                                <path d="M0.157,0.012C0.137,0.012 0.12,0.006 0.105,-0.007C0.09,-0.02 0.083,-0.039 0.083,-0.062C0.083,-0.082 0.09,-0.099 0.104,-0.113C0.118,-0.128 0.135,-0.135 0.156,-0.135C0.176,-0.135 0.194,-0.128 0.208,-0.114C0.223,-0.099 0.23,-0.082 0.23,-0.062C0.23,-0.039 0.223,-0.021 0.208,-0.008C0.194,0.006 0.177,0.012 0.157,0.012Z" style="fill:white;fill-rule:nonzero;"/>
                            </g>
                            <g transform="matrix(98.4092,0,0,57.7351,5590.94,874.894)">
                                <path d="M0.157,0.012C0.137,0.012 0.12,0.006 0.105,-0.007C0.09,-0.02 0.083,-0.039 0.083,-0.062C0.083,-0.082 0.09,-0.099 0.104,-0.113C0.118,-0.128 0.135,-0.135 0.156,-0.135C0.176,-0.135 0.194,-0.128 0.208,-0.114C0.223,-0.099 0.23,-0.082 0.23,-0.062C0.23,-0.039 0.223,-0.021 0.208,-0.008C0.194,0.006 0.177,0.012 0.157,0.012Z" style="fill:white;fill-rule:nonzero;"/>
                            </g>
                            <g transform="matrix(98.4092,0,0,57.7351,5662.08,874.894)">
                                <path d="M0.157,0.012C0.137,0.012 0.12,0.006 0.105,-0.007C0.09,-0.02 0.083,-0.039 0.083,-0.062C0.083,-0.082 0.09,-0.099 0.104,-0.113C0.118,-0.128 0.135,-0.135 0.156,-0.135C0.176,-0.135 0.194,-0.128 0.208,-0.114C0.223,-0.099 0.23,-0.082 0.23,-0.062C0.23,-0.039 0.223,-0.021 0.208,-0.008C0.194,0.006 0.177,0.012 0.157,0.012Z" style="fill:white;fill-rule:nonzero;"/>
                            </g>
                            <g transform="matrix(98.4092,0,0,57.7351,5733.23,874.894)">
                                <path d="M0.157,0.012C0.137,0.012 0.12,0.006 0.105,-0.007C0.09,-0.02 0.083,-0.039 0.083,-0.062C0.083,-0.082 0.09,-0.099 0.104,-0.113C0.118,-0.128 0.135,-0.135 0.156,-0.135C0.176,-0.135 0.194,-0.128 0.208,-0.114C0.223,-0.099 0.23,-0.082 0.23,-0.062C0.23,-0.039 0.223,-0.021 0.208,-0.008C0.194,0.006 0.177,0.012 0.157,0.012Z" style="fill:white;fill-rule:nonzero;"/>
                            </g>
                            <g transform="matrix(98.4092,0,0,57.7351,5804.38,874.894)">
                                <path d="M0.157,0.012C0.137,0.012 0.12,0.006 0.105,-0.007C0.09,-0.02 0.083,-0.039 0.083,-0.062C0.083,-0.082 0.09,-0.099 0.104,-0.113C0.118,-0.128 0.135,-0.135 0.156,-0.135C0.176,-0.135 0.194,-0.128 0.208,-0.114C0.223,-0.099 0.23,-0.082 0.23,-0.062C0.23,-0.039 0.223,-0.021 0.208,-0.008C0.194,0.006 0.177,0.012 0.157,0.012Z" style="fill:white;fill-rule:nonzero;"/>
                            </g>
                            <g transform="matrix(98.4092,0,0,57.7351,5875.53,874.894)">
                                <path d="M0.157,0.012C0.137,0.012 0.12,0.006 0.105,-0.007C0.09,-0.02 0.083,-0.039 0.083,-0.062C0.083,-0.082 0.09,-0.099 0.104,-0.113C0.118,-0.128 0.135,-0.135 0.156,-0.135C0.176,-0.135 0.194,-0.128 0.208,-0.114C0.223,-0.099 0.23,-0.082 0.23,-0.062C0.23,-0.039 0.223,-0.021 0.208,-0.008C0.194,0.006 0.177,0.012 0.157,0.012Z" style="fill:white;fill-rule:nonzero;"/>
                            </g>
                            <g transform="matrix(98.4092,0,0,57.7351,5946.68,874.894)">
                                <path d="M0.157,0.012C0.137,0.012 0.12,0.006 0.105,-0.007C0.09,-0.02 0.083,-0.039 0.083,-0.062C0.083,-0.082 0.09,-0.099 0.104,-0.113C0.118,-0.128 0.135,-0.135 0.156,-0.135C0.176,-0.135 0.194,-0.128 0.208,-0.114C0.223,-0.099 0.23,-0.082 0.23,-0.062C0.23,-0.039 0.223,-0.021 0.208,-0.008C0.194,0.006 0.177,0.012 0.157,0.012Z" style="fill:white;fill-rule:nonzero;"/>
                            </g>
                            <g transform="matrix(98.4092,0,0,57.7351,6017.83,874.894)">
                                <path d="M0.157,0.012C0.137,0.012 0.12,0.006 0.105,-0.007C0.09,-0.02 0.083,-0.039 0.083,-0.062C0.083,-0.082 0.09,-0.099 0.104,-0.113C0.118,-0.128 0.135,-0.135 0.156,-0.135C0.176,-0.135 0.194,-0.128 0.208,-0.114C0.223,-0.099 0.23,-0.082 0.23,-0.062C0.23,-0.039 0.223,-0.021 0.208,-0.008C0.194,0.006 0.177,0.012 0.157,0.012Z" style="fill:white;fill-rule:nonzero;"/>
                            </g>
                            <g transform="matrix(98.4092,0,0,57.7351,5519.79,916.133)">
                                <path d="M0.157,0.012C0.137,0.012 0.12,0.006 0.105,-0.007C0.09,-0.02 0.083,-0.039 0.083,-0.062C0.083,-0.082 0.09,-0.099 0.104,-0.113C0.118,-0.128 0.135,-0.135 0.156,-0.135C0.176,-0.135 0.194,-0.128 0.208,-0.114C0.223,-0.099 0.23,-0.082 0.23,-0.062C0.23,-0.039 0.223,-0.021 0.208,-0.008C0.194,0.006 0.177,0.012 0.157,0.012Z" style="fill:white;fill-rule:nonzero;"/>
                            </g>
                            <g transform="matrix(98.4092,0,0,57.7351,5590.94,916.133)">
                                <path d="M0.157,0.012C0.137,0.012 0.12,0.006 0.105,-0.007C0.09,-0.02 0.083,-0.039 0.083,-0.062C0.083,-0.082 0.09,-0.099 0.104,-0.113C0.118,-0.128 0.135,-0.135 0.156,-0.135C0.176,-0.135 0.194,-0.128 0.208,-0.114C0.223,-0.099 0.23,-0.082 0.23,-0.062C0.23,-0.039 0.223,-0.021 0.208,-0.008C0.194,0.006 0.177,0.012 0.157,0.012Z" style="fill:white;fill-rule:nonzero;"/>
                            </g>
                            <g transform="matrix(98.4092,0,0,57.7351,5662.08,916.133)">
                                <path d="M0.157,0.012C0.137,0.012 0.12,0.006 0.105,-0.007C0.09,-0.02 0.083,-0.039 0.083,-0.062C0.083,-0.082 0.09,-0.099 0.104,-0.113C0.118,-0.128 0.135,-0.135 0.156,-0.135C0.176,-0.135 0.194,-0.128 0.208,-0.114C0.223,-0.099 0.23,-0.082 0.23,-0.062C0.23,-0.039 0.223,-0.021 0.208,-0.008C0.194,0.006 0.177,0.012 0.157,0.012Z" style="fill:white;fill-rule:nonzero;"/>
                            </g>
                            <g transform="matrix(98.4092,0,0,57.7351,5733.23,916.133)">
                                <path d="M0.157,0.012C0.137,0.012 0.12,0.006 0.105,-0.007C0.09,-0.02 0.083,-0.039 0.083,-0.062C0.083,-0.082 0.09,-0.099 0.104,-0.113C0.118,-0.128 0.135,-0.135 0.156,-0.135C0.176,-0.135 0.194,-0.128 0.208,-0.114C0.223,-0.099 0.23,-0.082 0.23,-0.062C0.23,-0.039 0.223,-0.021 0.208,-0.008C0.194,0.006 0.177,0.012 0.157,0.012Z" style="fill:white;fill-rule:nonzero;"/>
                            </g>
                            <g transform="matrix(98.4092,0,0,57.7351,5804.38,916.133)">
                                <path d="M0.157,0.012C0.137,0.012 0.12,0.006 0.105,-0.007C0.09,-0.02 0.083,-0.039 0.083,-0.062C0.083,-0.082 0.09,-0.099 0.104,-0.113C0.118,-0.128 0.135,-0.135 0.156,-0.135C0.176,-0.135 0.194,-0.128 0.208,-0.114C0.223,-0.099 0.23,-0.082 0.23,-0.062C0.23,-0.039 0.223,-0.021 0.208,-0.008C0.194,0.006 0.177,0.012 0.157,0.012Z" style="fill:white;fill-rule:nonzero;"/>
                            </g>
                            <g transform="matrix(98.4092,0,0,57.7351,5875.53,916.133)">
                                <path d="M0.157,0.012C0.137,0.012 0.12,0.006 0.105,-0.007C0.09,-0.02 0.083,-0.039 0.083,-0.062C0.083,-0.082 0.09,-0.099 0.104,-0.113C0.118,-0.128 0.135,-0.135 0.156,-0.135C0.176,-0.135 0.194,-0.128 0.208,-0.114C0.223,-0.099 0.23,-0.082 0.23,-0.062C0.23,-0.039 0.223,-0.021 0.208,-0.008C0.194,0.006 0.177,0.012 0.157,0.012Z" style="fill:white;fill-rule:nonzero;"/>
                            </g>
                            <g transform="matrix(98.4092,0,0,57.7351,5946.68,916.133)">
                                <path d="M0.157,0.012C0.137,0.012 0.12,0.006 0.105,-0.007C0.09,-0.02 0.083,-0.039 0.083,-0.062C0.083,-0.082 0.09,-0.099 0.104,-0.113C0.118,-0.128 0.135,-0.135 0.156,-0.135C0.176,-0.135 0.194,-0.128 0.208,-0.114C0.223,-0.099 0.23,-0.082 0.23,-0.062C0.23,-0.039 0.223,-0.021 0.208,-0.008C0.194,0.006 0.177,0.012 0.157,0.012Z" style="fill:white;fill-rule:nonzero;"/>
                            </g>
                            <g transform="matrix(98.4092,0,0,57.7351,6017.83,916.133)">
                                <path d="M0.157,0.012C0.137,0.012 0.12,0.006 0.105,-0.007C0.09,-0.02 0.083,-0.039 0.083,-0.062C0.083,-0.082 0.09,-0.099 0.104,-0.113C0.118,-0.128 0.135,-0.135 0.156,-0.135C0.176,-0.135 0.194,-0.128 0.208,-0.114C0.223,-0.099 0.23,-0.082 0.23,-0.062C0.23,-0.039 0.223,-0.021 0.208,-0.008C0.194,0.006 0.177,0.012 0.157,0.012Z" style="fill:white;fill-rule:nonzero;"/>
                            </g>
                            <g transform="matrix(98.4092,0,0,57.7351,5519.79,957.372)">
                                <path d="M0.157,0.012C0.137,0.012 0.12,0.006 0.105,-0.007C0.09,-0.02 0.083,-0.039 0.083,-0.062C0.083,-0.082 0.09,-0.099 0.104,-0.113C0.118,-0.128 0.135,-0.135 0.156,-0.135C0.176,-0.135 0.194,-0.128 0.208,-0.114C0.223,-0.099 0.23,-0.082 0.23,-0.062C0.23,-0.039 0.223,-0.021 0.208,-0.008C0.194,0.006 0.177,0.012 0.157,0.012Z" style="fill:white;fill-rule:nonzero;"/>
                            </g>
                            <g transform="matrix(98.4092,0,0,57.7351,5590.94,957.372)">
                                <path d="M0.157,0.012C0.137,0.012 0.12,0.006 0.105,-0.007C0.09,-0.02 0.083,-0.039 0.083,-0.062C0.083,-0.082 0.09,-0.099 0.104,-0.113C0.118,-0.128 0.135,-0.135 0.156,-0.135C0.176,-0.135 0.194,-0.128 0.208,-0.114C0.223,-0.099 0.23,-0.082 0.23,-0.062C0.23,-0.039 0.223,-0.021 0.208,-0.008C0.194,0.006 0.177,0.012 0.157,0.012Z" style="fill:white;fill-rule:nonzero;"/>
                            </g>
                            <g transform="matrix(98.4092,0,0,57.7351,5662.08,957.372)">
                                <path d="M0.157,0.012C0.137,0.012 0.12,0.006 0.105,-0.007C0.09,-0.02 0.083,-0.039 0.083,-0.062C0.083,-0.082 0.09,-0.099 0.104,-0.113C0.118,-0.128 0.135,-0.135 0.156,-0.135C0.176,-0.135 0.194,-0.128 0.208,-0.114C0.223,-0.099 0.23,-0.082 0.23,-0.062C0.23,-0.039 0.223,-0.021 0.208,-0.008C0.194,0.006 0.177,0.012 0.157,0.012Z" style="fill:white;fill-rule:nonzero;"/>
                            </g>
                            <g transform="matrix(98.4092,0,0,57.7351,5733.23,957.372)">
                                <path d="M0.157,0.012C0.137,0.012 0.12,0.006 0.105,-0.007C0.09,-0.02 0.083,-0.039 0.083,-0.062C0.083,-0.082 0.09,-0.099 0.104,-0.113C0.118,-0.128 0.135,-0.135 0.156,-0.135C0.176,-0.135 0.194,-0.128 0.208,-0.114C0.223,-0.099 0.23,-0.082 0.23,-0.062C0.23,-0.039 0.223,-0.021 0.208,-0.008C0.194,0.006 0.177,0.012 0.157,0.012Z" style="fill:white;fill-rule:nonzero;"/>
                            </g>
                            <g transform="matrix(98.4092,0,0,57.7351,5804.38,957.372)">
                                <path d="M0.157,0.012C0.137,0.012 0.12,0.006 0.105,-0.007C0.09,-0.02 0.083,-0.039 0.083,-0.062C0.083,-0.082 0.09,-0.099 0.104,-0.113C0.118,-0.128 0.135,-0.135 0.156,-0.135C0.176,-0.135 0.194,-0.128 0.208,-0.114C0.223,-0.099 0.23,-0.082 0.23,-0.062C0.23,-0.039 0.223,-0.021 0.208,-0.008C0.194,0.006 0.177,0.012 0.157,0.012Z" style="fill:white;fill-rule:nonzero;"/>
                            </g>
                            <g transform="matrix(98.4092,0,0,57.7351,5875.53,957.372)">
                                <path d="M0.157,0.012C0.137,0.012 0.12,0.006 0.105,-0.007C0.09,-0.02 0.083,-0.039 0.083,-0.062C0.083,-0.082 0.09,-0.099 0.104,-0.113C0.118,-0.128 0.135,-0.135 0.156,-0.135C0.176,-0.135 0.194,-0.128 0.208,-0.114C0.223,-0.099 0.23,-0.082 0.23,-0.062C0.23,-0.039 0.223,-0.021 0.208,-0.008C0.194,0.006 0.177,0.012 0.157,0.012Z" style="fill:white;fill-rule:nonzero;"/>
                            </g>
                            <g transform="matrix(98.4092,0,0,57.7351,5946.68,957.372)">
                                <path d="M0.157,0.012C0.137,0.012 0.12,0.006 0.105,-0.007C0.09,-0.02 0.083,-0.039 0.083,-0.062C0.083,-0.082 0.09,-0.099 0.104,-0.113C0.118,-0.128 0.135,-0.135 0.156,-0.135C0.176,-0.135 0.194,-0.128 0.208,-0.114C0.223,-0.099 0.23,-0.082 0.23,-0.062C0.23,-0.039 0.223,-0.021 0.208,-0.008C0.194,0.006 0.177,0.012 0.157,0.012Z" style="fill:white;fill-rule:nonzero;"/>
                            </g>
                            <g transform="matrix(98.4092,0,0,57.7351,6017.83,957.372)">
                                <path d="M0.157,0.012C0.137,0.012 0.12,0.006 0.105,-0.007C0.09,-0.02 0.083,-0.039 0.083,-0.062C0.083,-0.082 0.09,-0.099 0.104,-0.113C0.118,-0.128 0.135,-0.135 0.156,-0.135C0.176,-0.135 0.194,-0.128 0.208,-0.114C0.223,-0.099 0.23,-0.082 0.23,-0.062C0.23,-0.039 0.223,-0.021 0.208,-0.008C0.194,0.006 0.177,0.012 0.157,0.012Z" style="fill:white;fill-rule:nonzero;"/>
                            </g>
                            <g transform="matrix(98.4092,0,0,57.7351,5519.79,998.612)">
                                <path d="M0.157,0.012C0.137,0.012 0.12,0.006 0.105,-0.007C0.09,-0.02 0.083,-0.039 0.083,-0.062C0.083,-0.082 0.09,-0.099 0.104,-0.113C0.118,-0.128 0.135,-0.135 0.156,-0.135C0.176,-0.135 0.194,-0.128 0.208,-0.114C0.223,-0.099 0.23,-0.082 0.23,-0.062C0.23,-0.039 0.223,-0.021 0.208,-0.008C0.194,0.006 0.177,0.012 0.157,0.012Z" style="fill:white;fill-rule:nonzero;"/>
                            </g>
                            <g transform="matrix(98.4092,0,0,57.7351,5590.94,998.612)">
                                <path d="M0.157,0.012C0.137,0.012 0.12,0.006 0.105,-0.007C0.09,-0.02 0.083,-0.039 0.083,-0.062C0.083,-0.082 0.09,-0.099 0.104,-0.113C0.118,-0.128 0.135,-0.135 0.156,-0.135C0.176,-0.135 0.194,-0.128 0.208,-0.114C0.223,-0.099 0.23,-0.082 0.23,-0.062C0.23,-0.039 0.223,-0.021 0.208,-0.008C0.194,0.006 0.177,0.012 0.157,0.012Z" style="fill:white;fill-rule:nonzero;"/>
                            </g>
                            <g transform="matrix(98.4092,0,0,57.7351,5662.08,998.612)">
                                <path d="M0.157,0.012C0.137,0.012 0.12,0.006 0.105,-0.007C0.09,-0.02 0.083,-0.039 0.083,-0.062C0.083,-0.082 0.09,-0.099 0.104,-0.113C0.118,-0.128 0.135,-0.135 0.156,-0.135C0.176,-0.135 0.194,-0.128 0.208,-0.114C0.223,-0.099 0.23,-0.082 0.23,-0.062C0.23,-0.039 0.223,-0.021 0.208,-0.008C0.194,0.006 0.177,0.012 0.157,0.012Z" style="fill:white;fill-rule:nonzero;"/>
                            </g>
                            <g transform="matrix(98.4092,0,0,57.7351,5733.23,998.612)">
                                <path d="M0.157,0.012C0.137,0.012 0.12,0.006 0.105,-0.007C0.09,-0.02 0.083,-0.039 0.083,-0.062C0.083,-0.082 0.09,-0.099 0.104,-0.113C0.118,-0.128 0.135,-0.135 0.156,-0.135C0.176,-0.135 0.194,-0.128 0.208,-0.114C0.223,-0.099 0.23,-0.082 0.23,-0.062C0.23,-0.039 0.223,-0.021 0.208,-0.008C0.194,0.006 0.177,0.012 0.157,0.012Z" style="fill:white;fill-rule:nonzero;"/>
                            </g>
                            <g transform="matrix(98.4092,0,0,57.7351,5804.38,998.612)">
                                <path d="M0.157,0.012C0.137,0.012 0.12,0.006 0.105,-0.007C0.09,-0.02 0.083,-0.039 0.083,-0.062C0.083,-0.082 0.09,-0.099 0.104,-0.113C0.118,-0.128 0.135,-0.135 0.156,-0.135C0.176,-0.135 0.194,-0.128 0.208,-0.114C0.223,-0.099 0.23,-0.082 0.23,-0.062C0.23,-0.039 0.223,-0.021 0.208,-0.008C0.194,0.006 0.177,0.012 0.157,0.012Z" style="fill:white;fill-rule:nonzero;"/>
                            </g>
                            <g transform="matrix(98.4092,0,0,57.7351,5875.53,998.612)">
                                <path d="M0.157,0.012C0.137,0.012 0.12,0.006 0.105,-0.007C0.09,-0.02 0.083,-0.039 0.083,-0.062C0.083,-0.082 0.09,-0.099 0.104,-0.113C0.118,-0.128 0.135,-0.135 0.156,-0.135C0.176,-0.135 0.194,-0.128 0.208,-0.114C0.223,-0.099 0.23,-0.082 0.23,-0.062C0.23,-0.039 0.223,-0.021 0.208,-0.008C0.194,0.006 0.177,0.012 0.157,0.012Z" style="fill:white;fill-rule:nonzero;"/>
                            </g>
                            <g transform="matrix(98.4092,0,0,57.7351,5946.68,998.612)">
                                <path d="M0.157,0.012C0.137,0.012 0.12,0.006 0.105,-0.007C0.09,-0.02 0.083,-0.039 0.083,-0.062C0.083,-0.082 0.09,-0.099 0.104,-0.113C0.118,-0.128 0.135,-0.135 0.156,-0.135C0.176,-0.135 0.194,-0.128 0.208,-0.114C0.223,-0.099 0.23,-0.082 0.23,-0.062C0.23,-0.039 0.223,-0.021 0.208,-0.008C0.194,0.006 0.177,0.012 0.157,0.012Z" style="fill:white;fill-rule:nonzero;"/>
                            </g>
                            <g transform="matrix(98.4092,0,0,57.7351,6017.83,998.612)">
                                <path d="M0.157,0.012C0.137,0.012 0.12,0.006 0.105,-0.007C0.09,-0.02 0.083,-0.039 0.083,-0.062C0.083,-0.082 0.09,-0.099 0.104,-0.113C0.118,-0.128 0.135,-0.135 0.156,-0.135C0.176,-0.135 0.194,-0.128 0.208,-0.114C0.223,-0.099 0.23,-0.082 0.23,-0.062C0.23,-0.039 0.223,-0.021 0.208,-0.008C0.194,0.006 0.177,0.012 0.157,0.012Z" style="fill:white;fill-rule:nonzero;"/>
                            </g>
                            <g transform="matrix(98.4092,0,0,57.7351,5519.79,1039.85)">
                                <path d="M0.157,0.012C0.137,0.012 0.12,0.006 0.105,-0.007C0.09,-0.02 0.083,-0.039 0.083,-0.062C0.083,-0.082 0.09,-0.099 0.104,-0.113C0.118,-0.128 0.135,-0.135 0.156,-0.135C0.176,-0.135 0.194,-0.128 0.208,-0.114C0.223,-0.099 0.23,-0.082 0.23,-0.062C0.23,-0.039 0.223,-0.021 0.208,-0.008C0.194,0.006 0.177,0.012 0.157,0.012Z" style="fill:white;fill-rule:nonzero;"/>
                            </g>
                            <g transform="matrix(98.4092,0,0,57.7351,5590.94,1039.85)">
                                <path d="M0.157,0.012C0.137,0.012 0.12,0.006 0.105,-0.007C0.09,-0.02 0.083,-0.039 0.083,-0.062C0.083,-0.082 0.09,-0.099 0.104,-0.113C0.118,-0.128 0.135,-0.135 0.156,-0.135C0.176,-0.135 0.194,-0.128 0.208,-0.114C0.223,-0.099 0.23,-0.082 0.23,-0.062C0.23,-0.039 0.223,-0.021 0.208,-0.008C0.194,0.006 0.177,0.012 0.157,0.012Z" style="fill:white;fill-rule:nonzero;"/>
                            </g>
                            <g transform="matrix(98.4092,0,0,57.7351,5662.08,1039.85)">
                                <path d="M0.157,0.012C0.137,0.012 0.12,0.006 0.105,-0.007C0.09,-0.02 0.083,-0.039 0.083,-0.062C0.083,-0.082 0.09,-0.099 0.104,-0.113C0.118,-0.128 0.135,-0.135 0.156,-0.135C0.176,-0.135 0.194,-0.128 0.208,-0.114C0.223,-0.099 0.23,-0.082 0.23,-0.062C0.23,-0.039 0.223,-0.021 0.208,-0.008C0.194,0.006 0.177,0.012 0.157,0.012Z" style="fill:white;fill-rule:nonzero;"/>
                            </g>
                            <g transform="matrix(98.4092,0,0,57.7351,5733.23,1039.85)">
                                <path d="M0.157,0.012C0.137,0.012 0.12,0.006 0.105,-0.007C0.09,-0.02 0.083,-0.039 0.083,-0.062C0.083,-0.082 0.09,-0.099 0.104,-0.113C0.118,-0.128 0.135,-0.135 0.156,-0.135C0.176,-0.135 0.194,-0.128 0.208,-0.114C0.223,-0.099 0.23,-0.082 0.23,-0.062C0.23,-0.039 0.223,-0.021 0.208,-0.008C0.194,0.006 0.177,0.012 0.157,0.012Z" style="fill:white;fill-rule:nonzero;"/>
                            </g>
                            <g transform="matrix(98.4092,0,0,57.7351,5804.38,1039.85)">
                                <path d="M0.157,0.012C0.137,0.012 0.12,0.006 0.105,-0.007C0.09,-0.02 0.083,-0.039 0.083,-0.062C0.083,-0.082 0.09,-0.099 0.104,-0.113C0.118,-0.128 0.135,-0.135 0.156,-0.135C0.176,-0.135 0.194,-0.128 0.208,-0.114C0.223,-0.099 0.23,-0.082 0.23,-0.062C0.23,-0.039 0.223,-0.021 0.208,-0.008C0.194,0.006 0.177,0.012 0.157,0.012Z" style="fill:white;fill-rule:nonzero;"/>
                            </g>
                            <g transform="matrix(98.4092,0,0,57.7351,5875.53,1039.85)">
                                <path d="M0.157,0.012C0.137,0.012 0.12,0.006 0.105,-0.007C0.09,-0.02 0.083,-0.039 0.083,-0.062C0.083,-0.082 0.09,-0.099 0.104,-0.113C0.118,-0.128 0.135,-0.135 0.156,-0.135C0.176,-0.135 0.194,-0.128 0.208,-0.114C0.223,-0.099 0.23,-0.082 0.23,-0.062C0.23,-0.039 0.223,-0.021 0.208,-0.008C0.194,0.006 0.177,0.012 0.157,0.012Z" style="fill:white;fill-rule:nonzero;"/>
                            </g>
                            <g transform="matrix(98.4092,0,0,57.7351,5946.68,1039.85)">
                                <path d="M0.157,0.012C0.137,0.012 0.12,0.006 0.105,-0.007C0.09,-0.02 0.083,-0.039 0.083,-0.062C0.083,-0.082 0.09,-0.099 0.104,-0.113C0.118,-0.128 0.135,-0.135 0.156,-0.135C0.176,-0.135 0.194,-0.128 0.208,-0.114C0.223,-0.099 0.23,-0.082 0.23,-0.062C0.23,-0.039 0.223,-0.021 0.208,-0.008C0.194,0.006 0.177,0.012 0.157,0.012Z" style="fill:white;fill-rule:nonzero;"/>
                            </g>
                            <g transform="matrix(98.4092,0,0,57.7351,6017.83,1039.85)">
                                <path d="M0.157,0.012C0.137,0.012 0.12,0.006 0.105,-0.007C0.09,-0.02 0.083,-0.039 0.083,-0.062C0.083,-0.082 0.09,-0.099 0.104,-0.113C0.118,-0.128 0.135,-0.135 0.156,-0.135C0.176,-0.135 0.194,-0.128 0.208,-0.114C0.223,-0.099 0.23,-0.082 0.23,-0.062C0.23,-0.039 0.223,-0.021 0.208,-0.008C0.194,0.006 0.177,0.012 0.157,0.012Z" style="fill:white;fill-rule:nonzero;"/>
                            </g>
                            <g transform="matrix(98.4092,0,0,57.7351,5519.79,1081.09)">
                                <path d="M0.157,0.012C0.137,0.012 0.12,0.006 0.105,-0.007C0.09,-0.02 0.083,-0.039 0.083,-0.062C0.083,-0.082 0.09,-0.099 0.104,-0.113C0.118,-0.128 0.135,-0.135 0.156,-0.135C0.176,-0.135 0.194,-0.128 0.208,-0.114C0.223,-0.099 0.23,-0.082 0.23,-0.062C0.23,-0.039 0.223,-0.021 0.208,-0.008C0.194,0.006 0.177,0.012 0.157,0.012Z" style="fill:white;fill-rule:nonzero;"/>
                            </g>
                            <g transform="matrix(98.4092,0,0,57.7351,5590.94,1081.09)">
                                <path d="M0.157,0.012C0.137,0.012 0.12,0.006 0.105,-0.007C0.09,-0.02 0.083,-0.039 0.083,-0.062C0.083,-0.082 0.09,-0.099 0.104,-0.113C0.118,-0.128 0.135,-0.135 0.156,-0.135C0.176,-0.135 0.194,-0.128 0.208,-0.114C0.223,-0.099 0.23,-0.082 0.23,-0.062C0.23,-0.039 0.223,-0.021 0.208,-0.008C0.194,0.006 0.177,0.012 0.157,0.012Z" style="fill:white;fill-rule:nonzero;"/>
                            </g>
                            <g transform="matrix(98.4092,0,0,57.7351,5662.08,1081.09)">
                                <path d="M0.157,0.012C0.137,0.012 0.12,0.006 0.105,-0.007C0.09,-0.02 0.083,-0.039 0.083,-0.062C0.083,-0.082 0.09,-0.099 0.104,-0.113C0.118,-0.128 0.135,-0.135 0.156,-0.135C0.176,-0.135 0.194,-0.128 0.208,-0.114C0.223,-0.099 0.23,-0.082 0.23,-0.062C0.23,-0.039 0.223,-0.021 0.208,-0.008C0.194,0.006 0.177,0.012 0.157,0.012Z" style="fill:white;fill-rule:nonzero;"/>
                            </g>
                            <g transform="matrix(98.4092,0,0,57.7351,5733.23,1081.09)">
                                <path d="M0.157,0.012C0.137,0.012 0.12,0.006 0.105,-0.007C0.09,-0.02 0.083,-0.039 0.083,-0.062C0.083,-0.082 0.09,-0.099 0.104,-0.113C0.118,-0.128 0.135,-0.135 0.156,-0.135C0.176,-0.135 0.194,-0.128 0.208,-0.114C0.223,-0.099 0.23,-0.082 0.23,-0.062C0.23,-0.039 0.223,-0.021 0.208,-0.008C0.194,0.006 0.177,0.012 0.157,0.012Z" style="fill:white;fill-rule:nonzero;"/>
                            </g>
                            <g transform="matrix(98.4092,0,0,57.7351,5804.38,1081.09)">
                                <path d="M0.157,0.012C0.137,0.012 0.12,0.006 0.105,-0.007C0.09,-0.02 0.083,-0.039 0.083,-0.062C0.083,-0.082 0.09,-0.099 0.104,-0.113C0.118,-0.128 0.135,-0.135 0.156,-0.135C0.176,-0.135 0.194,-0.128 0.208,-0.114C0.223,-0.099 0.23,-0.082 0.23,-0.062C0.23,-0.039 0.223,-0.021 0.208,-0.008C0.194,0.006 0.177,0.012 0.157,0.012Z" style="fill:white;fill-rule:nonzero;"/>
                            </g>
                            <g transform="matrix(98.4092,0,0,57.7351,5875.53,1081.09)">
                                <path d="M0.157,0.012C0.137,0.012 0.12,0.006 0.105,-0.007C0.09,-0.02 0.083,-0.039 0.083,-0.062C0.083,-0.082 0.09,-0.099 0.104,-0.113C0.118,-0.128 0.135,-0.135 0.156,-0.135C0.176,-0.135 0.194,-0.128 0.208,-0.114C0.223,-0.099 0.23,-0.082 0.23,-0.062C0.23,-0.039 0.223,-0.021 0.208,-0.008C0.194,0.006 0.177,0.012 0.157,0.012Z" style="fill:white;fill-rule:nonzero;"/>
                            </g>
                            <g transform="matrix(98.4092,0,0,57.7351,5946.68,1081.09)">
                                <path d="M0.157,0.012C0.137,0.012 0.12,0.006 0.105,-0.007C0.09,-0.02 0.083,-0.039 0.083,-0.062C0.083,-0.082 0.09,-0.099 0.104,-0.113C0.118,-0.128 0.135,-0.135 0.156,-0.135C0.176,-0.135 0.194,-0.128 0.208,-0.114C0.223,-0.099 0.23,-0.082 0.23,-0.062C0.23,-0.039 0.223,-0.021 0.208,-0.008C0.194,0.006 0.177,0.012 0.157,0.012Z" style="fill:white;fill-rule:nonzero;"/>
                            </g>
                            <g transform="matrix(98.4092,0,0,57.7351,6017.83,1081.09)">
                                <path d="M0.157,0.012C0.137,0.012 0.12,0.006 0.105,-0.007C0.09,-0.02 0.083,-0.039 0.083,-0.062C0.083,-0.082 0.09,-0.099 0.104,-0.113C0.118,-0.128 0.135,-0.135 0.156,-0.135C0.176,-0.135 0.194,-0.128 0.208,-0.114C0.223,-0.099 0.23,-0.082 0.23,-0.062C0.23,-0.039 0.223,-0.021 0.208,-0.008C0.194,0.006 0.177,0.012 0.157,0.012Z" style="fill:white;fill-rule:nonzero;"/>
                            </g>
                        </g>
                    </g>
                    <g id="triangle" transform="matrix(6.67181e-17,0.594738,-1.08959,3.64172e-17,1034.68,106.497)">
                        <g transform="matrix(1,0,0,1,11.5452,45.0796)">
                            <path d="M0,-38.556L22.261,0L44.521,-38.556L0,-38.556Z" style="fill:white;fill-opacity:0.5;fill-rule:nonzero;"/>
                        </g>
                        <g transform="matrix(1,0,0,1,45.2872,12.6247)">
                            <path d="M0,38.557L22.261,0L-22.261,0L0,38.557Z" style="fill:none;fill-rule:nonzero;stroke:white;stroke-width:1.22px;"/>
                        </g>
                    </g>
                    <g transform="matrix(0.557217,-2.25116e-17,0,0.304149,77.0042,71.2308)">
                        <g transform="matrix(0,-1,-1,0,193.573,1.9557)">
                            <path d="M-53.687,-53.687C-24.036,-53.687 0.001,-29.651 0.001,0.001C0.001,29.652 -24.036,53.687 -53.687,53.687C-83.337,53.687 -107.375,29.652 -107.375,0.001C-107.375,-29.651 -83.337,-53.687 -53.687,-53.687" style="fill:white;fill-opacity:0.5;fill-rule:nonzero;"/>
                        </g>
                        <g>
                            <g>
                                <clipPath id="_clip1">
                                    <path d="M115.654,69.249C115.654,100.015 140.595,124.955 171.36,124.955C202.125,124.955 227.065,100.015 227.065,69.249C227.065,38.485 202.125,13.545 171.36,13.545C140.595,13.545 115.654,38.485 115.654,69.249Z"/>
                                </clipPath>
                                <g clip-path="url(#_clip1)">
                                    <g transform="matrix(0.707109,-0.707104,-0.707104,-0.707109,69.2495,165.77)">
                                        <path d="M-28.27,68.25L164.771,68.25" style="fill:none;fill-rule:nonzero;stroke:white;stroke-width:2.39px;"/>
                                    </g>
                                    <g transform="matrix(0.707109,-0.707104,-0.707104,-0.707109,77.104,165.77)">
                                        <path d="M-28.27,68.25L164.771,68.25" style="fill:none;fill-rule:nonzero;stroke:white;stroke-width:2.39px;"/>
                                    </g>
                                    <g transform="matrix(0.707107,-0.707107,-0.707107,-0.707107,84.9596,165.77)">
                                        <path d="M-28.27,68.25L164.77,68.25" style="fill:none;fill-rule:nonzero;stroke:white;stroke-width:2.39px;"/>
                                    </g>
                                    <g transform="matrix(0.707107,-0.707107,-0.707107,-0.707107,92.8141,165.77)">
                                        <path d="M-28.27,68.25L164.77,68.25" style="fill:none;fill-rule:nonzero;stroke:white;stroke-width:2.39px;"/>
                                    </g>
                                    <g transform="matrix(0.707107,-0.707107,-0.707107,-0.707107,108.523,165.77)">
                                        <path d="M-28.27,68.25L164.77,68.25" style="fill:none;fill-rule:nonzero;stroke:white;stroke-width:2.39px;"/>
                                    </g>
                                    <g transform="matrix(0.707107,-0.707107,-0.707107,-0.707107,124.232,165.77)">
                                        <path d="M-28.27,68.25L164.77,68.25" style="fill:none;fill-rule:nonzero;stroke:white;stroke-width:2.39px;"/>
                                    </g>
                                    <g transform="matrix(0.707107,-0.707107,-0.707107,-0.707107,139.942,165.77)">
                                        <path d="M-28.27,68.25L164.77,68.25" style="fill:none;fill-rule:nonzero;stroke:white;stroke-width:2.39px;"/>
                                    </g>
                                    <g transform="matrix(0.707107,-0.707107,-0.707107,-0.707107,155.651,165.77)">
                                        <path d="M-28.27,68.25L164.77,68.25" style="fill:none;fill-rule:nonzero;stroke:white;stroke-width:2.39px;"/>
                                    </g>
                                    <g transform="matrix(0.707107,-0.707107,-0.707107,-0.707107,171.36,165.77)">
                                        <path d="M-28.27,68.25L164.77,68.25" style="fill:none;fill-rule:nonzero;stroke:white;stroke-width:2.39px;"/>
                                    </g>
                                    <g transform="matrix(0.707107,-0.707107,-0.707107,-0.707107,187.069,165.77)">
                                        <path d="M-28.27,68.25L164.77,68.25" style="fill:none;fill-rule:nonzero;stroke:white;stroke-width:2.39px;"/>
                                    </g>
                                    <g transform="matrix(0.707107,-0.707107,-0.707107,-0.707107,202.779,165.77)">
                                        <path d="M-28.27,68.25L164.77,68.25" style="fill:none;fill-rule:nonzero;stroke:white;stroke-width:2.39px;"/>
                                    </g>
                                    <g transform="matrix(0.707107,-0.707107,-0.707107,-0.707107,218.488,165.77)">
                                        <path d="M-28.27,68.25L164.77,68.25" style="fill:none;fill-rule:nonzero;stroke:white;stroke-width:2.39px;"/>
                                    </g>
                                    <g transform="matrix(0.707107,-0.707107,-0.707107,-0.707107,234.197,165.77)">
                                        <path d="M-28.27,68.25L164.77,68.25" style="fill:none;fill-rule:nonzero;stroke:white;stroke-width:2.39px;"/>
                                    </g>
                                    <g transform="matrix(0.707107,-0.707107,-0.707107,-0.707107,249.906,165.77)">
                                        <path d="M-28.27,68.25L164.77,68.25" style="fill:none;fill-rule:nonzero;stroke:white;stroke-width:2.39px;"/>
                                    </g>
                                    <g transform="matrix(0.707107,-0.707107,-0.707107,-0.707107,257.76,165.77)">
                                        <path d="M-28.27,68.25L164.77,68.25" style="fill:none;fill-rule:nonzero;stroke:white;stroke-width:2.39px;"/>
                                    </g>
                                    <g transform="matrix(0.707107,-0.707107,-0.707107,-0.707107,265.616,165.77)">
                                        <path d="M-28.27,68.25L164.77,68.25" style="fill:none;fill-rule:nonzero;stroke:white;stroke-width:2.39px;"/>
                                    </g>
                                    <g transform="matrix(0.707107,-0.707107,-0.707107,-0.707107,273.47,165.77)">
                                        <path d="M-28.27,68.25L164.77,68.25" style="fill:none;fill-rule:nonzero;stroke:white;stroke-width:2.39px;"/>
                                    </g>
                                </g>
                            </g>
                        </g>
                    </g>
                    <g id="croix" transform="matrix(0.73325,-0.693226,1.27003,0.400234,899.556,143.721)">
                        <g transform="matrix(0,1,1,0,6.9772,3.98849)">
                            <path d="M-2.989,-2.989L2.989,-2.989" style="fill:none;fill-rule:nonzero;stroke:white;stroke-width:1.82px;"/>
                        </g>
                        <g transform="matrix(-1,0,0,1,0.9999,3.98829)">
                            <path d="M-5.977,0L0,0" style="fill:none;fill-rule:nonzero;stroke:white;stroke-width:1.82px;"/>
                        </g>
                        <g transform="matrix(0,1,1,0,19.899,3.98849)">
                            <path d="M-2.989,-2.989L2.989,-2.989" style="fill:none;fill-rule:nonzero;stroke:white;stroke-width:1.82px;"/>
                        </g>
                        <g transform="matrix(-1,0,0,1,13.9218,3.98829)">
                            <path d="M-5.977,0L0,0" style="fill:none;fill-rule:nonzero;stroke:white;stroke-width:1.82px;"/>
                        </g>
                        <g transform="matrix(0,1,1,0,32.8219,3.98849)">
                            <path d="M-2.989,-2.989L2.989,-2.989" style="fill:none;fill-rule:nonzero;stroke:white;stroke-width:1.82px;"/>
                        </g>
                        <g transform="matrix(-1,0,0,1,26.8447,3.98829)">
                            <path d="M-5.977,0L0,0" style="fill:none;fill-rule:nonzero;stroke:white;stroke-width:1.82px;"/>
                        </g>
                    </g>
                </g>
                <g id="éléments-top" transform="matrix(0.666667,0,0,0.363891,775.747,131.415)">
                    <g id="croix1" serif:id="croix" transform="matrix(1.09987,-1.90504,1.90504,1.09987,-965.479,165.196)">
                        <g transform="matrix(0,1,1,0,6.9772,3.98849)">
                            <path d="M-2.989,-2.989L2.989,-2.989" style="fill:none;fill-rule:nonzero;stroke:white;stroke-width:1.82px;"/>
                        </g>
                        <g transform="matrix(-1,0,0,1,0.9999,3.98829)">
                            <path d="M-5.977,0L0,0" style="fill:none;fill-rule:nonzero;stroke:white;stroke-width:1.82px;"/>
                        </g>
                        <g transform="matrix(0,1,1,0,19.899,3.98849)">
                            <path d="M-2.989,-2.989L2.989,-2.989" style="fill:none;fill-rule:nonzero;stroke:white;stroke-width:1.82px;"/>
                        </g>
                        <g transform="matrix(-1,0,0,1,13.9218,3.98829)">
                            <path d="M-5.977,0L0,0" style="fill:none;fill-rule:nonzero;stroke:white;stroke-width:1.82px;"/>
                        </g>
                        <g transform="matrix(0,1,1,0,32.8219,3.98849)">
                            <path d="M-2.989,-2.989L2.989,-2.989" style="fill:none;fill-rule:nonzero;stroke:white;stroke-width:1.82px;"/>
                        </g>
                        <g transform="matrix(-1,0,0,1,26.8447,3.98829)">
                            <path d="M-5.977,0L0,0" style="fill:none;fill-rule:nonzero;stroke:white;stroke-width:1.82px;"/>
                        </g>
                    </g>
                    <g id="triangle1" serif:id="triangle" transform="matrix(6.12323e-17,1,-1,-1.27825e-17,-1057.66,-4.14341)">
                        <g transform="matrix(1,0,0,1,11.5452,45.0796)">
                            <path d="M0,-38.556L22.261,0L44.521,-38.556L0,-38.556Z" style="fill:white;fill-opacity:0.5;fill-rule:nonzero;"/>
                        </g>
                        <g transform="matrix(1,0,0,1,23.2606,0.9995)">
                            <path d="M0,38.557L22.261,0L-22.261,0L0,38.557Z" style="fill:none;fill-rule:nonzero;stroke:white;stroke-width:2px;"/>
                        </g>
                    </g>
                    <g transform="matrix(0.243149,0,0,0.243149,162.062,-242.639)">
                        <g id="discs-rayés">
                            <g>
                                <g transform="matrix(0,-1,-1,0,193.573,1.9557)">
                                    <path d="M-53.687,-53.687C-24.036,-53.687 0.001,-29.651 0.001,0.001C0.001,29.652 -24.036,53.687 -53.687,53.687C-83.337,53.687 -107.375,29.652 -107.375,0.001C-107.375,-29.651 -83.337,-53.687 -53.687,-53.687" style="fill:white;fill-opacity:0.5;fill-rule:nonzero;"/>
                                </g>
                                <g>
                                    <g>
                                        <clipPath id="_clip2">
                                            <path d="M115.654,69.249C115.654,100.015 140.595,124.955 171.36,124.955C202.125,124.955 227.065,100.015 227.065,69.249C227.065,38.485 202.125,13.545 171.36,13.545C140.595,13.545 115.654,38.485 115.654,69.249Z"/>
                                        </clipPath>
                                        <g clip-path="url(#_clip2)">
                                            <g transform="matrix(0.707109,-0.707104,-0.707104,-0.707109,69.2495,165.77)">
                                                <path d="M-28.27,68.25L164.771,68.25" style="fill:none;fill-rule:nonzero;stroke:white;stroke-width:4.11px;"/>
                                            </g>
                                            <g transform="matrix(0.707109,-0.707104,-0.707104,-0.707109,77.104,165.77)">
                                                <path d="M-28.27,68.25L164.771,68.25" style="fill:none;fill-rule:nonzero;stroke:white;stroke-width:4.11px;"/>
                                            </g>
                                            <g transform="matrix(0.707107,-0.707107,-0.707107,-0.707107,84.9596,165.77)">
                                                <path d="M-28.27,68.25L164.77,68.25" style="fill:none;fill-rule:nonzero;stroke:white;stroke-width:4.11px;"/>
                                            </g>
                                            <g transform="matrix(0.707107,-0.707107,-0.707107,-0.707107,92.8141,165.77)">
                                                <path d="M-28.27,68.25L164.77,68.25" style="fill:none;fill-rule:nonzero;stroke:white;stroke-width:4.11px;"/>
                                            </g>
                                            <g transform="matrix(0.707107,-0.707107,-0.707107,-0.707107,108.523,165.77)">
                                                <path d="M-28.27,68.25L164.77,68.25" style="fill:none;fill-rule:nonzero;stroke:white;stroke-width:4.11px;"/>
                                            </g>
                                            <g transform="matrix(0.707107,-0.707107,-0.707107,-0.707107,124.232,165.77)">
                                                <path d="M-28.27,68.25L164.77,68.25" style="fill:none;fill-rule:nonzero;stroke:white;stroke-width:4.11px;"/>
                                            </g>
                                            <g transform="matrix(0.707107,-0.707107,-0.707107,-0.707107,139.942,165.77)">
                                                <path d="M-28.27,68.25L164.77,68.25" style="fill:none;fill-rule:nonzero;stroke:white;stroke-width:4.11px;"/>
                                            </g>
                                            <g transform="matrix(0.707107,-0.707107,-0.707107,-0.707107,155.651,165.77)">
                                                <path d="M-28.27,68.25L164.77,68.25" style="fill:none;fill-rule:nonzero;stroke:white;stroke-width:4.11px;"/>
                                            </g>
                                            <g transform="matrix(0.707107,-0.707107,-0.707107,-0.707107,171.36,165.77)">
                                                <path d="M-28.27,68.25L164.77,68.25" style="fill:none;fill-rule:nonzero;stroke:white;stroke-width:4.11px;"/>
                                            </g>
                                            <g transform="matrix(0.707107,-0.707107,-0.707107,-0.707107,187.069,165.77)">
                                                <path d="M-28.27,68.25L164.77,68.25" style="fill:none;fill-rule:nonzero;stroke:white;stroke-width:4.11px;"/>
                                            </g>
                                            <g transform="matrix(0.707107,-0.707107,-0.707107,-0.707107,202.779,165.77)">
                                                <path d="M-28.27,68.25L164.77,68.25" style="fill:none;fill-rule:nonzero;stroke:white;stroke-width:4.11px;"/>
                                            </g>
                                            <g transform="matrix(0.707107,-0.707107,-0.707107,-0.707107,218.488,165.77)">
                                                <path d="M-28.27,68.25L164.77,68.25" style="fill:none;fill-rule:nonzero;stroke:white;stroke-width:4.11px;"/>
                                            </g>
                                            <g transform="matrix(0.707107,-0.707107,-0.707107,-0.707107,234.197,165.77)">
                                                <path d="M-28.27,68.25L164.77,68.25" style="fill:none;fill-rule:nonzero;stroke:white;stroke-width:4.11px;"/>
                                            </g>
                                            <g transform="matrix(0.707107,-0.707107,-0.707107,-0.707107,249.906,165.77)">
                                                <path d="M-28.27,68.25L164.77,68.25" style="fill:none;fill-rule:nonzero;stroke:white;stroke-width:4.11px;"/>
                                            </g>
                                            <g transform="matrix(0.707107,-0.707107,-0.707107,-0.707107,257.76,165.77)">
                                                <path d="M-28.27,68.25L164.77,68.25" style="fill:none;fill-rule:nonzero;stroke:white;stroke-width:4.11px;"/>
                                            </g>
                                            <g transform="matrix(0.707107,-0.707107,-0.707107,-0.707107,265.616,165.77)">
                                                <path d="M-28.27,68.25L164.77,68.25" style="fill:none;fill-rule:nonzero;stroke:white;stroke-width:4.11px;"/>
                                            </g>
                                            <g transform="matrix(0.707107,-0.707107,-0.707107,-0.707107,273.47,165.77)">
                                                <path d="M-28.27,68.25L164.77,68.25" style="fill:none;fill-rule:nonzero;stroke:white;stroke-width:4.11px;"/>
                                            </g>
                                        </g>
                                    </g>
                                </g>
                            </g>
                        </g>
                    </g>
                    <g transform="matrix(0.647331,-1.12121,1.12121,0.647331,-729.832,81.5788)">
                        <g transform="matrix(1,0,0,1,8.3333,5.2338)">
                            <path d="M0,0L-7.333,-4.234L-7.333,4.234L0,0Z" style="fill:none;fill-rule:nonzero;stroke:rgb(249,249,249);stroke-width:3.09px;stroke-linejoin:miter;stroke-miterlimit:4;"/>
                        </g>
                        <g transform="matrix(1,0,0,1,23.9769,5.2338)">
                            <path d="M0,0L-7.333,-4.234L-7.333,4.234L0,0Z" style="fill:none;fill-rule:nonzero;stroke:rgb(249,249,249);stroke-width:3.09px;stroke-linejoin:miter;stroke-miterlimit:4;"/>
                        </g>
                        <g transform="matrix(1,0,0,1,39.6204,5.2338)">
                            <path d="M0,0L-7.333,-4.234L-7.333,4.234L0,0Z" style="fill:none;fill-rule:nonzero;stroke:rgb(249,249,249);stroke-width:3.09px;stroke-linejoin:miter;stroke-miterlimit:4;"/>
                        </g>
                    </g>
                    <g id="discs" transform="matrix(1,7.40149e-17,0,1,319.211,20.8974)">
                        <g transform="matrix(0.513684,0,0,0.513684,-3244.25,-269.211)">
                            <circle cx="6970.46" cy="231.999" r="9.734" style="fill:white;"/>
                        </g>
                        <g transform="matrix(1.02737,0,0,1.02737,-8280.47,-217.323)">
                            <circle cx="6970.46" cy="231.999" r="9.734" style="fill:white;"/>
                        </g>
                        <g transform="matrix(0.513684,0,0,0.513684,-4963.49,-273.944)">
                            <circle cx="6970.46" cy="231.999" r="9.734" style="fill:white;"/>
                        </g>
                    </g>
                </g>
            </g>
        </g>
    </g>
</svg>
