<?xml version="1.0" encoding="UTF-8" standalone="no"?>
<!DOCTYPE svg PUBLIC "-//W3C//DTD SVG 1.1//EN" "http://www.w3.org/Graphics/SVG/1.1/DTD/svg11.dtd">
<svg width="100%" height="100%" viewBox="0 0 59 59" version="1.1" xmlns="http://www.w3.org/2000/svg" xmlns:xlink="http://www.w3.org/1999/xlink" xml:space="preserve" xmlns:serif="http://www.serif.com/" style="fill-rule:evenodd;clip-rule:evenodd;stroke-linejoin:round;stroke-miterlimit:2;">
    <g transform="matrix(1,0,0,1,-631.019,-6333.79)">
        <g transform="matrix(1.54629,0,0,2.74166,1.72969,15.9222)">
            <g transform="matrix(0.38804,0,0,0.218853,406.968,2304.4)">
                <path d="M46.774,47.62C46.875,46.345 46.827,45.058 46.844,43.776C46.729,43.748 46.615,43.722 46.5,43.695C45.918,45.336 45.335,46.978 44.751,48.632C46.548,49.173 46.657,49.145 46.774,47.62Z" style="fill:white;fill-rule:nonzero;"/>
                <path d="M80.266,52.878C84.21,50.837 86.112,46.551 84.616,42.706C81.5,45.407 81.035,49.146 80.266,52.878Z" style="fill:white;fill-rule:nonzero;"/>
                <path d="M35.268,47.847C35.239,46.458 35.209,45.153 35.18,43.849C35.061,43.819 34.943,43.788 34.823,43.759C34.493,44.607 34.09,45.434 33.851,46.307C33.455,47.758 33.499,47.769 35.268,47.847Z" style="fill:white;fill-rule:nonzero;"/>
                <path d="M48.875,0C21.883,0 0,21.882 0,48.875C0,75.868 21.883,97.75 48.875,97.75C75.867,97.75 97.75,75.868 97.75,48.875C97.75,21.882 75.867,0 48.875,0ZM26.512,57.939C25.825,58.14 25.607,57.875 25.411,57.23C24.298,53.542 23.128,49.872 21.931,46.042C21.866,46.537 21.784,46.944 21.765,47.355C21.647,49.588 21.559,51.823 21.43,54.055C21.401,54.581 21.344,55.151 21.123,55.612C20.961,55.944 20.531,56.246 20.162,56.358C19.629,56.52 19.014,56.413 18.481,56.573C17.108,56.981 16.373,56.282 15.746,55.211C14.979,53.896 14.158,52.614 13.359,51.317C13.303,51.321 13.248,51.326 13.193,51.331C13.346,52.519 13.479,53.711 13.67,54.893C13.777,55.579 13.504,55.981 12.907,56.233C12.774,56.287 12.654,56.362 12.523,56.413C9.876,57.427 9.362,57.069 8.939,54.301C8.329,50.308 8.48,46.304 8.621,42.298C8.629,42.068 8.888,41.744 9.109,41.644C9.557,41.443 10.053,41.327 10.542,41.248C12.502,40.924 13.013,41.184 13.925,42.921C14.83,44.65 15.724,46.384 16.629,48.116C16.752,48.348 16.897,48.571 17.08,48.877C17.486,46.958 17.766,45.143 18.266,43.389C18.74,41.728 19.409,40.119 20.076,38.522C20.197,38.233 20.722,37.949 21.061,37.947C22.016,37.939 23.029,37.908 23.899,38.222C24.43,38.413 24.939,39.163 25.114,39.761C25.716,41.837 26.186,43.951 26.674,46.059C27.526,49.748 28.349,53.442 29.209,57.239C28.425,57.439 27.462,57.66 26.512,57.939ZM31.594,56.562C29.78,55.402 29.052,53.925 29.084,51.888C29.121,49.491 29.049,47.096 29.715,44.742C30.248,42.848 31.554,41.65 32.944,40.395C34.331,39.148 35.676,39.622 37.184,39.882C38.855,40.171 39.163,41.274 39.238,42.604C39.368,44.93 39.827,47.249 39.265,49.589C39.123,50.182 38.947,50.483 38.328,50.448C36.71,50.359 35.094,50.277 33.356,50.189C33.147,51.75 33.071,53.306 33.978,54.705C34.858,56.062 36.025,56.334 37.558,55.636C38.901,55.026 40.335,55.341 41.434,56.489C38.926,58.279 34.1,58.163 31.594,56.562ZM47.38,57.35C46.62,57.186 45.818,57.196 45.067,57.005C42.321,56.305 40.687,53.917 40.59,51.061C40.497,48.3 41.172,45.704 42.296,43.311C43.097,41.604 44.585,40.206 45.864,38.754C46.095,38.489 46.829,38.495 47.266,38.614C48.215,38.872 49.154,39.221 50.029,39.665C50.355,39.832 50.701,40.386 50.681,40.746C50.605,42.256 50.382,43.757 50.236,45.265C50.068,47.055 49.922,48.848 49.758,50.747C48.121,51.778 46.328,51.142 44.519,50.893C43.94,52.66 44.772,53.903 45.793,55.078C46.636,56.049 47.727,56.093 48.82,55.708C49.478,55.476 50.035,54.974 50.671,54.667C50.95,54.534 51.338,54.497 51.636,54.573C52.351,54.752 52.79,55.219 52.8,56.1C51.105,56.967 49.412,57.789 47.38,57.35ZM63.336,49.378C62.093,49.551 60.85,49.732 59.602,49.891C59.164,49.949 58.792,49.917 58.844,50.6C58.93,51.794 58.867,53 58.899,54.202C58.927,55.406 58.993,56.606 59.047,57.92C58.122,58.073 57.236,58.22 56.212,58.39C56.135,56.994 56.075,55.665 55.984,54.34C55.892,53.004 55.773,51.668 55.656,50.221C54.747,50.169 53.906,50.096 53.064,50.081C52.275,50.065 51.716,49.826 51.79,48.92C51.853,48.024 52.43,47.731 53.258,47.78C53.949,47.821 54.647,47.845 55.424,47.88C55.133,45.086 54.805,42.454 54.6,39.813C54.454,37.905 54.381,35.984 54.428,34.072C54.477,32.044 55.348,31.569 57.19,32.396C59.081,33.245 58.983,33.346 58.94,35.372C58.873,38.485 59.061,41.603 59.1,44.72C59.108,45.404 58.901,46.087 58.87,46.775C58.856,47.039 59.054,47.313 59.157,47.583C59.301,47.367 59.552,47.16 59.571,46.933C59.629,46.275 60.059,46.027 60.489,46.357C61.549,47.169 62.51,48.112 63.509,49.005C63.452,49.126 63.395,49.252 63.336,49.378ZM71.471,56.131C71.086,56.54 70.598,56.985 70.08,57.106C69.158,57.321 68.182,57.381 67.23,57.36C66.126,57.333 65.418,56.549 65.209,55.589C64.653,53.074 64.23,50.532 63.806,47.99C63.683,47.261 63.709,46.502 63.738,45.76C63.771,44.706 64.267,44.379 65.273,44.703C65.574,44.801 65.859,44.958 66.152,45.087C68.109,45.948 68.066,46.009 68.087,48.09C68.108,50.217 68.303,52.34 68.438,54.465C68.454,54.699 68.575,54.926 68.684,55.281C70.966,53.333 71.625,50.901 71.617,48.21C71.612,47.583 71.393,46.95 71.43,46.331C71.457,45.881 71.658,45.365 71.955,45.043C72.134,44.852 72.682,44.893 73.017,44.986C73.525,45.125 73.989,45.408 74.476,45.619C75.605,46.103 75.857,46.937 75.812,48.14C75.729,50.59 74.502,52.424 73,54.18C72.463,54.807 72.034,55.53 71.471,56.131ZM86.324,52.443C84.949,53.605 83.576,54.777 82.128,55.841C81.583,56.24 80.824,56.347 80.147,56.594C79.704,58.529 79.962,61.316 81.026,65.669C79.922,65.701 78.838,65.773 77.754,65.728C77.571,65.719 77.302,65.222 77.258,64.923C76.857,62.302 76.512,59.674 76.105,57.056C76.039,56.621 75.822,56.124 75.51,55.83C74.587,54.958 74.66,54.296 75.795,53.705C76.007,53.595 76.148,53.229 76.198,52.959C76.674,50.605 76.993,48.209 77.608,45.892C78.285,43.346 79.762,41.253 82.176,40.049C82.822,39.726 83.741,39.788 84.5,39.899C85.214,40.005 85.869,40.501 86.584,40.669C88.527,41.12 88.991,42.669 89.168,44.268C89.516,47.409 88.884,50.288 86.324,52.443Z" style="fill:white;fill-rule:nonzero;"/>
            </g>
        </g>
    </g>
</svg>
