<?xml version="1.0" encoding="UTF-8" standalone="no"?>
<!DOCTYPE svg PUBLIC "-//W3C//DTD SVG 1.1//EN" "http://www.w3.org/Graphics/SVG/1.1/DTD/svg11.dtd">
<svg width="100%" height="100%" viewBox="0 0 840 728" version="1.1" xmlns="http://www.w3.org/2000/svg" xmlns:xlink="http://www.w3.org/1999/xlink" xml:space="preserve" xmlns:serif="http://www.serif.com/" style="fill-rule:evenodd;clip-rule:evenodd;stroke-miterlimit:10;">
    <rect x="124.18" y="129.51" width="3.33" height="18.87" style="fill:rgb(71,230,177);"/>
    <g transform="matrix(-3.82857e-16,1,-1,-3.82857e-16,351.25,-167.3)">
        <rect x="304.58" y="215.97" width="3.33" height="18.87" style="fill:rgb(71,230,177);"/>
    </g>
    <rect x="242.55" y="540.19" width="3.33" height="18.87" style="fill:rgb(71,230,177);"/>
    <g transform="matrix(-3.82857e-16,1,-1,-3.82857e-16,880.29,125.01)">
        <rect x="422.95" y="626.65" width="3.33" height="18.87" style="fill:rgb(71,230,177);"/>
    </g>
    <rect x="76.86" y="321" width="3.33" height="18.87" style="fill:rgb(71,230,177);"/>
    <g transform="matrix(-3.82857e-16,1,-1,-3.82857e-16,495.42,71.51)">
        <rect x="257.26" y="407.46" width="3.33" height="18.87" style="fill:rgb(71,230,177);"/>
    </g>
    <rect x="659.86" y="0" width="3.33" height="18.87" style="fill:rgb(71,230,177);"/>
    <g transform="matrix(-3.82857e-16,1,-1,-3.82857e-16,757.42,-832.49)">
        <rect x="840.26" y="86.46" width="3.33" height="18.87" style="fill:rgb(71,230,177);"/>
    </g>
    <rect x="97.97" y="46.93" width="3.33" height="18.87" style="fill:rgb(71,230,177);"/>
    <g transform="matrix(-3.82857e-16,1,-1,-3.82857e-16,242.45,-223.67)">
        <rect x="278.37" y="133.39" width="3.33" height="18.87" style="fill:rgb(71,230,177);"/>
    </g>
    <g transform="matrix(1,0,0,1,-180.4,-86.46)">
        <path d="M345.5,559.31C343.611,558.485 342.628,556.352 343.23,554.38C343.277,554.234 343.307,554.083 343.32,553.93C343.334,553.833 343.342,553.735 343.342,553.637C343.342,552.54 342.439,551.637 341.342,551.637C340.656,551.637 340.016,551.99 339.65,552.57C339.558,552.694 339.481,552.828 339.42,552.97C338.595,554.859 336.462,555.842 334.49,555.24C334.344,555.193 334.193,555.163 334.04,555.15C333.943,555.136 333.845,555.128 333.747,555.128C332.65,555.128 331.747,556.031 331.747,557.128C331.747,557.814 332.1,558.454 332.68,558.82C332.804,558.912 332.938,558.989 333.08,559.05C334.969,559.875 335.952,562.008 335.35,563.98C335.303,564.126 335.273,564.277 335.26,564.43C335.246,564.527 335.238,564.625 335.238,564.723C335.238,565.82 336.141,566.723 337.238,566.723C337.924,566.723 338.564,566.37 338.93,565.79C339.022,565.666 339.099,565.532 339.16,565.39C339.985,563.501 342.118,562.518 344.09,563.12C344.236,563.167 344.387,563.197 344.54,563.21C344.637,563.224 344.735,563.232 344.833,563.232C345.93,563.232 346.833,562.329 346.833,561.232C346.833,560.546 346.48,559.906 345.9,559.54C345.776,559.448 345.642,559.371 345.5,559.31Z" style="fill:rgb(77,138,240);fill-opacity:0.5;fill-rule:nonzero;"/>
    </g>
    <g transform="matrix(1,0,0,1,-180.4,-86.46)">
        <path d="M329,738.66C327.111,737.835 326.128,735.702 326.73,733.73C326.777,733.584 326.807,733.433 326.82,733.28C326.834,733.183 326.842,733.085 326.842,732.987C326.842,731.89 325.939,730.987 324.842,730.987C324.156,730.987 323.516,731.34 323.15,731.92C323.058,732.044 322.981,732.178 322.92,732.32C322.099,734.208 319.971,735.195 318,734.6C317.854,734.553 317.703,734.523 317.55,734.51C317.453,734.496 317.355,734.488 317.257,734.488C316.16,734.488 315.257,735.391 315.257,736.488C315.257,737.174 315.61,737.814 316.19,738.18C316.314,738.272 316.448,738.349 316.59,738.41C318.479,739.235 319.462,741.368 318.86,743.34C318.813,743.486 318.783,743.637 318.77,743.79C318.756,743.887 318.748,743.985 318.748,744.083C318.748,745.18 319.651,746.083 320.748,746.083C321.434,746.083 322.074,745.73 322.44,745.15C322.532,745.026 322.609,744.892 322.67,744.75C323.495,742.861 325.628,741.878 327.6,742.48C327.746,742.527 327.897,742.557 328.05,742.57C328.147,742.584 328.245,742.592 328.343,742.592C329.44,742.592 330.343,741.689 330.343,740.592C330.343,739.906 329.99,739.266 329.41,738.9C329.283,738.804 329.146,738.723 329,738.66Z" style="fill:rgb(77,138,240);fill-opacity:0.5;fill-rule:nonzero;"/>
    </g>
    <g transform="matrix(1,0,0,1,-180.4,-86.46)">
        <path d="M936,341.66C934.111,340.835 933.128,338.702 933.73,336.73C933.777,336.584 933.807,336.433 933.82,336.28C933.834,336.183 933.842,336.085 933.842,335.987C933.842,334.89 932.939,333.987 931.842,333.987C931.156,333.987 930.516,334.34 930.15,334.92C930.058,335.044 929.981,335.178 929.92,335.32C929.099,337.208 926.971,338.195 925,337.6C924.854,337.553 924.703,337.523 924.55,337.51C924.453,337.496 924.355,337.488 924.257,337.488C923.16,337.488 922.257,338.391 922.257,339.488C922.257,340.174 922.61,340.814 923.19,341.18C923.314,341.272 923.448,341.349 923.59,341.41C925.479,342.235 926.462,344.368 925.86,346.34C925.813,346.486 925.783,346.637 925.77,346.79C925.756,346.887 925.748,346.985 925.748,347.083C925.748,348.18 926.651,349.083 927.748,349.083C928.434,349.083 929.074,348.73 929.44,348.15C929.532,348.026 929.609,347.892 929.67,347.75C930.495,345.861 932.628,344.878 934.6,345.48C934.746,345.527 934.897,345.557 935.05,345.57C935.147,345.584 935.245,345.592 935.343,345.592C936.44,345.592 937.343,344.689 937.343,343.592C937.343,342.906 936.99,342.266 936.41,341.9C936.283,341.804 936.146,341.723 936,341.66Z" style="fill:rgb(77,138,240);fill-opacity:0.5;fill-rule:nonzero;"/>
    </g>
    <g transform="matrix(1,0,0,1,-180.4,-86.46)">
        <path d="M908.53,531C906.641,530.175 905.658,528.042 906.26,526.07C906.307,525.924 906.337,525.773 906.35,525.62C906.364,525.523 906.372,525.425 906.372,525.327C906.372,524.23 905.469,523.327 904.372,523.327C903.686,523.327 903.046,523.68 902.68,524.26C902.588,524.384 902.511,524.518 902.45,524.66C901.625,526.549 899.492,527.532 897.52,526.93C897.374,526.883 897.223,526.853 897.07,526.84C896.973,526.826 896.875,526.818 896.777,526.818C895.68,526.818 894.777,527.721 894.777,528.818C894.777,529.504 895.13,530.144 895.71,530.51C895.834,530.602 895.968,530.679 896.11,530.74C897.999,531.565 898.982,533.698 898.38,535.67C898.333,535.816 898.303,535.967 898.29,536.12C898.276,536.217 898.268,536.315 898.268,536.413C898.268,537.51 899.171,538.413 900.268,538.413C900.954,538.413 901.594,538.06 901.96,537.48C902.052,537.356 902.129,537.222 902.19,537.08C903.015,535.191 905.148,534.208 907.12,534.81C907.266,534.857 907.417,534.887 907.57,534.9C907.667,534.914 907.765,534.922 907.863,534.922C908.96,534.922 909.863,534.019 909.863,532.922C909.863,532.236 909.51,531.596 908.93,531.23C908.806,531.138 908.672,531.061 908.53,531Z" style="fill:rgb(77,138,240);fill-opacity:0.5;fill-rule:nonzero;"/>
    </g>
    <g transform="matrix(1,0,0,1,-180.4,-86.46)">
        <path d="M929,153.67C927.111,152.845 926.128,150.712 926.73,148.74C926.777,148.594 926.807,148.443 926.82,148.29C926.834,148.193 926.842,148.095 926.842,147.997C926.842,146.9 925.939,145.997 924.842,145.997C924.156,145.997 923.516,146.35 923.15,146.93C923.058,147.054 922.981,147.188 922.92,147.33C922.095,149.219 919.962,150.202 917.99,149.6C917.844,149.553 917.693,149.523 917.54,149.51C917.443,149.496 917.345,149.488 917.247,149.488C916.15,149.488 915.247,150.391 915.247,151.488C915.247,152.174 915.6,152.814 916.18,153.18C916.304,153.272 916.438,153.349 916.58,153.41C918.469,154.235 919.452,156.368 918.85,158.34C918.803,158.486 918.773,158.637 918.76,158.79C918.746,158.887 918.738,158.985 918.738,159.083C918.738,160.18 919.641,161.083 920.738,161.083C921.424,161.083 922.064,160.73 922.43,160.15C922.522,160.026 922.599,159.892 922.66,159.75C923.485,157.861 925.618,156.878 927.59,157.48C927.736,157.527 927.887,157.557 928.04,157.57C928.137,157.584 928.235,157.592 928.333,157.592C929.43,157.592 930.333,156.689 930.333,155.592C930.333,154.906 929.98,154.266 929.4,153.9C929.276,153.808 929.142,153.731 929,153.67Z" style="fill:rgb(77,138,240);fill-opacity:0.5;fill-rule:nonzero;"/>
    </g>
    <g transform="matrix(1,0,0,1,-180.4,-86.46)">
        <path d="M993.22,645.72C991.331,644.895 990.348,642.762 990.95,640.79C990.997,640.644 991.027,640.493 991.04,640.34C991.054,640.243 991.062,640.145 991.062,640.047C991.062,638.95 990.159,638.047 989.062,638.047C988.376,638.047 987.736,638.4 987.37,638.98C987.278,639.104 987.201,639.238 987.14,639.38C986.315,641.269 984.182,642.252 982.21,641.65C982.064,641.603 981.913,641.573 981.76,641.56C981.663,641.546 981.565,641.538 981.467,641.538C980.37,641.538 979.467,642.441 979.467,643.538C979.467,644.224 979.82,644.864 980.4,645.23C980.524,645.322 980.658,645.399 980.8,645.46C982.689,646.285 983.672,648.418 983.07,650.39C983.023,650.536 982.993,650.687 982.98,650.84C982.966,650.937 982.958,651.035 982.958,651.133C982.958,652.23 983.861,653.133 984.958,653.133C985.644,653.133 986.284,652.78 986.65,652.2C986.742,652.076 986.819,651.942 986.88,651.8C987.705,649.911 989.838,648.928 991.81,649.53C991.956,649.577 992.107,649.607 992.26,649.62C992.357,649.634 992.455,649.642 992.553,649.642C993.65,649.642 994.553,648.739 994.553,647.642C994.553,646.956 994.2,646.316 993.62,645.95C993.496,645.858 993.362,645.781 993.22,645.72Z" style="fill:rgb(77,138,240);fill-opacity:0.5;fill-rule:nonzero;"/>
    </g>
    <circle cx="6.66" cy="257.78" r="6.66" style="fill:rgb(245,95,68);fill-opacity:0.5;"/>
    <circle cx="749.83" cy="146.09" r="6.66" style="fill:rgb(245,95,68);fill-opacity:0.5;"/>
    <circle cx="446.92" cy="395.96" r="7.5" style="fill:rgb(245,95,68);fill-opacity:0.5;"/>
    <circle cx="446.92" cy="395.96" r="7.5" style="fill:rgb(245,95,68);fill-opacity:0.5;"/>
    <circle cx="832.55" cy="346.34" r="6.66" style="fill:rgb(245,95,68);fill-opacity:0.5;"/>
    <circle cx="294.17" cy="47.27" r="7.5" style="fill:rgb(71,230,177);fill-opacity:0.5;"/>
    <circle cx="721.49" cy="621.41" r="6.66" style="fill:rgb(245,95,68);fill-opacity:0.5;"/>
    <g transform="matrix(1,0,0,1,-180.4,-86.46)">
        <path d="M487.1,468C483.16,480.79 489.1,495.91 500.63,502.64C505.47,505.46 511.04,506.88 515.73,509.94C525.92,516.58 529.94,529.29 533.25,540.99C537.05,554.44 540.86,568.66 537.38,582.19C535.16,590.82 530.11,598.45 527.24,606.89C524.84,613.959 524.004,621.466 524.79,628.89C525.21,632.83 526.19,636.89 528.89,639.83C532.79,644.03 539.07,644.66 544.71,645.67C568.878,650.24 589.434,666.156 599.91,688.41" style="fill:none;fill-rule:nonzero;stroke:url(#_Linear1);stroke-width:2px;"/>
    </g>
    <g transform="matrix(1,0,0,1,-180.4,-86.46)">
        <path d="M488.31,468C484.37,480.79 490.31,495.91 501.84,502.64C506.68,505.46 512.25,506.88 516.94,509.94C527.13,516.58 531.15,529.29 534.46,540.99C538.26,554.44 542.07,568.66 538.59,582.19C536.37,590.82 531.32,598.45 528.45,606.89C526.05,613.959 525.214,621.466 526,628.89C526.42,632.83 527.4,636.89 530.1,639.83C534,644.03 540.28,644.66 545.92,645.67C570.088,650.24 590.644,666.156 601.12,688.41" style="fill:none;fill-rule:nonzero;stroke:rgb(83,84,97);stroke-width:2px;"/>
    </g>
    <g transform="matrix(1,0,0,1,-180.4,-86.46)">
        <path d="M637.45,372.4C627.73,385.95 617.64,400.52 616.81,417.18C615.54,442.77 636.01,463.7 645.15,487.64C653.151,508.939 652.135,532.605 642.34,553.14C637.88,562.36 631.52,571.52 632.34,581.73C632.81,587.96 635.93,593.63 638.44,599.36C650.925,628.463 648.778,661.846 632.67,689.11" style="fill:none;fill-rule:nonzero;stroke:url(#_Linear2);stroke-width:2px;"/>
    </g>
    <g transform="matrix(1,0,0,1,-180.4,-86.46)">
        <path d="M638.65,372.4C628.94,386 618.85,400.53 618,417.18C616.73,442.77 637.2,463.7 646.34,487.64C654.341,508.939 653.325,532.605 643.53,553.14C639.07,562.36 632.71,571.52 633.53,581.73C634,587.96 637.12,593.63 639.63,599.36C652.115,628.463 649.968,661.846 633.86,689.11" style="fill:none;fill-rule:nonzero;stroke:rgb(83,84,97);stroke-width:2px;"/>
    </g>
    <g transform="matrix(1,0,0,1,-180.4,-86.46)">
        <path d="M773.83,494.28L778.53,532.59C779.15,537.68 779.68,543.23 776.95,547.59C774.36,551.7 769.5,553.66 765.72,556.7C753.31,566.7 754.44,585.81 758.72,601.15C763,616.49 769.16,632.97 763.21,647.73C760.75,653.82 756.41,658.95 753.21,664.67C747.721,674.443 745.545,685.737 747.01,696.85" style="fill:none;fill-rule:nonzero;stroke:url(#_Linear3);stroke-width:2px;"/>
    </g>
    <g transform="matrix(1,0,0,1,-180.4,-86.46)">
        <path d="M775,494.28L779.7,532.59C780.32,537.68 780.85,543.23 778.12,547.59C775.53,551.7 770.67,553.66 766.89,556.7C754.48,566.7 755.61,585.81 759.89,601.15C764.17,616.49 770.33,632.97 764.38,647.73C761.92,653.82 757.58,658.95 754.38,664.67C748.891,674.443 746.715,685.737 748.18,696.85" style="fill:none;fill-rule:nonzero;stroke:rgb(83,84,97);stroke-width:2px;"/>
    </g>
    <g transform="matrix(1,0,0,1,-180.4,-86.46)">
        <path d="M895.7,336.82C895.672,274.52 844.4,223.271 782.1,223.271C770.181,223.271 758.336,225.147 747,228.83C747.938,222.449 748.423,216.01 748.45,209.56C748.45,209.502 748.45,209.444 748.45,209.387C748.45,147.106 697.201,95.857 634.92,95.857C575.64,95.857 525.83,142.286 521.67,201.42C510.316,197.724 498.45,195.842 486.51,195.842C424.199,195.842 372.922,247.109 372.91,309.42C372.91,366.42 414.91,447.42 469.56,461.77L478.07,466.63L473.45,482.46L500.81,482.46L494.87,466.61L503.34,461.77C545.6,450.68 580.25,399.77 593.82,350.94C601.249,355.885 609.428,359.599 618.04,361.94L626.55,366.8L622,382.59L649.36,382.59L643.42,366.74L651.89,361.9C658.167,360.211 664.213,357.756 669.89,354.59C677.2,409.37 716.09,476.25 765.3,489.16L773.81,494.02L769.19,509.85L796.55,509.85L790.59,494L799.06,489.16C853.75,474.81 895.7,393.78 895.7,336.82Z" style="fill:url(#_Linear4);fill-rule:nonzero;"/>
    </g>
    <path d="M324.76,390.14L298.28,390.14L302.92,374.26L318.8,374.26L324.76,390.14Z" style="fill:rgb(245,95,68);fill-rule:nonzero;"/>
    <g transform="matrix(1,0,0,1,-180.4,-86.46)">
        <path d="M601.12,309.16C601.12,369.84 551.93,458.73 491.26,458.73C430.59,458.73 381.4,369.83 381.4,309.16C381.4,248.89 430.995,199.295 491.265,199.295C551.535,199.295 601.13,248.89 601.13,309.16L601.12,309.16Z" style="fill:rgb(245,95,68);fill-rule:nonzero;"/>
    </g>
    <path d="M318.8,374.92L302.92,374.92L293.65,369.63L328.07,369.63L318.8,374.92Z" style="fill:rgb(83,84,97);fill-rule:nonzero;"/>
    <g transform="matrix(1,0,0,1,-180.4,-86.46)">
        <path d="M451.55,223.78C451.55,223.78 405.22,248.93 398.6,299.23" style="fill:white;fill-opacity:0.1;fill-rule:nonzero;"/>
    </g>
    <path d="M468.43,293.56L441.95,293.56L446.59,277.68L462.47,277.68L468.43,293.56Z" style="fill:rgb(77,138,240);fill-rule:nonzero;"/>
    <g transform="matrix(1,0,0,1,-180.4,-86.46)">
        <path d="M744.79,212.58C744.79,273.26 695.6,362.15 634.93,362.15C574.26,362.15 525.07,273.25 525.07,212.58C525.07,152.31 574.665,102.715 634.935,102.715C695.205,102.715 744.8,152.31 744.8,212.58L744.79,212.58Z" style="fill:rgb(136,115,254);fill-rule:nonzero;"/>
    </g>
    <path d="M462.47,278.34L446.59,278.34L437.32,273.04L471.74,273.04L462.47,278.34Z" style="fill:rgb(83,84,97);fill-rule:nonzero;"/>
    <g transform="matrix(1,0,0,1,-180.4,-86.46)">
        <path d="M595.22,127.2C595.22,127.2 548.89,152.35 542.27,202.65" style="fill:white;fill-opacity:0.1;fill-rule:nonzero;"/>
    </g>
    <path d="M610.89,416.71L584.41,416.71L589.05,400.82L604.93,400.82L610.89,416.71Z" style="fill:rgb(58,210,159);fill-rule:nonzero;"/>
    <g transform="matrix(1,0,0,1,-180.4,-86.46)">
        <path d="M887.25,335.72C887.25,396.4 838.06,485.29 777.39,485.29C716.72,485.29 667.52,396.4 667.52,335.72C667.52,275.45 717.115,225.855 777.385,225.855C837.655,225.855 887.25,275.45 887.25,335.72Z" style="fill:rgb(58,210,159);fill-rule:nonzero;"/>
    </g>
    <path d="M604.93,401.48L589.05,401.48L579.78,396.19L614.2,396.19L604.93,401.48Z" style="fill:rgb(83,84,97);fill-rule:nonzero;"/>
    <g transform="matrix(1,0,0,1,-180.4,-86.46)">
        <path d="M737.68,250.34C737.68,250.34 691.35,275.49 684.73,325.79" style="fill:white;fill-opacity:0.1;fill-rule:nonzero;"/>
    </g>
    <g transform="matrix(1,0,0,1,-180.4,-86.46)">
        <path d="M696.81,521.89C690.44,515.5 681.15,512.96 670.65,514.73C660.83,516.39 651,521.73 642.98,529.73C640.657,532.066 638.704,534.744 637.19,537.67C635.716,534.645 633.779,531.869 631.45,529.44C623.57,521.29 613.83,515.8 604,514C593.54,512 584.21,514.43 577.72,520.71C571.23,526.99 568.57,536.24 570.19,546.76C571.71,556.6 576.89,566.51 584.78,574.64C601.36,591.75 634.45,585.07 635.85,584.77L636.26,584.68L637.53,584.97C638.93,585.29 671.9,592.54 688.77,575.72C696.77,567.72 702.14,557.91 703.84,548.09C705.69,537.58 703.18,528.29 696.81,521.89ZM630.29,574.89C622.29,575.97 602.36,577.43 592.47,567.22C586.11,560.65 581.95,552.81 580.76,545.12C579.68,538.12 581.24,532.12 585.18,528.34C586.718,526.864 588.556,525.738 590.57,525.04C594.292,523.837 598.266,523.637 602.09,524.46C609.73,525.89 617.45,530.29 623.81,536.86C633.7,547 631.62,566.92 630.29,574.88L630.29,574.89ZM693.4,546.28C692.08,553.94 687.79,561.72 681.31,568.17C671.24,578.17 651.31,576.4 643.36,575.17C642.17,567.17 640.43,547.28 650.5,537.24C656.98,530.79 664.77,526.52 672.43,525.24C676.268,524.483 680.239,524.752 683.94,526.02C685.945,526.754 687.767,527.914 689.28,529.42C693.14,533.29 694.6,539.27 693.4,546.27L693.4,546.28Z" style="fill:url(#_Linear5);fill-rule:nonzero;"/>
    </g>
    <g transform="matrix(1,0,0,1,-180.4,-86.46)">
        <path d="M639.1,582.59L635.95,583.25C634.61,583.53 602.95,589.92 587.08,573.55C579.54,565.77 574.58,556.29 573.08,546.87C571.52,536.8 574.08,527.95 580.28,521.94C586.48,515.93 595.41,513.65 605.42,515.52C614.79,517.27 624.11,522.52 631.65,530.31C647.51,546.68 640.13,578.13 639.81,579.46L639.1,582.59ZM592.57,526.1C590.642,526.769 588.882,527.847 587.41,529.26C583.65,532.91 582.15,538.61 583.18,545.32C584.32,552.67 588.3,560.18 594.39,566.47C603.86,576.24 622.93,574.84 630.58,573.81C631.85,566.2 633.85,547.18 624.38,537.41C618.29,531.13 610.91,526.91 603.59,525.55C599.932,524.761 596.131,524.951 592.57,526.1Z" style="fill:rgb(136,115,254);fill-rule:nonzero;"/>
    </g>
    <g transform="matrix(1,0,0,1,-180.4,-86.46)">
        <path d="M634.42,582.73L633.72,579.59C633.42,578.25 626.58,546.68 642.72,530.59C650.4,522.94 659.8,517.85 669.2,516.26C679.2,514.56 688.13,516.99 694.2,523.11C700.27,529.23 702.7,538.11 700.97,548.11C699.35,557.5 694.23,566.89 686.55,574.54C670.41,590.63 638.86,583.69 637.55,583.39L634.42,582.73ZM681.92,527C678.383,525.788 674.589,525.529 670.92,526.25C663.58,527.49 656.13,531.58 649.92,537.75C640.28,547.36 641.92,566.4 643.09,574.04C650.72,575.2 669.77,576.93 679.4,567.33C685.6,561.15 689.7,553.71 690.97,546.33C692.12,539.64 690.72,533.91 687.02,530.2C685.569,528.78 683.83,527.688 681.92,527Z" style="fill:rgb(136,115,254);fill-rule:nonzero;"/>
    </g>
    <path d="M608.43,487.86L301.42,487.86L301.42,549.29L317.37,549.29L317.37,727.08L592.48,727.08L592.48,549.29L608.43,549.29L608.43,487.86Z" style="fill:url(#_Linear6);fill-rule:nonzero;"/>
    <rect x="320.85" y="506.43" width="268.15" height="217.63" style="fill:rgb(83,84,97);"/>
    <rect x="429.66" y="545.29" width="50.52" height="178.76" style="fill:rgb(136,115,254);"/>
    <rect x="320.85" y="494.77" width="268.15" height="54.41" style="fill-opacity:0.1;"/>
    <rect x="305.31" y="490.88" width="299.24" height="54.41" style="fill:rgb(83,84,97);"/>
    <rect x="429.66" y="490.88" width="50.52" height="54.41" style="fill:rgb(136,115,254);"/>
    <defs>
        <linearGradient id="_Linear1" x1="0" y1="0" x2="1" y2="0" gradientUnits="userSpaceOnUse" gradientTransform="matrix(115.93,0,0,115.93,484.88,578.23)"><stop offset="0" style="stop-color:rgb(128,128,128);stop-opacity:0.25"/><stop offset="0.54" style="stop-color:rgb(128,128,128);stop-opacity:0.12"/><stop offset="1" style="stop-color:rgb(128,128,128);stop-opacity:0.1"/></linearGradient>
        <linearGradient id="_Linear2" x1="0" y1="0" x2="1" y2="0" gradientUnits="userSpaceOnUse" gradientTransform="matrix(35.75,0,0,35.75,615.75,530.72)"><stop offset="0" style="stop-color:rgb(128,128,128);stop-opacity:0.25"/><stop offset="0.54" style="stop-color:rgb(128,128,128);stop-opacity:0.12"/><stop offset="1" style="stop-color:rgb(128,128,128);stop-opacity:0.1"/></linearGradient>
        <linearGradient id="_Linear3" x1="0" y1="0" x2="1" y2="0" gradientUnits="userSpaceOnUse" gradientTransform="matrix(34.54,0,0,34.54,745.48,595.56)"><stop offset="0" style="stop-color:rgb(128,128,128);stop-opacity:0.25"/><stop offset="0.54" style="stop-color:rgb(128,128,128);stop-opacity:0.12"/><stop offset="1" style="stop-color:rgb(128,128,128);stop-opacity:0.1"/></linearGradient>
        <linearGradient id="_Linear4" x1="0" y1="0" x2="1" y2="0" gradientUnits="userSpaceOnUse" gradientTransform="matrix(2.53398e-14,-413.83,413.83,2.53398e-14,634.32,509.85)"><stop offset="0" style="stop-color:rgb(128,128,128);stop-opacity:0.25"/><stop offset="0.54" style="stop-color:rgb(128,128,128);stop-opacity:0.12"/><stop offset="1" style="stop-color:rgb(128,128,128);stop-opacity:0.1"/></linearGradient>
        <linearGradient id="_Linear5" x1="0" y1="0" x2="1" y2="0" gradientUnits="userSpaceOnUse" gradientTransform="matrix(4.49874e-15,-73.47,73.47,4.49874e-15,637.11,586.77)"><stop offset="0" style="stop-color:rgb(128,128,128);stop-opacity:0.25"/><stop offset="0.54" style="stop-color:rgb(128,128,128);stop-opacity:0.12"/><stop offset="1" style="stop-color:rgb(128,128,128);stop-opacity:0.1"/></linearGradient>
        <linearGradient id="_Linear6" x1="0" y1="0" x2="1" y2="0" gradientUnits="userSpaceOnUse" gradientTransform="matrix(1.4648e-14,-239.22,239.22,1.4648e-14,454.92,727.08)"><stop offset="0" style="stop-color:rgb(128,128,128);stop-opacity:0.25"/><stop offset="0.54" style="stop-color:rgb(128,128,128);stop-opacity:0.12"/><stop offset="1" style="stop-color:rgb(128,128,128);stop-opacity:0.1"/></linearGradient>
    </defs>
</svg>
