<?xml version="1.0" encoding="UTF-8" standalone="no"?>
<!DOCTYPE svg PUBLIC "-//W3C//DTD SVG 1.1//EN" "http://www.w3.org/Graphics/SVG/1.1/DTD/svg11.dtd">
<svg width="100%" height="100%" viewBox="0 0 689 470" version="1.1" xmlns="http://www.w3.org/2000/svg" xmlns:xlink="http://www.w3.org/1999/xlink" xml:space="preserve" xmlns:serif="http://www.serif.com/" style="fill-rule:evenodd;clip-rule:evenodd;stroke-linecap:round;stroke-linejoin:round;">
    <g transform="matrix(1,0,0,1,-3293.9,-1589.39)">
        <g transform="matrix(1.5,0,0,5.19648,-81.7251,56.9407)">
            <g transform="matrix(-0.568889,0,0,0.164214,5386.47,176.565)">
                <g id="BACKGROUND" transform="matrix(-1,0,0,1,5455.19,720.621)">
                    <g>
                        <clipPath id="_clip1">
                            <rect x="0" y="0.001" width="750" height="499.999" clip-rule="nonzero"/>
                        </clipPath>
                        <g clip-path="url(#_clip1)">
                            <g transform="matrix(1,0,0,1,0,-54.231)">
                                <rect x="0" y="54.232" width="750" height="499.999" style="fill:white;"/>
                            </g>
                            <g transform="matrix(1,0,0,1,0,-54.231)">
                                <rect x="0" y="54.232" width="750" height="499.999" style="fill:none;"/>
                            </g>
                            <g transform="matrix(1.17188,0,0,1.17188,-5770.98,-1073.81)">
                                <path d="M4977.66,1240.04C4974.57,1179.67 5033.66,1162.76 5061.18,1126.05C5084.05,1095.54 5091.57,1048.67 5155.37,1010.09C5222.43,969.525 5319.29,1040.32 5363.39,1065.06C5395.16,1082.88 5407.53,1124.31 5420,1158.53C5433.63,1195.93 5485.74,1243.95 5445.16,1289.44C5414.34,1324 5363.57,1337.52 5310.81,1342.98C5267.69,1347.44 5223.43,1347.19 5186.08,1342.98C5160.61,1340.11 5138.66,1336.96 5123.05,1333.67C5066.64,1321.8 4980.88,1302.79 4977.66,1240.04Z" style="fill:rgb(231,227,255);"/>
                            </g>
                            <g transform="matrix(-0.241377,0.970431,0.970431,0.241377,578.69,329.06)">
                                <rect x="-63.656" y="-49.762" width="94.624" height="10.147" style="fill:rgb(58,23,176);"/>
                            </g>
                            <g transform="matrix(-0.970432,-0.241376,-0.241376,0.970432,547.831,240.865)">
                                <path d="M-11.62,14.483L-1.474,14.483L-6.061,-0.087C-6.211,-0.563 -6.883,-0.563 -7.033,-0.087L-11.62,14.483Z" style="fill:rgb(250,214,177);fill-rule:nonzero;"/>
                            </g>
                            <g transform="matrix(-0.521636,0.853168,0.853168,0.521636,554.681,245.642)">
                                <path d="M-2.405,-2.581L1.724,-2.581L0.687,0.711L-2.697,-1.653C-3.106,-1.939 -2.904,-2.582 -2.405,-2.581" style="fill:rgb(58,23,176);fill-rule:nonzero;"/>
                            </g>
                            <g transform="matrix(-0.241377,0.970431,0.970431,0.241377,580.259,326.103)">
                                <rect x="-60.407" y="-47.223" width="94.624" height="3.452" style="fill:white;"/>
                            </g>
                            <g transform="matrix(1,0,0,1,526.736,347.471)">
                                <path d="M0,14.862L-4.468,13.751C-5.953,13.382 -6.857,11.878 -6.488,10.393L-3.811,-0.37L6.035,2.079L3.358,12.841C2.989,14.327 1.485,15.232 0,14.862" style="fill:rgb(246,183,197);fill-rule:nonzero;"/>
                            </g>
                            <g transform="matrix(0.241327,-0.970444,-0.970444,-0.241327,532.101,348.047)">
                                <rect x="-7.14" y="-1.014" width="5.843" height="10.146" style="fill:rgb(204,203,203);"/>
                            </g>
                            <g transform="matrix(0.241459,-0.970411,-0.970411,-0.241459,530.992,347.354)">
                                <rect x="-6.167" y="-2.257" width="3.279" height="10.146" style="fill:rgb(198,198,197);"/>
                            </g>
                            <g transform="matrix(1,0,0,1,575.475,395.818)">
                                <path d="M0,-96.856C0,-96.856 -2.322,-96.043 -6.011,-94.388C-9.705,-92.736 -14.774,-90.257 -20.326,-86.961C-31.426,-80.327 -44.357,-70.565 -52.251,-56.614C-59.967,-42.981 -60.576,-29.672 -59.2,-19.247C-57.818,-8.85 -54.376,-1.441 -53.833,-0.362C-51.354,-4.345 -48.89,-8.337 -46.444,-12.339L-48.099,-20.542C-48.68,-23.311 -49.262,-26.077 -49.844,-28.849C-51.014,-34.353 -52.185,-39.858 -53.357,-45.373C-51.805,-39.986 -50.426,-34.543 -49.102,-29.049C-48.43,-26.314 -47.835,-23.548 -47.215,-20.777L-45.683,-13.6L-44.007,-16.376C-41.973,-19.722 -39.946,-23.074 -37.965,-26.453L-39.758,-34.517C-40.396,-37.286 -41.034,-40.052 -41.673,-42.824C-42.958,-48.328 -44.242,-53.832 -45.528,-59.347C-43.876,-53.975 -42.364,-48.524 -40.938,-43.041C-40.193,-40.298 -39.555,-37.539 -38.881,-34.772L-37.223,-27.711C-34.861,-31.723 -32.536,-35.757 -30.247,-39.811L-29.748,-40.673L-31.323,-47.198C-31.888,-49.487 -32.452,-51.773 -33.017,-54.065C-34.131,-58.639 -35.274,-63.197 -36.349,-67.761C-34.885,-63.324 -33.551,-58.821 -32.284,-54.295C-31.622,-52.033 -31.045,-49.748 -30.45,-47.468L-29.026,-41.923C-26.576,-46.221 -24.151,-50.533 -21.771,-54.869C-22.69,-58.398 -23.609,-61.925 -24.53,-65.458C-25.458,-69.076 -26.388,-72.681 -27.251,-76.311C-25.998,-72.814 -24.878,-69.268 -23.801,-65.702C-22.823,-62.538 -21.943,-59.35 -21.077,-56.142C-19.722,-58.611 -18.382,-61.087 -17.062,-63.574L-14.061,-69.172C-14.639,-71.223 -15.201,-73.261 -15.726,-75.331L-16.518,-78.492C-16.748,-79.556 -17.012,-80.606 -17.215,-81.677C-16.795,-80.683 -16.439,-79.666 -16.05,-78.658L-14.993,-75.591C-14.409,-73.889 -13.888,-72.167 -13.386,-70.441L-10.691,-75.58C-8.565,-79.582 -6.475,-83.603 -4.424,-87.645C-6.331,-83.533 -8.279,-79.439 -10.263,-75.362L-12.971,-69.94C-11.208,-70.543 -9.445,-71.148 -7.673,-71.704C-5.66,-72.345 -3.639,-72.976 -1.583,-73.509C-3.523,-72.578 -5.49,-71.757 -7.458,-70.962C-9.417,-70.151 -11.424,-69.439 -13.411,-68.727L-13.622,-68.652L-16.396,-63.222C-17.736,-60.646 -19.098,-58.082 -20.473,-55.524C-17.193,-56.591 -13.914,-57.658 -10.636,-58.723L-5.251,-60.445C-3.451,-60.994 -1.661,-61.583 0.152,-62.113C-1.6,-61.36 -3.361,-60.673 -5.121,-59.965L-10.433,-57.969C-13.959,-56.647 -17.543,-55.449 -21.09,-54.263L-21.16,-54.24C-23.508,-49.882 -25.898,-45.547 -28.317,-41.228L-22.497,-43.011L-15.686,-45.128L-8.853,-47.243L-1.997,-49.324C-4.237,-48.429 -6.49,-47.606 -8.729,-46.757L-15.495,-44.369C-17.738,-43.565 -20.017,-42.856 -22.276,-42.116L-29.034,-39.964L-29.397,-39.325C-31.767,-35.212 -34.17,-31.119 -36.615,-27.05C-34.163,-27.734 -31.715,-28.435 -29.273,-29.152L-21.009,-31.583L-12.724,-34.044L-4.41,-36.5C-7.137,-35.472 -9.883,-34.526 -12.608,-33.557L-20.832,-30.819C-23.559,-29.904 -26.332,-29.096 -29.069,-28.252L-37.308,-25.81L-37.372,-25.792C-39.34,-22.503 -41.35,-19.24 -43.369,-15.982L-45.242,-13.021L-37.767,-14.998L-29.495,-17.254L-21.205,-19.542L-12.886,-21.822C-15.625,-20.855 -18.351,-19.954 -21.101,-19.053L-29.336,-16.489C-32.084,-15.642 -34.835,-14.877 -37.581,-14.094L-45.828,-11.825L-46.033,-11.77C-48.512,-7.888 -51.033,-4.034 -53.59,-0.205C-52.406,-0.177 -44.209,0 -34.089,-3.561C-23.993,-7.103 -11.913,-14.504 -3.626,-29.146C4.856,-44.138 5.927,-61.368 4.664,-74.502C4.052,-81.081 2.874,-86.676 1.859,-90.618C0.84,-94.563 0,-96.856 0,-96.856" style="fill:rgb(5,217,229);fill-rule:nonzero;"/>
                            </g>
                            <g transform="matrix(1,0,0,1,529.648,319.794)">
                                <path d="M0,64.2L8.247,61.93C10.993,61.148 13.743,60.383 16.492,59.535L24.727,56.972C27.477,56.071 30.203,55.17 32.942,54.202L24.623,56.483L16.333,58.77L8.061,61.027L0.586,63.004L2.459,60.042C4.478,56.785 6.488,53.521 8.456,50.233L8.52,50.215L16.759,47.773C19.496,46.929 22.269,46.121 24.996,45.205L33.219,42.468C35.944,41.498 38.69,40.553 41.418,39.525L33.104,41.98L24.819,44.442L16.554,46.872C14.112,47.59 11.665,48.29 9.212,48.974C11.657,44.906 14.061,40.813 16.431,36.7L16.793,36.06L23.552,33.908C25.811,33.168 28.09,32.46 30.333,31.656L37.099,29.267C39.338,28.419 41.59,27.596 43.831,26.7L36.975,28.782L30.142,30.897L23.331,33.013L17.51,34.797C19.929,30.477 22.319,26.142 24.668,21.785L24.737,21.762C28.285,20.575 31.869,19.378 35.395,18.055L40.707,16.06C42.467,15.351 44.228,14.664 45.98,13.912C44.167,14.442 42.376,15.031 40.577,15.579L35.191,17.302C31.914,18.367 28.635,19.433 25.355,20.5C26.729,17.943 28.092,15.379 29.432,12.803L32.206,7.373L32.417,7.298C34.404,6.585 36.411,5.873 38.37,5.063C40.337,4.267 42.304,3.447 44.245,2.516C42.189,3.049 40.167,3.68 38.154,4.321C36.382,4.876 34.62,5.482 32.857,6.085L35.564,0.662C37.549,-3.414 39.497,-7.508 41.404,-11.62C39.353,-7.578 37.262,-3.557 35.136,0.445L32.441,5.584C31.939,3.858 31.419,2.136 30.835,0.433L29.777,-2.633C29.389,-3.641 29.032,-4.658 28.613,-5.652C28.815,-4.581 29.08,-3.531 29.31,-2.467L30.102,0.694C30.627,2.763 31.189,4.802 31.767,6.852L28.765,12.45C27.445,14.937 26.105,17.414 24.751,19.883C23.884,16.675 23.004,13.487 22.027,10.323C20.949,6.757 19.83,3.211 18.577,-0.286C19.44,3.344 20.37,6.949 21.297,10.567C22.218,14.1 23.138,17.627 24.057,21.156C21.677,25.492 19.251,29.804 16.802,34.101L15.378,28.556C14.782,26.277 14.206,23.992 13.544,21.729C12.276,17.203 10.943,12.701 9.479,8.263C10.553,12.828 11.696,17.386 12.811,21.96C13.376,24.252 13.94,26.538 14.504,28.827L16.08,35.352L15.581,36.214C13.292,40.268 10.967,44.302 8.605,48.313L6.947,41.253C6.273,38.486 5.634,35.727 4.89,32.984C3.463,27.5 1.951,22.05 0.299,16.678C1.586,22.193 2.87,27.697 4.154,33.201C4.793,35.972 5.431,38.739 6.07,41.508L7.863,49.572C5.882,52.951 3.854,56.303 1.82,59.649L0.145,62.425L-1.387,55.247C-2.007,52.477 -2.603,49.71 -3.274,46.975C-4.599,41.482 -5.978,36.038 -7.529,30.652C-6.357,36.166 -5.187,41.672 -4.016,47.176C-3.434,49.948 -2.853,52.714 -2.271,55.483L-0.617,63.686C-3.063,67.688 -5.526,71.679 -8.005,75.662C-7.961,75.752 -7.931,75.813 -7.931,75.813C-7.931,75.813 -7.862,75.816 -7.763,75.82C-5.205,71.991 -2.685,68.137 -0.205,64.255L0,64.2Z" style="fill:rgb(58,23,176);fill-rule:nonzero;"/>
                            </g>
                            <g transform="matrix(1,0,0,1,598.772,426.988)">
                                <path d="M0,-79.735C0,-79.735 -2.577,-79.765 -6.801,-79.458C-11.028,-79.153 -16.906,-78.528 -23.551,-77.271C-36.854,-74.714 -53.078,-69.734 -65.844,-58.827C-78.319,-48.169 -83.684,-35.285 -86.062,-24.529C-88.423,-13.8 -87.687,-5.275 -87.539,-4.018C-83.672,-7.051 -79.818,-10.099 -75.978,-13.163L-74.67,-21.83C-74.251,-24.764 -73.833,-27.695 -73.414,-30.632C-72.595,-36.47 -71.776,-42.308 -70.957,-48.157C-71.357,-42.298 -71.948,-36.446 -72.611,-30.564C-72.929,-27.631 -73.334,-24.695 -73.715,-21.746L-74.777,-14.132L-72.134,-16.264C-68.933,-18.831 -65.737,-21.403 -62.578,-24.021L-61.456,-32.601C-61.093,-35.556 -60.73,-38.507 -60.367,-41.464C-59.661,-47.342 -58.955,-53.221 -58.247,-59.11C-58.544,-53.231 -59.007,-47.323 -59.566,-41.415C-59.815,-38.448 -60.173,-35.504 -60.501,-32.538L-61.396,-24.994C-57.635,-28.098 -53.903,-31.237 -50.198,-34.407L-49.398,-35.078L-48.613,-42.065C-48.349,-44.52 -48.085,-46.973 -47.821,-49.431C-47.281,-54.334 -46.775,-59.229 -46.198,-64.107C-46.346,-59.214 -46.645,-54.305 -47.018,-49.396C-47.176,-46.932 -47.426,-44.476 -47.656,-42.019L-48.239,-36.05C-44.29,-39.403 -40.358,-42.78 -36.462,-46.197C-36.105,-49.999 -35.747,-53.8 -35.388,-57.609C-35.006,-61.502 -34.631,-65.383 -34.182,-69.266C-34.2,-65.375 -34.367,-61.484 -34.583,-57.588C-34.753,-54.123 -35.029,-50.67 -35.324,-47.201C-33.107,-49.147 -30.901,-51.105 -28.711,-53.081L-23.752,-57.517C-23.587,-59.742 -23.411,-61.95 -23.187,-64.175L-22.835,-67.57C-22.681,-68.7 -22.564,-69.829 -22.381,-70.956C-22.324,-69.827 -22.337,-68.698 -22.315,-67.567L-22.372,-64.169C-22.406,-62.285 -22.51,-60.403 -22.634,-58.524L-18.142,-62.618C-14.617,-65.797 -11.119,-69.006 -7.653,-72.251C-11.002,-68.886 -14.385,-65.553 -17.798,-62.251L-22.405,-57.882C-20.454,-57.845 -18.501,-57.81 -16.558,-57.722C-14.347,-57.632 -12.131,-57.529 -9.917,-57.319C-12.16,-57.096 -14.39,-56.993 -16.612,-56.915C-18.831,-56.818 -21.062,-56.836 -23.272,-56.846L-23.507,-56.847L-28.181,-52.495C-30.423,-50.44 -32.682,-48.403 -34.951,-46.377C-31.34,-46.253 -27.73,-46.129 -24.123,-46.005L-18.204,-45.772C-16.236,-45.667 -14.263,-45.606 -12.289,-45.479C-14.283,-45.365 -16.262,-45.32 -18.248,-45.252L-24.192,-45.189C-28.136,-45.15 -32.093,-45.255 -36.01,-45.357L-36.086,-45.359C-39.958,-41.91 -43.863,-38.498 -47.791,-35.112L-41.422,-34.784L-33.96,-34.429L-26.477,-34.065L-18.982,-33.659C-21.509,-33.58 -24.021,-33.576 -26.528,-33.543L-34.044,-33.614C-36.54,-33.625 -39.037,-33.743 -41.526,-33.824L-48.949,-34.125L-49.535,-33.625C-53.34,-30.425 -57.172,-27.256 -61.035,-24.126C-58.376,-23.922 -55.716,-23.735 -53.055,-23.567L-44.049,-23.001L-35.012,-22.458L-25.949,-21.899C-29.002,-21.863 -32.043,-21.915 -35.073,-21.936L-44.148,-22.186C-47.161,-22.261 -50.18,-22.458 -53.176,-22.607L-62.161,-23.153L-62.23,-23.158C-65.345,-20.625 -68.492,-18.132 -71.646,-15.649L-74.55,-13.403L-66.483,-12.673L-57.533,-11.934L-48.553,-11.218L-39.547,-10.485C-42.59,-10.512 -45.597,-10.602 -48.625,-10.699L-57.65,-11.124C-60.66,-11.273 -63.641,-11.505 -66.625,-11.718L-75.555,-12.436L-75.776,-12.455C-79.607,-9.522 -83.468,-6.631 -87.356,-3.777C-86.2,-3.325 -78.195,-0.216 -66.958,-0.098C-55.751,0.03 -41.209,-2.932 -27.81,-14.379C-14.092,-26.101 -6.87,-42.678 -3.412,-56.059C-1.659,-62.755 -0.815,-68.685 -0.403,-72.929C0.005,-77.176 0,-79.735 0,-79.735" style="fill:rgb(95,84,255);fill-rule:nonzero;"/>
                            </g>
                            <g transform="matrix(1,0,0,1,523.217,363.396)">
                                <path d="M0,51.156L8.93,51.874C11.914,52.087 14.895,52.319 17.905,52.468L26.929,52.893C29.958,52.99 32.965,53.08 36.007,53.108L27.002,52.374L18.021,51.658L9.071,50.919L1.005,50.189L3.909,47.944C7.062,45.46 10.209,42.967 13.324,40.434L13.394,40.439L22.378,40.985C25.375,41.134 28.394,41.331 31.406,41.406L40.481,41.656C43.511,41.677 46.553,41.729 49.606,41.693L40.542,41.134L31.505,40.592L22.5,40.026C19.838,39.857 17.179,39.671 14.52,39.466C18.383,36.336 22.214,33.167 26.02,29.967L26.605,29.468L34.029,29.768C36.518,29.849 39.015,29.967 41.51,29.978L49.027,30.05C51.534,30.016 54.046,30.012 56.572,29.933L49.078,29.528L41.595,29.163L34.132,28.808L27.764,28.48C31.691,25.094 35.596,21.682 39.468,18.234L39.544,18.236C43.461,18.338 47.418,18.442 51.363,18.403L57.307,18.34C59.293,18.272 61.271,18.227 63.266,18.114C61.292,17.986 59.318,17.925 57.351,17.82L51.432,17.588C47.825,17.464 44.215,17.339 40.604,17.215C42.873,15.189 45.132,13.153 47.374,11.097L52.047,6.745L52.282,6.746C54.493,6.757 56.724,6.774 58.942,6.677C61.165,6.599 63.395,6.496 65.638,6.273C63.423,6.063 61.208,5.96 58.997,5.87C57.053,5.782 55.101,5.747 53.15,5.71L57.757,1.342C61.169,-1.961 64.553,-5.294 67.902,-8.659C64.436,-5.414 60.938,-2.204 57.413,0.974L52.92,5.068C53.044,3.189 53.148,1.307 53.183,-0.577L53.24,-3.974C53.218,-5.106 53.231,-6.235 53.174,-7.364C52.99,-6.237 52.874,-5.108 52.72,-3.978L52.368,-0.583C52.144,1.642 51.967,3.85 51.803,6.075L46.843,10.511C44.653,12.487 42.448,14.445 40.231,16.391C40.526,12.923 40.801,9.469 40.972,6.005C41.188,2.108 41.354,-1.783 41.373,-5.674C40.923,-1.791 40.549,2.09 40.167,5.984C39.808,9.792 39.45,13.593 39.092,17.395C35.196,20.812 31.265,24.189 27.315,27.542L27.899,21.573C28.128,19.116 28.379,16.66 28.537,14.197C28.91,9.287 29.209,4.378 29.356,-0.515C28.78,4.363 28.274,9.259 27.733,14.161C27.469,16.619 27.206,19.072 26.941,21.528L26.156,28.514L25.357,29.185C21.652,32.355 17.919,35.494 14.158,38.598L15.054,31.054C15.381,28.089 15.74,25.144 15.989,22.177C16.548,16.269 17.011,10.362 17.308,4.482C16.6,10.371 15.894,16.25 15.188,22.128C14.824,25.085 14.461,28.036 14.099,30.991L12.977,39.572C9.817,42.189 6.622,44.761 3.421,47.328L0.778,49.46L1.839,41.846C2.221,38.897 2.625,35.961 2.943,33.028C3.606,27.146 4.198,21.294 4.598,15.435C3.778,21.284 2.959,27.122 2.141,32.96C1.722,35.897 1.304,38.828 0.885,41.762L-0.423,50.429C-4.264,53.493 -8.118,56.541 -11.984,59.574C-11.973,59.677 -11.965,59.749 -11.965,59.749C-11.965,59.749 -11.898,59.777 -11.802,59.815C-7.913,56.962 -4.052,54.07 -0.222,51.137L0,51.156Z" style="fill:rgb(58,23,176);fill-rule:nonzero;"/>
                            </g>
                            <g transform="matrix(1,0,0,1,189.797,395.705)">
                                <path d="M0,-89.84C0,-89.84 2.227,-89.161 5.779,-87.741C9.335,-86.324 14.225,-84.178 19.602,-81.279C30.355,-75.441 42.961,-66.717 50.969,-53.836C58.796,-41.249 59.891,-28.691 58.998,-18.781C58.097,-8.898 55.132,-1.76 54.661,-0.718C52.161,-4.387 49.677,-8.065 47.208,-11.752L48.452,-19.571C48.894,-22.212 49.335,-24.85 49.777,-27.493C50.669,-32.743 51.56,-37.993 52.454,-43.253C51.196,-38.099 50.105,-32.899 49.068,-27.654C48.54,-25.042 48.085,-22.403 47.607,-19.76L46.439,-12.915L44.747,-15.473C42.693,-18.558 40.645,-21.647 38.641,-24.764L40.021,-32.458C40.516,-35.101 41.011,-37.741 41.507,-40.386C42.506,-45.64 43.505,-50.894 44.506,-56.157C43.155,-51.014 41.938,-45.802 40.803,-40.562C40.207,-37.94 39.71,-35.307 39.182,-32.664L37.89,-25.925C35.5,-29.626 33.145,-33.348 30.822,-37.091L30.317,-37.887L31.552,-44.117C31.996,-46.303 32.439,-48.486 32.884,-50.675C33.759,-55.044 34.663,-59.397 35.5,-63.754C34.289,-59.502 33.204,-55.193 32.183,-50.864C31.645,-48.7 31.189,-46.517 30.715,-44.339L29.585,-39.041C27.102,-43.008 24.641,-46.989 22.221,-50.997C22.953,-54.368 23.684,-57.738 24.417,-61.115C25.152,-64.571 25.891,-68.015 26.565,-71.481C25.517,-68.126 24.597,-64.73 23.717,-61.317C22.917,-58.287 22.209,-55.239 21.515,-52.173C20.139,-54.454 18.775,-56.743 17.43,-59.042L14.374,-64.217C14.84,-66.178 15.292,-68.128 15.707,-70.105L16.333,-73.124C16.509,-74.139 16.717,-75.142 16.867,-76.162C16.51,-75.206 16.212,-74.23 15.884,-73.262L15.004,-70.322C14.519,-68.69 14.093,-67.042 13.687,-65.39L10.938,-70.143C8.772,-73.843 6.639,-77.564 4.542,-81.304C6.505,-77.491 8.507,-73.697 10.542,-69.921L13.313,-64.901C11.624,-65.402 9.933,-65.905 8.236,-66.361C6.308,-66.888 4.373,-67.406 2.408,-67.83C4.279,-67.025 6.17,-66.327 8.062,-65.652C9.945,-64.962 11.871,-64.367 13.777,-63.771L13.979,-63.708L16.813,-58.683C18.181,-56.3 19.569,-53.929 20.969,-51.565C17.826,-52.445 14.684,-53.326 11.544,-54.205L6.386,-55.623C4.663,-56.071 2.947,-56.558 1.213,-56.988C2.899,-56.345 4.59,-55.765 6.282,-55.164L11.381,-53.484C14.767,-52.372 18.202,-51.38 21.602,-50.397L21.668,-50.378C24.059,-46.35 26.488,-42.345 28.943,-38.356L23.37,-39.815L16.849,-41.549L10.306,-43.282L3.744,-44.982C5.897,-44.223 8.059,-43.533 10.208,-42.819L16.698,-40.824C18.85,-40.152 21.032,-39.571 23.197,-38.96L29.67,-37.189L30.038,-36.599C32.439,-32.803 34.871,-29.027 37.341,-25.277C34.996,-25.827 32.655,-26.394 30.318,-26.977L22.41,-28.952L14.481,-30.956L6.526,-32.953C9.145,-32.087 11.777,-31.3 14.392,-30.49L22.273,-28.224C24.886,-27.464 27.54,-26.809 30.16,-26.118L38.044,-24.131L38.105,-24.116C40.095,-21.084 42.122,-18.077 44.158,-15.077L46.044,-12.35L38.9,-13.927L30.993,-15.737L23.065,-17.577L15.112,-19.407C17.739,-18.6 20.352,-17.855 22.986,-17.11L30.872,-15.008C33.503,-14.314 36.134,-13.698 38.761,-13.066L46.645,-11.242L46.841,-11.198C49.337,-7.626 51.87,-4.08 54.438,-0.56C53.319,-0.487 45.577,0 35.87,-2.971C26.187,-5.925 14.478,-12.451 6.072,-25.97C-2.533,-39.812 -4.218,-56.059 -3.537,-68.524C-3.215,-74.768 -2.319,-80.104 -1.514,-83.87C-0.704,-87.639 0,-89.84 0,-89.84" style="fill:rgb(101,92,255);fill-rule:nonzero;"/>
                            </g>
                            <g transform="matrix(1,0,0,1,236.442,325.083)">
                                <path d="M0,59.38L-7.884,57.557C-10.511,56.924 -13.142,56.308 -15.773,55.614L-23.659,53.512C-26.293,52.768 -28.906,52.023 -31.533,51.215L-23.58,53.046L-15.652,54.885L-7.745,56.695L-0.601,58.273L-2.487,55.546C-4.523,52.545 -6.55,49.538 -8.54,46.506L-8.601,46.491L-16.485,44.505C-19.105,43.814 -21.759,43.158 -24.372,42.399L-32.253,40.132C-34.868,39.322 -37.5,38.536 -40.119,37.67L-32.164,39.667L-24.235,41.67L-16.327,43.646C-13.99,44.228 -11.649,44.795 -9.304,45.346C-11.774,41.595 -14.206,37.819 -16.607,34.023L-16.975,33.433L-23.448,31.663C-25.613,31.051 -27.795,30.47 -29.947,29.798L-36.437,27.804C-38.586,27.089 -40.748,26.4 -42.901,25.64L-36.339,27.34L-29.796,29.073L-23.275,30.808L-17.702,32.266C-20.157,28.277 -22.586,24.273 -24.977,20.245L-25.043,20.226C-28.443,19.242 -31.878,18.251 -35.264,17.138L-40.363,15.459C-42.055,14.858 -43.746,14.277 -45.432,13.634C-43.698,14.065 -41.982,14.551 -40.259,14.999L-35.101,16.417C-31.961,17.297 -28.819,18.177 -25.676,19.057C-27.076,16.693 -28.464,14.322 -29.832,11.939L-32.666,6.914L-32.868,6.851C-34.774,6.255 -36.7,5.661 -38.583,4.971C-40.475,4.296 -42.366,3.597 -44.237,2.793C-42.272,3.216 -40.337,3.734 -38.409,4.261C-36.712,4.717 -35.021,5.221 -33.332,5.722L-36.104,0.701C-38.138,-3.075 -40.14,-6.869 -42.103,-10.682C-40.006,-6.941 -37.873,-3.221 -35.707,0.479L-32.958,5.232C-32.552,3.581 -32.126,1.932 -31.641,0.3L-30.761,-2.64C-30.433,-3.608 -30.135,-4.584 -29.778,-5.539C-29.928,-4.519 -30.136,-3.516 -30.312,-2.501L-30.938,0.518C-31.353,2.495 -31.805,4.444 -32.271,6.405L-29.215,11.58C-27.87,13.88 -26.506,16.169 -25.13,18.449C-24.436,15.383 -23.728,12.335 -22.928,9.305C-22.048,5.892 -21.128,2.496 -20.08,-0.859C-20.754,2.607 -21.493,6.051 -22.229,9.507C-22.961,12.884 -23.692,16.255 -24.424,19.626C-22.004,23.633 -19.543,27.614 -17.06,31.582L-15.93,26.284C-15.456,24.105 -15,21.922 -14.462,19.758C-13.441,15.429 -12.356,11.121 -11.145,6.869C-11.982,11.226 -12.886,15.579 -13.761,19.947C-14.206,22.136 -14.649,24.319 -15.093,26.505L-16.328,32.735L-15.823,33.531C-13.5,37.274 -11.145,40.997 -8.755,44.697L-7.463,37.958C-6.935,35.315 -6.438,32.682 -5.842,30.06C-4.707,24.82 -3.49,19.608 -2.139,14.465C-3.14,19.729 -4.139,24.983 -5.138,30.236C-5.634,32.881 -6.129,35.522 -6.624,38.164L-8.004,45.859C-6,48.975 -3.952,52.065 -1.898,55.149L-0.206,57.707L0.962,50.862C1.44,48.219 1.895,45.58 2.423,42.968C3.46,37.723 4.551,32.523 5.809,27.37C4.915,32.63 4.024,37.88 3.132,43.129C2.69,45.772 2.249,48.41 1.807,51.051L0.563,58.87C3.032,62.558 5.516,66.235 8.016,69.904C7.978,69.99 7.951,70.049 7.951,70.049C7.951,70.049 7.886,70.055 7.793,70.062C5.225,66.542 2.692,62.997 0.196,59.424L0,59.38Z" style="fill:rgb(58,23,176);fill-rule:nonzero;"/>
                            </g>
                            <g transform="matrix(0.513335,0.858188,0.858188,-0.513335,214.615,327.097)">
                                <rect x="-23.334" y="-41.146" width="80.644" height="8.646" style="fill:rgb(255,138,185);"/>
                            </g>
                            <g transform="matrix(-0.858186,0.513339,0.513339,0.858186,163.802,322.286)">
                                <path d="M-8.638,6.879L0.009,6.879L-3.901,-5.538C-4.028,-5.943 -4.602,-5.943 -4.729,-5.537L-8.638,6.879Z" style="fill:rgb(250,214,177);fill-rule:nonzero;"/>
                            </g>
                            <g transform="matrix(0.231889,0.972742,0.972742,-0.231889,166.872,314.997)">
                                <path d="M-0.075,-2.62L3.444,-2.62L2.56,0.187L-0.324,-1.829C-0.673,-2.072 -0.5,-2.62 -0.075,-2.62" style="fill:rgb(255,138,185);fill-rule:nonzero;"/>
                            </g>
                            <g transform="matrix(0.513335,0.858188,0.858188,-0.513335,212.102,325.748)">
                                <rect x="-20.885" y="-36.83" width="80.643" height="2.942" style="fill:white;"/>
                            </g>
                            <g transform="matrix(1,0,0,1,220.182,395.646)">
                                <path d="M0,8.667L-3.367,10.681C-4.487,11.351 -5.937,10.986 -6.606,9.867L-11.458,1.755L-4.038,-2.684L0.814,5.428C1.484,6.547 1.119,7.998 0,8.667" style="fill:rgb(246,183,197);fill-rule:nonzero;"/>
                            </g>
                            <g transform="matrix(-0.513343,-0.858183,-0.858183,0.513343,211.079,393.08)">
                                <rect x="-7.478" y="-4.407" width="4.979" height="8.647" style="fill:rgb(204,203,203);"/>
                            </g>
                            <g transform="matrix(-0.513338,-0.858187,-0.858187,0.513338,210.521,393.97)">
                                <rect x="-5.826" y="-5.343" width="2.795" height="8.647" style="fill:rgb(198,198,197);"/>
                            </g>
                            <g transform="matrix(1,0,0,1,151.228,426.515)">
                                <path d="M0,-61.226C0,-61.226 2.442,-61.8 6.521,-62.402C10.603,-63.008 16.32,-63.658 22.9,-63.871C36.083,-64.257 52.554,-62.96 66.994,-55.298C81.105,-47.811 88.93,-36.705 93.467,-26.987C97.982,-17.292 99.088,-9.035 99.213,-7.809C94.896,-9.873 90.589,-11.954 86.291,-14.052L83.213,-22.01C82.194,-24.71 81.176,-27.407 80.156,-30.109C78.142,-35.483 76.128,-40.857 74.111,-46.242C75.732,-40.759 77.533,-35.323 79.408,-29.874C80.331,-27.155 81.337,-24.45 82.324,-21.728L84.944,-14.718L81.982,-16.185C78.397,-17.946 74.815,-19.714 71.259,-21.532L68.376,-29.449C67.406,-32.179 66.437,-34.907 65.466,-37.641C63.55,-43.076 61.634,-48.513 59.715,-53.958C61.242,-48.435 62.933,-42.92 64.714,-37.423C65.579,-34.657 66.543,-31.935 67.482,-29.186L69.931,-22.207C65.699,-24.36 61.488,-26.553 57.296,-28.781L56.395,-29.249L54.169,-35.722C53.398,-37.999 52.628,-40.274 51.857,-42.554C50.306,-47.098 48.788,-51.643 47.208,-56.156C48.384,-51.538 49.708,-46.936 51.101,-42.351C51.772,-40.043 52.531,-37.762 53.27,-35.476L55.087,-29.928C50.624,-32.278 46.174,-34.654 41.749,-37.076C40.604,-40.613 39.458,-44.15 38.312,-47.692C37.124,-51.311 35.946,-54.92 34.697,-58.515C35.538,-54.821 36.521,-51.159 37.551,-47.502C38.446,-44.246 39.439,-41.023 40.454,-37.789C37.935,-39.169 35.425,-40.563 32.925,-41.976L27.274,-45.142C26.646,-47.222 26.011,-49.283 25.327,-51.35L24.274,-54.501C23.888,-55.542 23.539,-56.59 23.125,-57.622C23.31,-56.538 23.562,-55.467 23.781,-54.388L24.554,-51.171C24.986,-49.388 25.483,-47.622 25.998,-45.862L20.863,-48.802C16.84,-51.076 12.836,-53.385 8.856,-55.735C12.751,-53.246 16.671,-50.796 20.614,-48.38L25.916,-45.204C24.07,-44.755 22.222,-44.309 20.395,-43.814C18.312,-43.261 16.229,-42.694 14.169,-42.025C16.348,-42.289 18.488,-42.663 20.617,-43.058C22.745,-43.436 24.861,-43.925 26.96,-44.403L27.183,-44.454L32.546,-41.308C35.111,-39.829 37.688,-38.372 40.273,-36.928C36.869,-36.045 33.464,-35.163 30.063,-34.281L24.488,-32.807C22.641,-32.29 20.778,-31.815 18.929,-31.276C20.849,-31.591 22.738,-31.966 24.64,-32.323L30.301,-33.521C34.058,-34.319 37.796,-35.256 41.497,-36.182L41.568,-36.2C45.978,-33.743 50.411,-31.328 54.86,-28.941L48.877,-27.281L41.862,-25.364L34.828,-23.433L27.792,-21.462C30.21,-21.921 32.597,-22.449 34.987,-22.948L42.114,-24.607C44.483,-25.146 46.831,-25.788 49.179,-26.391L56.169,-28.248L56.832,-27.898C61.125,-25.662 65.437,-23.462 69.771,-21.306C67.287,-20.549 64.799,-19.809 62.307,-19.085L53.869,-16.641L45.396,-14.211L36.902,-11.761C39.811,-12.373 42.69,-13.067 45.564,-13.729L54.135,-15.887C56.981,-16.596 59.809,-17.423 62.625,-18.199L71.046,-20.62L71.111,-20.639C74.607,-18.892 78.125,-17.189 81.648,-15.497L84.883,-13.977L77.373,-11.576L69.024,-8.979L60.643,-6.397L52.24,-3.794C55.125,-4.464 57.963,-5.186 60.821,-5.92L69.307,-8.234C72.135,-9.013 74.919,-9.865 77.709,-10.698L86.042,-13.271L86.25,-13.336C90.51,-11.36 94.791,-9.43 99.09,-7.541C98.088,-6.867 91.139,-2.218 80.486,0.273C69.864,2.767 55.418,3.031 40.262,-5.01C24.746,-13.244 14.374,-27.468 8.254,-39.451C5.171,-45.442 3.114,-50.899 1.824,-54.844C0.536,-58.794 0,-61.226 0,-61.226" style="fill:rgb(5,217,229);fill-rule:nonzero;"/>
                            </g>
                            <g transform="matrix(1,0,0,1,237.27,377.479)">
                                <path d="M0,35.765L-8.333,38.338C-11.124,39.172 -13.908,40.023 -16.735,40.803L-25.221,43.117C-28.079,43.85 -30.917,44.572 -33.802,45.243L-25.4,42.639L-17.018,40.057L-8.67,37.46L-1.159,35.059L-4.395,33.54C-7.917,31.848 -11.435,30.144 -14.931,28.398L-14.996,28.417L-23.418,30.838C-26.234,31.614 -29.061,32.44 -31.907,33.149L-40.478,35.307C-43.353,35.969 -46.232,36.663 -49.141,37.275L-40.646,34.825L-32.174,32.396L-23.736,29.952C-21.243,29.228 -18.755,28.488 -16.271,27.73C-20.605,25.575 -24.917,23.374 -29.211,21.139L-29.873,20.788L-36.863,22.646C-39.211,23.249 -41.56,23.89 -43.928,24.429L-51.056,26.088C-53.445,26.587 -55.833,27.116 -58.25,27.575L-51.215,25.603L-44.181,23.672L-37.165,21.755L-31.183,20.095C-35.631,17.709 -40.064,15.294 -44.474,12.836L-44.546,12.854C-48.247,13.781 -51.984,14.718 -55.741,15.515L-61.402,16.714C-63.304,17.07 -65.194,17.446 -67.113,17.761C-65.264,17.222 -63.402,16.746 -61.554,16.229L-55.979,14.755C-52.578,13.874 -49.174,12.992 -45.769,12.109C-48.354,10.664 -50.932,9.207 -53.497,7.728L-58.86,4.582L-59.083,4.634C-61.181,5.111 -63.297,5.6 -65.426,5.978C-67.554,6.374 -69.695,6.748 -71.874,7.012C-69.814,6.343 -67.73,5.776 -65.648,5.223C-63.82,4.728 -61.973,4.281 -60.126,3.832L-65.429,0.657C-69.371,-1.759 -73.292,-4.21 -77.187,-6.698C-73.206,-4.349 -69.203,-2.039 -65.18,0.235L-60.044,3.174C-60.56,1.415 -61.057,-0.351 -61.489,-2.135L-62.262,-5.351C-62.48,-6.43 -62.732,-7.501 -62.917,-8.585C-62.504,-7.554 -62.155,-6.506 -61.769,-5.465L-60.716,-2.313C-60.032,-0.246 -59.396,1.814 -58.769,3.894L-53.117,7.06C-50.618,8.473 -48.107,9.868 -45.589,11.247C-46.604,8.014 -47.596,4.79 -48.492,1.534C-49.521,-2.123 -50.504,-5.784 -51.346,-9.478C-50.096,-5.884 -48.918,-2.275 -47.731,1.344C-46.584,4.887 -45.439,8.423 -44.294,11.96C-39.869,14.382 -35.418,16.759 -30.955,19.109L-32.773,13.561C-33.512,11.274 -34.27,8.994 -34.942,6.686C-36.335,2.1 -37.659,-2.502 -38.834,-7.12C-37.254,-2.607 -35.737,1.938 -34.186,6.482C-33.414,8.762 -32.644,11.037 -31.874,13.314L-29.648,19.787L-28.747,20.255C-24.555,22.484 -20.343,24.676 -16.112,26.829L-18.56,19.85C-19.499,17.101 -20.463,14.38 -21.328,11.613C-23.11,6.117 -24.8,0.601 -26.327,-4.922C-24.408,0.524 -22.493,5.96 -20.577,11.396C-19.606,14.129 -18.636,16.857 -17.666,19.588L-14.784,27.504C-11.227,29.322 -7.646,31.091 -4.061,32.851L-1.098,34.318L-3.718,27.308C-4.705,24.586 -5.711,21.882 -6.635,19.162C-8.51,13.713 -10.311,8.277 -11.932,2.795C-9.914,8.179 -7.9,13.554 -5.887,18.927C-4.866,21.629 -3.848,24.327 -2.829,27.026L0.249,34.985C4.546,37.083 8.854,39.163 13.17,41.227C13.182,41.328 13.189,41.398 13.189,41.398C13.189,41.398 13.131,41.437 13.048,41.495C8.749,39.606 4.468,37.676 0.207,35.7L0,35.765Z" style="fill:rgb(58,23,176);fill-rule:nonzero;"/>
                            </g>
                            <g transform="matrix(1,0,0,1,528.13,215.635)">
                                <path d="M0,209.625L-295.406,209.817L-295.538,8.049C-295.54,3.603 -291.938,-0.004 -287.492,-0.007L-8.188,-0.189C-3.741,-0.192 -0.134,3.411 -0.131,7.857L0,209.625Z" style="fill:white;fill-rule:nonzero;"/>
                            </g>
                            <g transform="matrix(-0.000650738,-1,-1,0.000650738,475.046,457.625)">
                                <rect x="42.732" y="-42.704" width="189.016" height="274.603" style="fill:rgb(248,246,245);"/>
                            </g>
                            <g transform="matrix(1,0,0,1,418.12,414.978)">
                                <path d="M0,-189.065L-175.125,-188.951L-175.002,0.065L0.123,-0.049L99.602,-0.114L99.478,-189.13L0,-189.065Z" style="fill:rgb(212,220,255);fill-rule:nonzero;"/>
                            </g>
                            <g transform="matrix(1,0,0,1,554.37,425.468)">
                                <path d="M0,11.563L-347.872,11.79C-351.575,11.792 -354.58,8.792 -354.582,5.089L-354.584,0.969C-354.585,0.437 -354.154,0.005 -353.622,0.005L5.735,-0.229C6.267,-0.229 6.698,0.201 6.699,0.733L6.701,4.853C6.704,8.557 3.704,11.561 0,11.563" style="fill:rgb(231,231,231);fill-rule:nonzero;"/>
                            </g>
                            <g transform="matrix(-0.00915028,0.999958,0.999958,0.00915028,383.693,255.625)">
                                <path d="M179.836,-181.429C181.892,-180.266 183.271,-178.054 183.245,-175.525L179.836,172.331C179.811,174.858 178.389,177.045 176.312,178.167L179.836,-181.429Z" style="fill:rgb(181,180,181);fill-rule:nonzero;"/>
                            </g>
                            <g transform="matrix(-1,0.00064668,0.00064668,1,361.094,425.379)">
                                <path d="M-38.662,4.67L-0.003,4.67C2.583,4.67 4.677,2.574 4.677,-0.012L-43.344,-0.011C-43.343,2.574 -41.247,4.669 -38.662,4.67" style="fill:rgb(181,180,181);fill-rule:nonzero;"/>
                            </g>
                            <g transform="matrix(1,0,0,1,380.293,222.113)">
                                <path d="M0,-1.411C-0.389,-1.411 -0.705,-1.094 -0.705,-0.705C-0.704,-0.316 -0.388,0 0.001,0C0.39,0 0.707,-0.317 0.707,-0.706C0.706,-1.095 0.389,-1.411 0,-1.411M0.001,1.04C-0.96,1.041 -1.744,0.258 -1.745,-0.704C-1.745,-1.667 -0.963,-2.451 -0.001,-2.451C0.962,-2.452 1.746,-1.669 1.747,-0.706C1.747,0.256 0.964,1.04 0.001,1.04" style="fill:rgb(215,216,220);fill-rule:nonzero;"/>
                            </g>
                            <g transform="matrix(1,0,0,1,0,79.127)">
                                <rect x="248.387" y="153.707" width="265.856" height="167.691" style="fill:rgb(230,230,230);"/>
                            </g>
                            <g transform="matrix(1,0,0,1,0,90.24)">
                                <rect x="255.989" y="163.627" width="250.651" height="136.738" style="fill:white;"/>
                            </g>
                            <g transform="matrix(1,0,0,1,0,-77.736)">
                                <rect x="248.274" y="310.422" width="265.855" height="11.124" style="fill:rgb(136,115,254);"/>
                            </g>
                            <g transform="matrix(-1,0,0,1,256.667,240.435)">
                                <path d="M0,-4.123C-1.156,-4.123 -2.093,-3.2 -2.093,-2.061C-2.093,-0.923 -1.156,0 0,0C1.156,0 2.093,-0.923 2.093,-2.061C2.093,-3.2 1.156,-4.123 0,-4.123" style="fill:white;fill-rule:nonzero;"/>
                            </g>
                            <g transform="matrix(-1,0,0,1,264.613,240.435)">
                                <path d="M0,-4.123C-1.156,-4.123 -2.093,-3.2 -2.093,-2.061C-2.093,-0.923 -1.156,0 0,0C1.156,0 2.093,-0.923 2.093,-2.061C2.093,-3.2 1.156,-4.123 0,-4.123" style="fill:white;fill-rule:nonzero;"/>
                            </g>
                            <g transform="matrix(-1,0,0,1,272.559,240.435)">
                                <path d="M0.001,-4.123C-1.155,-4.123 -2.093,-3.2 -2.093,-2.061C-2.093,-0.923 -1.155,0 0.001,0C1.157,0 2.094,-0.923 2.094,-2.061C2.094,-3.2 1.157,-4.123 0.001,-4.123" style="fill:white;fill-rule:nonzero;"/>
                            </g>
                            <g transform="matrix(1,0,0,1,0,28.378)">
                                <rect x="286.829" y="236.736" width="49.024" height="52.382" style="fill:rgb(230,230,230);"/>
                            </g>
                            <g transform="matrix(1,0,0,1,0,28.378)">
                                <rect x="356.803" y="236.736" width="49.024" height="52.382" style="fill:rgb(230,230,230);"/>
                            </g>
                            <g transform="matrix(1,0,0,1,0,28.378)">
                                <rect x="426.776" y="236.736" width="49.023" height="52.382" style="fill:rgb(230,230,230);"/>
                            </g>
                            <g transform="matrix(1,0,0,1,0,152.104)">
                                <rect x="286.829" y="174.873" width="49.024" height="52.382" style="fill:rgb(230,230,230);"/>
                            </g>
                            <g transform="matrix(1,0,0,1,0,152.104)">
                                <rect x="356.803" y="174.873" width="49.024" height="52.382" style="fill:rgb(230,230,230);"/>
                            </g>
                            <g transform="matrix(1,0,0,1,0,152.104)">
                                <rect x="426.776" y="174.873" width="49.023" height="52.382" style="fill:rgb(230,230,230);"/>
                            </g>
                            <g transform="matrix(1,0,0,1,325.354,395.77)">
                                <path d="M0,0.257C-0.104,0.257 -0.208,0.26 -0.312,0.266L-0.163,-0.009C-0.111,0.077 -0.059,0.167 0,0.257" style="fill:rgb(255,184,184);fill-rule:nonzero;"/>
                            </g>
                            <g transform="matrix(-1,0,0,1,762.516,1.689)">
                                <rect x="360.862" y="254.83" width="40.792" height="42.883" style="fill:rgb(255,192,156);"/>
                            </g>
                            <g transform="matrix(1,0,0,1,342.247,240.957)">
                                <path d="M0,-20.676C-0.212,-23.218 -2.445,-25.105 -4.986,-24.893C-7.791,-24.658 -9.735,-21.99 -9.099,-19.249C-9.099,-19.249 -6.843,-15.112 -4.614,-9.071C-3.45,-5.914 -3.443,-2.529 -3.72,0.824C-3.865,2.585 -2.712,4.429 -0.433,4.301C4.408,4.028 0,-20.676 0,-20.676" style="fill:rgb(255,192,156);fill-rule:nonzero;"/>
                            </g>
                            <g transform="matrix(1,0,0,1,422.321,247.058)">
                                <path d="M0,-20.848C0.303,-23.38 2.602,-25.187 5.134,-24.884C7.928,-24.549 9.776,-21.813 9.042,-19.096C9.042,-19.096 6.639,-15.043 4.196,-9.085C2.92,-5.973 2.792,-2.589 2.949,0.771C3.031,2.536 1.813,4.339 -0.461,4.129C-5.289,3.682 0,-20.848 0,-20.848" style="fill:rgb(255,192,156);fill-rule:nonzero;"/>
                            </g>
                            <g transform="matrix(-1,0,0,1,267.829,410.404)">
                                <path d="M-13.777,20.666L0,20.666L0,13.777C0,6.169 -6.168,0 -13.777,0L-13.777,20.666Z" style="fill:rgb(255,183,141);fill-rule:nonzero;"/>
                            </g>
                            <g transform="matrix(1,0,0,1,291.766,445.556)">
                                <path d="M0,-80.616L-23.437,-16.814C-24.306,-14.449 -24.16,-11.83 -23.033,-9.577L-21.127,-5.766C-19.24,-1.991 -15.012,0 -10.9,-0.949C-4.099,-2.518 1.451,-7.413 3.857,-13.965L24.799,-70.972L0,-80.616Z" style="fill:rgb(255,192,156);fill-rule:nonzero;"/>
                            </g>
                            <g transform="matrix(1,0,0,1,480.911,410.404)">
                                <path d="M0,20.666L13.777,20.666L13.777,13.777C13.777,6.169 7.609,0 0,0L0,20.666Z" style="fill:rgb(255,183,141);fill-rule:nonzero;"/>
                            </g>
                            <g transform="matrix(1,0,0,1,470.75,445.556)">
                                <path d="M0,-80.616L23.437,-16.814C24.306,-14.449 24.16,-11.83 23.033,-9.577L21.128,-5.766C19.24,-1.991 15.013,0 10.9,-0.949C4.099,-2.518 -1.451,-7.413 -3.857,-13.965L-24.799,-70.972L0,-80.616Z" style="fill:rgb(255,192,156);fill-rule:nonzero;"/>
                            </g>
                            <g transform="matrix(1,0,0,1,430.15,529.95)">
                                <path d="M0,-227.349C-10.181,-232.674 -21.568,-235.273 -33.058,-235.273L-64.684,-235.273C-76.767,-235.273 -88.696,-232.35 -99.292,-226.542C-115.796,-217.494 -136.353,-199.313 -146.808,-163.125L-107.052,-146.928C-107.052,-146.928 -135.761,-27.713 -118.212,-11.619C-99.81,5.257 -1.947,7.924 16.455,-8.952C34.004,-25.046 9.269,-146.928 9.269,-146.928L49.023,-163.125C38.249,-200.423 16.742,-218.592 0,-227.349" style="fill:rgb(255,138,185);fill-rule:nonzero;"/>
                            </g>
                            <g transform="matrix(1,0,0,1,458.561,243.704)">
                                <path d="M0,19.926C-0.456,19.285 -1.116,18.692 -1.525,18.021C-2.237,16.852 -2.027,17.186 -1.041,16.075C3.588,10.859 5.998,3.455 5.703,-3.757C5.088,-18.786 -7.953,-29.77 -21.41,-28.067C-21.595,-33.212 -26.966,-35.493 -31.064,-36.137C-33.315,-36.491 -35.998,-36.304 -36.76,-39.221C-37.219,-40.975 -36.856,-42.928 -37.186,-44.729C-37.715,-47.616 -39.204,-50.199 -41.136,-52.228C-44.591,-55.857 -49.119,-57.376 -53.833,-57.623C-55.724,-57.722 -57.837,-57.126 -59.555,-58.109C-61.225,-59.065 -61.675,-61.329 -63.81,-61.619C-66.632,-62.003 -69.694,-59.248 -71.601,-62.83C-72.459,-64.443 -72.946,-66.174 -74.532,-67.135C-78.9,-69.779 -83.963,-65.851 -87.301,-62.991C-89.182,-61.38 -90.737,-59.552 -93.062,-58.697C-95.712,-57.722 -98.538,-58.056 -101.275,-57.666C-105.291,-57.094 -108.979,-55.302 -111.905,-52.228C-113.837,-50.199 -115.327,-47.617 -115.856,-44.729C-116.186,-42.928 -115.823,-40.975 -116.281,-39.221C-117.044,-36.304 -119.726,-36.491 -121.978,-36.137C-126.076,-35.493 -131.447,-33.212 -131.632,-28.067C-145.089,-29.77 -158.13,-18.786 -158.745,-3.757C-159.04,3.455 -156.629,10.859 -152,16.075C-151.015,17.186 -150.805,16.852 -151.517,18.021C-151.926,18.692 -152.586,19.285 -153.042,19.926C-154.147,21.479 -155.038,23.197 -155.718,25.014C-156.982,28.39 -157.473,32.126 -157.054,35.747C-156.126,43.751 -150.771,50.416 -143.875,53.077C-147.895,60.551 -140.304,68.299 -134.017,70.165C-130.113,71.323 -126.388,71.153 -122.749,70.321C-119.47,70.568 -116.499,70.7 -113.684,73.174C-111.513,75.081 -109.647,77.358 -107.446,79.239C-99.87,85.715 -89.104,89.705 -80.084,84.144C-75.845,81.53 -73.114,76.785 -68.876,74.207C-62.994,70.629 -58.01,76.708 -52.205,77.199C-48.097,77.547 -44.505,75.99 -41.895,73.31C-38.866,70.2 -34.456,68.953 -30.265,70.084C-26.645,71.06 -22.921,71.321 -19.022,70.164C-12.737,68.299 -5.147,60.551 -9.167,53.077C-2.271,50.416 3.084,43.751 4.012,35.747C4.431,32.126 3.94,28.39 2.676,25.014C1.996,23.197 1.105,21.479 0,19.926" style="fill:rgb(43,27,99);fill-rule:nonzero;"/>
                            </g>
                            <g transform="matrix(1,0,0,1,364.206,191.486)">
                                <path d="M0,-5.41C-5.744,-6.92 -13.214,-11.357 -18.974,-7.682C-23.709,-4.661 -23.532,0.965 -20.545,5.369C-20.153,5.947 -19.327,5.288 -19.719,4.71C-21.317,2.354 -22.531,-0.645 -21.286,-3.52C-20.042,-6.392 -17.173,-8.462 -14.405,-8.654C-9.718,-8.979 -5.266,-5.809 -0.804,-4.636C-0.163,-4.468 0.637,-5.243 0,-5.41" style="fill:rgb(43,27,99);fill-rule:nonzero;"/>
                            </g>
                            <g transform="matrix(1,0,0,1,305.13,290.911)">
                                <path d="M0,-40.244C-3.718,-30.976 -11.993,-19.577 -8.502,-8.917C-5.632,-0.155 2.246,1.028 9.214,-2.839C10.128,-3.347 9.444,-4.91 8.529,-4.403C4.802,-2.334 0.287,-1.08 -3.362,-3.931C-7.008,-6.78 -9.08,-12.153 -8.568,-16.86C-7.702,-24.832 -2.037,-31.49 0.851,-38.688C1.266,-39.722 0.413,-41.272 0,-40.244" style="fill:rgb(43,27,99);fill-rule:nonzero;"/>
                            </g>
                            <g transform="matrix(1,0,0,1,454.64,203.507)">
                                <path d="M0,35.665C-1.626,25.71 -0.545,11.236 -8.883,4.463C-15.737,-1.104 -22.898,2.654 -26.729,10.07C-27.232,11.043 -25.866,11.933 -25.363,10.959C-23.313,6.993 -20.194,3.23 -15.703,3.407C-11.215,3.583 -6.752,6.809 -4.78,11.037C-1.44,18.195 -2.765,27.149 -1.501,34.882C-1.32,35.993 0.18,36.769 0,35.665" style="fill:rgb(43,27,99);fill-rule:nonzero;"/>
                            </g>
                            <g transform="matrix(1,0,0,1,381.084,166.42)">
                                <path d="M0,9.948C1.438,6.525 1.633,2.38 -1.083,-0.297C-5.185,-4.34 -9.75,0.519 -12.229,4.032C-12.63,4.601 -11.651,4.326 -11.255,3.764C-8.985,0.546 -3.853,-4.092 -0.686,1.118C1.502,4.716 -0.497,10.011 -2.97,12.819C-3.426,13.336 -2.703,14.125 -2.245,13.606C-2.222,13.58 -2.201,13.551 -2.179,13.525C-2.152,13.99 -1.508,14.288 -1.229,13.78C1.347,9.104 5.073,5.533 9.646,3.311C7.877,3.44 2.444,6.686 0,9.948" style="fill:rgb(43,27,99);fill-rule:nonzero;"/>
                            </g>
                            <g transform="matrix(1,0,0,1,457.503,256.192)">
                                <path d="M0,4.429C3.45,4.743 7.104,3.541 8.503,-0.142C10.616,-5.705 5.515,-6.059 1.636,-7.407C1.007,-7.625 1.576,-6.717 2.196,-6.501C5.75,-5.266 10.852,-4.259 7.412,0.743C5.037,4.197 -0.223,3.942 -3.489,2.361C-4.092,2.069 -4.53,3.076 -3.926,3.368C-3.896,3.383 -3.863,3.394 -3.833,3.408C-4.227,3.593 -4.268,4.352 -3.733,4.467C1.186,5.522 5.536,8.127 9.006,12.054C8.297,10.288 3.65,5.827 0,4.429" style="fill:rgb(43,27,99);fill-rule:nonzero;"/>
                            </g>
                            <g transform="matrix(1,0,0,1,326.929,222.308)">
                                <path d="M0,-6.671C-3.435,-7.143 -7.131,-6.108 -8.671,-2.492C-10.998,2.971 -5.37,6.259 -1.546,7.783C-0.927,8.029 -1.46,7.096 -2.071,6.852C-5.574,5.456 -11.177,1.515 -7.547,-3.326C-5.041,-6.669 0.204,-6.174 3.406,-4.445C3.997,-4.127 4.474,-5.113 3.882,-5.432C3.853,-5.448 3.82,-5.462 3.791,-5.477C4.191,-5.644 4.261,-6.4 3.731,-6.539C-1.143,-7.817 -5.388,-10.618 -8.705,-14.7C-8.063,-12.903 -3.593,-8.234 0,-6.671" style="fill:rgb(43,27,99);fill-rule:nonzero;"/>
                            </g>
                            <g transform="matrix(1,0,0,1,408.075,191.904)">
                                <path d="M0,-12.565C-5.59,-13.895 -9.995,-8.476 -14.199,-5.493C-14.75,-5.101 -14.168,-4.184 -13.615,-4.576C-10.104,-7.068 -6.96,-11.762 -2.564,-12.25C3.655,-12.939 4.773,-4.639 4.153,0.617C4.069,1.33 5.196,1.257 5.176,0.541C5.05,-3.837 4.954,-11.387 0,-12.565" style="fill:rgb(43,27,99);fill-rule:nonzero;"/>
                            </g>
                            <g transform="matrix(1,0,0,1,460.442,453.464)">
                                <path d="M0,-68.648C-5.409,-83.445 -18.289,-92.825 -34.345,-90.322C-43.44,-88.904 -51.914,-84.552 -59.614,-79.682C-59.697,-79.629 -59.78,-79.577 -59.863,-79.524C-74.348,-70.33 -92.71,-70.33 -107.196,-79.524C-107.279,-79.577 -107.361,-79.629 -107.444,-79.682C-115.145,-84.552 -123.618,-88.904 -132.713,-90.322C-148.77,-92.825 -161.65,-83.445 -167.059,-68.648C-178.459,-37.457 -160.69,0.616 -132.444,16.052C-117.578,24.177 -49.48,24.177 -34.614,16.052C-6.368,0.616 11.401,-37.457 0,-68.648" style="fill:rgb(0,208,219);fill-rule:nonzero;"/>
                            </g>
                            <g transform="matrix(1,0,0,1,377.765,370.005)">
                                <path d="M0,103.453C-25.803,103.453 -42.754,100.612 -47.586,97.972C-75.562,82.682 -90.591,46.219 -80.404,18.348C-76.204,6.859 -67.307,0 -56.602,0C-55.223,0 -53.799,0.113 -52.371,0.335C-43.202,1.765 -34.489,6.77 -28.732,10.413L-28.482,10.571C-19.932,15.998 -10.083,18.867 0,18.867C10.083,18.867 19.932,15.998 28.482,10.571L28.792,10.373C34.488,6.772 43.201,1.765 52.371,0.335C53.799,0.113 55.223,0 56.603,0C67.307,0 76.205,6.859 80.404,18.348C90.592,46.219 75.563,82.682 47.585,97.972C42.755,100.612 25.803,103.453 0,103.453" style="fill:rgb(5,217,229);fill-rule:nonzero;"/>
                            </g>
                            <g transform="matrix(1,0,0,1,437.429,450.34)">
                                <path d="M0,-44.517C0,-46.483 -1.997,-47.973 -4.224,-47.69C-41.557,-42.936 -79.477,-42.909 -116.817,-47.598C-119.042,-47.877 -121.034,-46.387 -121.034,-44.424L-121.034,-4.272C-121.034,-2.662 -119.672,-1.288 -117.846,-1.071C-79.798,3.456 -41.222,3.424 -3.182,-1.164C-1.357,-1.385 0,-2.757 0,-4.365L0,-44.517Z" style="fill:rgb(43,27,99);fill-rule:nonzero;"/>
                            </g>
                            <g transform="matrix(1,0,0,1,326.175,550.112)">
                                <path d="M0,-137.614L0,-3.006C0,-1.346 1.346,0 3.006,0C4.666,0 6.012,-1.346 6.012,-3.006L18.097,-137.614L0,-137.614Z" style="fill:rgb(43,27,99);fill-rule:nonzero;"/>
                            </g>
                            <g transform="matrix(1,0,0,1,412.272,550.112)">
                                <path d="M0,-137.614L9.367,-3.006C9.367,-1.346 10.712,0 12.373,0C14.032,0 15.378,-1.346 15.378,-3.006L15.378,-137.614L0,-137.614Z" style="fill:rgb(43,27,99);fill-rule:nonzero;"/>
                            </g>
                            <g transform="matrix(0,1,1,0,625.23,126.838)">
                                <path d="M22.391,-22.391C10.024,-22.391 0,-12.367 0,0C0,12.366 10.024,22.391 22.391,22.391C34.757,22.391 44.781,12.366 44.781,0C44.781,-12.367 34.757,-22.391 22.391,-22.391" style="fill:rgb(136,115,254);fill-rule:nonzero;"/>
                            </g>
                            <g transform="matrix(0.962344,-0.271833,-0.271833,-0.962344,626.657,161.328)">
                                <path d="M-0.684,-0.095C-2.66,-0.064 -3.838,2.035 -2.832,3.736C-2.39,4.483 -1.552,4.952 -0.684,4.937C1.292,4.907 2.467,2.809 1.462,1.108C1.021,0.361 0.184,-0.109 -0.684,-0.095" style="fill:white;fill-rule:nonzero;"/>
                            </g>
                            <g transform="matrix(1,0,0,1,620.376,150.863)">
                                <path d="M0,3.487C-1.037,2.45 -0.718,0.673 0.633,0.102C1.995,-0.474 3.47,-0.778 4.964,-0.778C6.307,-0.778 7.635,-0.532 8.879,-0.064C10.309,0.474 10.724,2.295 9.644,3.375L9.621,3.398C9.043,3.976 8.179,4.166 7.417,3.871C6.632,3.567 5.803,3.41 4.964,3.41C4.052,3.41 3.147,3.593 2.31,3.939C1.522,4.265 0.618,4.105 0.015,3.501L0,3.487Z" style="fill:white;fill-rule:nonzero;"/>
                            </g>
                            <g transform="matrix(1,0,0,1,615.546,144.338)">
                                <path d="M0,5.181C-0.95,4.231 -0.761,2.652 0.373,1.932C3.192,0.14 6.447,-0.808 9.794,-0.808C13.068,-0.808 16.252,0.099 19.008,1.785C20.144,2.48 20.298,4.076 19.356,5.016L19.338,5.035C18.669,5.704 17.624,5.855 16.816,5.361C14.711,4.074 12.278,3.379 9.794,3.379C7.229,3.379 4.731,4.111 2.587,5.468C1.764,5.989 0.691,5.872 0.001,5.182L0,5.181Z" style="fill:white;fill-rule:nonzero;"/>
                            </g>
                            <g transform="matrix(1,0,0,1,610.677,137.559)">
                                <path d="M0,7.091C-0.905,6.186 -0.789,4.686 0.243,3.928C4.423,0.855 9.448,-0.798 14.663,-0.798C19.786,-0.798 24.724,0.798 28.845,3.741C29.893,4.49 30.017,6.005 29.105,6.916L29.092,6.929C28.36,7.661 27.216,7.727 26.372,7.128C22.963,4.704 18.88,3.389 14.663,3.389C10.35,3.389 6.189,4.756 2.74,7.274C1.896,7.889 0.739,7.83 0,7.091" style="fill:white;fill-rule:nonzero;"/>
                            </g>
                            <g transform="matrix(0,1,1,0,440.319,18.3238)">
                                <path d="M22.39,-22.391C10.024,-22.391 0,-12.367 0,-0.001C0,12.365 10.024,22.39 22.39,22.39C34.756,22.39 44.781,12.365 44.781,-0.001C44.781,-12.367 34.756,-22.391 22.39,-22.391" style="fill:rgb(136,115,254);fill-rule:nonzero;"/>
                            </g>
                            <g transform="matrix(1,0,0,1,435.809,35.3583)">
                                <path d="M0,10.712L-10.491,6.134L-10.491,4.578L0,0L0,1.777L-8.135,5.356L0,8.934L0,10.712Z" style="fill:white;fill-rule:nonzero;"/>
                            </g>
                            <g transform="matrix(0.264144,-0.964483,-0.964483,-0.264144,447.133,45.7837)">
                                <path d="M-5.358,8.802L11.05,8.802L11.537,7.023L-4.871,7.023L-5.358,8.802Z" style="fill:white;fill-rule:nonzero;"/>
                            </g>
                            <g transform="matrix(1,0,0,1,452.963,40.7143)">
                                <path d="M0,0L-8.135,-3.579L-8.135,-5.356L2.356,-0.778L2.356,0.778L-8.135,5.356L-8.135,3.578L0,0Z" style="fill:white;fill-rule:nonzero;"/>
                            </g>
                            <g transform="matrix(0,1,1,0,128.367,48.5392)">
                                <path d="M29.181,-29.181C13.065,-29.181 0,-16.117 0,0C0,16.116 13.065,29.181 29.181,29.181C45.297,29.181 58.362,16.116 58.362,0C58.362,-16.117 45.297,-29.181 29.181,-29.181" style="fill:rgb(136,115,254);fill-rule:nonzero;"/>
                            </g>
                            <g transform="matrix(1,0,0,1,0,-398.791)">
                                <path d="M145.008,463.683L111.726,463.683L111.726,489.34L145.008,489.34L145.008,463.683ZM110.574,491.644C109.939,491.644 109.422,491.127 109.422,490.492L109.422,462.531C109.422,461.895 109.939,461.379 110.574,461.379L146.16,461.379C146.796,461.379 147.312,461.895 147.312,462.531L147.312,490.492C147.312,491.127 146.796,491.644 146.16,491.644L110.574,491.644Z" style="fill:white;fill-rule:nonzero;"/>
                            </g>
                            <g transform="matrix(1,0,0,1,120.106,75.3848)">
                                <path d="M0,-3.503C-0.965,-3.503 -1.751,-2.717 -1.751,-1.751C-1.751,-0.785 -0.965,0 0,0C0.966,0 1.751,-0.786 1.751,-1.752C1.751,-2.717 0.966,-3.503 0,-3.503M0,2.304C-2.236,2.304 -4.055,0.485 -4.055,-1.752C-4.055,-3.988 -2.236,-5.807 0,-5.807C2.236,-5.807 4.056,-3.987 4.056,-1.751C4.056,0.485 2.236,2.304 0,2.304" style="fill:white;fill-rule:nonzero;"/>
                            </g>
                            <g transform="matrix(1,0,0,1,114.386,73.392)">
                                <path d="M0,15.648C-0.331,15.648 -0.646,15.505 -0.865,15.257C-1.285,14.78 -1.238,14.05 -0.761,13.631L10.053,4.109C10.263,3.924 10.533,3.822 10.813,3.822C11.121,3.822 11.41,3.942 11.628,4.159L14.26,6.792L20.12,0.374C20.325,0.149 20.616,0.013 20.92,0L20.923,0C21.256,0 21.535,0.107 21.748,0.3L29.374,7.292C29.601,7.5 29.734,7.783 29.747,8.091C29.761,8.398 29.653,8.693 29.446,8.919C29.228,9.157 28.918,9.294 28.596,9.294C28.307,9.294 28.031,9.186 27.818,8.991L21.043,2.78L15.891,8.423L18.597,11.128C19.046,11.578 19.046,12.308 18.597,12.757C18.379,12.975 18.089,13.095 17.782,13.095C17.475,13.095 17.185,12.975 16.967,12.757L10.764,6.554L0.761,15.361C0.55,15.546 0.28,15.648 0,15.648" style="fill:white;fill-rule:nonzero;"/>
                            </g>
                            <g transform="matrix(0,1,1,0,67.1881,219.637)">
                                <path d="M24.078,-24.078C10.781,-24.078 0,-13.298 0,0C0,13.298 10.781,24.078 24.078,24.078C37.376,24.078 48.156,13.298 48.156,0C48.156,-13.298 37.376,-24.078 24.078,-24.078" style="fill:rgb(5,217,229);fill-rule:nonzero;"/>
                            </g>
                            <g transform="matrix(1,0,0,1,74.4549,241.694)">
                                <path d="M0,4.092C-1.142,4.092 -2.071,3.163 -2.071,2.021C-2.071,0.88 -1.142,-0.05 0,-0.05C1.142,-0.05 2.071,0.88 2.071,2.021C2.071,3.163 1.142,4.092 0,4.092M-7.154,4.092C-8.296,4.092 -9.225,3.163 -9.225,2.021C-9.225,0.88 -8.296,-0.05 -7.154,-0.05C-6.012,-0.05 -5.083,0.88 -5.083,2.021C-5.083,3.163 -6.012,4.092 -7.154,4.092M-14.308,4.092C-15.45,4.092 -16.379,3.163 -16.379,2.021C-16.379,0.88 -15.45,-0.05 -14.308,-0.05C-13.166,-0.05 -12.237,0.88 -12.237,2.021C-12.237,3.163 -13.166,4.092 -14.308,4.092M-7.106,-11.897C-14.69,-11.897 -20.86,-5.727 -20.86,1.857C-20.86,4.174 -20.275,6.451 -19.165,8.472C-19.165,8.472 -20.381,13.107 -20.641,14.044C-20.744,14.413 -20.897,15.031 -20.951,15.422C-20.979,15.629 -20.894,15.989 -20.517,15.934C-20.152,15.882 -19.642,15.695 -19.556,15.662C-18.217,15.156 -14.197,13.641 -14.197,13.641C-12.058,14.931 -9.618,15.611 -7.106,15.611C0.478,15.611 6.647,9.441 6.647,1.857C6.647,-5.727 0.478,-11.897 -7.106,-11.897" style="fill:white;fill-rule:nonzero;"/>
                            </g>
                            <g transform="matrix(1,0,0,1,527.627,94.8085)">
                                <path d="M0,75.502C-20.816,75.502 -37.751,58.567 -37.751,37.751C-37.751,16.935 -20.816,0 0,0C20.816,0 37.751,16.935 37.751,37.751C37.751,58.567 20.816,75.502 0,75.502" style="fill:rgb(5,217,229);fill-rule:nonzero;"/>
                            </g>
                            <g transform="matrix(1,0,0,1,527.627,172.31)">
                                <path d="M0,-79.502C-21.918,-79.502 -39.751,-61.669 -39.751,-39.751C-39.751,-17.832 -21.918,0 0,0C21.919,0 39.752,-17.832 39.752,-39.751C39.752,-61.669 21.919,-79.502 0,-79.502M0,-75.502C19.745,-75.502 35.752,-59.496 35.752,-39.751C35.752,-20.006 19.745,-4 0,-4C-19.745,-4 -35.751,-20.006 -35.751,-39.751C-35.751,-59.496 -19.745,-75.502 0,-75.502" style="fill:white;fill-rule:nonzero;"/>
                            </g>
                            <g transform="matrix(-1,0,0,1,1055.25,-324.518)">
                                <rect x="505.127" y="436.875" width="45" height="5" style="fill:white;"/>
                            </g>
                            <g transform="matrix(-1,0,0,1,1055.25,-302.518)">
                                <rect x="505.127" y="425.875" width="45" height="5" style="fill:white;"/>
                            </g>
                            <g transform="matrix(-1,0,0,1,1055.25,-280.518)">
                                <rect x="505.127" y="414.875" width="45" height="5" style="fill:white;"/>
                            </g>
                            <g transform="matrix(-1,0,0,1,1033.63,-258.518)">
                                <rect x="505.127" y="403.875" width="23.375" height="5" style="fill:white;"/>
                            </g>
                            <g transform="matrix(1,0,0,1,290.999,333.999)">
                                <path d="M0,0L0,0" style="fill:none;fill-rule:nonzero;stroke:rgb(230,230,230);stroke-width:7.03px;"/>
                            </g>
                            <g transform="matrix(-0.930505,-0.366279,-0.366279,0.930505,122.795,231.488)">
                                <path d="M-178.025,33.777L6.409,33.777" style="fill:none;fill-rule:nonzero;stroke:rgb(209,209,209);stroke-width:7.03px;stroke-dasharray:0,18.79;"/>
                            </g>
                            <g transform="matrix(1,0,0,1,96.9988,257.634)">
                                <path d="M0,0L0,0" style="fill:none;fill-rule:nonzero;stroke:rgb(230,230,230);stroke-width:7.03px;"/>
                            </g>
                            <g transform="matrix(1,0,0,1,301.267,295.816)">
                                <path d="M0,0L0,0" style="fill:none;fill-rule:nonzero;stroke:rgb(230,230,230);stroke-width:7.03px;"/>
                            </g>
                            <g transform="matrix(-0.842301,-0.539007,-0.539007,0.842301,188.819,173.837)">
                                <path d="M-144.007,42.132L12.327,42.133" style="fill:none;fill-rule:nonzero;stroke:rgb(209,209,209);stroke-width:7.03px;stroke-dasharray:0,19.28;"/>
                            </g>
                            <g transform="matrix(1,0,0,1,148.796,198.246)">
                                <path d="M0,0L0,0" style="fill:none;fill-rule:nonzero;stroke:rgb(230,230,230);stroke-width:7.03px;"/>
                            </g>
                            <g transform="matrix(1,0,0,1,294.379,227.381)">
                                <path d="M0,0L0,0" style="fill:none;fill-rule:nonzero;stroke:rgb(230,230,230);stroke-width:7.03px;"/>
                            </g>
                            <g transform="matrix(-0.750523,-0.660844,-0.660844,0.750523,212.889,86.3105)">
                                <path d="M-137.811,52.026L19.64,52.026" style="fill:none;fill-rule:nonzero;stroke:rgb(209,209,209);stroke-width:7.03px;stroke-dasharray:0,19.42;"/>
                            </g>
                            <g transform="matrix(1,0,0,1,157.548,106.901)">
                                <path d="M0,0L0,0" style="fill:none;fill-rule:nonzero;stroke:rgb(230,230,230);stroke-width:7.03px;"/>
                            </g>
                            <g transform="matrix(1,0,0,1,322.359,203.771)">
                                <path d="M0,0L0,0" style="fill:none;fill-rule:nonzero;stroke:rgb(230,230,230);stroke-width:7.03px;"/>
                            </g>
                            <g transform="matrix(-0.325248,-0.945629,-0.945629,0.325248,326.72,153.987)">
                                <path d="M-28.471,20.316L14.496,20.316" style="fill:none;fill-rule:nonzero;stroke:rgb(209,209,209);stroke-width:7.03px;stroke-dasharray:0,20.14;"/>
                            </g>
                            <g transform="matrix(1,0,0,1,299.999,138.761)">
                                <path d="M0,0L0,0" style="fill:none;fill-rule:nonzero;stroke:rgb(230,230,230);stroke-width:7.03px;"/>
                            </g>
                            <g transform="matrix(1,0,0,1,425.319,195.201)">
                                <path d="M0,0L0,0" style="fill:none;fill-rule:nonzero;stroke:rgb(230,230,230);stroke-width:7.03px;"/>
                            </g>
                            <g transform="matrix(0.0929761,-0.995668,-0.995668,-0.0929761,479.823,140.075)">
                                <path d="M-44.768,49.143L53.946,49.143" style="fill:none;fill-rule:nonzero;stroke:rgb(209,209,209);stroke-width:7.03px;stroke-dasharray:0,17.8;"/>
                            </g>
                            <g transform="matrix(1,0,0,1,436.615,74.2334)">
                                <path d="M0,0L0,0" style="fill:none;fill-rule:nonzero;stroke:rgb(230,230,230);stroke-width:7.03px;"/>
                            </g>
                            <g transform="matrix(1,0,0,1,469.376,336.542)">
                                <path d="M0,0L0,0" style="fill:none;fill-rule:nonzero;stroke:rgb(230,230,230);stroke-width:7.03px;"/>
                            </g>
                            <g transform="matrix(0.881144,-0.472849,-0.472849,-0.881144,516.285,365.009)">
                                <path d="M-11.88,47.264L188.031,47.264" style="fill:none;fill-rule:nonzero;stroke:rgb(209,209,209);stroke-width:7.03px;stroke-dasharray:0,18.74;"/>
                            </g>
                            <g transform="matrix(1,0,0,1,666.665,230.671)">
                                <path d="M0,0L0,0" style="fill:none;fill-rule:nonzero;stroke:rgb(230,230,230);stroke-width:7.03px;"/>
                            </g>
                            <g transform="matrix(1,0,0,1,462.709,294.58)">
                                <path d="M0,0L0,0" style="fill:none;fill-rule:nonzero;stroke:rgb(230,230,230);stroke-width:7.03px;"/>
                            </g>
                            <g transform="matrix(0.764828,-0.644235,-0.644235,-0.764828,522.515,310.846)">
                                <path d="M-18.606,50.97L139.628,50.97" style="fill:none;fill-rule:nonzero;stroke:rgb(209,209,209);stroke-width:7.03px;stroke-dasharray:0,19.52;"/>
                            </g>
                            <g transform="matrix(1,0,0,1,602.84,176.544)">
                                <path d="M0,0L0,0" style="fill:none;fill-rule:nonzero;stroke:rgb(230,230,230);stroke-width:7.03px;"/>
                            </g>
                            <g transform="matrix(1,0,0,1,462.709,224.937)">
                                <path d="M0,0L0,0" style="fill:none;fill-rule:nonzero;stroke:rgb(230,230,230);stroke-width:7.03px;"/>
                            </g>
                            <g transform="matrix(0.604482,-0.796619,-0.796619,-0.604482,489.666,215.586)">
                                <path d="M-7.855,15.822L31.866,15.822" style="fill:none;fill-rule:nonzero;stroke:rgb(209,209,209);stroke-width:7.03px;stroke-dasharray:0,18.62;"/>
                            </g>
                            <g transform="matrix(1,0,0,1,501.127,174.309)">
                                <path d="M0,0L0,0" style="fill:none;fill-rule:nonzero;stroke:rgb(230,230,230);stroke-width:7.03px;"/>
                            </g>
                        </g>
                    </g>
                </g>
                <g id="OBJECTS" transform="matrix(-1,0,0,1,5455.19,720.621)">
                    <g transform="matrix(1,0,0,1,285.6,53.034)">
                        <path d="M0,72.425C-19.968,72.425 -36.212,56.18 -36.212,36.213C-36.212,16.245 -19.968,0 0,0C19.968,0 36.212,16.245 36.212,36.213C36.212,56.18 19.968,72.425 0,72.425" style="fill:rgb(255,138,185);fill-rule:nonzero;"/>
                    </g>
                    <g transform="matrix(1,0,0,1,285.6,127.459)">
                        <path d="M0,-76.425C-21.07,-76.425 -38.212,-59.283 -38.212,-38.213C-38.212,-17.142 -21.07,0 0,0C21.07,0 38.212,-17.142 38.212,-38.213C38.212,-59.283 21.07,-76.425 0,-76.425M0,-72.425C18.895,-72.425 34.212,-57.108 34.212,-38.213C34.212,-19.318 18.895,-4 0,-4C-18.895,-4 -34.212,-19.318 -34.212,-38.213C-34.212,-57.108 -18.895,-72.425 0,-72.425" style="fill:white;fill-rule:nonzero;"/>
                    </g>
                    <g transform="matrix(1,0,0,1,277.385,104.259)">
                        <path d="M0,-30.026L26,-15.014L0,0L0,-30.026Z" style="fill:white;fill-rule:nonzero;stroke:white;stroke-width:5.95px;stroke-miterlimit:10;"/>
                    </g>
                    <g transform="matrix(0,1,1,0,126.876,160.029)">
                        <path d="M19.609,-19.609C8.779,-19.609 0,-10.83 0,0C0,10.829 8.779,19.609 19.609,19.609C30.438,19.609 39.216,10.829 39.216,0C39.216,-10.83 30.438,-19.609 19.609,-19.609" style="fill:rgb(255,138,185);fill-rule:nonzero;"/>
                    </g>
                    <g transform="matrix(1,0,0,1,126.876,169.448)">
                        <path d="M0,20.381C-1.81,18.628 -7.405,12.747 -7.405,7.096C-7.405,3.011 -4.083,-0.312 0,-0.312C4.083,-0.312 7.405,3.011 7.405,7.096C7.405,12.747 1.809,18.628 0,20.381M0,-1.995C-5.011,-1.995 -9.088,2.083 -9.088,7.096C-9.088,14.566 -0.905,21.859 -0.556,22.166C-0.397,22.306 -0.199,22.376 0,22.376C0.198,22.376 0.397,22.306 0.556,22.166C0.904,21.859 9.088,14.566 9.088,7.096C9.088,2.083 5.011,-1.995 0,-1.995" style="fill:white;fill-rule:nonzero;"/>
                    </g>
                    <g transform="matrix(1,0,0,1,126.876,173.991)">
                        <path d="M0,5.105C-1.392,5.105 -2.525,3.96 -2.525,2.553C-2.525,1.146 -1.392,0.001 0,0.001C1.392,0.001 2.524,1.146 2.524,2.553C2.524,3.96 1.392,5.105 0,5.105M0,-1.683C-2.32,-1.683 -4.208,0.217 -4.208,2.553C-4.208,4.888 -2.32,6.788 0,6.788C2.32,6.788 4.207,4.888 4.207,2.553C4.207,0.217 2.32,-1.683 0,-1.683" style="fill:white;fill-rule:nonzero;"/>
                    </g>
                    <g transform="matrix(0,1,1,0,693.239,173.151)">
                        <path d="M28.76,-28.76C12.877,-28.76 0,-15.884 0,0C0,15.884 12.877,28.76 28.76,28.76C44.644,28.76 57.52,15.884 57.52,0C57.52,-15.884 44.644,-28.76 28.76,-28.76" style="fill:rgb(255,138,185);fill-rule:nonzero;"/>
                    </g>
                    <g transform="matrix(1,0,0,1,687.55,191.018)">
                        <path d="M0,21.787C2.671,21.683 3.331,21.406 3.331,18.942L3.331,0.832L0.416,0.832C-2.325,0.832 -3.4,1.943 -4.164,5.134L-5.204,5.134L-4.649,-0.902L16.028,-0.902L16.583,5.134L15.542,5.134C14.779,1.943 13.703,0.832 10.962,0.832L8.048,0.832L8.048,18.942C8.048,21.406 8.708,21.683 11.379,21.787L11.379,22.689L0,22.689L0,21.787Z" style="fill:white;fill-rule:nonzero;"/>
                    </g>
                    <g transform="matrix(1,0,0,1,0,-150.439)">
                        <rect x="677.632" y="336.661" width="31.348" height="31.349" style="fill:none;stroke:white;stroke-width:1.35px;stroke-linecap:butt;stroke-linejoin:miter;stroke-miterlimit:10;"/>
                    </g>
                    <g transform="matrix(1,0,0,1,710.62,184.174)">
                        <path d="M0,4.085L-3.548,4.085C-3.697,4.085 -3.816,3.965 -3.816,3.816L-3.816,0.268C-3.816,0.12 -3.697,0 -3.548,0L0,0C0.148,0 0.269,0.12 0.269,0.268L0.269,3.816C0.269,3.965 0.148,4.085 0,4.085Z" style="fill:white;fill-rule:nonzero;stroke:white;stroke-width:0.94px;stroke-linecap:butt;stroke-linejoin:miter;stroke-miterlimit:10;"/>
                    </g>
                    <g transform="matrix(1,0,0,1,710.79,215.367)">
                        <path d="M0,4.478L-3.889,4.478C-4.052,4.478 -4.183,4.346 -4.183,4.184L-4.183,0.295C-4.183,0.133 -4.052,0 -3.889,0L0,0C0.163,0 0.294,0.133 0.294,0.295L0.294,4.184C0.294,4.346 0.163,4.478 0,4.478Z" style="fill:white;fill-rule:nonzero;stroke:white;stroke-width:1.03px;stroke-linecap:butt;stroke-linejoin:miter;stroke-miterlimit:10;"/>
                    </g>
                    <g transform="matrix(1,0,0,1,679.406,184.174)">
                        <path d="M0,4.085L-3.548,4.085C-3.696,4.085 -3.816,3.965 -3.816,3.816L-3.816,0.268C-3.816,0.12 -3.696,0 -3.548,0L0,0C0.148,0 0.269,0.12 0.269,0.268L0.269,3.816C0.269,3.965 0.148,4.085 0,4.085Z" style="fill:white;fill-rule:nonzero;stroke:white;stroke-width:0.94px;stroke-linecap:butt;stroke-linejoin:miter;stroke-miterlimit:10;"/>
                    </g>
                    <g transform="matrix(1,0,0,1,679.397,215.574)">
                        <path d="M0,4.063L-3.529,4.063C-3.677,4.063 -3.796,3.944 -3.796,3.796L-3.796,0.268C-3.796,0.12 -3.677,0 -3.529,0L0,0C0.147,0 0.267,0.12 0.267,0.268L0.267,3.796C0.267,3.944 0.147,4.063 0,4.063Z" style="fill:white;fill-rule:nonzero;stroke:white;stroke-width:0.94px;stroke-linecap:butt;stroke-linejoin:miter;stroke-miterlimit:10;"/>
                    </g>
                </g>
            </g>
            <g transform="matrix(5.95642,0,0,1.71936,-30800.5,-1752.72)">
                <text x="5548.39px" y="1238.67px" style="font-family:'Montserrat-Medium', 'Montserrat';font-weight:500;font-size:14.657px;fill:rgb(136,115,254);">#2</text>
            </g>
        </g>
    </g>
</svg>
