<?xml version="1.0" encoding="UTF-8" standalone="no"?>
<!DOCTYPE svg PUBLIC "-//W3C//DTD SVG 1.1//EN" "http://www.w3.org/Graphics/SVG/1.1/DTD/svg11.dtd">
<svg width="100%" height="100%" viewBox="0 0 29 34" version="1.1" xmlns="http://www.w3.org/2000/svg" xmlns:xlink="http://www.w3.org/1999/xlink" xml:space="preserve" xmlns:serif="http://www.serif.com/" style="fill-rule:evenodd;clip-rule:evenodd;stroke-linejoin:round;stroke-miterlimit:2;">
    <g transform="matrix(1,0,0,1,-1124.81,-6624.87)">
        <g transform="matrix(0.955596,0,0,1.69433,223.386,2738.35)">
            <g transform="matrix(0.342558,0,0,0.193202,940.483,2293.82)">
                <path d="M25.25,0.125L32.375,23.5L32.375,38.75L38.375,38.75L38.375,22.75L45.25,0.125L39.25,0.125L35.5,15.5L35.125,15.5L31.25,0.125L25.25,0.125ZM52.875,9.5C50.469,9.5 48.547,10.188 47.125,11.5C45.703,12.797 45,14.547 45,16.75L45,31.5C45,33.922 45.734,35.953 47.125,37.375C48.531,38.813 50.297,39.5 52.625,39.5C55.031,39.5 57,38.766 58.375,37.375C59.75,35.984 60.375,34.063 60.375,31.625L60.375,16.875C60.375,14.703 59.656,13 58.25,11.625C56.859,10.234 55.078,9.5 52.875,9.5ZM64.875,10.25L64.875,34.125C64.875,35.828 65.25,37.031 65.875,37.875C66.5,38.719 67.406,39.125 68.625,39.125C69.609,39.125 70.578,38.844 71.625,38.25C72.688,37.641 73.781,36.781 74.75,35.625L74.75,38.75L80,38.75L80,10.25L74.75,10.25L74.75,31.875C74.25,32.484 73.719,32.984 73.125,33.375C72.531,33.781 72.016,34 71.625,34C71.141,34 70.719,33.922 70.5,33.625C70.266,33.328 70.25,32.781 70.25,32.125L70.25,10.25L64.875,10.25ZM52.625,14.5C53.328,14.5 53.953,14.625 54.375,15C54.813,15.391 55,15.891 55,16.5L55,32.125C55,32.891 54.797,33.453 54.375,33.875C53.953,34.313 53.344,34.5 52.625,34.5C51.922,34.5 51.375,34.297 51,33.875C50.609,33.453 50.5,32.906 50.5,32.125L50.5,16.5C50.5,15.891 50.719,15.391 51.125,15C51.531,14.625 51.984,14.5 52.625,14.5ZM52,44.625C41.625,44.609 31.453,44.703 21.5,45.125C14.547,45.125 8.875,50.734 8.875,57.625C8.453,63.078 8.234,68.547 8.25,74C8.234,79.453 8.453,84.922 8.875,90.375C8.875,97.266 14.547,102.875 21.5,102.875C31.453,103.281 41.625,103.391 52,103.375C62.391,103.406 72.563,103.281 82.5,102.875C89.453,102.875 95.125,97.266 95.125,90.375C95.547,84.922 95.766,79.453 95.75,74C95.781,68.547 95.547,63.078 95.125,57.625C95.125,50.734 89.453,45.125 82.5,45.125C72.563,44.703 62.391,44.609 52,44.625ZM15,53.5L33.375,53.5C33.703,53.5 34,53.797 34,54.125L34,59.75C34,60.078 33.703,60.375 33.375,60.375L27.75,60.375L27.75,92.75C27.75,93.078 27.578,93.375 27.25,93.375L21.25,93.375C20.922,93.375 20.625,93.078 20.625,92.75L20.625,60.375L15,60.375C14.672,60.375 14.5,60.078 14.5,59.75L14.5,54.125C14.5,53.797 14.672,53.5 15,53.5ZM53.625,53.5L59,53.5C59.328,53.5 59.625,53.797 59.625,54.125L59.625,65C60.063,64.594 60.531,64.266 61,64C61.906,63.5 62.828,63.25 63.75,63.25C65.625,63.25 67,64 68,65.375C68.953,66.703 69.5,68.563 69.5,71L69.5,86.875C69.5,89.031 69.047,90.703 68.125,91.875C67.172,93.094 65.75,93.75 64,93.75C62.891,93.75 61.906,93.453 61,93C60.516,92.75 60.063,92.516 59.625,92.125L59.625,92.75C59.625,93.078 59.328,93.375 59,93.375L53.625,93.375C53.297,93.375 53,93.078 53,92.75L53,54.125C53,53.797 53.297,53.5 53.625,53.5ZM80.875,62.875C83.469,62.875 85.594,63.688 87,65.25C88.406,66.813 89.125,69.031 89.125,71.875L89.125,79.25C89.125,79.578 88.828,79.75 88.5,79.75L79,79.75L79,84.625C79,86.375 79.188,87.063 79.375,87.375C79.531,87.625 79.797,88 80.625,88C81.297,88 81.766,87.813 82,87.5C82.109,87.328 82.375,86.703 82.375,84.625L82.375,82.625C82.375,82.297 82.672,82 83,82L88.5,82C88.828,82 89.125,82.297 89.125,82.625L89.125,84.75C89.125,87.828 88.297,90.172 86.875,91.75C85.453,93.344 83.313,94.125 80.5,94.125C77.953,94.125 75.969,93.328 74.5,91.625C73.047,89.953 72.25,87.641 72.25,84.75L72.25,71.875C72.25,69.25 73.016,67.172 74.625,65.5C76.234,63.828 78.344,62.875 80.875,62.875ZM33.375,63.625L38.625,63.625C38.953,63.625 39.25,63.922 39.25,64.25L39.25,86.125C39.25,86.844 39.297,87.141 39.375,87.25C39.406,87.297 39.547,87.5 40,87.5C40.156,87.5 40.5,87.438 41.125,87C41.641,86.656 42.094,86.234 42.5,85.75L42.5,64.25C42.5,63.922 42.797,63.625 43.125,63.625L48.5,63.625C48.828,63.625 49,63.922 49,64.25L49,92.75C49,93.078 48.828,93.375 48.5,93.375L43.125,93.375C42.797,93.375 42.5,93.078 42.5,92.75L42.5,91.125C41.797,91.813 41.109,92.328 40.375,92.75C39.219,93.406 38.125,93.75 37,93.75C35.578,93.75 34.484,93.266 33.75,92.25C33.047,91.297 32.75,89.938 32.75,88.125L32.75,64.25C32.75,63.922 33.047,63.625 33.375,63.625ZM61,69C60.797,69.031 60.594,69.141 60.375,69.25C60.125,69.375 59.875,69.609 59.625,69.875L59.625,87.125C59.938,87.453 60.203,87.734 60.5,87.875C60.828,88.031 61.141,88.125 61.5,88.125C62.172,88.125 62.438,87.844 62.5,87.75C62.656,87.547 62.75,87.078 62.75,86.125L62.75,71.375C62.75,70.563 62.672,69.891 62.375,69.5C62.078,69.109 61.609,68.891 61,69ZM80.75,69.125C80.109,69.125 79.641,69.266 79.375,69.625C79.188,69.891 79,70.547 79,71.875L79,74.125L82.375,74.125L82.375,71.875C82.375,70.563 82.203,69.922 82,69.625C81.75,69.281 81.359,69.125 80.75,69.125Z" style="fill:white;fill-rule:nonzero;"/>
            </g>
        </g>
    </g>
</svg>
