<?xml version="1.0" encoding="UTF-8" standalone="no"?>
<!DOCTYPE svg PUBLIC "-//W3C//DTD SVG 1.1//EN" "http://www.w3.org/Graphics/SVG/1.1/DTD/svg11.dtd">
<svg width="100%" height="100%" viewBox="0 0 521 408" version="1.1" xmlns="http://www.w3.org/2000/svg" xmlns:xlink="http://www.w3.org/1999/xlink" xml:space="preserve" xmlns:serif="http://www.serif.com/" style="fill-rule:evenodd;clip-rule:evenodd;stroke-miterlimit:10;">
    <g transform="matrix(1,0,0,1,-4948.22,-319.87)">
        <g transform="matrix(1.5,0,0,1.90347,2368.27,122.801)">
            <g id="undraw_instant_support_elxh" transform="matrix(0.324622,0,0,0.255814,1893.61,210.654)">
                <g transform="matrix(1,0,0,1,-534.91,-418.75)">
                    <clipPath id="_clip1">
                        <rect x="0" y="0" width="1069.82" height="837.5"/>
                    </clipPath>
                    <g clip-path="url(#_clip1)">
                        <g transform="matrix(1,0,0,1,-65.09,-31.25)">
                            <path d="M223.49,557.84C223.485,560.158 221.578,562.065 219.26,562.07L213.26,562.07C215.581,562.07 217.49,563.979 217.49,566.3C217.49,568.621 215.581,570.53 213.26,570.53L221.71,570.53C224.031,570.53 225.94,572.439 225.94,574.76C225.94,577.081 224.031,578.99 221.71,578.99L182,578.99C209.13,654.99 260,721.43 326.88,771.5C327.578,771.021 328.404,770.763 329.25,770.76L378.18,770.76C380.501,770.76 382.41,772.669 382.41,774.99C382.41,777.311 380.501,779.22 378.18,779.22L372.18,779.22C374.501,779.22 376.41,781.129 376.41,783.45C376.41,785.771 374.501,787.68 372.18,787.68L380.64,787.68C382.961,787.68 384.87,789.589 384.87,791.91C384.87,794.231 382.961,796.14 380.64,796.14L363.25,796.14C438.18,841.94 528.85,868.75 626.53,868.75C684.438,868.864 741.952,859.212 796.65,840.2C803.917,837.647 811.1,834.947 818.2,832.1C830.56,827.107 842.63,821.663 854.41,815.77C859.49,813.23 864.513,810.603 869.48,807.89L869.71,807.77L870.83,807.15L873.74,805.54C879.613,802.26 885.397,798.867 891.09,795.36L894.59,793.19C897.55,791.33 900.48,789.44 903.38,787.52C909.167,783.713 914.853,779.78 920.44,775.72L922.44,774.24L924.05,773.05C931.57,767.49 938.883,761.727 945.99,755.76L946.29,755.51C949.77,752.583 953.2,749.607 956.58,746.58L956.88,746.31C967.904,736.449 978.421,726.036 988.39,715.11C1003.34,698.753 1016.97,681.238 1029.15,662.73L1009.65,662.73C1007.33,662.73 1005.42,660.821 1005.42,658.5C1005.42,656.179 1007.33,654.27 1009.65,654.27L1001.2,654.27C998.879,654.27 996.97,652.361 996.97,650.04C996.97,647.719 998.879,645.81 1001.2,645.81L1007.2,645.81C1007.13,645.813 1007.06,645.815 1006.99,645.815C1004.67,645.815 1002.76,643.906 1002.76,641.585C1002.76,639.264 1004.67,637.355 1006.99,637.355C1007.06,637.355 1007.13,637.357 1007.2,637.36L1044.49,637.36C1075.49,581.64 1092.92,518.86 1092.92,452.43C1092.93,410.527 1085.92,368.916 1072.18,329.33L989.19,329.33C984.401,329.17 980.549,325.187 980.549,320.395C980.549,315.603 984.401,311.62 989.19,311.46L971.33,311.46C966.431,311.46 962.4,307.429 962.4,302.53C962.4,297.631 966.431,293.6 971.33,293.6L984.09,293.6C979.301,293.44 975.449,289.457 975.449,284.665C975.449,279.873 979.301,275.89 984.09,275.73L1049,275.73C974.55,134.16 813.37,36.12 626.53,36.12C517.39,36.12 417.02,69.57 337.53,125.6L358.33,125.6C363.119,125.76 366.971,129.743 366.971,134.535C366.971,139.327 363.119,143.31 358.33,143.47L345.6,143.47C350.499,143.47 354.53,147.501 354.53,152.4C354.53,157.299 350.499,161.33 345.6,161.33L363.46,161.33C363.56,161.327 363.659,161.325 363.759,161.325C368.663,161.325 372.699,165.361 372.699,170.265C372.699,175.169 368.663,179.205 363.759,179.205C363.659,179.205 363.56,179.203 363.46,179.2L274.58,179.2C203.25,252.32 160.05,347.87 160.05,452.43C160.043,486.632 164.716,520.675 173.94,553.61L219.26,553.61C221.576,553.621 223.479,555.524 223.49,557.84Z" style="fill:white;fill-opacity:0.1;fill-rule:nonzero;"/>
                        </g>
                        <g transform="matrix(1,0,0,1,-65.09,-31.25)">
                            <path d="M881.49,379.18C877.32,378.82 862.79,367.11 854.37,363.66C850.49,362.07 848.06,365.43 846.56,369.51C841.4,366.14 835.74,362.41 831.56,360.71C830.465,360.199 829.204,360.174 828.09,360.64C822.67,362.99 821.51,377.16 821.51,377.16L821.7,378.05C819.04,380.14 811.06,381.45 807.6,381.68C803.53,381.94 798.15,382.54 796.25,383.48C794.35,384.42 772.25,389.74 759.54,393.62C746.83,397.5 714,416.83 714,416.83L682.88,423.83L678.51,422.99C677.12,417.99 670.76,418.04 663.31,420.06C651.21,417.84 639.14,416.11 635.24,417.88C646.39,412.2 660.1,403.19 659.94,393.25C659.72,379.69 632.88,398.71 622.72,406.4L621.85,407.06L621.62,406.2C621.62,406.2 614.21,409.09 598.41,408.71C582.61,408.33 575.58,415.76 574.16,416.5C572.74,417.24 558.28,422.11 557.16,422.3C556.29,422.44 531.35,424.7 518.76,425.83C501.35,424.26 476.21,427 474.83,429.6C473.25,432.6 454.11,443.52 454.11,443.52L447.55,445.24C447.55,445.24 446.77,447.24 445.87,449.8C445.23,448.826 444.687,447.791 444.25,446.71C443.259,444.057 442.483,441.328 441.93,438.55C441.85,438.18 441.76,437.81 441.67,437.44C441.67,437.35 441.62,437.26 441.6,437.17L441.36,436.24L441.3,436.01C440.974,434.812 440.581,433.633 440.12,432.48C439.664,431.323 439.095,430.214 438.42,429.17C437.466,427.643 436.172,426.356 434.64,425.41C432.13,423.88 429.1,423.52 426.18,423.19C423.72,422.834 421.231,422.727 418.75,422.87C416.62,423.07 414.53,423.65 412.4,423.78C408.97,423.98 405.6,423.01 402.2,422.49C398.8,421.97 395.1,421.98 392.2,423.88C389.76,425.5 388.35,428.23 386.78,430.7C383.834,435.339 380.049,439.388 375.62,442.64C372.62,444.81 369.21,446.9 368.12,450.4C367.03,453.9 368.54,457.29 369.21,460.74C370.69,468.34 368.3,476.68 370.96,483.74C371.02,483.9 371.08,484.05 371.15,484.21C371.3,484.59 371.46,484.98 371.65,485.35C371.818,485.693 372.005,486.027 372.21,486.35C372.407,486.669 372.628,486.973 372.87,487.26C373.105,487.547 373.37,487.808 373.66,488.04C373.945,488.279 374.257,488.483 374.59,488.65C375.815,489.175 377.167,489.332 378.48,489.1L379.2,489L379.86,488.88C380.637,488.742 381.405,488.558 382.16,488.33C382.912,488.109 383.632,487.79 384.3,487.38C385.524,486.615 386.343,485.341 386.53,483.91C386.628,483.285 386.675,482.653 386.67,482.02L386.67,481.58L386.82,482.04C391.036,493.844 402.284,501.771 414.818,501.771C425.714,501.771 435.771,495.781 440.96,486.2L442.09,485.82C445.72,484.659 449.439,483.796 453.21,483.24C453.621,484.074 454.081,484.882 454.59,485.66C466.9,504.85 505.37,505.51 505.37,505.51C505.37,505.51 547.88,503.86 551.17,503C554.46,502.14 564.27,503.64 567.1,506.27C569.93,508.9 582.4,509.99 586.45,503.19C590.5,496.39 595.15,497.7 595.15,497.7C595.989,496.562 596.706,495.338 597.29,494.05L600,494.18C607.15,494.56 618.63,495.3 621.11,496.3C624.77,497.77 640.49,497.66 648.99,494.08C657.49,490.5 683.99,475.32 683.99,475.32C683.99,475.32 700.47,470.32 703.4,469.32C706.33,468.32 714,461 714,461L729.8,454.88C729.8,454.88 746.49,445.88 753.53,444.94C760.57,444 766.95,437.84 766.95,437.84L811.7,417C814.701,416.561 817.758,416.714 820.7,417.45C824.7,418.7 850.75,414.88 858.64,406.45C858.64,406.45 858.93,405.36 859.32,403.58C859.68,403.58 860.05,403.51 860.44,403.5C862.12,403.87 863.15,404.12 863.15,404.12C866.474,406.609 870.015,408.794 873.73,410.65C879.04,413.2 884.73,414.6 886.73,410.23C887.029,409.555 887.231,408.841 887.33,408.11C892.47,411.76 909.77,423.01 910.26,409.61C910.86,393.87 885.65,379.54 881.49,379.18Z" style="fill:url(#_Linear2);fill-rule:nonzero;"/>
                        </g>
                        <g transform="matrix(1,0,0,1,-65.09,-31.25)">
                            <path d="M464.09,482.14C464.09,482.14 456.01,481.63 444.75,485.23C441.018,486.406 437.389,487.888 433.9,489.66C417.34,498 431.09,453 431.09,453C431.09,453 435.7,453 441.24,452.53C447.86,452 455.8,450.9 458.74,448.6C464.14,444.33 464.09,482.14 464.09,482.14Z" style="fill:rgb(239,183,185);fill-rule:nonzero;"/>
                        </g>
                        <g transform="matrix(1,0,0,1,-65.09,-31.25)">
                            <path d="M659.65,393.93C659.85,406.51 637.53,417.58 626.93,422.13C623.63,423.54 621.45,424.32 621.45,424.32L619.14,409.84C619.14,409.84 620.59,408.67 622.93,406.9C633,399.31 659.43,380.55 659.65,393.93Z" style="fill:rgb(239,183,185);fill-rule:nonzero;"/>
                        </g>
                        <g transform="matrix(1,0,0,1,-65.09,-31.25)">
                            <path d="M626.93,422.13C623.63,423.54 621.45,424.32 621.45,424.32L619.14,409.84C619.14,409.84 620.59,408.67 622.93,406.9L626.93,422.13Z" style="fill-opacity:0.1;fill-rule:nonzero;"/>
                        </g>
                        <g transform="matrix(1,0,0,1,-65.09,-31.25)">
                            <path d="M513.31,426.7C513.31,426.7 557.07,422.77 558.22,422.58C559.37,422.39 573.63,417.58 575.03,416.87C576.43,416.16 583.36,408.8 598.95,409.18C614.54,409.56 621.85,406.71 621.85,406.71L627,426.31L523.06,438.1L513.31,426.7Z" style="fill:rgb(225,231,239);fill-rule:nonzero;"/>
                        </g>
                        <g transform="matrix(1,0,0,1,-65.09,-31.25)">
                            <path d="M513.31,426.7C513.31,426.7 557.07,422.77 558.22,422.58C559.37,422.39 573.63,417.58 575.03,416.87C576.43,416.16 583.36,408.8 598.95,409.18C614.54,409.56 621.85,406.71 621.85,406.71L627,426.31L523.06,438.1L513.31,426.7Z" style="fill-opacity:0.05;fill-rule:nonzero;"/>
                        </g>
                        <g transform="matrix(1,0,0,1,-65.09,-31.25)">
                            <path d="M819.05,378C819.05,378 820.65,358.37 828.95,361.77C837.25,365.17 851.59,376.77 855.7,377.09C859.81,377.41 884.7,391.58 884.11,407.09C883.52,422.6 860.11,404.58 860.11,404.58C860.11,404.58 838.33,399.23 831.29,401.64C824.25,404.05 819.05,378 819.05,378Z" style="fill:rgb(176,116,115);fill-rule:nonzero;"/>
                        </g>
                        <g transform="matrix(1,0,0,1,-65.09,-31.25)">
                            <path d="M884.11,407.12C883.54,422.63 860.11,404.61 860.11,404.61C860.11,404.61 838.34,399.26 831.29,401.67C829.29,402.37 827.29,400.67 825.69,397.86C822.54,392.54 820.26,383.32 819.43,379.62C819.2,378.62 819.09,378.03 819.09,378.03C819.09,378.03 820.69,358.4 828.99,361.81C837.29,365.22 851.62,376.76 855.73,377.12C859.84,377.48 884.67,391.61 884.11,407.12Z" style="fill-opacity:0.1;fill-rule:nonzero;"/>
                        </g>
                        <g transform="matrix(1,0,0,1,-65.09,-31.25)">
                            <path d="M839.2,389.62C838.49,391.44 833.46,394.33 825.65,397.86C822.5,392.54 820.22,383.32 819.39,379.62C820.86,378.99 821.9,378.26 822.07,377.44C822.65,374.7 843.27,379.18 839.2,389.62Z" style="fill-opacity:0.1;fill-rule:nonzero;"/>
                        </g>
                        <g transform="matrix(1,0,0,1,-65.09,-31.25)">
                            <path d="M665.15,428L713,417.16C713,417.16 745.4,398.09 758,394.27C770.6,390.45 792.33,385.2 794.21,384.27C796.09,383.34 801.39,382.74 805.4,382.49C809.41,382.24 819.6,380.49 820.18,377.76C820.76,375.03 841.38,379.49 837.31,389.93C833.24,400.37 687.82,445.8 687.82,445.8L665.15,428Z" style="fill:rgb(68,64,83);fill-rule:nonzero;"/>
                        </g>
                        <g transform="matrix(1,0,0,1,-65.09,-31.25)">
                            <path d="M665.15,428L713,417.16C713,417.16 745.4,398.09 758,394.27C770.6,390.45 792.33,385.2 794.21,384.27C796.09,383.34 801.39,382.74 805.4,382.49C809.41,382.24 819.6,380.49 820.18,377.76C820.76,375.03 841.38,379.49 837.31,389.93C833.24,400.37 687.82,445.8 687.82,445.8L665.15,428Z" style="fill-opacity:0.1;fill-rule:nonzero;"/>
                        </g>
                        <g transform="matrix(1,0,0,1,-65.09,-31.25)">
                            <path d="M906.59,410C906.02,425.52 882.59,407.49 882.59,407.49C882.59,407.49 867.36,403.75 858.26,403.93C856.741,403.908 855.227,404.117 853.77,404.55C846.77,406.96 841.56,380.91 841.56,380.91C841.56,380.91 841.66,379.65 841.95,377.83C842.8,372.43 845.26,362.14 851.47,364.68C859.77,368.09 874.1,379.68 878.21,379.99C882.32,380.3 907.15,394.52 906.59,410Z" style="fill:rgb(176,116,115);fill-rule:nonzero;"/>
                        </g>
                        <g transform="matrix(1,0,0,1,-65.09,-31.25)">
                            <path d="M858.23,404C856.711,403.978 855.197,404.187 853.74,404.62C846.74,407.03 841.53,380.98 841.53,380.98C841.53,380.98 841.63,379.72 841.92,377.9C847.76,376.65 852.65,375.53 852.65,375.53C863.37,376 859.85,396.55 858.23,404Z" style="fill-opacity:0.1;fill-rule:nonzero;"/>
                        </g>
                        <g transform="matrix(1,0,0,1,-65.09,-31.25)">
                            <path d="M855.63,406.91C847.84,415.24 822.12,419 818.2,417.78C815.308,417.052 812.302,416.895 809.35,417.32L765.21,437.87C765.21,437.87 758.91,443.93 751.97,444.87C745.03,445.81 728.56,454.67 728.56,454.67L712.98,460.67C712.98,460.67 705.37,468 702.49,469C699.61,470 683.34,474.91 683.34,474.91C683.34,474.91 657.21,489.91 648.82,493.42C640.43,496.93 624.94,497.05 621.32,495.6C618.88,494.6 607.55,493.89 600.51,493.51C597.17,493.34 594.79,493.25 594.79,493.25L586.55,430.94C586.55,430.94 593.36,429.43 601.96,427.4C614.45,424.46 630.72,420.4 635.23,418.28C642.86,414.69 683.53,425.28 690.99,425.43C698.45,425.58 736.5,413.43 736.5,413.43C736.5,413.43 784.04,386.61 793.66,386.6C803.28,386.59 815.77,382.4 823.53,381.33C831.29,380.26 850.67,375.82 850.67,375.82C863.76,376.42 855.63,406.91 855.63,406.91Z" style="fill:rgb(68,64,83);fill-rule:nonzero;"/>
                        </g>
                        <g transform="matrix(1,0,0,1,-65.09,-31.25)">
                            <path d="M447.81,466.84C448.824,473.139 447.749,479.599 444.75,485.23C441.018,486.406 437.389,487.888 433.9,489.66C417.34,498 431.09,453 431.09,453C431.09,453 435.7,453 441.24,452.53C444.7,456.607 446.973,461.558 447.81,466.84Z" style="fill-opacity:0.1;fill-rule:nonzero;"/>
                        </g>
                        <g transform="matrix(1,0,0,1,-65.09,-31.25)">
                            <path d="M446.82,467C447.064,468.528 447.186,470.074 447.186,471.622C447.186,487.712 433.946,500.952 417.856,500.952C405.496,500.952 394.403,493.138 390.24,481.5C390.06,481 389.9,480.5 389.74,479.99C389.37,478.764 389.083,477.514 388.88,476.25C388.641,474.736 388.521,473.205 388.521,471.672C388.521,455.577 401.765,442.332 417.861,442.332C431.126,442.332 442.819,451.328 446.22,464.15C446.472,465.088 446.673,466.04 446.82,467Z" style="fill:rgb(239,183,185);fill-rule:nonzero;"/>
                        </g>
                        <g transform="matrix(1,0,0,1,-65.09,-31.25)">
                            <path d="M599.72,466.94C605.95,479.08 602.85,488.82 600.51,493.47C597.17,493.3 594.79,493.21 594.79,493.21L586.55,430.9C586.55,430.9 593.36,429.39 601.96,427.36L602.85,427.29C602.85,427.29 590.91,449.78 599.72,466.94Z" style="fill-opacity:0.1;fill-rule:nonzero;"/>
                        </g>
                        <g transform="matrix(1,0,0,1,-65.09,-31.25)">
                            <path d="M596.76,467.41C605.57,484.58 595.76,496.94 595.76,496.94C595.76,496.94 591.17,495.65 587.18,502.36C583.19,509.07 570.86,508 568.09,505.36C565.32,502.72 555.62,501.27 552.38,502.13C549.14,502.99 507.21,504.6 507.21,504.6C507.21,504.6 469.27,503.96 457.12,485.03C456.62,484.264 456.166,483.469 455.76,482.65C455.354,481.831 446.17,464.71 445.87,460.71C445.74,459.15 446.37,456.45 447.17,453.71C448.44,449.46 450.17,445.15 450.17,445.15L456.64,443.45C456.64,443.45 475.52,432.68 477.07,429.73C478.62,426.78 510.87,423.67 527.26,426.96C543.65,430.25 574.63,429.83 574.63,429.83L599.95,427.7C599.95,427.7 588,450.25 596.76,467.41Z" style="fill:rgb(225,231,239);fill-rule:nonzero;"/>
                        </g>
                        <g transform="matrix(1,0,0,1,-65.09,-31.25)">
                            <path d="M559.61,497C563.413,495.528 567.092,493.752 570.61,491.69C576.44,488.2 559.61,497 559.61,497Z" style="fill-opacity:0.1;fill-rule:nonzero;"/>
                        </g>
                        <g transform="matrix(1,0,0,1,-65.09,-31.25)">
                            <path d="M467,455.86C467,455.86 479.46,479.02 506.1,471.4C532.74,463.78 552.69,469.4 552.69,469.4C552.69,469.4 577.61,467.97 582.2,466.06C589.084,463.459 596.117,461.269 603.26,459.5C607.19,458.7 612.67,457.12 617.01,455.77C621.35,454.42 644.54,449.54 644.54,449.54C644.54,449.54 637.21,433.16 640.76,431.07C640.76,431.07 617.87,435.73 617.61,434.07C617.35,432.41 591.7,431.4 589.61,433.07C587.52,434.74 564.61,436.39 562.61,437.14C560.61,437.89 525.21,441 525.21,441C525.21,441 472.1,419.41 467,455.86Z" style="fill-opacity:0.1;fill-rule:nonzero;"/>
                        </g>
                        <g transform="matrix(1,0,0,1,-65.09,-31.25)">
                            <path d="M635,432.77C635,432.77 676.71,408.6 678.24,424.56C679.77,440.52 639,446.34 639,446.34L635,432.77Z" style="fill:rgb(239,183,185);fill-rule:nonzero;"/>
                        </g>
                        <g transform="matrix(1,0,0,1,-65.09,-31.25)">
                            <path d="M467.5,452.74C467.5,452.74 480,475.9 506.6,468.28C533.2,460.66 553.2,466.28 553.2,466.28C553.2,466.28 578.12,464.85 582.7,462.94C589.587,460.338 596.623,458.147 603.77,456.38C607.69,455.58 613.18,454 617.52,452.65C621.86,451.3 645.05,446.42 645.05,446.42C645.05,446.42 637.71,430.04 641.26,427.95C641.26,427.95 618.38,432.61 618.11,430.95C617.84,429.29 592.2,428.28 590.11,429.95C588.02,431.62 565.11,433.27 563.11,434.02C561.11,434.77 525.74,437.87 525.74,437.87C525.74,437.87 472.61,416.29 467.5,452.74Z" style="fill-opacity:0.1;fill-rule:nonzero;"/>
                        </g>
                        <g transform="matrix(1,0,0,1,-65.09,-31.25)">
                            <path d="M466.67,453.88C466.67,453.88 479.14,477.04 505.77,469.42C532.4,461.8 552.37,467.42 552.37,467.42C552.37,467.42 577.29,465.99 581.87,464.08C588.757,461.475 595.793,459.281 602.94,457.51C606.86,456.72 612.35,455.13 616.69,453.78C621.03,452.43 644.22,447.56 644.22,447.56C644.22,447.56 636.88,431.17 640.43,429.09C640.43,429.09 617.55,433.75 617.28,432.09C617.01,430.43 591.37,429.42 589.28,431.09C587.19,432.76 564.33,434.41 562.28,435.17C560.23,435.93 524.89,439 524.89,439C524.89,439 471.78,417.43 466.67,453.88Z" style="fill:rgb(225,231,239);fill-rule:nonzero;"/>
                        </g>
                        <g transform="matrix(1,0,0,1,-65.09,-31.25)">
                            <path d="M553.61,448.74C553.22,447.67 559.94,448.18 573.2,445.62C586.46,443.06 608.78,436.94 608.78,436.94C608.78,436.94 556.59,456.82 553.61,448.74Z" style="fill-opacity:0.1;fill-rule:nonzero;"/>
                        </g>
                        <g transform="matrix(1,0,0,1,-65.09,-31.25)">
                            <path d="M502.48,441.38C502.48,441.38 503.11,443.18 496.64,447.08" style="fill-opacity:0.1;fill-rule:nonzero;"/>
                        </g>
                        <g transform="matrix(1,0,0,1,-65.09,-31.25)">
                            <path d="M516.06,444C516.93,447.605 514.862,451.32 511.34,452.48" style="fill-opacity:0.1;fill-rule:nonzero;"/>
                        </g>
                        <g transform="matrix(1,0,0,1,-65.09,-31.25)">
                            <path d="M457.87,483.93L463.03,488.72C463.03,488.72 468.57,491.72 469.16,493.32C469.75,494.92 481,494.63 481,494.63L494,502.83L488.48,495.13C492.915,496.201 497.605,495.203 501.22,492.42C507.55,487.7 520.11,475.42 520.11,475.42L542.78,457.78L543.16,446.41L525.32,443.52L483.8,485.58L474.39,486.91L464.39,485.8L457.87,483.93Z" style="fill-opacity:0.1;fill-rule:nonzero;"/>
                        </g>
                        <g transform="matrix(1,0,0,1,-65.09,-31.25)">
                            <path d="M456.73,483.1L461.89,487.89C461.89,487.89 467.42,490.89 468.02,492.49C468.62,494.09 479.87,493.8 479.87,493.8L492.87,502L487.35,494.3C491.782,495.372 496.469,494.374 500.08,491.59C506.42,486.87 518.98,474.59 518.98,474.59L541.68,457L542.06,445.63L524.22,442.74L482.65,484.8L473.24,486.13L463.24,485.02L456.73,483.1Z" style="fill:rgb(103,100,126);fill-rule:nonzero;"/>
                        </g>
                        <g transform="matrix(1,0,0,1,-65.09,-31.25)">
                            <path d="M470.59,480.6L459.21,485.75C458.71,484.983 458.259,484.185 457.86,483.36C457.461,482.535 448.26,465.43 447.96,461.42C447.83,459.86 448.46,457.16 449.27,454.42L470.59,480.6Z" style="fill-opacity:0.1;fill-rule:nonzero;"/>
                        </g>
                        <g transform="matrix(1,0,0,1,-65.09,-31.25)">
                            <path d="M468.46,479.93L457.08,485.07C456.58,484.304 456.126,483.509 455.72,482.69C455.314,481.871 446.13,464.75 445.83,460.75C445.7,459.19 446.33,456.49 447.13,453.75L468.46,479.93Z" style="fill:rgb(225,231,239);fill-rule:nonzero;"/>
                        </g>
                        <g transform="matrix(1,0,0,1,-65.09,-31.25)">
                            <path d="M446.22,464.14C445.749,464.756 445.148,465.261 444.46,465.62C442.69,466.43 440.63,465.62 438.69,465.71C436.75,465.8 434.79,466.86 432.78,467.02C431.363,467.041 429.949,466.866 428.58,466.5C425.93,465.95 423.05,465.64 420.58,466.84C418.11,468.04 416.58,471.28 418.02,473.57C416.45,475.78 413.4,476.49 410.71,476.12C404.41,475.23 399.13,469.81 392.71,474.01C389.92,475.86 390.1,478.72 390.16,481.49C389.98,480.99 389.82,480.49 389.66,479.98C389.29,478.754 389.003,477.504 388.8,476.24C388.561,474.726 388.441,473.195 388.441,471.662C388.441,455.567 401.685,442.322 417.781,442.322C431.046,442.322 442.739,451.318 446.14,464.14L446.22,464.14Z" style="fill:url(#_Linear3);fill-rule:nonzero;"/>
                        </g>
                        <g transform="matrix(1,0,0,1,-65.09,-31.25)">
                            <path d="M387.75,486.75C386.398,487.518 384.911,488.02 383.37,488.23C381.658,488.717 379.833,488.636 378.17,488C376.885,487.266 375.871,486.136 375.28,484.78C371.58,477.44 374.44,468.52 372.87,460.45C372.21,457.05 370.76,453.55 371.79,450.25C372.82,446.95 376.27,444.74 379.18,442.6C383.543,439.387 387.273,435.393 390.18,430.82C391.73,428.38 393.12,425.69 395.52,424.1C398.34,422.22 402,422.22 405.35,422.73C408.7,423.24 412.02,424.19 415.41,423.99C417.51,423.87 419.57,423.3 421.67,423.1C424.118,422.952 426.574,423.059 429,423.42C431.88,423.74 434.86,424.1 437.34,425.6C441.71,428.24 443.41,433.6 444.55,438.6C445.69,443.6 446.84,448.98 450.7,452.31C451.334,452.719 451.819,453.322 452.08,454.03C452.12,454.872 451.804,455.693 451.21,456.29L446.65,462.35C446.058,463.287 445.244,464.063 444.28,464.61C442.52,465.43 440.45,464.61 438.51,464.69C436.57,464.77 434.62,465.86 432.6,466.01C431.182,466.036 429.768,465.861 428.4,465.49C425.75,464.94 422.87,464.63 420.45,465.83C418.03,467.03 416.45,470.27 417.89,472.56C416.31,474.77 413.26,475.49 410.58,475.11C404.27,474.23 398.99,468.8 392.58,473C387.38,476.48 392.69,483.62 387.75,486.75Z" style="fill:rgb(88,82,104);fill-rule:nonzero;"/>
                        </g>
                        <g opacity="0.1">
                            <g transform="matrix(1,0,0,1,-65.09,-31.25)">
                                <path d="M443,435.59C443.88,439.4 444.76,443.47 446.86,446.66C445.887,444.059 445.125,441.383 444.58,438.66C443.962,435.38 442.785,432.231 441.1,429.35C441.905,431.374 442.54,433.461 443,435.59Z" style="fill-rule:nonzero;"/>
                            </g>
                            <g transform="matrix(1,0,0,1,-65.09,-31.25)">
                                <path d="M450.72,452.33L450.41,452.04C450.219,452.489 449.966,452.91 449.66,453.29L445.1,459.35C444.505,460.285 443.692,461.06 442.73,461.61C440.97,462.43 438.9,461.61 436.96,461.69C435.02,461.77 433.07,462.86 431.05,463.01C429.632,463.036 428.218,462.861 426.85,462.49C424.2,461.94 421.32,461.63 418.85,462.83C416.38,464.03 414.85,467.27 416.29,469.56C414.71,471.77 411.67,472.49 408.98,472.11C402.68,471.23 397.4,465.8 390.98,470C385.73,473.46 391.04,480.6 386.09,483.73C384.742,484.499 383.258,485.001 381.72,485.21C379.98,485.54 378.1,485.77 376.52,484.98C375.717,484.555 375.031,483.941 374.52,483.19C374.719,483.733 374.949,484.264 375.21,484.78C375.801,486.136 376.815,487.266 378.1,488C379.763,488.636 381.588,488.717 383.3,488.23C384.841,488.02 386.328,487.518 387.68,486.75C392.62,483.62 387.31,476.48 392.57,473.02C398.94,468.82 404.22,474.25 410.57,475.13C413.25,475.51 416.3,474.79 417.88,472.58C416.44,470.29 418.01,467.05 420.44,465.85C422.87,464.65 425.74,464.96 428.39,465.51C429.758,465.881 431.172,466.056 432.59,466.03C434.59,465.88 436.48,464.8 438.5,464.71C440.52,464.62 442.5,465.45 444.27,464.63C445.234,464.083 446.048,463.307 446.64,462.37L451.2,456.31C451.794,455.713 452.11,454.892 452.07,454.05C451.817,453.347 451.343,452.743 450.72,452.33Z" style="fill-rule:nonzero;"/>
                            </g>
                        </g>
                        <g transform="matrix(1,0,0,1,-65.09,-31.25)">
                            <path d="M684.39,439.1C684.39,439.1 692.2,453.1 690.54,455.42C688.88,457.74 684.39,439.1 684.39,439.1Z" style="fill-opacity:0.1;fill-rule:nonzero;"/>
                        </g>
                        <g transform="matrix(1,0,0,1,-65.09,-31.25)">
                            <path d="M710.07,435C710.07,435 714.99,443.61 713.99,445.32" style="fill-opacity:0.1;fill-rule:nonzero;"/>
                        </g>
                        <g transform="matrix(1,0,0,1,-65.09,-31.25)">
                            <path d="M739.55,415.09C739.55,415.09 745.24,419.09 743.13,421.69" style="fill-opacity:0.1;fill-rule:nonzero;"/>
                        </g>
                        <g transform="matrix(1,0,0,1,-65.09,-31.25)">
                            <path d="M745.28,412.9C745.28,412.9 752.51,421.74 750.11,424.15" style="fill-opacity:0.1;fill-rule:nonzero;"/>
                        </g>
                        <g transform="matrix(1,0,0,1,-65.09,-31.25)">
                            <path d="M844.7,388.67C844.7,388.67 845.8,403.46 850.15,402.2C854.5,400.94 844.7,388.67 844.7,388.67Z" style="fill-opacity:0.1;fill-rule:nonzero;"/>
                        </g>
                        <g transform="matrix(1,0,0,1,-65.09,-31.25)">
                            <path d="M809.15,754.22C809.15,754.22 815.22,733.61 808.01,718.44C804.939,712.094 804.016,704.917 805.38,698C806.047,694.725 807.014,691.518 808.27,688.42" style="fill:none;fill-rule:nonzero;stroke:rgb(83,84,97);stroke-width:2px;"/>
                        </g>
                        <g transform="matrix(1,0,0,1,-65.09,-31.25)">
                            <path d="M803.78,678.85C803.78,681.37 808.36,688.7 808.36,688.7C808.36,688.7 812.93,681.37 812.93,678.85C812.816,676.421 810.787,674.484 808.355,674.484C805.923,674.484 803.894,676.421 803.78,678.85Z" style="fill:rgb(136,115,254);fill-rule:nonzero;"/>
                        </g>
                        <g transform="matrix(1,0,0,1,-65.09,-31.25)">
                            <path d="M796.22,692.84C797.6,694.96 805.42,698.62 805.42,698.62C805.42,698.62 805.27,689.99 803.9,687.87C803.055,686.573 801.608,685.788 800.06,685.788C797.546,685.788 795.478,687.856 795.478,690.37C795.478,691.258 795.736,692.126 796.22,692.87L796.22,692.84Z" style="fill:rgb(136,115,254);fill-rule:nonzero;"/>
                        </g>
                        <g transform="matrix(1,0,0,1,-65.09,-31.25)">
                            <path d="M796.55,716.75C798.81,717.89 807.41,717.1 807.41,717.1C807.41,717.1 802.93,709.72 800.67,708.58C800.082,708.317 799.445,708.181 798.801,708.181C796.288,708.181 794.221,710.249 794.221,712.761C794.221,714.411 795.113,715.939 796.55,716.75Z" style="fill:rgb(136,115,254);fill-rule:nonzero;"/>
                        </g>
                        <g transform="matrix(1,0,0,1,-65.09,-31.25)">
                            <path d="M800.88,734.78C802.88,736.28 811.52,736.96 811.52,736.96C811.52,736.96 808.35,728.96 806.32,727.43C805.533,726.847 804.579,726.533 803.6,726.533C801.092,726.533 799.028,728.597 799.028,731.105C799.028,732.553 799.716,733.918 800.88,734.78Z" style="fill:rgb(136,115,254);fill-rule:nonzero;"/>
                        </g>
                        <g transform="matrix(1,0,0,1,-65.09,-31.25)">
                            <path d="M815,699.11C813.19,700.87 804.75,702.69 804.75,702.69C804.75,702.69 806.81,694.31 808.63,692.55C809.483,691.722 810.626,691.258 811.815,691.258C814.323,691.258 816.387,693.322 816.387,695.83C816.387,697.065 815.886,698.249 815,699.11Z" style="fill:rgb(136,115,254);fill-rule:nonzero;"/>
                        </g>
                        <g transform="matrix(1,0,0,1,-65.09,-31.25)">
                            <path d="M819.81,720.27C817.55,721.4 808.95,720.62 808.95,720.62C808.95,720.62 813.43,713.24 815.69,712.1C816.278,711.837 816.915,711.701 817.559,711.701C820.072,711.701 822.139,713.769 822.139,716.281C822.139,717.931 821.247,719.459 819.81,720.27Z" style="fill:rgb(136,115,254);fill-rule:nonzero;"/>
                        </g>
                        <g transform="matrix(1,0,0,1,-65.09,-31.25)">
                            <path d="M821.64,741.47C819.64,742.97 811,743.65 811,743.65C811,743.65 814.17,735.65 816.2,734.11C817.014,733.455 818.027,733.098 819.072,733.098C821.584,733.098 823.652,735.165 823.652,737.678C823.652,739.196 822.897,740.619 821.64,741.47Z" style="fill:rgb(136,115,254);fill-rule:nonzero;"/>
                        </g>
                        <g transform="matrix(1,0,0,1,-65.09,-31.25)">
                            <path d="M957.31,733.23C957.31,733.23 963.38,712.62 956.17,697.45C953.102,691.099 952.179,683.92 953.54,677C954.207,673.721 955.174,670.511 956.43,667.41" style="fill:none;fill-rule:nonzero;stroke:rgb(83,84,97);stroke-width:2px;"/>
                        </g>
                        <g transform="matrix(1,0,0,1,-65.09,-31.25)">
                            <path d="M951.94,657.86C951.94,660.38 956.52,667.71 956.52,667.71C956.52,667.71 961.09,660.38 961.09,657.86C961.093,657.789 961.095,657.717 961.095,657.646C961.095,655.134 959.028,653.066 956.515,653.066C954.002,653.066 951.935,655.134 951.935,657.646C951.935,657.717 951.937,657.789 951.94,657.86Z" style="fill:rgb(136,115,254);fill-rule:nonzero;"/>
                        </g>
                        <g transform="matrix(1,0,0,1,-65.09,-31.25)">
                            <path d="M944.38,671.85C945.76,673.97 953.58,677.63 953.58,677.63C953.58,677.63 953.44,669 952.06,666.88C951.215,665.583 949.768,664.798 948.22,664.798C945.706,664.798 943.638,666.866 943.638,669.38C943.638,670.268 943.896,671.136 944.38,671.88L944.38,671.85Z" style="fill:rgb(136,115,254);fill-rule:nonzero;"/>
                        </g>
                        <g transform="matrix(1,0,0,1,-65.09,-31.25)">
                            <path d="M944.72,695.75C946.97,696.89 955.57,696.11 955.57,696.11C955.57,696.11 951.09,688.72 948.83,687.59C948.164,687.232 947.42,687.044 946.664,687.044C944.157,687.044 942.094,689.107 942.094,691.614C942.094,693.382 943.12,694.998 944.72,695.75Z" style="fill:rgb(136,115,254);fill-rule:nonzero;"/>
                        </g>
                        <g transform="matrix(1,0,0,1,-65.09,-31.25)">
                            <path d="M949,713.79C951,715.29 959.64,715.97 959.64,715.97C959.64,715.97 956.47,707.97 954.44,706.43C953.682,705.917 952.787,705.642 951.872,705.642C949.359,705.642 947.292,707.71 947.292,710.222C947.292,711.608 947.921,712.921 949,713.79Z" style="fill:rgb(136,115,254);fill-rule:nonzero;"/>
                        </g>
                        <g transform="matrix(1,0,0,1,-65.09,-31.25)">
                            <path d="M963.18,678.12C961.37,679.88 952.93,681.7 952.93,681.7C952.93,681.7 955,673.32 956.81,671.56C957.663,670.732 958.806,670.268 959.995,670.268C962.503,670.268 964.567,672.332 964.567,674.84C964.567,676.075 964.066,677.259 963.18,678.12Z" style="fill:rgb(136,115,254);fill-rule:nonzero;"/>
                        </g>
                        <g transform="matrix(1,0,0,1,-65.09,-31.25)">
                            <path d="M968,699.27C965.74,700.41 957.14,699.62 957.14,699.62C957.14,699.62 961.63,692.24 963.88,691.11C964.519,690.787 965.224,690.619 965.94,690.619C968.447,690.619 970.511,692.683 970.511,695.19C970.511,696.912 969.537,698.494 968,699.27Z" style="fill:rgb(136,115,254);fill-rule:nonzero;"/>
                        </g>
                        <g transform="matrix(1,0,0,1,-65.09,-31.25)">
                            <path d="M969.8,720.47C967.8,721.97 959.16,722.65 959.16,722.65C959.16,722.65 962.33,714.65 964.36,713.12C965.147,712.537 966.101,712.223 967.08,712.223C969.588,712.223 971.652,714.287 971.652,716.795C971.652,718.243 970.964,719.608 969.8,720.47Z" style="fill:rgb(136,115,254);fill-rule:nonzero;"/>
                        </g>
                        <g transform="matrix(1,0,0,1,-65.09,-31.25)">
                            <path d="M840.6,731.23C840.6,731.23 846.67,710.62 839.46,695.45C836.392,689.099 835.468,681.92 836.83,675C837.497,671.725 838.464,668.518 839.72,665.42" style="fill:none;fill-rule:nonzero;stroke:rgb(83,84,97);stroke-width:2px;"/>
                        </g>
                        <g transform="matrix(1,0,0,1,-65.09,-31.25)">
                            <path d="M835.23,655.86C835.23,658.38 839.81,665.71 839.81,665.71C839.81,665.71 844.38,658.38 844.38,655.86C844.266,653.431 842.237,651.494 839.805,651.494C837.373,651.494 835.344,653.431 835.23,655.86Z" style="fill:rgb(136,115,254);fill-rule:nonzero;"/>
                        </g>
                        <g transform="matrix(1,0,0,1,-65.09,-31.25)">
                            <path d="M827.67,669.85C829.05,671.97 836.87,675.63 836.87,675.63C836.87,675.63 836.73,667 835.35,664.88C834.505,663.583 833.058,662.798 831.51,662.798C828.996,662.798 826.928,664.866 826.928,667.38C826.928,668.268 827.186,669.136 827.67,669.88L827.67,669.85Z" style="fill:rgb(136,115,254);fill-rule:nonzero;"/>
                        </g>
                        <g transform="matrix(1,0,0,1,-65.09,-31.25)">
                            <path d="M828,693.76C830.25,694.9 838.85,694.11 838.85,694.11C838.85,694.11 834.37,686.73 832.11,685.59C831.472,685.269 830.769,685.102 830.055,685.102C827.546,685.102 825.482,687.166 825.482,689.675C825.482,691.4 826.459,692.985 828,693.76Z" style="fill:rgb(136,115,254);fill-rule:nonzero;"/>
                        </g>
                        <g transform="matrix(1,0,0,1,-65.09,-31.25)">
                            <path d="M832.33,711.79C834.33,713.29 842.97,713.97 842.97,713.97C842.97,713.97 839.8,705.97 837.77,704.44C836.983,703.857 836.029,703.543 835.05,703.543C832.542,703.543 830.478,705.607 830.478,708.115C830.478,709.563 831.166,710.928 832.33,711.79Z" style="fill:rgb(136,115,254);fill-rule:nonzero;"/>
                        </g>
                        <g transform="matrix(1,0,0,1,-65.09,-31.25)">
                            <path d="M846.47,676.12C844.66,677.88 836.22,679.7 836.22,679.7C836.22,679.7 838.29,671.32 840.1,669.56C840.953,668.732 842.096,668.268 843.285,668.268C845.793,668.268 847.857,670.332 847.857,672.84C847.857,674.075 847.356,675.259 846.47,676.12Z" style="fill:rgb(136,115,254);fill-rule:nonzero;"/>
                        </g>
                        <g transform="matrix(1,0,0,1,-65.09,-31.25)">
                            <path d="M851.26,697.28C849,698.41 840.4,697.63 840.4,697.63C840.4,697.63 844.89,690.25 847.14,689.11C847.728,688.847 848.365,688.711 849.009,688.711C851.522,688.711 853.589,690.779 853.589,693.291C853.589,694.941 852.697,696.469 851.26,697.28Z" style="fill:rgb(136,115,254);fill-rule:nonzero;"/>
                        </g>
                        <g transform="matrix(1,0,0,1,-65.09,-31.25)">
                            <path d="M853.09,718.48C851.09,719.98 842.45,720.66 842.45,720.66C842.45,720.66 845.62,712.66 847.65,711.12C848.464,710.465 849.477,710.108 850.522,710.108C853.034,710.108 855.102,712.175 855.102,714.688C855.102,716.206 854.347,717.629 853.09,718.48Z" style="fill:rgb(136,115,254);fill-rule:nonzero;"/>
                        </g>
                        <g transform="matrix(1,0,0,1,-65.09,-31.25)">
                            <path d="M946,753.16L946,755.76L946.3,755.51C949.78,752.583 953.21,749.607 956.59,746.58L956.89,746.31C967.914,736.449 978.431,726.036 988.4,715.11C977.73,696.55 952.74,696.45 948.25,696.59L947.55,696.59C947.55,696.59 945.94,730 946,753.16Z" style="fill:rgb(168,168,168);fill-rule:nonzero;"/>
                        </g>
                        <g transform="matrix(1,0,0,1,-65.09,-31.25)">
                            <path d="M946,753.16L946,755.76L946.3,755.51C949.78,752.583 953.21,749.607 956.59,746.58L956.89,746.31C967.914,736.449 978.431,726.036 988.4,715.11C977.73,696.55 952.74,696.45 948.25,696.59L947.55,696.59C947.55,696.59 945.94,730 946,753.16Z" style="fill:white;fill-opacity:0.1;fill-rule:nonzero;"/>
                        </g>
                        <g transform="matrix(1,0,0,1,-65.09,-31.25)">
                            <path d="M839.48,717.53L840.32,723.07L848.88,779.36L851.68,797.82L854.41,815.76C859.49,813.22 864.513,810.593 869.48,807.88L869.71,807.76L870.83,807.14L873.74,805.53C879.613,802.25 885.397,798.857 891.09,795.35L894.59,793.18C897.55,791.32 900.48,789.43 903.38,787.51C909.167,783.703 914.853,779.77 920.44,775.71L922.44,774.23L924.05,773.04C931.57,767.48 938.883,761.717 945.99,755.75L946.29,755.5C949.77,752.573 953.2,749.597 956.58,746.57L951.58,720.82C950.58,715.607 949.753,710.373 949.1,705.12C948.74,702.28 948.44,699.433 948.2,696.58C948.13,695.9 948.07,695.21 948.02,694.53C946.3,673.06 941.02,628.46 926.21,617.97C923.354,615.816 919.632,615.157 916.21,616.2C914.74,616.612 913.295,617.106 911.88,617.68C901.49,621.84 891.66,630.1 883.51,638.68C871.822,651.049 862.35,665.338 855.51,680.92L840.51,714.73L840.46,714.84L840.32,715.15L839.48,717.53Z" style="fill:rgb(168,168,168);fill-rule:nonzero;"/>
                        </g>
                        <g transform="matrix(1,0,0,1,-65.09,-31.25)">
                            <path d="M876,775.24L893.39,715.76C893.39,715.76 909.67,759.51 922.48,774.24L924.09,773.05L901,716C901,716 893.44,683.49 899.49,671.65C904.29,662.25 920.05,630.65 926.34,617.97C923.484,615.816 919.762,615.157 916.34,616.2C914.87,616.612 913.425,617.106 912.01,617.68C904.01,630.36 889.21,655.68 888.11,671.39C887.257,685.13 887.847,698.923 889.87,712.54L876,775.24Z" style="fill:white;fill-opacity:0.1;fill-rule:nonzero;"/>
                        </g>
                        <g transform="matrix(1,0,0,1,-65.09,-31.25)">
                            <path d="M796.65,840.2C803.917,837.647 811.1,834.947 818.2,832.1C830.56,827.107 842.63,821.663 854.41,815.77C859.49,813.23 864.513,810.603 869.48,807.89L869.71,807.77L869.13,804.1L868.5,800.1L866.43,786.84C866.43,786.84 856.8,745.2 846.62,724.19C845.109,720.781 843.119,717.606 840.71,714.76C840.56,714.59 840.4,714.44 840.24,714.29C838.156,712.973 835.696,712.376 833.24,712.59C830.003,712.955 826.975,714.379 824.63,716.64C819.63,721.09 814.18,730 809.5,747.05C802.29,773.19 798.54,811.84 796.65,840.2Z" style="fill:rgb(168,168,168);fill-rule:nonzero;"/>
                        </g>
                        <g transform="matrix(1,0,0,1,-65.09,-31.25)">
                            <path d="M818.2,832.1C830.56,827.107 842.63,821.663 854.41,815.77C859.49,813.23 864.513,810.603 869.48,807.89C869.43,806.65 869.31,805.39 869.13,804.1C868.95,802.81 867.86,797.1 854.43,797.63C853.51,797.63 852.59,797.74 851.68,797.85C837.36,799.64 825.229,809.397 820.41,823C819.322,825.937 818.581,828.991 818.2,832.1Z" style="fill:white;fill-opacity:0.1;fill-rule:nonzero;"/>
                        </g>
                        <g transform="matrix(1,0,0,1,-65.09,-31.25)">
                            <path d="M835.94,733.91C836.39,722.03 829.94,717.96 824.61,716.6C826.953,714.335 829.982,712.91 833.22,712.55C836.929,715.654 839.56,719.857 840.73,724.55L854.34,790.83C854.34,790.83 835.18,753.82 835.94,733.91Z" style="fill:white;fill-opacity:0.1;fill-rule:nonzero;"/>
                        </g>
                        <g transform="matrix(1,0,0,1,-65.09,-31.25)">
                            <path d="M894.81,790.27L891.09,795.36L894.59,793.19C897.55,791.33 900.48,789.44 903.38,787.52L897.69,786.33L894.81,790.27Z" style="fill:rgb(168,168,168);fill-rule:nonzero;"/>
                        </g>
                        <g transform="matrix(1,0,0,1,-65.09,-31.25)">
                            <path d="M894.59,793.19C897.55,791.33 900.48,789.44 903.38,787.52C909.167,783.713 914.853,779.78 920.44,775.72C916.51,772.92 912.77,770.98 910.17,771.21C910.17,771.21 896.84,772.12 894.81,790.27C894.71,791.2 894.63,792.17 894.59,793.19Z" style="fill:white;fill-opacity:0.1;fill-rule:nonzero;"/>
                        </g>
                        <g transform="matrix(1,0,0,1,-65.09,-31.25)">
                            <path d="M840.22,714.25L840.52,715.17L868.52,800.09L870.85,807.15L873.76,805.54C870.26,776.878 861.037,749.209 846.64,724.18C843.76,719.28 841.57,716.11 840.64,714.86C840.42,714.54 840.28,714.35 840.22,714.28L840.22,714.25Z" style="fill-opacity:0.1;fill-rule:nonzero;"/>
                        </g>
                        <g transform="matrix(1,0,0,1,-65.09,-31.25)">
                            <path d="M946,753.16C946.09,753.94 946.2,754.72 946.31,755.51C949.79,752.583 953.22,749.607 956.6,746.58L956.9,746.31L949.16,705.13L947.56,696.62C944.112,715.272 943.586,734.347 946,753.16Z" style="fill-opacity:0.1;fill-rule:nonzero;"/>
                        </g>
                        <g transform="matrix(1,0,0,1,-65.09,-31.25)">
                            <path d="M580.42,106L593.18,106C588.391,105.84 584.539,101.857 584.539,97.065C584.539,92.273 588.391,88.29 593.18,88.13L696.54,88.13C701.329,88.29 705.181,92.273 705.181,97.065C705.181,101.857 701.329,105.84 696.54,106L683.78,106C688.679,106 692.71,110.031 692.71,114.93C692.71,119.829 688.679,123.86 683.78,123.86L701.64,123.86C706.429,124.02 710.281,128.003 710.281,132.795C710.281,137.587 706.429,141.57 701.64,141.73L598.28,141.73C593.491,141.57 589.639,137.587 589.639,132.795C589.639,128.003 593.491,124.02 598.28,123.86L580.42,123.86C575.521,123.86 571.49,119.829 571.49,114.93C571.49,110.031 575.521,106 580.42,106Z" style="fill:rgb(136,115,254);fill-opacity:0.1;fill-rule:nonzero;"/>
                        </g>
                        <g transform="matrix(1,0,0,1,-65.09,-31.25)">
                            <path d="M727.75,242.87L740.51,242.87C735.611,242.87 731.58,238.839 731.58,233.94C731.58,229.041 735.611,225.01 740.51,225.01L843.87,225.01C848.769,225.01 852.8,229.041 852.8,233.94C852.8,238.839 848.769,242.87 843.87,242.87L831.11,242.87C836.009,242.87 840.04,246.901 840.04,251.8C840.04,256.699 836.009,260.73 831.11,260.73L849,260.73C853.789,260.89 857.641,264.873 857.641,269.665C857.641,274.457 853.789,278.44 849,278.6L745.61,278.6C740.821,278.44 736.969,274.457 736.969,269.665C736.969,264.873 740.821,260.89 745.61,260.73L727.75,260.73C722.851,260.73 718.82,256.699 718.82,251.8C718.82,246.901 722.851,242.87 727.75,242.87Z" style="fill:rgb(136,115,254);fill-opacity:0.1;fill-rule:nonzero;"/>
                        </g>
                        <g transform="matrix(1,0,0,1,-65.09,-31.25)">
                            <path d="M578,670.28L584,670.28C581.679,670.28 579.77,668.371 579.77,666.05C579.77,663.729 581.679,661.82 584,661.82L633,661.82C635.321,661.82 637.23,663.729 637.23,666.05C637.23,668.371 635.321,670.28 633,670.28L627,670.28C629.321,670.28 631.23,672.189 631.23,674.51C631.23,676.831 629.321,678.74 627,678.74L635.45,678.74C637.771,678.74 639.68,680.649 639.68,682.97C639.68,685.291 637.771,687.2 635.45,687.2L586.46,687.2C584.139,687.2 582.23,685.291 582.23,682.97C582.23,680.649 584.139,678.74 586.46,678.74L578,678.74C575.679,678.74 573.77,676.831 573.77,674.51C573.77,672.189 575.679,670.28 578,670.28Z" style="fill:rgb(136,115,254);fill-opacity:0.1;fill-rule:nonzero;"/>
                        </g>
                        <g transform="matrix(1,0,0,1,-65.09,-31.25)">
                            <path d="M443.25,742.17L448.11,742.17C446.328,742.073 444.914,740.58 444.914,738.795C444.914,737.01 446.328,735.517 448.11,735.42L487.17,735.42C488.952,735.517 490.366,737.01 490.366,738.795C490.366,740.58 488.952,742.073 487.17,742.17L482.35,742.17C484.132,742.267 485.546,743.76 485.546,745.545C485.546,747.33 484.132,748.823 482.35,748.92L489.1,748.92C490.882,749.017 492.296,750.51 492.296,752.295C492.296,754.08 490.882,755.573 489.1,755.67L450,755.67C449.939,755.673 449.878,755.675 449.816,755.675C447.962,755.675 446.436,754.149 446.436,752.295C446.436,750.441 447.962,748.915 449.816,748.915C449.878,748.915 449.939,748.917 450,748.92L443.25,748.92C443.189,748.923 443.128,748.925 443.066,748.925C441.212,748.925 439.686,747.399 439.686,745.545C439.686,743.691 441.212,742.165 443.066,742.165C443.128,742.165 443.189,742.167 443.25,742.17Z" style="fill:rgb(136,115,254);fill-opacity:0.1;fill-rule:nonzero;"/>
                        </g>
                        <g transform="matrix(1,0,0,1,-65.09,-31.25)">
                            <path d="M278.18,616.37L284.23,616.37C281.909,616.37 280,614.461 280,612.14C280,609.819 281.909,607.91 284.23,607.91L333.16,607.91C335.481,607.91 337.39,609.819 337.39,612.14C337.39,614.461 335.481,616.37 333.16,616.37L327.16,616.37C329.481,616.37 331.39,618.279 331.39,620.6C331.39,622.921 329.481,624.83 327.16,624.83L335.62,624.83C337.941,624.83 339.85,626.739 339.85,629.06C339.85,631.381 337.941,633.29 335.62,633.29L286.64,633.29C284.319,633.29 282.41,631.381 282.41,629.06C282.41,626.739 284.319,624.83 286.64,624.83L278.18,624.83C275.859,624.83 273.95,622.921 273.95,620.6C273.95,618.279 275.859,616.37 278.18,616.37Z" style="fill:rgb(136,115,254);fill-opacity:0.1;fill-rule:nonzero;"/>
                        </g>
                        <g transform="matrix(1,0,0,1,-65.09,-31.25)">
                            <path d="M705,748.6L711,748.6C708.679,748.6 706.77,746.691 706.77,744.37C706.77,742.049 708.679,740.14 711,740.14L760,740.14C762.321,740.14 764.23,742.049 764.23,744.37C764.23,746.691 762.321,748.6 760,748.6L754,748.6C756.321,748.6 758.23,750.509 758.23,752.83C758.23,755.151 756.321,757.06 754,757.06L762.46,757.06C764.7,757.169 766.484,759.042 766.484,761.285C766.484,763.528 764.7,765.401 762.46,765.51L713.44,765.51C713.372,765.513 713.303,765.515 713.234,765.515C710.914,765.515 709.004,763.606 709.004,761.285C709.004,758.964 710.914,757.055 713.234,757.055C713.303,757.055 713.372,757.057 713.44,757.06L705,757.06C702.679,757.06 700.77,755.151 700.77,752.83C700.77,750.509 702.679,748.6 705,748.6Z" style="fill:rgb(136,115,254);fill-opacity:0.1;fill-rule:nonzero;"/>
                        </g>
                        <g transform="matrix(1,0,0,1,-65.09,-31.25)">
                            <path d="M773,339C773.668,337.727 773.27,336.137 772.08,335.33C771.991,335.271 771.91,335.2 771.84,335.12C771.601,334.857 771.469,334.514 771.469,334.159C771.469,333.374 772.114,332.729 772.899,332.729C773.014,332.729 773.128,332.743 773.24,332.77C773.344,332.798 773.445,332.838 773.54,332.89C774.814,333.561 776.406,333.168 777.22,331.98C777.279,331.888 777.35,331.804 777.43,331.73C777.692,331.496 778.031,331.367 778.382,331.367C779.166,331.367 779.812,332.013 779.812,332.797C779.812,332.913 779.798,333.028 779.77,333.14C779.739,333.243 779.699,333.344 779.65,333.44C778.982,334.713 779.38,336.303 780.57,337.11C780.66,337.172 780.744,337.242 780.82,337.32C781.054,337.582 781.183,337.921 781.183,338.272C781.183,339.056 780.537,339.702 779.753,339.702C779.637,339.702 779.522,339.688 779.41,339.66C779.304,339.637 779.203,339.596 779.11,339.54C777.833,338.875 776.244,339.273 775.43,340.46C775.375,340.552 775.307,340.636 775.23,340.71C774.967,340.951 774.622,341.084 774.265,341.084C773.481,341.084 772.835,340.439 772.835,339.654C772.835,339.535 772.85,339.416 772.88,339.3C772.911,339.197 772.951,339.096 773,339Z" style="fill:rgb(136,115,254);fill-opacity:0.3;fill-rule:nonzero;"/>
                        </g>
                        <g transform="matrix(1,0,0,1,-65.09,-31.25)">
                            <path d="M1089.68,170.32C1090.35,169.048 1089.95,167.454 1088.76,166.65C1088.67,166.588 1088.59,166.518 1088.52,166.44C1088.28,166.177 1088.15,165.832 1088.15,165.475C1088.15,164.691 1088.79,164.045 1089.58,164.045C1089.69,164.045 1089.81,164.06 1089.93,164.09C1090.03,164.12 1090.13,164.16 1090.22,164.21C1091.5,164.884 1093.09,164.485 1093.9,163.29C1093.96,163.203 1094.03,163.123 1094.11,163.05C1094.37,162.816 1094.71,162.687 1095.06,162.687C1095.85,162.687 1096.49,163.333 1096.49,164.117C1096.49,164.233 1096.48,164.348 1096.45,164.46C1096.43,164.562 1096.38,164.66 1096.33,164.75C1095.66,166.027 1096.06,167.616 1097.25,168.43C1097.34,168.492 1097.42,168.562 1097.5,168.64C1097.73,168.902 1097.86,169.241 1097.86,169.592C1097.86,170.376 1097.22,171.022 1096.43,171.022C1096.32,171.022 1096.2,171.008 1096.09,170.98C1095.99,170.953 1095.88,170.913 1095.79,170.86C1094.52,170.197 1092.93,170.594 1092.12,171.78C1092.06,171.868 1091.99,171.951 1091.91,172.03C1091.65,172.271 1091.3,172.404 1090.94,172.404C1090.16,172.404 1089.52,171.759 1089.52,170.974C1089.52,170.855 1089.53,170.736 1089.56,170.62C1089.59,170.517 1089.63,170.416 1089.68,170.32Z" style="fill:rgb(136,115,254);fill-opacity:0.3;fill-rule:nonzero;"/>
                        </g>
                        <g transform="matrix(1,0,0,1,-65.09,-31.25)">
                            <path d="M1094.55,623.38C1095.22,622.107 1094.82,620.517 1093.63,619.71C1093.54,619.651 1093.46,619.58 1093.39,619.5C1093.15,619.237 1093.01,618.892 1093.01,618.534C1093.01,617.755 1093.65,617.114 1094.43,617.114C1094.55,617.114 1094.67,617.129 1094.79,617.16C1094.9,617.183 1095,617.224 1095.09,617.28C1096.37,617.945 1097.96,617.547 1098.77,616.36C1098.83,616.268 1098.89,616.184 1098.97,616.11C1099.23,615.869 1099.58,615.736 1099.93,615.736C1100.72,615.736 1101.37,616.381 1101.37,617.166C1101.37,617.285 1101.35,617.404 1101.32,617.52C1101.29,617.623 1101.25,617.724 1101.2,617.82C1100.53,619.093 1100.93,620.683 1102.12,621.49C1102.21,621.549 1102.29,621.62 1102.36,621.7C1102.57,621.955 1102.69,622.275 1102.69,622.605C1102.69,623.384 1102.05,624.025 1101.27,624.025C1101.18,624.025 1101.09,624.017 1101,624C1100.89,623.98 1100.79,623.943 1100.7,623.89C1099.43,623.219 1097.83,623.612 1097.02,624.8C1096.96,624.892 1096.89,624.976 1096.81,625.05C1096.55,625.284 1096.21,625.413 1095.86,625.413C1095.07,625.413 1094.43,624.767 1094.43,623.983C1094.43,623.867 1094.44,623.752 1094.47,623.64C1094.49,623.552 1094.52,623.465 1094.55,623.38Z" style="fill:rgb(136,115,254);fill-opacity:0.3;fill-rule:nonzero;"/>
                        </g>
                        <g transform="matrix(1,0,0,1,-65.09,-31.25)">
                            <path d="M114.38,69.27C115.049,67.994 114.651,66.401 113.46,65.59C113.371,65.531 113.29,65.46 113.22,65.38C112.976,65.117 112.841,64.772 112.841,64.414C112.841,63.635 113.482,62.994 114.261,62.994C114.382,62.994 114.503,63.009 114.62,63.04C114.724,63.068 114.825,63.108 114.92,63.16C116.196,63.829 117.789,63.431 118.6,62.24C118.662,62.15 118.732,62.066 118.81,61.99C119.072,61.756 119.411,61.627 119.762,61.627C120.546,61.627 121.192,62.273 121.192,63.057C121.192,63.173 121.178,63.288 121.15,63.4C121.122,63.504 121.082,63.605 121.03,63.7C120.361,64.976 120.759,66.569 121.95,67.38C122.04,67.438 122.124,67.505 122.2,67.58C122.441,67.843 122.574,68.188 122.574,68.545C122.574,69.329 121.929,69.975 121.144,69.975C121.025,69.975 120.906,69.96 120.79,69.93C120.686,69.902 120.585,69.862 120.49,69.81C119.214,69.141 117.621,69.539 116.81,70.73C116.754,70.819 116.687,70.899 116.61,70.97C116.347,71.209 116.004,71.341 115.649,71.341C114.864,71.341 114.219,70.696 114.219,69.911C114.219,69.796 114.233,69.682 114.26,69.57C114.288,69.466 114.328,69.365 114.38,69.27Z" style="fill:rgb(136,115,254);fill-opacity:0.3;fill-rule:nonzero;"/>
                        </g>
                        <g transform="matrix(1,0,0,1,-65.09,-31.25)">
                            <path d="M66.63,38.9C67.298,37.627 66.9,36.037 65.71,35.23C65.621,35.171 65.54,35.1 65.47,35.02C65.231,34.757 65.099,34.414 65.099,34.059C65.099,33.274 65.744,32.629 66.529,32.629C66.644,32.629 66.758,32.643 66.87,32.67C66.974,32.698 67.075,32.738 67.17,32.79C68.444,33.461 70.036,33.068 70.85,31.88C70.909,31.791 70.976,31.707 71.05,31.63C71.312,31.396 71.651,31.267 72.003,31.267C72.787,31.267 73.433,31.912 73.433,32.697C73.433,32.799 73.422,32.9 73.4,33C73.37,33.101 73.33,33.198 73.28,33.29C72.593,34.573 72.993,36.187 74.2,37C74.289,37.059 74.37,37.13 74.44,37.21C74.701,37.476 74.848,37.833 74.848,38.206C74.848,38.985 74.207,39.626 73.428,39.626C73.283,39.626 73.138,39.604 73,39.56C72.894,39.537 72.793,39.496 72.7,39.44C71.423,38.775 69.834,39.173 69.02,40.36C68.961,40.452 68.89,40.536 68.81,40.61C68.548,40.844 68.209,40.973 67.858,40.973C67.074,40.973 66.428,40.327 66.428,39.543C66.428,39.427 66.442,39.312 66.47,39.2C66.514,39.095 66.568,38.995 66.63,38.9Z" style="fill:rgb(136,115,254);fill-opacity:0.3;fill-rule:nonzero;"/>
                        </g>
                        <g transform="matrix(1,0,0,1,-65.09,-31.25)">
                            <path d="M447,259.45C447.668,258.177 447.27,256.587 446.08,255.78C445.991,255.721 445.91,255.65 445.84,255.57C445.601,255.307 445.469,254.964 445.469,254.609C445.469,253.824 446.114,253.179 446.899,253.179C447.014,253.179 447.128,253.193 447.24,253.22C447.344,253.248 447.445,253.288 447.54,253.34C448.814,254.011 450.406,253.618 451.22,252.43C451.275,252.338 451.343,252.254 451.42,252.18C451.683,251.939 452.028,251.806 452.385,251.806C453.169,251.806 453.815,252.451 453.815,253.236C453.815,253.355 453.8,253.474 453.77,253.59C453.74,253.691 453.7,253.788 453.65,253.88C452.981,255.156 453.379,256.749 454.57,257.56C454.659,257.619 454.74,257.69 454.81,257.77C455.054,258.033 455.189,258.378 455.189,258.736C455.189,259.515 454.548,260.156 453.769,260.156C453.648,260.156 453.527,260.141 453.41,260.11C453.304,260.087 453.203,260.046 453.11,259.99C451.833,259.325 450.244,259.723 449.43,260.91C449.371,261.002 449.3,261.086 449.22,261.16C448.958,261.394 448.619,261.523 448.268,261.523C447.484,261.523 446.838,260.877 446.838,260.093C446.838,259.977 446.852,259.862 446.88,259.75C446.911,259.647 446.951,259.546 447,259.45Z" style="fill:rgb(136,115,254);fill-opacity:0.3;fill-rule:nonzero;"/>
                        </g>
                        <g transform="matrix(1,0,0,1,-65.09,-31.25)">
                            <path d="M270.63,376.94C271.298,375.667 270.9,374.077 269.71,373.27C269.621,373.211 269.54,373.14 269.47,373.06C269.226,372.797 269.091,372.452 269.091,372.094C269.091,371.315 269.732,370.674 270.511,370.674C270.632,370.674 270.753,370.689 270.87,370.72C270.976,370.743 271.077,370.784 271.17,370.84C272.447,371.505 274.036,371.107 274.85,369.92C274.909,369.831 274.976,369.747 275.05,369.67C275.313,369.429 275.658,369.296 276.015,369.296C276.799,369.296 277.445,369.941 277.445,370.726C277.445,370.845 277.43,370.964 277.4,371.08C277.369,371.183 277.329,371.284 277.28,371.38C276.612,372.653 277.01,374.243 278.2,375.05C278.289,375.109 278.37,375.18 278.44,375.26C278.684,375.523 278.819,375.868 278.819,376.226C278.819,377.005 278.178,377.646 277.399,377.646C277.278,377.646 277.157,377.631 277.04,377.6C276.934,377.577 276.833,377.536 276.74,377.48C275.463,376.815 273.874,377.213 273.06,378.4C273.001,378.489 272.934,378.573 272.86,378.65C272.597,378.891 272.252,379.024 271.895,379.024C271.111,379.024 270.465,378.379 270.465,377.594C270.465,377.475 270.48,377.356 270.51,377.24C270.541,377.137 270.581,377.036 270.63,376.94Z" style="fill:rgb(136,115,254);fill-opacity:0.3;fill-rule:nonzero;"/>
                        </g>
                        <g transform="matrix(1,0,0,1,-65.09,-31.25)">
                            <path d="M546.63,223.29C547.147,221.948 546.566,220.414 545.29,219.75C545.193,219.702 545.102,219.641 545.02,219.57C544.701,219.3 544.516,218.903 544.516,218.485C544.516,217.706 545.157,217.065 545.936,217.065C546.005,217.065 546.073,217.07 546.14,217.08C546.247,217.091 546.351,217.118 546.45,217.16C547.795,217.673 549.329,217.094 550,215.82C550.051,215.724 550.111,215.634 550.18,215.55C550.451,215.243 550.842,215.067 551.252,215.067C552.036,215.067 552.682,215.712 552.682,216.497C552.682,216.558 552.678,216.619 552.67,216.68C552.649,216.786 552.619,216.89 552.58,216.99C552.07,218.335 552.654,219.866 553.93,220.53C554.023,220.581 554.11,220.641 554.19,220.71C554.496,220.981 554.672,221.371 554.672,221.78C554.672,222.565 554.026,223.21 553.242,223.21C553.184,223.21 553.127,223.207 553.07,223.2C552.964,223.184 552.86,223.157 552.76,223.12C551.418,222.603 549.884,223.184 549.22,224.46C549.167,224.554 549.107,224.645 549.04,224.73C548.769,225.037 548.378,225.213 547.968,225.213C547.184,225.213 546.538,224.568 546.538,223.783C546.538,223.722 546.542,223.661 546.55,223.6C546.562,223.494 546.589,223.389 546.63,223.29Z" style="fill:rgb(136,115,254);fill-opacity:0.3;fill-rule:nonzero;"/>
                        </g>
                        <g transform="matrix(1,0,0,1,-65.09,-31.25)">
                            <path d="M996.53,532.23C998.362,531.436 999.315,529.369 998.73,527.46C998.688,527.317 998.661,527.169 998.65,527.02C998.65,527.004 998.649,526.989 998.649,526.973C998.649,525.876 999.552,524.973 1000.65,524.973C1001.25,524.973 1001.82,525.244 1002.2,525.71C1002.29,525.831 1002.36,525.962 1002.42,526.1C1003.21,527.932 1005.28,528.885 1007.19,528.3C1007.33,528.255 1007.48,528.225 1007.63,528.21C1007.65,528.209 1007.67,528.209 1007.69,528.209C1008.79,528.209 1009.69,529.112 1009.69,530.209C1009.69,530.816 1009.41,531.391 1008.94,531.77C1008.82,531.859 1008.69,531.933 1008.55,531.99C1006.74,532.805 1005.79,534.853 1006.35,536.76C1006.4,536.902 1006.43,537.05 1006.44,537.2C1006.44,537.22 1006.44,537.24 1006.44,537.26C1006.44,538.357 1005.54,539.26 1004.44,539.26C1003.83,539.26 1003.26,538.983 1002.88,538.51C1002.79,538.391 1002.72,538.26 1002.67,538.12C1001.88,536.288 999.809,535.335 997.9,535.92C997.757,535.964 997.609,535.994 997.46,536.01C997.44,536.011 997.42,536.011 997.4,536.011C996.303,536.011 995.4,535.108 995.4,534.011C995.4,533.404 995.677,532.829 996.15,532.45C996.269,532.363 996.396,532.29 996.53,532.23Z" style="fill:rgb(136,115,254);fill-opacity:0.3;fill-rule:nonzero;"/>
                        </g>
                        <g transform="matrix(1,0,0,1,-65.09,-31.25)">
                            <path d="M387.59,570.11C389.403,569.295 390.347,567.247 389.79,565.34C389.741,565.201 389.711,565.057 389.7,564.91C389.699,564.887 389.699,564.863 389.699,564.84C389.699,563.743 390.602,562.84 391.699,562.84C392.306,562.84 392.881,563.116 393.26,563.59C393.347,563.712 393.42,563.843 393.48,563.98C394.27,565.815 396.341,566.77 398.25,566.18C398.389,566.133 398.534,566.106 398.68,566.1C398.696,566.1 398.711,566.099 398.727,566.099C399.824,566.099 400.727,567.002 400.727,568.099C400.727,568.7 400.456,569.27 399.99,569.65C399.873,569.739 399.745,569.813 399.61,569.87C397.778,570.664 396.825,572.731 397.41,574.64C397.452,574.783 397.479,574.931 397.49,575.08C397.49,575.096 397.491,575.111 397.491,575.127C397.491,576.224 396.588,577.127 395.491,577.127C394.89,577.127 394.32,576.856 393.94,576.39C393.851,576.269 393.777,576.138 393.72,576C392.905,574.187 390.857,573.243 388.95,573.8C388.807,573.845 388.659,573.875 388.51,573.89C388.49,573.891 388.47,573.891 388.45,573.891C387.353,573.891 386.45,572.988 386.45,571.891C386.45,571.284 386.727,570.709 387.2,570.33C387.321,570.241 387.452,570.167 387.59,570.11Z" style="fill:rgb(136,115,254);fill-opacity:0.3;fill-rule:nonzero;"/>
                        </g>
                        <g transform="matrix(1,0,0,1,-65.09,-31.25)">
                            <path d="M577.93,579.82C579.762,579.026 580.715,576.959 580.13,575.05C580.086,574.907 580.056,574.759 580.04,574.61C580.039,574.59 580.039,574.57 580.039,574.55C580.039,573.453 580.942,572.55 582.039,572.55C582.646,572.55 583.221,572.827 583.6,573.3C583.689,573.421 583.763,573.552 583.82,573.69C584.618,575.518 586.684,576.467 588.59,575.88C588.733,575.838 588.881,575.811 589.03,575.8C589.046,575.8 589.061,575.799 589.077,575.799C590.174,575.799 591.077,576.702 591.077,577.799C591.077,578.4 590.806,578.97 590.34,579.35C590.219,579.439 590.088,579.513 589.95,579.57C588.118,580.364 587.165,582.431 587.75,584.34C587.794,584.483 587.824,584.631 587.84,584.78C587.841,584.8 587.841,584.82 587.841,584.84C587.841,585.937 586.938,586.84 585.841,586.84C585.234,586.84 584.659,586.563 584.28,586.09C584.191,585.969 584.117,585.838 584.06,585.7C583.245,583.887 581.197,582.943 579.29,583.5C579.148,583.55 579,583.58 578.85,583.59C578.834,583.59 578.819,583.591 578.803,583.591C577.706,583.591 576.803,582.688 576.803,581.591C576.803,580.99 577.074,580.42 577.54,580.04C577.661,579.951 577.792,579.877 577.93,579.82Z" style="fill:rgb(136,115,254);fill-opacity:0.3;fill-rule:nonzero;"/>
                        </g>
                        <circle cx="121.87" cy="103.29" r="16.5" style="fill:rgb(136,115,254);fill-opacity:0.1;"/>
                        <circle cx="944.65" cy="119.79" r="16.5" style="fill:rgb(136,115,254);fill-opacity:0.1;"/>
                        <circle cx="199.87" cy="21.37" r="9" style="fill:rgb(136,115,254);fill-opacity:0.1;"/>
                        <circle cx="1060.82" cy="283.28" r="9" style="fill:rgb(136,115,254);fill-opacity:0.1;"/>
                        <circle cx="138.37" cy="743.99" r="9" style="fill:rgb(136,115,254);fill-opacity:0.1;"/>
                        <circle cx="172.87" cy="784.52" r="9" style="fill:rgb(136,115,254);fill-opacity:0.1;"/>
                        <circle cx="105.37" cy="808.95" r="9" style="fill:rgb(136,115,254);fill-opacity:0.1;"/>
                    </g>
                </g>
            </g>
        </g>
    </g>
    <defs>
        <linearGradient id="_Linear2" x1="0" y1="0" x2="1" y2="0" gradientUnits="userSpaceOnUse" gradientTransform="matrix(-17.8412,-111.886,111.886,-17.8412,648.589,496.808)"><stop offset="0" style="stop-color:rgb(128,128,128);stop-opacity:0.25"/><stop offset="0.54" style="stop-color:rgb(128,128,128);stop-opacity:0.12"/><stop offset="1" style="stop-color:rgb(128,128,128);stop-opacity:0.1"/></linearGradient>
        <linearGradient id="_Linear3" x1="0" y1="0" x2="1" y2="0" gradientUnits="userSpaceOnUse" gradientTransform="matrix(58.52,0,0,58.52,385.82,432.36)"><stop offset="0" style="stop-color:rgb(128,128,128);stop-opacity:0.25"/><stop offset="0.54" style="stop-color:rgb(128,128,128);stop-opacity:0.12"/><stop offset="1" style="stop-color:rgb(128,128,128);stop-opacity:0.1"/></linearGradient>
    </defs>
</svg>
