<?xml version="1.0" encoding="UTF-8" standalone="no"?>
<!DOCTYPE svg PUBLIC "-//W3C//DTD SVG 1.1//EN" "http://www.w3.org/Graphics/SVG/1.1/DTD/svg11.dtd">
<svg width="100%" height="100%" viewBox="0 0 794 828" version="1.1" xmlns="http://www.w3.org/2000/svg" xmlns:xlink="http://www.w3.org/1999/xlink" xml:space="preserve" xmlns:serif="http://www.serif.com/" style="fill-rule:evenodd;clip-rule:evenodd;stroke-miterlimit:10;">
    <ellipse cx="400.981" cy="776" rx="294" ry="52" style="fill:rgb(63,61,86);"/>
    <g transform="matrix(1,0,0,1,-203.21,-36)">
        <path d="M359.174,322.205C359.174,246.449 470.257,185.037 607.284,185.037C744.311,185.037 855.394,246.449 855.394,322.205" style="fill:none;fill-rule:nonzero;stroke:rgb(63,61,86);stroke-width:2px;"/>
    </g>
    <g transform="matrix(1,0,0,1,-203.21,-36)">
        <path d="M685.298,237.851L483.447,237.851C443.524,170.567 443.524,103.284 483.447,36L685.298,36C629.476,103.284 629.476,170.567 685.298,237.851Z" style="fill:rgb(230,230,230);fill-rule:nonzero;"/>
    </g>
    <rect x="309.072" y="24.03" width="113.741" height="14.418" style="fill:rgb(136,115,254);"/>
    <rect x="272.227" y="71.289" width="150.587" height="4.806" style="fill:white;"/>
    <rect x="272.227" y="96.119" width="150.587" height="4.806" style="fill:white;"/>
    <rect x="272.227" y="120.95" width="150.587" height="4.806" style="fill:white;"/>
    <g transform="matrix(1,0,0,1,-203.21,-36)">
        <path d="M765.887,684.659C765.887,748.676 806.047,800.477 855.678,800.477" style="fill:rgb(63,61,86);fill-rule:nonzero;"/>
    </g>
    <g transform="matrix(1,0,0,1,-203.21,-36)">
        <path d="M855.678,800.477C855.678,735.741 900.494,683.358 955.879,683.358" style="fill:rgb(136,115,254);fill-rule:nonzero;"/>
    </g>
    <g transform="matrix(1,0,0,1,-203.21,-36)">
        <path d="M798.42,690.463C798.42,751.271 824.029,800.477 855.678,800.477" style="fill:rgb(136,115,254);fill-rule:nonzero;"/>
    </g>
    <g transform="matrix(1,0,0,1,-203.21,-36)">
        <path d="M855.678,800.477C855.678,717.759 907.479,650.825 971.495,650.825" style="fill:rgb(63,61,86);fill-rule:nonzero;"/>
    </g>
    <g transform="matrix(1,0,0,1,-203.21,-36)">
        <path d="M836.788,801.293C836.788,801.293 849.522,800.901 853.359,798.168C857.197,795.436 872.947,792.172 873.899,796.555C874.851,800.938 893.036,818.353 878.659,818.469C864.283,818.585 845.255,816.229 841.425,813.896C837.594,811.563 836.788,801.293 836.788,801.293Z" style="fill:rgb(168,168,168);fill-rule:nonzero;"/>
    </g>
    <g transform="matrix(1,0,0,1,-203.21,-36)">
        <path d="M878.916,816.943C864.539,817.059 845.512,814.704 841.681,812.371C838.764,810.594 837.602,804.218 837.213,801.277C836.944,801.288 836.788,801.293 836.788,801.293C836.788,801.293 837.594,811.563 841.425,813.896C845.255,816.229 864.283,818.585 878.659,818.469C882.809,818.435 884.243,816.959 884.164,814.772C883.587,816.093 882.005,816.918 878.916,816.943Z" style="fill-opacity:0.2;fill-rule:nonzero;"/>
    </g>
    <g transform="matrix(1,0,0,1,-203.21,-36)">
        <path d="M561.04,193.682C562.209,194.218 563.615,193.419 564.304,192.333C566.928,188.198 562.097,182.867 563.143,178.084C563.981,174.251 568.336,171.976 569.227,168.156C570.092,164.443 567.426,160.259 569.228,156.899C570.64,154.268 574.166,153.575 577.117,154.036C580.067,154.497 582.868,155.794 585.849,155.976C589.821,156.218 593.607,154.47 597.491,153.603C601.375,152.737 606.113,153.076 608.398,156.334C611.332,160.518 608.356,166.343 609.377,171.35C610.188,175.325 613.517,178.617 613.588,182.674C613.614,184.116 609.823,182.954 610.024,184.382C610.226,185.81 608.434,184.553 609.866,184.383C611.063,184.09 611.938,183.049 612.022,181.82C612.192,180.631 614.427,180.234 614.401,179.033C614.341,176.218 619.431,178.116 620.269,175.427C622.196,169.162 621.8,162.407 619.155,156.41C618.013,153.849 616.459,151.425 615.908,148.676C615.16,144.943 616.337,140.936 615.104,137.335C613.442,132.481 607.942,130.007 602.836,129.504C597.731,129.001 592.542,129.901 587.466,129.16C582.918,128.496 578.515,126.525 573.928,126.811C568.424,127.153 563.635,130.7 559.819,134.682C556.004,138.663 552.767,143.243 548.434,146.654C547.108,147.567 545.884,148.621 544.784,149.797C542.577,152.487 542.353,156.318 542.967,159.742C543.581,163.167 544.917,166.434 545.481,169.867C546.011,173.093 545.847,176.389 546.076,179.651C546.304,182.912 546.981,186.273 548.945,188.886C550.538,191.048 553.043,192.357 555.728,192.43C556.646,192.451 557.422,191.626 558.349,191.841C559.508,192.11 560.011,193.21 561.04,193.682Z" style="fill:rgb(47,46,65);fill-rule:nonzero;"/>
    </g>
    <path d="M318.546,394.707L321.95,415.619L328.759,406.378L324.868,392.275L318.546,394.707Z" style="fill:rgb(160,97,106);fill-rule:nonzero;"/>
    <g transform="matrix(1,0,0,1,-203.21,-36)">
        <path d="M526.133,272.651L520.773,286.777C520.773,286.777 515.434,358.73 515.434,364.08C515.434,369.43 519.325,438.002 520.784,440.92C520.784,440.92 527.106,431.679 535.373,433.138C543.641,434.597 540.237,408.822 540.237,408.822L548.018,345.113L546.559,313.016L526.133,272.651Z" style="fill:rgb(87,90,137);fill-rule:nonzero;"/>
    </g>
    <g transform="matrix(1,0,0,1,-203.21,-36)">
        <path d="M526.133,272.651L520.773,286.777C520.773,286.777 515.434,358.73 515.434,364.08C515.434,369.43 519.325,438.002 520.784,440.92C520.784,440.92 527.106,431.679 535.373,433.138C543.641,434.597 540.237,408.822 540.237,408.822L548.018,345.113L546.559,313.016L526.133,272.651Z" style="fill-opacity:0.1;fill-rule:nonzero;"/>
    </g>
    <g transform="matrix(1,0,0,1,-203.21,-36)">
        <path d="M559.203,194.838C559.203,194.838 575.252,235.69 566.012,243.471C556.772,251.252 617.562,230.34 617.562,230.34L616.103,224.991C616.103,224.991 596.164,217.209 605.891,194.838C615.617,172.467 559.203,194.838 559.203,194.838Z" style="fill:rgb(160,97,106);fill-rule:nonzero;"/>
    </g>
    <g transform="matrix(1,0,0,1,-203.21,-36)">
        <path d="M559.203,194.838C559.203,194.838 575.252,235.69 566.012,243.471C556.772,251.252 617.562,230.34 617.562,230.34L616.103,224.991C616.103,224.991 596.164,217.209 605.891,194.838C615.617,172.467 559.203,194.838 559.203,194.838Z" style="fill-opacity:0.1;fill-rule:nonzero;"/>
    </g>
    <g transform="matrix(1,0,0,1,-203.21,-36)">
        <path d="M533.914,740.496C533.914,740.496 527.106,738.551 523.215,743.414C519.325,748.278 504.735,760.436 504.735,760.436C504.735,760.436 476.528,757.518 472.637,771.621C468.747,785.725 516.893,785.725 528.565,782.321C540.237,778.916 542.668,782.321 542.668,782.321C542.668,782.321 578.656,785.239 578.656,779.403C578.656,773.567 575.252,753.627 575.252,753.627L533.914,740.496Z" style="fill:rgb(87,90,137);fill-rule:nonzero;"/>
    </g>
    <g transform="matrix(1,0,0,1,-203.21,-36)">
        <path d="M648.201,773.08L641.879,792.533C641.879,792.533 622.912,818.795 633.611,824.145C644.31,829.494 682.244,834.844 682.244,820.74L682.244,793.992C682.244,793.992 678.353,775.026 674.463,773.08C670.572,771.135 648.201,773.08 648.201,773.08Z" style="fill:rgb(87,90,137);fill-rule:nonzero;"/>
    </g>
    <g transform="matrix(1,0,0,1,-203.21,-36)">
        <path d="M540.802,423.591C540.802,423.591 520.297,441.406 520.784,443.837C521.27,446.269 530.996,602.38 530.996,602.38L536.346,703.536C536.346,703.536 529.537,727.366 532.942,732.715C536.346,738.065 528.078,739.524 528.078,739.524C528.078,739.524 563.094,771.135 577.684,757.518L591.301,580.981L628.748,709.372C628.748,709.372 635.07,777.457 642.365,777.457C649.66,777.457 679.326,778.916 678.84,775.026C678.353,771.135 680.299,741.469 676.894,723.961C673.49,706.454 650.633,567.851 650.633,567.851C650.633,567.851 648.668,449.029 653.784,437.922C658.9,426.816 651.119,415.144 651.119,415.144L617.076,402.013L576.225,406.877L540.802,423.591Z" style="fill:rgb(47,46,65);fill-rule:nonzero;"/>
    </g>
    <circle cx="378.851" cy="141.331" r="34.043" style="fill:rgb(160,97,106);"/>
    <g transform="matrix(1,0,0,1,-203.21,-36)">
        <path d="M664.736,250.766C661.324,241.11 653.274,233.792 643.338,231.313C633.528,228.845 623.933,225.593 614.645,221.586C605.356,217.58 580.115,238.122 573.307,238.122C566.498,238.122 566.498,233.745 566.498,233.745C566.498,233.745 548.99,252.225 539.75,254.17C530.51,256.116 516.893,278.973 521.756,291.617C525.059,299.724 529.842,307.145 535.86,313.502C541.877,319.859 533.914,381.588 540.237,394.232C540.237,394.232 524.674,423.898 539.264,425.843C553.854,427.789 609.781,420.98 619.508,427.789C629.234,434.597 647.228,426.33 649.66,435.57C652.092,444.81 657.441,446.755 657.441,446.755C657.441,446.755 665.709,433.625 660.845,425.843C655.982,418.062 664.736,250.766 664.736,250.766Z" style="fill:rgb(87,90,137);fill-rule:nonzero;"/>
    </g>
    <g transform="matrix(1,0,0,1,-203.21,-36)">
        <path d="M628.748,433.625L620.967,438.488C620.967,438.488 629.234,467.181 632.639,468.154C636.043,469.126 644.056,443.619 644.056,443.619L628.748,433.625Z" style="fill:rgb(160,97,106);fill-rule:nonzero;"/>
    </g>
    <g transform="matrix(1,0,0,1,-203.21,-36)">
        <path d="M555.204,190.277C556.373,190.813 557.779,190.014 558.468,188.929C561.092,184.794 556.261,179.463 557.307,174.679C558.145,170.847 562.5,168.572 563.391,164.751C564.256,161.039 561.59,156.854 563.392,153.495C564.804,150.863 568.33,150.171 571.281,150.632C574.231,151.093 577.032,152.39 580.013,152.572C583.985,152.814 587.771,151.065 591.655,150.199C595.54,149.333 600.277,149.672 602.562,152.93C605.496,157.113 602.52,162.939 603.541,167.945C604.353,171.921 613.595,174.711 614.433,172.023C616.36,165.758 615.965,159.003 613.319,153.006C612.178,150.445 610.623,148.021 610.072,145.272C609.325,141.539 610.501,137.532 609.268,133.93C607.606,129.077 602.106,126.602 597.001,126.1C591.895,125.597 586.706,126.497 581.63,125.756C577.082,125.092 572.679,123.121 568.092,123.406C562.588,123.749 557.799,127.295 553.983,131.277C550.168,135.259 546.931,139.839 542.598,143.25C541.272,144.163 540.048,145.217 538.948,146.393C536.741,149.082 536.517,152.914 537.131,156.338C537.745,159.763 539.081,163.029 539.645,166.462C540.175,169.689 540.011,172.985 540.24,176.246C540.468,179.508 541.145,182.868 543.109,185.482C544.702,187.644 547.208,188.953 549.892,189.025C550.81,189.047 551.586,188.221 552.513,188.437C553.672,188.706 554.176,189.806 555.204,190.277Z" style="fill:rgb(47,46,65);fill-rule:nonzero;"/>
    </g>
    <g transform="matrix(1,0,0,1,-203.21,-36)">
        <path d="M645.526,259.277L661.332,250.766C661.332,250.766 699.752,342.195 690.511,367.484C681.271,392.773 645.769,444.81 645.769,444.81C645.769,444.81 617.562,438.974 620.48,433.138C623.398,427.302 642.365,389.855 643.824,384.992C645.283,380.129 655.01,348.518 650.633,345.113C646.256,341.709 637.745,262.681 637.745,262.681L645.526,259.277Z" style="fill-opacity:0.1;fill-rule:nonzero;"/>
    </g>
    <g transform="matrix(1,0,0,1,-203.21,-36)">
        <path d="M645.283,245.416L664.736,250.766C664.736,250.766 703.156,342.195 693.916,367.484C684.675,392.773 649.174,444.81 649.174,444.81C649.174,444.81 620.967,438.974 623.885,433.138C626.803,427.302 645.769,389.855 647.228,384.992C648.687,380.129 658.414,348.518 654.037,345.113C649.66,341.709 628.748,257.575 628.748,257.575L645.283,245.416Z" style="fill:rgb(87,90,137);fill-rule:nonzero;"/>
    </g>
    <g transform="matrix(1,0,0,1,-203.21,-36)">
        <path d="M855.394,322.205C855.394,401.63 744.311,466.017 607.284,466.017C470.256,466.017 359.174,401.63 359.174,322.205" style="fill:none;fill-rule:nonzero;stroke:rgb(63,61,86);stroke-width:2px;"/>
    </g>
    <g transform="matrix(1,0,0,1,-203.21,-36)">
        <path d="M810.264,468.058C754.804,497.969 682.441,516.069 603.282,516.069C527.385,516.069 457.735,499.43 403.242,471.695" style="fill:none;fill-rule:nonzero;stroke:rgb(63,61,86);stroke-width:2px;"/>
    </g>
    <g transform="matrix(1,0,0,1,-203.21,-36)">
        <path d="M731.188,147.906C836.732,175.647 911.9,236.667 918.89,308.536" style="fill:none;fill-rule:nonzero;stroke:rgb(63,61,86);stroke-width:2px;"/>
    </g>
    <g transform="matrix(1,0,0,1,-203.21,-36)">
        <path d="M302.373,261.823C320.157,229.137 352.644,200.373 395.21,178.274" style="fill:none;fill-rule:nonzero;stroke:rgb(63,61,86);stroke-width:2px;"/>
    </g>
    <g transform="matrix(1,0,0,1,-203.21,-36)">
        <path d="M520.568,611.707L722.419,611.707C762.342,544.423 762.342,477.14 722.419,409.856L520.568,409.856C576.39,477.14 576.39,544.423 520.568,611.707Z" style="fill:rgb(242,242,242);fill-rule:nonzero;"/>
    </g>
    <rect x="384.146" y="412.304" width="113.741" height="14.418" style="fill:rgb(136,115,254);"/>
    <rect x="375.335" y="455.558" width="150.587" height="4.806" style="fill:white;"/>
    <rect x="375.335" y="480.388" width="150.587" height="4.806" style="fill:white;"/>
    <g transform="matrix(1,0,0,1,-203.21,-36)">
        <path d="M435.003,474.7L233.152,474.7C193.229,407.416 193.229,340.132 233.152,272.849L435.003,272.849C379.181,340.132 379.181,407.416 435.003,474.7Z" style="fill:rgb(242,242,242);fill-rule:nonzero;"/>
    </g>
    <rect x="52.37" y="260.879" width="113.741" height="14.418" style="fill:rgb(136,115,254);"/>
    <rect x="27.539" y="300.928" width="150.587" height="4.806" style="fill:white;"/>
    <rect x="27.539" y="325.759" width="150.587" height="4.806" style="fill:white;"/>
    <rect x="27.539" y="350.59" width="150.587" height="4.806" style="fill:white;"/>
    <rect x="27.539" y="375.421" width="150.587" height="4.806" style="fill:white;"/>
    <g transform="matrix(1,0,0,1,-203.21,-36)">
        <path d="M764.997,381.72L966.848,381.72C1006.77,314.437 1006.77,247.153 966.848,179.869L764.997,179.869C820.819,247.153 820.819,314.437 764.997,381.72Z" style="fill:rgb(242,242,242);fill-rule:nonzero;"/>
    </g>
    <rect x="626.172" y="163.894" width="113.741" height="14.418" style="fill:rgb(136,115,254);"/>
    <rect x="614.157" y="203.944" width="150.587" height="4.806" style="fill:white;"/>
</svg>
