<?xml version="1.0" encoding="UTF-8" standalone="no"?>
<!DOCTYPE svg PUBLIC "-//W3C//DTD SVG 1.1//EN" "http://www.w3.org/Graphics/SVG/1.1/DTD/svg11.dtd">
<svg width="100%" height="100%" viewBox="0 0 315 378" version="1.1" xmlns="http://www.w3.org/2000/svg" xmlns:xlink="http://www.w3.org/1999/xlink" xml:space="preserve" xmlns:serif="http://www.serif.com/" style="fill-rule:evenodd;clip-rule:evenodd;stroke-miterlimit:10;">
    <g transform="matrix(1,0,0,1,-1111.02,-2642.3)">
        <g transform="matrix(1,0,0,1,1135.22,1630.39)">
            <g transform="matrix(1,0,0,1,-2.88672,1035.68)">
                <g id="Calque-1" serif:id="Calque 1">
                    <g transform="matrix(1,0,0,1,7.597,325.136)">
                        <path d="M0,-320L128.454,0L256.907,-320L0,-320Z" style="fill:none;fill-rule:nonzero;stroke:white;stroke-width:5.75px;"/>
                    </g>
                    <g>
                        <clipPath id="_clip1">
                            <path d="M24.025,15.331L136.051,297.656L248.078,15.331L24.025,15.331Z" clip-rule="nonzero"/>
                        </clipPath>
                        <g clip-path="url(#_clip1)">
                            <g transform="matrix(1,0,0,1,172.481,104.919)">
                                <path d="M0,-10.745C0,-8.743 -1.979,0 -32.54,0C-63.1,0 -65.08,-8.743 -65.08,-10.745" style="fill:none;fill-rule:nonzero;stroke:white;stroke-width:4.93px;stroke-linecap:round;stroke-linejoin:round;"/>
                            </g>
                            <g transform="matrix(-0.894547,-0.446973,-0.446973,0.894547,83.7919,79.7415)">
                                <path d="M-0.744,-3.152C0.75,-3.152 1.962,-2.406 1.962,-1.489C1.962,-0.57 0.75,0.175 -0.744,0.175C-2.239,0.175 -3.45,-0.569 -3.451,-1.488C-3.45,-2.406 -2.239,-3.152 -0.744,-3.152" style="fill:white;fill-rule:nonzero;"/>
                            </g>
                            <g transform="matrix(-0.993628,-0.112707,-0.112707,0.993628,101.217,85.7072)">
                                <path d="M-0.187,-3.317C1.307,-3.316 2.519,-2.571 2.519,-1.653C2.519,-0.734 1.307,0.01 -0.187,0.011C-1.681,0.01 -2.893,-0.734 -2.893,-1.653C-2.893,-2.572 -1.681,-3.317 -0.187,-3.317" style="fill:white;fill-rule:nonzero;"/>
                            </g>
                            <g transform="matrix(-0.99905,-0.0435807,-0.0435807,0.99905,120.616,87.6881)">
                                <path d="M-0.072,-3.326C1.422,-3.325 2.634,-2.581 2.634,-1.662C2.634,-0.743 1.422,0.002 -0.072,0.002C-1.567,0.001 -2.779,-0.744 -2.779,-1.662C-2.779,-2.581 -1.567,-3.326 -0.072,-3.326" style="fill:white;fill-rule:nonzero;"/>
                            </g>
                            <g transform="matrix(-0.99905,-0.0435807,-0.0435807,0.99905,139.797,88.2765)">
                                <path d="M-0.072,-3.326C1.423,-3.325 2.634,-2.581 2.634,-1.662C2.634,-0.743 1.423,0.002 -0.072,0.002C-1.567,0.001 -2.779,-0.743 -2.779,-1.662C-2.778,-2.581 -1.566,-3.326 -0.072,-3.326" style="fill:white;fill-rule:nonzero;"/>
                            </g>
                            <g transform="matrix(-0.446918,-0.894575,-0.894575,0.446918,191.121,78.0288)">
                                <path d="M-2.421,-3.916C-1.502,-3.916 -0.757,-2.704 -0.758,-1.209C-0.758,0.285 -1.502,1.496 -2.421,1.497C-3.34,1.497 -4.085,0.286 -4.084,-1.209C-4.084,-2.704 -3.339,-3.916 -2.421,-3.916" style="fill:white;fill-rule:nonzero;"/>
                            </g>
                            <g transform="matrix(-0.993628,0.112707,0.112707,0.993628,178.665,85.7071)">
                                <path d="M0.187,-3.317C1.681,-3.317 2.893,-2.572 2.893,-1.653C2.893,-0.734 1.682,0.01 0.188,0.011C-1.307,0.01 -2.518,-0.734 -2.518,-1.653C-2.519,-2.571 -1.307,-3.316 0.187,-3.317" style="fill:white;fill-rule:nonzero;"/>
                            </g>
                            <g transform="matrix(-0.99905,0.0435807,0.0435807,0.99905,159.265,87.6881)">
                                <path d="M0.072,-3.326C1.566,-3.326 2.778,-2.581 2.779,-1.662C2.779,-0.744 1.567,0.001 0.072,0.002C-1.423,0.002 -2.634,-0.743 -2.634,-1.662C-2.634,-2.581 -1.423,-3.325 0.072,-3.326" style="fill:white;fill-rule:nonzero;"/>
                            </g>
                            <g transform="matrix(0,-1,-1,0,150.189,29.0911)">
                                <path d="M-42.789,-22.292C-46.228,-22.292 -49.017,-7.723 -49.017,10.249C-49.017,28.219 -46.228,42.789 -42.789,42.789C-39.35,42.789 -16.064,37.23 -16.064,10.249C-16.064,-17.959 -39.35,-22.292 -42.789,-22.292Z" style="fill:none;fill-rule:nonzero;stroke:white;stroke-width:4.93px;stroke-linecap:round;stroke-linejoin:round;"/>
                            </g>
                            <g transform="matrix(-1,0,0,1,139.941,78.1075)">
                                <path d="M0,-32.953C26.981,-32.953 32.54,-9.667 32.54,-6.228C32.54,-2.788 17.972,0 0,0C-17.972,0 -32.54,-2.788 -32.54,-6.228C-32.54,-9.667 -28.207,-32.953 0,-32.953Z" style="fill:none;fill-rule:nonzero;stroke:white;stroke-width:4.93px;stroke-linecap:round;stroke-linejoin:round;"/>
                            </g>
                            <g transform="matrix(1,0,0,1,171.19,84.1787)">
                                <path d="M0,-19.849C20.455,-17.238 33.832,-12.169 33.832,-6.258C33.832,-4.031 31.857,-1.913 28.303,0" style="fill:none;fill-rule:nonzero;stroke:white;stroke-width:5.75px;stroke-linecap:round;stroke-linejoin:round;"/>
                            </g>
                            <g transform="matrix(1,0,0,1,191.759,70.4356)">
                                <path d="M0,16.859C-11.888,20.577 -30.676,22.976 -51.818,22.976C-87.761,22.976 -116.898,16.041 -116.898,7.485C-116.898,1.549 -103.579,-3.515 -82.983,-6.117" style="fill:none;fill-rule:nonzero;stroke:white;stroke-width:5.75px;stroke-linecap:round;stroke-linejoin:round;"/>
                            </g>
                            <g transform="matrix(0.467838,-0.883814,-0.883814,-0.467838,134.52,61.9025)">
                                <path d="M-2.935,4.874C-0.307,5.62 4.309,6.001 8.095,4.874" style="fill:none;fill-rule:nonzero;stroke:white;stroke-width:4.93px;stroke-linecap:round;stroke-linejoin:round;"/>
                            </g>
                            <g transform="matrix(0,-1,-1,0,127.051,70.7754)">
                                <path d="M-0.171,0.171L0.171,0.171" style="fill:none;fill-rule:nonzero;stroke:white;stroke-width:4.93px;stroke-linecap:round;stroke-linejoin:round;"/>
                            </g>
                            <g transform="matrix(1,0,0,1,150.287,307.235)">
                                <path d="M0,-119.566C5.504,-117.863 10.838,-115.306 15.816,-111.86C42.421,-93.448 48.833,-56.623 30.138,-29.61C11.442,-2.596 -25.28,4.376 -51.885,-14.037C-78.489,-32.449 -84.9,-69.273 -66.205,-96.287C-53.363,-114.842 -32.016,-123.942 -11.284,-121.853" style="fill:none;fill-rule:nonzero;stroke:white;stroke-width:4.11px;stroke-linecap:round;stroke-linejoin:round;"/>
                            </g>
                            <g transform="matrix(1,0,0,1,103.556,206.313)">
                                <path d="M0,-13.31C-0.941,-10.035 -1.167,-7.813 -0.05,-4.594C1.068,-1.375 3.691,1.423 7.011,2.193C10.053,2.898 13.19,1.89 16.238,1.21C23.707,-0.457 31.499,-0.166 39.063,0.997C45.854,2.042 53.526,3.583 59.02,-0.544C60.224,-1.449 61.299,-2.709 61.418,-4.21C61.497,-5.206 61.146,-6.184 60.733,-7.094C58.806,-11.339 55.352,-14.872 51.149,-16.893" style="fill:none;fill-rule:nonzero;stroke:white;stroke-width:4.11px;stroke-linecap:round;stroke-linejoin:round;"/>
                            </g>
                            <g transform="matrix(1,0,0,1,160.022,271.337)">
                                <path d="M0,-51.813C-2.061,-51.777 -4.12,-52.158 -6.176,-52.009C-11.372,-51.634 -16.161,-47.281 -16.506,-42.082C-16.773,-38.031 -14.579,-33.996 -15.424,-30.025C-15.92,-27.691 -17.405,-25.714 -18.583,-23.639C-19.76,-21.564 -20.666,-19.079 -19.882,-16.825C-19.397,-15.43 -18.334,-14.332 -17.436,-13.16C-14.71,-9.605 -13.378,-5.01 -13.78,-0.548C-13.874,0.498 -13.999,1.72 -13.229,2.435C-12.352,3.25 -10.941,2.836 -9.856,2.332C1.526,-2.966 10.112,-13.904 12.555,-26.219C13.508,-31.025 13.586,-36.025 15.166,-40.663C15.738,-42.342 16.507,-43.971 16.794,-45.722C17.335,-49.023 15.925,-54.043 12.108,-54.551C8.259,-55.063 4.003,-51.884 0,-51.813Z" style="fill:none;fill-rule:nonzero;stroke:white;stroke-width:4.11px;stroke-linecap:round;stroke-linejoin:round;"/>
                            </g>
                            <g transform="matrix(1,0,0,1,116.35,244.133)">
                                <path d="M0,-15.11C0.758,-15.017 1.555,-15.034 2.238,-14.695C2.804,-14.415 3.229,-13.921 3.61,-13.419C4.892,-11.737 5.873,-9.828 6.494,-7.806C7.279,-5.252 7.226,-1.952 4.976,-0.51C3.895,0.183 2.551,0.27 1.299,0.556C-2.12,1.336 -5.107,3.812 -6.509,7.027C-7.752,9.877 -8.066,13.563 -10.788,15.068C-12.94,16.259 -15.776,15.382 -17.508,13.635C-19.24,11.889 -20.097,9.473 -20.775,7.109C-23.378,-1.957 -25.435,-17.134 -19.239,-25.387C-14.749,-31.369 -5.404,-15.769 0,-15.11Z" style="fill:none;fill-rule:nonzero;stroke:white;stroke-width:4.11px;stroke-linecap:round;stroke-linejoin:round;"/>
                            </g>
                            <g transform="matrix(0,-1,-1,0,85.4369,23.1394)">
                                <path d="M-2.226,-2.226C-3.455,-2.226 -4.452,-1.23 -4.452,0C-4.452,1.229 -3.455,2.226 -2.226,2.226C-0.997,2.226 0,1.229 0,0C0,-1.23 -0.997,-2.226 -2.226,-2.226" style="fill:white;fill-rule:nonzero;"/>
                            </g>
                            <g transform="matrix(0,-1,-1,0,176.507,28.6869)">
                                <path d="M-1.678,-1.678C-2.605,-1.678 -3.356,-0.926 -3.356,0.001C-3.356,0.927 -2.605,1.678 -1.678,1.678C-0.751,1.678 0,0.927 0,0.001C0,-0.926 -0.751,-1.678 -1.678,-1.678" style="fill:white;fill-rule:nonzero;"/>
                            </g>
                            <g transform="matrix(0,-1,-1,0,158.785,34.8514)">
                                <path d="M-0.805,-0.805C-1.249,-0.805 -1.61,-0.445 -1.61,0.001C-1.61,0.444 -1.249,0.805 -0.805,0.805C-0.361,0.805 0.001,0.444 0.001,0.001C0.001,-0.445 -0.361,-0.805 -0.805,-0.805" style="fill:white;fill-rule:nonzero;"/>
                            </g>
                            <g transform="matrix(0,-1,-1,0,146.507,22.5741)">
                                <path d="M-0.805,-0.805C-1.249,-0.805 -1.61,-0.445 -1.61,0.001C-1.61,0.444 -1.249,0.805 -0.805,0.805C-0.361,0.805 0.001,0.444 0.001,0.001C0.001,-0.445 -0.361,-0.805 -0.805,-0.805" style="fill:white;fill-rule:nonzero;"/>
                            </g>
                            <g transform="matrix(0,-1,-1,0,224.209,8.9559)">
                                <path d="M-13.596,-13.596C-21.105,-13.596 -27.192,-7.509 -27.192,0C-27.192,7.509 -21.105,13.596 -13.596,13.596C-6.087,13.596 0,7.509 0,0C0,-7.509 -6.087,-13.596 -13.596,-13.596" style="fill:white;fill-rule:nonzero;"/>
                            </g>
                            <g transform="matrix(1,0,0,1,66.1292,56.6056)">
                                <path d="M0,-12.145C-0.508,-9.09 -2.919,-6.679 -5.974,-6.171C-6.093,-6.151 -6.093,-5.994 -5.974,-5.974C-2.919,-5.466 -0.508,-3.055 0,0C0.02,0.119 0.178,0.119 0.197,0C0.705,-3.055 3.116,-5.466 6.171,-5.974C6.29,-5.994 6.29,-6.151 6.171,-6.171C3.116,-6.679 0.705,-9.09 0.197,-12.145C0.178,-12.264 0.02,-12.264 0,-12.145" style="fill:white;fill-rule:nonzero;"/>
                            </g>
                            <g transform="matrix(1,0,0,1,60.4739,22.4055)">
                                <path d="M0,-5.105C-0.213,-3.821 -1.227,-2.808 -2.511,-2.594C-2.561,-2.585 -2.561,-2.519 -2.511,-2.511C-1.227,-2.297 -0.213,-1.284 0,0C0.009,0.05 0.075,0.05 0.083,0C0.297,-1.284 1.311,-2.297 2.594,-2.511C2.645,-2.519 2.645,-2.585 2.594,-2.594C1.311,-2.808 0.297,-3.821 0.083,-5.105C0.075,-5.155 0.009,-5.155 0,-5.105" style="fill:white;fill-rule:nonzero;"/>
                            </g>
                            <g transform="matrix(1,0,0,1,116.741,32.8434)">
                                <path d="M0,-5.105C-0.213,-3.821 -1.227,-2.807 -2.511,-2.594C-2.561,-2.585 -2.561,-2.519 -2.511,-2.511C-1.227,-2.297 -0.213,-1.284 0,0C0.009,0.05 0.075,0.05 0.083,0C0.297,-1.284 1.311,-2.297 2.595,-2.511C2.645,-2.519 2.645,-2.585 2.595,-2.594C1.311,-2.807 0.297,-3.821 0.083,-5.105C0.075,-5.155 0.009,-5.155 0,-5.105" style="fill:white;fill-rule:nonzero;"/>
                            </g>
                            <g transform="matrix(1,0,0,1,201.397,21.1999)">
                                <path d="M0,-5.105C-0.213,-3.821 -1.227,-2.808 -2.511,-2.594C-2.561,-2.585 -2.561,-2.519 -2.511,-2.511C-1.227,-2.297 -0.213,-1.284 0,0C0.009,0.05 0.075,0.05 0.084,0C0.297,-1.284 1.311,-2.297 2.595,-2.511C2.645,-2.519 2.645,-2.585 2.595,-2.594C1.311,-2.808 0.297,-3.821 0.084,-5.105C0.075,-5.155 0.009,-5.155 0,-5.105" style="fill:white;fill-rule:nonzero;"/>
                            </g>
                            <g transform="matrix(1,0,0,1,226.192,50.3776)">
                                <path d="M0,-5.105C-0.214,-3.821 -1.228,-2.808 -2.511,-2.594C-2.562,-2.585 -2.562,-2.52 -2.511,-2.511C-1.228,-2.297 -0.214,-1.284 0,0C0.008,0.05 0.074,0.05 0.083,0C0.296,-1.284 1.31,-2.297 2.594,-2.511C2.644,-2.52 2.644,-2.585 2.594,-2.594C1.31,-2.808 0.296,-3.821 0.083,-5.105C0.074,-5.155 0.008,-5.155 0,-5.105" style="fill:white;fill-rule:nonzero;"/>
                            </g>
                            <g transform="matrix(1,0,0,1,198.384,39.967)">
                                <path d="M0,-5.105C-0.214,-3.821 -1.228,-2.808 -2.512,-2.594C-2.562,-2.586 -2.562,-2.52 -2.512,-2.511C-1.228,-2.298 -0.214,-1.284 0,0C0.008,0.05 0.074,0.05 0.083,0C0.296,-1.284 1.31,-2.298 2.594,-2.511C2.644,-2.52 2.644,-2.586 2.594,-2.594C1.31,-2.808 0.296,-3.821 0.083,-5.105C0.074,-5.155 0.008,-5.155 0,-5.105" style="fill:white;fill-rule:nonzero;"/>
                            </g>
                        </g>
                    </g>
                    <g transform="matrix(1,0,0,1,180.378,114.623)">
                        <path d="M0,-8.922C-0.373,-6.678 -2.145,-4.906 -4.389,-4.533C-4.476,-4.519 -4.476,-4.402 -4.389,-4.388C-2.145,-4.015 -0.373,-2.243 0,0C0.015,0.088 0.131,0.088 0.146,0C0.519,-2.243 2.29,-4.015 4.534,-4.388C4.621,-4.402 4.621,-4.519 4.534,-4.533C2.29,-4.906 0.519,-6.678 0.146,-8.922C0.131,-9.01 0.015,-9.01 0,-8.922" style="fill:white;fill-rule:nonzero;"/>
                    </g>
                    <g transform="matrix(-0.266271,-0.963898,-0.963898,0.266271,172.923,111.174)">
                        <path d="M-16.675,12.694L9.662,12.694" style="fill:none;fill-rule:nonzero;stroke:white;stroke-width:6.09px;stroke-linecap:round;stroke-linejoin:round;"/>
                    </g>
                    <g transform="matrix(0.237826,0.971308,0.971308,-0.237826,171.846,143.077)">
                        <path d="M-2.591,-3.302L4.208,-3.302" style="fill:none;fill-rule:nonzero;stroke:white;stroke-width:6.09px;stroke-linecap:round;stroke-linejoin:round;"/>
                    </g>
                    <g transform="matrix(-0.266271,0.963898,0.963898,0.266271,119.772,171.116)">
                        <path d="M-23.928,-18.214L13.865,-18.214" style="fill:none;fill-rule:nonzero;stroke:white;stroke-width:6.09px;stroke-linecap:round;stroke-linejoin:round;"/>
                    </g>
                    <g transform="matrix(-0.266274,0.963897,0.963897,0.266274,127.499,124.441)">
                        <path d="M-17.386,-13.234L10.074,-13.234" style="fill:none;fill-rule:nonzero;stroke:white;stroke-width:6.09px;stroke-linecap:round;stroke-linejoin:round;"/>
                    </g>
                    <g transform="matrix(-0.238156,-0.971227,-0.971227,0.238156,174.054,158.729)">
                        <path d="M-2.197,1.723L1.352,1.723" style="fill:none;fill-rule:nonzero;stroke:white;stroke-width:6.09px;stroke-linecap:round;stroke-linejoin:round;"/>
                    </g>
                    <g opacity="0.5">
                        <g transform="matrix(1,0,0,1,264.504,325.136)">
                            <path d="M0,-320L-256.906,-320L-128.453,0L0,-320ZM-15.194,-309.726L-128.453,-27.579L-241.712,-309.726L-15.194,-309.726Z" style="fill:white;fill-rule:nonzero;"/>
                        </g>
                    </g>
                </g>
            </g>
        </g>
    </g>
</svg>
