<?xml version="1.0" encoding="UTF-8" standalone="no"?>
<!DOCTYPE svg PUBLIC "-//W3C//DTD SVG 1.1//EN" "http://www.w3.org/Graphics/SVG/1.1/DTD/svg11.dtd">
<svg width="100%" height="100%" viewBox="0 0 37 22" version="1.1" xmlns="http://www.w3.org/2000/svg" xmlns:xlink="http://www.w3.org/1999/xlink" xml:space="preserve" xmlns:serif="http://www.serif.com/" style="fill-rule:evenodd;clip-rule:evenodd;stroke-linejoin:round;stroke-miterlimit:2;">
    <g transform="matrix(1,0,0,1,-810.234,-7201.26)">
        <g transform="matrix(1,0,0,2.20857,323.822,1563.45)">
            <g transform="matrix(0.106915,0,0,0.118938,432.771,2331.58)">
                <g id="Heart" transform="matrix(7.56144,2.27617e-31,-9.32062e-32,3.07761,-579.247,1716.59)">
                    <path d="M166,72C188.808,56.972 173.438,44.367 166,52.609C158.563,44.367 143.192,56.972 166,72Z" style="fill:white;stroke:white;stroke-width:1.45px;"/>
                </g>
                <g id="Heart1" serif:id="Heart" transform="matrix(6.33199,1.90607e-31,-7.80513e-32,2.5772,-375.158,1747.12)">
                    <path d="M177.77,58.552C177.868,58.122 177.933,57.705 177.968,57.3" style="fill:white;stroke:rgb(166,166,166);stroke-width:1.74px;stroke-linecap:round;stroke-linejoin:bevel;"/>
                </g>
                <g id="Heart2" serif:id="Heart" transform="matrix(6.33199,1.90607e-31,-7.80513e-32,2.5772,-375.158,1747.12)">
                    <path d="M177.813,54.918C177.712,54.488 177.572,54.08 177.398,53.699C176.792,52.366 175.772,51.345 174.542,50.717" style="fill:white;stroke:rgb(166,166,166);stroke-width:1.74px;stroke-linecap:round;stroke-linejoin:bevel;"/>
                </g>
                <g transform="matrix(1,0,0,0.407013,311.215,1780.7)">
                    <g transform="matrix(0.655143,0,0,0.655143,188.831,109.191)">
                        <path d="M390.793,197.568C390.793,197.568 455.475,136 490,136C553,136 509.516,224.2 463,224.2" style="fill:none;stroke:white;stroke-width:16.79px;stroke-linecap:round;stroke-linejoin:bevel;stroke-miterlimit:1.5;"/>
                    </g>
                    <g transform="matrix(0.655143,0,0,0.655143,188.831,164.565)">
                        <path d="M473.155,138.321C547,105.478 507,187.478 446,195.478" style="fill:none;stroke:white;stroke-width:16.79px;stroke-linecap:round;stroke-linejoin:bevel;stroke-miterlimit:1.5;"/>
                    </g>
                    <g transform="matrix(0.655143,0,0,0.655143,168.714,206.164)">
                        <path d="M476.707,131.982C563.707,111.982 465.707,193.982 394.885,194.505" style="fill:none;stroke:white;stroke-width:16.79px;stroke-linecap:round;stroke-linejoin:bevel;stroke-miterlimit:1.5;"/>
                    </g>
                </g>
                <g transform="matrix(-1,0,0,0.407013,1037.68,1780.7)">
                    <g transform="matrix(0.655143,0,0,0.655143,188.831,109.191)">
                        <path d="M390.793,197.568C390.793,197.568 455.475,136 490,136C553,136 509.516,224.2 463,224.2" style="fill:none;stroke:white;stroke-width:16.79px;stroke-linecap:round;stroke-linejoin:bevel;stroke-miterlimit:1.5;"/>
                    </g>
                    <g transform="matrix(0.655143,0,0,0.655143,188.831,164.565)">
                        <path d="M473.155,138.321C547,105.478 507,187.478 446,195.478" style="fill:none;stroke:white;stroke-width:16.79px;stroke-linecap:round;stroke-linejoin:bevel;stroke-miterlimit:1.5;"/>
                    </g>
                    <g transform="matrix(0.655143,0,0,0.655143,168.714,206.164)">
                        <path d="M476.707,131.982C563.707,111.982 465.707,193.982 394.885,194.505" style="fill:none;stroke:white;stroke-width:16.79px;stroke-linecap:round;stroke-linejoin:bevel;stroke-miterlimit:1.5;"/>
                    </g>
                </g>
            </g>
        </g>
    </g>
</svg>
