<!--?xml version="1.0" encoding="UTF-8" standalone="no"?-->

<svg width="100%" height="100%" viewBox="0 0 315 378" version="1.1" xmlns="http://www.w3.org/2000/svg" xmlns:xlink="http://www.w3.org/1999/xlink" xml:space="preserve" xmlns:serif="http://www.serif.com/" style="fill-rule:evenodd;clip-rule:evenodd;stroke-miterlimit:10;">
    <g transform="matrix(1,0,0,1,-1096.23,-1727.96)">
        <g transform="matrix(1.5,0,0,2.74808,0,160.87)">
            <g transform="matrix(0.666667,0,0,0.363891,746.668,578.901)">
                <g transform="matrix(1,0,0,1,5.1369,325.137)">
                    <path d="M0,-320L0,-114.177C0,-51.219 57.624,0 128.454,0C199.284,0 256.907,-51.219 256.907,-114.177L256.907,-320L0,-320Z" style="fill: none; fill-rule: nonzero; stroke: white; stroke-width: 5.75px;" class="svg-elem-1"></path>
                </g>
                <g transform="matrix(1,0,0,1,121.797,161.834)">
                    <path d="M0,-83.646C0.139,-79.139 6.178,-77.084 11.793,-77.084C17.409,-77.084 23.449,-79.139 23.587,-83.646C25.463,-86.166 26.495,-89.275 26.495,-92.418L26.495,-92.493L26.494,-92.5C26.45,-100.567 19.868,-107.12 11.793,-107.12C3.721,-107.12 -2.86,-100.569 -2.907,-92.505L-2.908,-92.433C-2.908,-89.275 -1.876,-86.166 0,-83.646M-47.235,-69.285C-42.942,-69.285 -39.45,-65.792 -39.45,-61.5L-39.45,-60.852L-18.926,-60.852L-14.55,-75.732C-13.37,-79.743 -9.773,-82.768 -5.6,-83.259L-4.941,-83.336L-5.237,-83.93C-6.038,-85.535 -6.606,-87.241 -6.925,-89L-7.021,-89.522L-70.774,-69.122C-72.213,-68.661 -73.179,-67.337 -73.179,-65.827L-73.179,-60.852L-55.02,-60.852L-55.02,-61.5C-55.02,-65.792 -51.528,-69.285 -47.235,-69.285M-47.235,-64.957C-49.142,-64.957 -50.692,-63.406 -50.692,-61.5L-50.692,-50.255C-50.692,-49.898 -50.402,-49.609 -50.045,-49.609L-44.424,-49.609C-44.067,-49.609 -43.778,-49.898 -43.778,-50.255L-43.778,-61.5C-43.778,-63.406 -45.329,-64.957 -47.235,-64.957M70.822,-64.957C68.916,-64.957 67.365,-63.406 67.365,-61.5L67.365,-50.255C67.365,-49.898 67.655,-49.609 68.011,-49.609L73.632,-49.609C73.989,-49.609 74.279,-49.898 74.279,-50.255L74.279,-61.5C74.279,-63.406 72.728,-64.957 70.822,-64.957M-4.931,-78.986C-7.48,-78.759 -9.677,-76.961 -10.398,-74.512L-18.559,-46.763L-18.19,-46.583L-18.149,-46.566L-13.399,-44.19L-4.424,-67.523L-4.424,-79.031L-4.931,-78.986ZM28.011,-67.521L36.985,-44.189L41.746,-46.569L42.104,-46.74L42.035,-47.14L33.985,-74.512C33.264,-76.961 31.067,-78.759 28.518,-78.985L28.011,-79.03L28.011,-67.521ZM-0.097,-43.987L23.683,-43.987L23.683,-78.545L22.751,-78.545C22.751,-74.687 17.239,-72.668 11.793,-72.668C6.347,-72.668 0.834,-74.687 0.834,-78.545L-0.097,-78.545L-0.097,-43.987ZM-21.412,-37.065C-21.787,-35.786 -21.09,-34.454 -19.826,-34.031C-19.572,-33.946 -19.309,-33.903 -19.044,-33.903C-18.019,-33.903 -17.117,-34.524 -16.747,-35.484L-14.959,-40.131L-19.799,-42.55L-21.412,-37.065ZM38.546,-40.131L40.333,-35.484C40.703,-34.524 41.604,-33.903 42.63,-33.903C42.896,-33.903 43.159,-33.946 43.414,-34.031C44.677,-34.454 45.374,-35.786 44.999,-37.064L43.384,-42.55L38.546,-40.131ZM-0.097,-32.745L23.683,-32.745L23.683,-39.659L-0.097,-39.659L-0.097,-32.745ZM13.958,-10.257L23.685,-10.257L23.685,-28.416L13.958,-28.416L13.958,-10.257ZM0.549,5.315C-1.357,5.315 -2.908,6.866 -2.908,8.772L-2.908,12.231L9.629,12.231L9.629,-5.93L-0.097,-5.93L-0.097,1L0.549,0.987L3.36,0.987C4.553,0.987 5.524,1.958 5.524,3.151C5.524,4.344 4.553,5.315 3.36,5.315L0.549,5.315ZM13.958,12.231L26.495,12.231L26.495,8.772C26.495,6.866 24.944,5.315 23.036,5.315L20.226,5.315C19.033,5.315 18.062,4.344 18.062,3.151C18.062,1.958 19.033,0.987 20.226,0.987L23.036,0.987L23.684,1L23.684,-5.93L13.958,-5.93L13.958,12.231ZM11.793,27.801C10.6,27.801 9.629,26.831 9.629,25.637L9.629,16.559L-5.072,16.559C-6.265,16.559 -7.236,15.587 -7.236,14.395L-7.236,8.772C-7.236,6.541 -6.269,4.41 -4.583,2.926L-4.425,2.788L-4.425,-13.714C-4.425,-14.908 -3.455,-15.878 -2.261,-15.878C-1.068,-15.878 -0.097,-14.908 -0.097,-13.714L-0.097,-10.257L9.629,-10.257L9.629,-28.417L-0.097,-28.417L-0.097,-24.958C-0.097,-23.764 -1.068,-22.793 -2.261,-22.793C-3.455,-22.793 -4.425,-23.764 -4.425,-24.958L-4.425,-52.958L-5.326,-53.125L-12.708,-33.931C-13.726,-31.284 -16.21,-29.574 -19.038,-29.574C-19.771,-29.574 -20.496,-29.692 -21.196,-29.925C-24.682,-31.087 -26.601,-34.759 -25.564,-38.285L-20.2,-56.525L-39.45,-56.525L-39.45,-50.255C-39.45,-47.512 -41.681,-45.281 -44.424,-45.281L-50.045,-45.281C-52.789,-45.281 -55.02,-47.512 -55.02,-50.255L-55.02,-56.525L-75.343,-56.525C-76.536,-56.525 -77.507,-57.496 -77.507,-58.688L-77.507,-65.827C-77.507,-69.227 -75.332,-72.207 -72.094,-73.243L-7.17,-94.02L-7.139,-94.324C-6.165,-104.086 1.975,-111.447 11.793,-111.447C21.612,-111.447 29.751,-104.086 30.727,-94.324L30.756,-94.02L95.681,-73.243C98.918,-72.207 101.094,-69.227 101.094,-65.827L101.094,-58.688C101.094,-57.496 100.124,-56.525 98.93,-56.525L78.607,-56.525L78.607,-50.255C78.607,-47.512 76.375,-45.281 73.632,-45.281L68.011,-45.281C65.268,-45.281 63.037,-47.512 63.037,-50.255L63.037,-56.525L59.579,-56.525C58.385,-56.525 57.415,-57.496 57.415,-58.688C57.415,-59.881 58.385,-60.852 59.579,-60.852L63.037,-60.852L63.037,-61.5C63.037,-65.792 66.529,-69.285 70.822,-69.285C75.115,-69.285 78.607,-65.792 78.607,-61.5L78.607,-60.852L96.766,-60.852L96.766,-65.827C96.766,-67.338 95.799,-68.661 94.361,-69.12L30.608,-89.522L30.513,-89C30.192,-87.238 29.624,-85.532 28.824,-83.93L28.528,-83.336L29.186,-83.259C33.36,-82.768 36.957,-79.743 38.136,-75.732L42.513,-60.852L48.335,-60.852C49.528,-60.852 50.499,-59.881 50.499,-58.688C50.499,-57.496 49.528,-56.525 48.335,-56.525L43.787,-56.525L49.151,-38.285C50.188,-34.759 48.269,-31.087 44.783,-29.925C44.082,-29.692 43.356,-29.574 42.625,-29.574C39.797,-29.574 37.312,-31.284 36.294,-33.93L28.913,-53.125L28.012,-52.958L28.012,2.788L28.17,2.926C29.856,4.41 30.823,6.541 30.823,8.772L30.823,14.395C30.823,15.587 29.852,16.559 28.659,16.559L13.958,16.559L13.958,25.637C13.958,26.831 12.987,27.801 11.793,27.801" style="fill: white; fill-rule: nonzero;" class="svg-elem-2"></path>
                </g>
                <g>
                    <clipPath id="_clip1">
                        <path d="M117.01,69.487C117.01,78.417 124.249,85.656 133.178,85.656C142.108,85.656 149.347,78.417 149.347,69.487C149.347,60.557 142.108,53.318 133.178,53.318C124.249,53.318 117.01,60.557 117.01,69.487Z" clip-rule="nonzero" class="svg-elem-3"></path>
                    </clipPath>
                    <g clip-path="url(#_clip1)">
                        <g transform="matrix(1,0,0,1,120.027,55.3899)">
                            <path d="M0,9.188C0,4.114 5.888,0 13.152,0C20.416,0 26.304,4.114 26.304,9.188" style="fill: none; fill-rule: nonzero; stroke: white; stroke-width: 4.11px;" class="svg-elem-4"></path>
                        </g>
                        <g transform="matrix(-1,0,0,1,121.282,71.3493)">
                            <path d="M-24.363,-13.434C-30.279,-0.382 5.916,0 -0.047,-13.434" style="fill: none; fill-rule: nonzero; stroke: white; stroke-width: 4.11px;" class="svg-elem-5"></path>
                        </g>
                    </g>
                </g>
                <g transform="matrix(0,-1,-1,0,151.667,63.7099)">
                    <path d="M-1.699,-1.699C-4.442,-1.699 -6.665,-0.938 -6.665,0C-6.665,0.939 -4.442,1.699 -1.699,1.699C2.934,1.699 3.267,0.939 3.267,0C3.267,-0.938 1.044,-1.699 -1.699,-1.699" style="fill: white; fill-rule: nonzero;" class="svg-elem-6"></path>
                </g>
                <g transform="matrix(0,1,1,0,115.769,63.7099)">
                    <path d="M1.699,-1.699C4.442,-1.699 6.665,-0.938 6.665,0C6.665,0.938 4.442,1.699 1.699,1.699C-2.934,1.699 -3.267,0.938 -3.267,0C-3.267,-0.938 -1.044,-1.699 1.699,-1.699" style="fill: white; fill-rule: nonzero;" class="svg-elem-7"></path>
                </g>
                <g transform="matrix(0,1,1,0,231.906,185.082)">
                    <path d="M-46.476,-46.476L46.476,-46.476" style="fill: none; fill-rule: nonzero; stroke: white; stroke-width: 4.11px; stroke-linecap: round; stroke-linejoin: round;" class="svg-elem-8"></path>
                </g>
                <g transform="matrix(0,1,1,0,204.059,202.031)">
                    <path d="M-2.148,-2.148L2.148,-2.148" style="fill: none; fill-rule: nonzero; stroke: white; stroke-width: 4.11px; stroke-linecap: round; stroke-linejoin: round;" class="svg-elem-9"></path>
                </g>
                <g transform="matrix(1,0,0,1,185.43,176.795)">
                    <path d="M0,9.886C0,0 16.48,0 16.48,9.886" style="fill: none; fill-rule: nonzero; stroke: white; stroke-width: 4.11px; stroke-linecap: round; stroke-linejoin: round;" class="svg-elem-10"></path>
                </g>
                <g transform="matrix(0,1,1,0,128.928,185.783)">
                    <path d="M-47.177,-47.177L47.177,-47.177" style="fill: none; fill-rule: nonzero; stroke: white; stroke-width: 4.11px; stroke-linecap: round; stroke-linejoin: round;" class="svg-elem-11"></path>
                </g>
                <g transform="matrix(0,1,1,0,102.965,163.328)">
                    <path d="M-37.695,-37.695L37.695,-37.695" style="fill: none; fill-rule: nonzero; stroke: white; stroke-width: 4.11px; stroke-linecap: round; stroke-linejoin: round;" class="svg-elem-12"></path>
                </g>
                <g transform="matrix(-1,0,0,1,65.2697,176.795)">
                    <path d="M-16.481,9.886C-16.481,0 0,0 0,9.886" style="fill: none; fill-rule: nonzero; stroke: white; stroke-width: 4.11px; stroke-linecap: round; stroke-linejoin: round;" class="svg-elem-13"></path>
                </g>
                <g transform="matrix(0,1,1,0,151.238,233.253)">
                    <path d="M-27.76,-27.76L27.76,-27.76" style="fill: none; fill-rule: nonzero; stroke: white; stroke-width: 4.11px; stroke-linecap: round; stroke-linejoin: round;" class="svg-elem-14"></path>
                </g>
                <g transform="matrix(0,1,1,0,138.044,220.06)">
                    <path d="M-30.697,-30.697L30.697,-30.697" style="fill: none; fill-rule: nonzero; stroke: white; stroke-width: 4.11px; stroke-linecap: round; stroke-linejoin: round;" class="svg-elem-15"></path>
                </g>
                <g transform="matrix(-1,0,0,1,107.348,231.489)">
                    <path d="M-16.13,9.887C-16.13,0 0,0 0,9.887" style="fill: none; fill-rule: nonzero; stroke: white; stroke-width: 4.11px; stroke-linecap: round; stroke-linejoin: round;" class="svg-elem-16"></path>
                </g>
                <g transform="matrix(0,1,1,0,171.463,233.253)">
                    <path d="M-27.76,-27.76L27.76,-27.76" style="fill: none; fill-rule: nonzero; stroke: white; stroke-width: 4.11px; stroke-linecap: round; stroke-linejoin: round;" class="svg-elem-17"></path>
                </g>
                <g transform="matrix(0,1,1,0,190.529,220.06)">
                    <path d="M-30.697,-30.697L30.697,-30.697" style="fill: none; fill-rule: nonzero; stroke: white; stroke-width: 4.11px; stroke-linecap: round; stroke-linejoin: round;" class="svg-elem-18"></path>
                </g>
                <g transform="matrix(1,0,0,1,143.703,231.489)">
                    <path d="M0,9.887C0,0 16.13,0 16.13,9.887" style="fill: none; fill-rule: nonzero; stroke: white; stroke-width: 4.11px; stroke-linecap: round; stroke-linejoin: round;" class="svg-elem-19"></path>
                </g>
                <g transform="matrix(1,0,0,1,123.478,209.203)">
                    <path d="M0,12.975C0,0 20.225,0 20.225,12.975" style="fill: none; fill-rule: nonzero; stroke: white; stroke-width: 4.11px; stroke-linecap: round; stroke-linejoin: round;" class="svg-elem-20"></path>
                </g>
                <g transform="matrix(0,1,1,0,220.028,172.297)">
                    <path d="M-18.117,-18.117L18.117,-18.117" style="fill: none; fill-rule: nonzero; stroke: white; stroke-width: 4.11px; stroke-linecap: round; stroke-linejoin: round;" class="svg-elem-21"></path>
                </g>
                <g opacity="0.5">
                    <g transform="matrix(1,0,0,1,262.044,325.137)">
                        <path d="M0,-320L-256.907,-320L-256.907,-114.177C-256.907,-51.219 -199.283,0 -128.453,0C-57.623,0 0,-51.219 0,-114.177L0,-320ZM-10.273,-309.726L-10.273,-114.177C-10.273,-56.884 -63.288,-10.274 -128.453,-10.274C-193.618,-10.274 -246.633,-56.884 -246.633,-114.177L-246.633,-309.726L-10.273,-309.726" style="fill: white; fill-rule: nonzero;" class="svg-elem-22"></path>
                    </g>
                </g>
            </g>
        </g>
    </g>
</svg>
