<?xml version="1.0" encoding="UTF-8" standalone="no"?>
<!DOCTYPE svg PUBLIC "-//W3C//DTD SVG 1.1//EN" "http://www.w3.org/Graphics/SVG/1.1/DTD/svg11.dtd">
<svg width="100%" height="100%" viewBox="0 0 515 383" version="1.1" xmlns="http://www.w3.org/2000/svg" xmlns:xlink="http://www.w3.org/1999/xlink" xml:space="preserve" xmlns:serif="http://www.serif.com/" style="fill-rule:evenodd;clip-rule:evenodd;stroke-miterlimit:10;">
    <g transform="matrix(1,0,0,1,-14874.4,-347.434)">
        <g transform="matrix(1.5,0,0,1.90347,12172.7,122.801)">
            <g id="undraw_connected_world_wuay.svg" transform="matrix(0.29142,0,0,0.229649,1972.6,218.367)">
                <g transform="matrix(1,0,0,1,-588.303,-436.989)">
                    <g transform="matrix(1,0,0,1,-11.6969,-13.0107)">
                        <path d="M1095.66,225.463C962.121,39.632 680.019,-35.748 402.58,45.439C255.907,88.36 114.487,174.358 44.402,340.88C-80.881,638.554 182.167,733.624 354.172,763.924C437.345,778.576 515.679,803.187 587.261,836.695C716.045,896.979 944,950.398 1115.89,699.286C1240.48,517.28 1184.62,349.244 1095.66,225.463Z" style="fill:rgb(242,242,242);fill-opacity:0.2;fill-rule:nonzero;"/>
                    </g>
                    <g transform="matrix(1,0,0,1,-11.6969,-13.0107)">
                        <path d="M321.429,262.228C321.055,259.275 320.3,256.382 319.181,253.624C318.893,252.569 318.174,251.684 317.201,251.185C316.558,251.018 315.883,251.01 315.236,251.163L305.149,252.706C304.305,252.745 303.496,253.059 302.848,253.601C301.534,254.982 302.828,257.207 302.787,259.113C302.742,261.257 300.838,262.997 298.772,263.572C296.664,263.998 294.49,263.971 292.393,263.493L278.288,261.301C282.441,259.975 286.14,257.507 288.958,254.181C290.814,251.982 291.802,247.876 289.119,246.835C288.322,246.616 287.491,246.55 286.669,246.638C280.279,246.688 275.25,241.352 269.267,239.105C261.433,236.353 252.661,238.968 247.613,245.561L255.127,245.923C255.833,245.884 256.535,246.071 257.128,246.457C258.775,247.81 256.728,250.408 256.96,252.527C257.261,255.279 260.916,255.867 263.671,256.145C266.426,256.424 269.92,258.662 268.595,261.093C254.749,265.863 240.658,251.77 226.116,253.505C222.436,253.944 218.96,255.39 215.367,256.299C193.416,261.853 170.723,247.035 148.299,250.173C143.314,251.023 138.415,252.315 133.659,254.034C130.607,255.036 127.424,256.119 125.206,258.443C122.989,260.767 122.145,264.742 124.245,267.172C118.455,267.648 112.626,267.094 107.03,265.535C110.108,267.246 112.014,270.513 111.988,274.035C102.948,275.51 94.146,278.193 85.821,282.014C87.375,284.598 89.19,287.016 91.237,289.229L79.792,296.582C83.658,297.556 85.658,302.829 83.409,306.122C87.418,304.338 89.903,299.724 94.191,298.789C96.999,298.176 99.857,299.325 102.522,300.404C105.187,301.484 108.115,302.53 110.874,301.72C113.632,300.91 115.667,297.333 113.914,295.054C125.704,291.614 137.889,289.711 150.167,289.391C151.114,289.272 152.075,289.454 152.912,289.912C154.511,291.02 154.09,293.415 154.004,295.359C153.918,297.302 155.432,299.856 157.169,298.98C155.126,300.752 156.873,304.088 158.833,305.951C160.794,307.814 163.156,310.385 161.956,312.809C161.643,313.442 161.112,313.948 160.81,314.586C159.921,316.47 161.333,318.667 162.999,319.918C164.665,321.169 166.706,322.044 167.864,323.777C169.021,325.509 168.495,328.542 166.426,328.784L160.543,321.315C158.534,323.399 157.156,326.011 156.57,328.846C162.808,333.945 163.746,344.324 158.524,350.459C155.855,353.594 152.06,355.499 148.748,357.945C145.435,360.39 142.37,363.873 142.379,367.99C142.393,375.103 141.812,381.711 144.477,388.306C149.393,400.466 155.067,412.305 161.468,423.753C163.149,426.76 165.321,430.055 168.726,430.572C164.423,420.096 160.549,409.457 157.105,398.655C159.348,398.664 161.94,398.842 163.256,400.659C164.345,402.164 164.111,404.21 164.449,406.037C164.879,407.807 165.597,409.494 166.573,411.031L187.123,447.636C188.827,450.671 190.781,453.928 194.036,455.157C196.118,455.942 198.526,455.794 200.442,456.926C201.944,457.812 202.955,459.386 204.486,460.221C208.815,462.583 214.835,458.054 218.88,460.873C220.037,461.679 220.773,462.96 221.839,463.883C225.575,467.119 231.704,464.954 236.017,467.368C238.797,468.923 240.238,472.035 241.72,474.854C245.434,481.916 251.444,488.835 259.403,489.397C261.903,489.574 264.457,489.1 266.901,489.656C269.345,490.212 271.75,492.345 271.358,494.82C270.686,499.064 272.782,503.711 272.219,507.971C271.194,515.731 260.187,519.141 259.242,526.91C259.035,528.611 259.359,530.367 258.954,532.033C258.457,534.073 256.925,535.735 256.38,537.764C255.348,541.608 258.102,545.434 261.128,548.02C264.153,550.606 267.762,552.836 269.416,556.457C271.165,560.283 270.306,564.745 270.875,568.914C272.116,578.014 279.976,584.76 288.065,589.11C290.53,590.436 293.176,591.719 294.772,594.018C296.854,597.019 296.646,600.975 297.342,604.561C299.044,613.342 306.437,620.578 306.647,629.52C306.796,635.877 303.263,641.643 301.152,647.64C297.15,659.261 298.411,672.068 304.603,682.686C306.182,685.352 308.07,687.865 309.187,690.756C311.18,695.913 310.533,701.776 312.371,706.991C314.801,713.886 321.477,719.58 320.838,726.862C323.869,733.157 330.561,736.249 337.291,738.122L349.353,741.48C351.662,742.123 354.076,742.771 356.427,742.305C358.779,741.84 361.023,739.887 360.963,737.491C355.048,736.157 348.943,734.738 344.067,731.134C339.192,727.53 335.852,721.111 337.702,715.337C338.559,712.659 340.384,709.567 338.649,707.355C337.656,706.088 335.839,705.757 334.719,704.602C332.971,702.799 333.572,699.771 334.828,697.597C336.084,695.423 337.901,693.48 338.407,691.021C338.93,688.21 337.643,685.354 335.192,683.883C337.428,683.039 339.462,681.734 341.162,680.053C342.732,678.26 343.457,675.496 342.222,673.458C345.889,673.923 350.219,674.151 352.627,671.345C354.549,669.105 354.417,665.755 353.657,662.903C352.898,660.05 351.614,657.279 351.574,654.327C360.034,654.728 368.513,654.441 376.927,653.467C375.711,649.371 372.944,645.907 369.219,643.814C373.029,643.169 376.501,638.607 377.705,634.935C378.909,631.262 378.602,627.262 377.857,623.47C377.572,622.493 377.533,621.461 377.743,620.466C378.173,619.098 379.516,618.264 380.759,617.55L399.673,606.687C400.802,606.122 401.825,605.367 402.698,604.454C404.679,602.127 404.386,598.613 403.371,595.729C402.357,592.846 400.731,590.134 400.34,587.102C399.171,578.035 408.878,571.529 412.154,562.993C413.439,559.643 413.701,556.002 413.95,552.423C414.217,548.579 414.237,544.113 411.286,541.636C408.456,539.261 404.035,539.791 401.074,537.582C398.36,535.557 397.423,531.624 394.458,529.988C391.765,528.503 388.388,529.447 385.393,528.749C380.119,527.519 376.801,521.441 371.415,520.878C368.376,520.56 364.937,522.046 362.446,520.276C360.252,518.717 360.164,515.582 359.746,512.923C358.25,504.476 351.613,497.818 343.171,496.295C340.038,495.792 336.628,495.983 333.962,494.261C331.263,492.518 330.026,489.253 327.905,486.839C324.489,482.947 319.107,481.565 314.066,480.38L293.56,475.559C289.92,474.703 285.228,474.25 283.275,477.438C282.696,478.652 282.287,479.94 282.058,481.265C280.56,486.17 276.041,489.571 270.914,489.653C269.196,486.723 266.41,484.567 263.142,483.64C261.063,483.06 258.837,482.996 256.854,482.143C253.825,480.665 251.896,477.576 251.896,474.206C251.896,472.695 252.283,471.209 253.022,469.891C255.444,465.577 254.671,460.134 251.143,456.666C247.656,453.535 242.611,452.779 237.935,453.092C236.711,450.42 238.758,447.405 240.965,445.463C243.172,443.521 245.851,441.612 246.331,438.712C247.087,434.151 241.267,430.686 236.848,432.046C232.429,433.406 229.608,437.699 227.744,441.93C226.674,444.357 225.765,446.914 224.077,448.961C222.39,451.008 219.673,452.473 217.102,451.816C213.464,450.886 212.058,446.563 211.253,442.895C210.172,437.973 209.086,432.983 209.312,427.949C209.538,422.915 211.235,417.747 214.947,414.339C220.996,408.786 230.275,409.33 238.439,410.216C236.51,408.043 236.987,404.381 239.05,402.336C241.26,400.372 244.303,399.625 247.171,400.34C249.63,400.852 251.847,402.178 253.462,404.102C255.782,406.93 256.442,410.749 258.195,413.959C259.949,417.17 263.891,419.908 267.118,418.185C269.906,416.698 270.348,412.833 269.654,409.75C268.961,406.668 267.487,403.671 267.739,400.521C268.218,394.511 274.448,390.894 279.945,388.419C285.442,385.944 291.737,382.615 292.608,376.65C292.638,375.482 292.858,374.327 293.26,373.23C293.87,372.261 294.717,371.464 295.722,370.915C311.766,360.312 328.076,349.58 346.414,343.786C347.368,343.485 347.48,343.82 348.452,343.584C349.813,342.797 348.911,340.622 347.607,339.745C346.302,338.869 344.558,338.197 344.227,336.66C343.984,335.531 344.649,334.422 344.822,333.28C345.247,330.473 341.889,327.881 339.281,329.003C337.808,327.052 340.723,324.786 343.08,324.137C350.156,322.189 357.421,321.002 364.75,320.597C365.595,320.462 366.462,320.61 367.216,321.016C368.447,321.869 368.289,323.825 367.417,325.042C366.545,326.259 365.188,327.023 364.101,328.053C361.683,330.408 360.775,333.927 361.752,337.158C365.578,339.104 369.738,341.107 373.975,340.422C378.213,339.736 381.974,334.975 379.982,331.172C378.127,327.631 372.556,326.833 371.598,322.952C370.476,318.408 376.908,314.367 375.459,309.917C374.825,307.967 372.882,306.82 371.391,305.413C367.796,301.888 366.73,296.487 368.717,291.861C363.794,292.727 358.745,291.147 355.194,287.629C351.96,284.365 349.379,279.216 344.786,279.362C340.571,279.496 336.941,284.413 333,282.913C332.03,282.544 331.008,281.793 330.069,282.233C329.445,282.638 329.042,283.308 328.975,284.048C327.974,288.836 329.697,294.292 327.087,298.43C324.247,302.932 317.678,303.557 314.235,307.617C312.366,309.821 311.642,312.791 309.924,315.115C308.206,317.438 304.56,318.916 302.499,316.891C304.578,312.616 303.419,307.429 299.718,304.446C297.804,303.197 295.741,302.193 293.577,301.459C291.159,300.435 288.859,299.153 286.716,297.635C285.643,296.988 284.771,296.054 284.198,294.94C283.744,293.545 283.806,292.032 284.37,290.678C286.498,284.579 291.849,280.143 298.237,279.185C300.982,278.811 304.177,278.943 305.993,276.851C306.954,275.745 307.459,274.072 308.854,273.622C309.746,273.443 310.673,273.557 311.495,273.947L321.74,277.554C322.883,278.07 324.142,278.278 325.39,278.157C326.667,277.985 327.607,276.843 327.53,275.557C327.202,273.855 324.584,273.039 324.823,271.323C324.956,270.767 325.255,270.264 325.68,269.881C333.162,261.918 343.827,257.706 354.731,258.409C356.024,260.533 353.979,263.048 352.278,264.861C350.576,266.674 349.208,269.913 351.266,271.309C352.11,271.739 353.048,271.951 353.994,271.923C356.517,272.265 358.968,273.008 361.255,274.126C364.795,275.666 368.268,277.352 371.672,279.183C371.372,276.938 371.085,274.573 371.935,272.475C372.786,270.376 375.204,268.729 377.316,269.547C379.352,270.335 380.396,273.03 382.565,273.277C385.457,273.606 386.599,269.332 385.39,266.684C384.182,264.035 381.79,261.817 381.59,258.912C381.455,256.952 382.201,254.522 380.636,253.336C380.079,252.979 379.447,252.758 378.789,252.688L339.705,245.496C337.384,245.069 334.031,245.396 333.928,247.754C333.871,249.07 335.046,250.372 334.526,251.582C333.97,252.873 332.144,252.755 330.815,253.212C328.752,253.92 327.716,256.37 327.915,258.542C328.277,260.701 329.113,262.753 330.363,264.55C327.82,263.487 323.971,263.291 321.429,262.228Z" style="fill:rgb(63,61,86);fill-rule:nonzero;"/>
                    </g>
                    <g transform="matrix(1,0,0,1,-11.6969,-13.0107)">
                        <path d="M290.244,229.051C285.207,227.384 279.633,229.053 276.341,233.214C275.698,234.062 275.157,235.23 275.696,236.147C276.469,237.463 278.437,236.943 279.888,236.473C282.02,235.711 284.342,235.655 286.508,236.315C287.871,236.782 289.09,237.609 290.458,238.059C291.814,238.626 293.377,238.398 294.514,237.467C295.453,236.509 295.512,235.02 295.514,233.678C295.646,232.77 295.36,231.849 294.737,231.174C294.19,230.857 293.574,230.675 292.942,230.643C291.526,230.381 290.246,229.633 289.322,228.528" style="fill:rgb(63,61,86);fill-rule:nonzero;"/>
                    </g>
                    <g transform="matrix(1,0,0,1,-11.6969,-13.0107)">
                        <path d="M304.337,225.127C304.278,225.124 304.22,225.122 304.162,225.122C302.395,225.122 300.942,226.576 300.942,228.342C300.942,228.797 301.038,229.246 301.225,229.661C302.919,230.123 304.688,230.239 306.428,230.001C308.198,229.726 309.637,228.406 310.065,226.666C308.017,227.039 305.903,226.635 304.137,225.534" style="fill:rgb(63,61,86);fill-rule:nonzero;"/>
                    </g>
                    <g transform="matrix(1,0,0,1,-11.6969,-13.0107)">
                        <path d="M351.62,218.574C347.01,219.554 342.531,221.075 338.278,223.106C342.383,224.684 344.992,228.788 344.68,233.175C344.5,233.997 344.521,234.851 344.741,235.664C345.231,236.852 346.651,237.298 347.899,237.603C350.142,238.285 352.484,238.584 354.826,238.487C357.204,238.362 359.364,237.042 360.56,234.983C360.899,234.02 361.298,233.079 361.752,232.164C364.745,227.607 373.634,233.117 376.846,228.713C377.978,227.161 377.874,224.826 379.35,223.597C380.113,223.061 380.997,222.723 381.923,222.614C388.384,221.331 394.91,220.401 401.472,219.83C404.581,219.56 408.633,218.443 408.659,215.322C396.95,213.023 384.803,214.657 374.118,219.969C370.268,221.898 365.175,225.954 361.466,223.398C360.077,222.44 360.146,219.863 358.235,218.786C356.281,217.686 353.694,218.133 351.62,218.574Z" style="fill:rgb(63,61,86);fill-rule:nonzero;"/>
                    </g>
                    <g transform="matrix(1,0,0,1,-11.6969,-13.0107)">
                        <path d="M389.919,225.736L395.416,226.792C395.311,226.788 395.206,226.785 395.101,226.785C391.193,226.785 387.977,230.001 387.977,233.909C387.977,234.11 387.986,234.312 388.003,234.512C393.151,236.232 398.764,234.559 404.187,234.787C409.61,235.016 415.919,238.89 414.993,244.238C414.714,245.855 413.779,247.471 414.265,249.039C414.606,250.137 415.575,250.917 416.122,251.929C417.261,254.038 416.35,256.705 414.911,258.622C413.472,260.539 411.538,262.068 410.274,264.105C407.133,269.172 408.918,275.722 410.789,281.382C411.33,283.521 412.33,285.516 413.718,287.231C416.491,290.179 421.01,290.435 425.056,290.494C428.002,290.537 431.376,290.392 433.239,288.11C435.671,285.13 433.97,280.482 435.571,276.985C437.025,273.809 440.73,272.447 444.086,271.481C450.235,269.71 456.502,268.206 462.315,265.532C469.534,262.211 476.28,257.037 484.215,256.61C486.441,256.49 488.722,256.752 490.866,256.142C493.01,255.533 495.047,253.679 494.884,251.456C494.746,249.556 493.138,248.161 491.883,246.729C490.627,245.297 489.641,243.095 490.795,241.58L511.591,237.696C510.117,233.678 508.969,228.387 512.356,225.772C513.578,224.829 515.215,224.451 516.256,223.311C518.029,221.367 517.137,218.018 515.09,216.364C513.043,214.711 510.274,214.327 507.652,214.109C498.533,213.352 489.362,213.853 480.225,214.353C462.365,215.332 444.505,216.311 426.646,217.29C423.05,217.487 418.899,217.186 415.602,218.413C412.81,219.451 410.825,221.357 407.633,222.027C401.739,223.264 395.252,222.427 389.919,225.736Z" style="fill:rgb(63,61,86);fill-rule:nonzero;"/>
                    </g>
                    <g transform="matrix(1,0,0,1,-11.6969,-13.0107)">
                        <path d="M488.403,269.189C487.843,269.101 487.27,269.231 486.803,269.552C486.494,269.892 486.311,270.328 486.282,270.786C485.928,272.809 486.351,274.894 487.466,276.618C488.622,278.34 490.628,279.302 492.694,279.125C495.169,278.809 496.994,276.697 499.269,275.667C502.777,274.08 517.672,271.606 507.368,266.04C503.817,264.121 501.523,265.815 498.724,267.078C495.54,268.707 491.971,269.437 488.403,269.189Z" style="fill:rgb(63,61,86);fill-rule:nonzero;"/>
                    </g>
                    <g transform="matrix(1,0,0,1,-11.6969,-13.0107)">
                        <path d="M578.653,222.593C577.45,223.085 576.443,223.961 575.791,225.085C575.17,226.263 575.588,227.741 576.734,228.42C577.183,228.583 577.659,228.658 578.137,228.643L583.029,228.789C585.108,228.851 587.704,229.293 588.262,231.296C588.677,232.783 587.749,234.694 588.869,235.757C589.349,236.129 589.927,236.355 590.533,236.406C592.144,236.82 593.827,236.874 595.462,236.565C599.022,235.611 597.151,233.438 598.272,231.504C599.988,228.544 599.691,230.335 602.713,228.639C604.945,227.386 607.83,225.114 605.967,221.921C602.727,216.368 583.434,220.208 578.653,222.593Z" style="fill:rgb(63,61,86);fill-rule:nonzero;"/>
                    </g>
                    <g transform="matrix(1,0,0,1,-11.6969,-13.0107)">
                        <path d="M675.212,219.802L672.371,220.181C665.965,221.036 659.523,221.898 653.353,223.822C656.024,224.878 658.826,225.566 661.682,225.866C663.255,225.943 664.816,226.165 666.348,226.529C669.073,227.34 671.819,229.435 674.452,228.362C676.084,227.697 676.617,225.997 677.969,225.096C678.903,224.474 682.444,223.467 682.84,222.84C686.04,217.764 677.672,219.474 675.212,219.802Z" style="fill:rgb(63,61,86);fill-rule:nonzero;"/>
                    </g>
                    <g transform="matrix(1,0,0,1,-11.6969,-13.0107)">
                        <path d="M687.686,232.713C683.892,234.835 680.371,237.413 677.203,240.39C675.868,241.645 674.505,243.205 674.626,245.033C674.787,247.462 677.375,248.872 679.617,249.821L688.698,253.666C689.8,252.113 688.791,249.969 687.653,248.444C686.514,246.918 685.161,245.152 685.664,243.316C686.238,241.221 688.793,240.506 690.936,240.145C694.426,239.557 703.843,239.604 702.712,233.979C701.378,227.35 691.19,230.754 687.686,232.713Z" style="fill:rgb(63,61,86);fill-rule:nonzero;"/>
                    </g>
                    <g transform="matrix(1,0,0,1,-11.6969,-13.0107)">
                        <path d="M685.86,607.84C684.995,610.343 684.913,613.291 686.409,615.477C688.087,617.929 691.445,618.843 694.351,618.221C697.244,617.451 699.823,615.793 701.724,613.48C703.463,611.542 704.894,609.349 705.965,606.976C707.462,603.279 708.517,599.418 709.109,595.474L711.929,580.67C712.559,577.361 712.534,567.218 706.453,570.522C704.792,571.425 700.946,578.554 699.205,580.575C696.067,584.218 695.652,587.753 694,592.167C691.931,597.695 687.773,602.303 685.86,607.84Z" style="fill:rgb(63,61,86);fill-rule:nonzero;"/>
                    </g>
                    <g transform="matrix(1,0,0,1,-11.6969,-13.0107)">
                        <path d="M1007.04,683.597C1005.05,682.821 1003.12,681.901 1001.26,680.846C999.401,685.967 998.411,691.363 998.334,696.811L1011.95,689.107C1014,687.948 1016.32,686.337 1016.28,683.984C1016.31,683.393 1016.02,682.827 1015.52,682.511C1015.22,682.389 1014.89,682.35 1014.57,682.399C1012.55,682.567 1010.71,683.56 1008.8,684.251C1006.9,684.942 1004.67,685.307 1002.93,684.282" style="fill:rgb(63,61,86);fill-rule:nonzero;"/>
                    </g>
                    <g transform="matrix(1,0,0,1,-11.6969,-13.0107)">
                        <path d="M1078.87,688.172C1077.37,688.578 1075.91,689.102 1074.5,689.739C1071.38,691.328 1069.25,694.348 1066.44,696.442C1063.75,698.446 1060.51,699.546 1057.33,700.616C1056.39,701.442 1056.83,703.108 1057.84,703.834C1058.93,704.455 1060.18,704.736 1061.44,704.642C1064.74,704.715 1068.22,704.747 1071.11,703.151C1072.74,702.094 1074.27,700.883 1075.67,699.535C1079.05,696.713 1083.12,694.85 1087.14,693.05C1088.6,692.498 1089.95,691.688 1091.13,690.661C1093.66,688.171 1093.84,684.33 1090.19,683.482C1087.25,682.798 1081.67,687.265 1078.87,688.172Z" style="fill:rgb(63,61,86);fill-rule:nonzero;"/>
                    </g>
                    <g transform="matrix(1,0,0,1,-11.6969,-13.0107)">
                        <path d="M1110.61,667.441C1110.94,663.972 1109.65,660.537 1107.13,658.134C1107.09,661.562 1106.99,665.214 1105.06,668.048C1103.69,670.068 1101.53,671.432 1100.03,673.356C1098.52,675.279 1097.86,678.328 1099.62,680.016C1100.75,680.875 1102.12,681.348 1103.54,681.367C1107.06,681.78 1111.12,682.011 1113.59,679.472C1114.93,678.087 1115.59,676.035 1117.23,675.016C1117.84,674.759 1118.38,674.369 1118.82,673.873C1119.5,672.796 1118.42,671.377 1117.21,670.989C1116,670.601 1114.67,670.783 1113.45,670.415C1112.23,670.046 1111.11,668.677 1111.74,667.569" style="fill:rgb(63,61,86);fill-rule:nonzero;"/>
                    </g>
                    <g transform="matrix(1,0,0,1,-11.6969,-13.0107)">
                        <path d="M1054.2,541.77C1052.36,542.218 1050.45,542.331 1048.56,542.102C1045.44,541.527 1043,539.17 1040.48,537.236C1034.47,532.666 1027.17,530.115 1019.63,529.953C1012.77,529.823 1005.84,531.683 999.101,530.386C999.541,532.835 1001.64,534.672 1003.87,535.764C1006.11,536.856 1008.58,537.405 1010.82,538.475C1014.42,540.204 1017.28,543.175 1018.86,546.838C1019.59,548.527 1020.04,550.366 1021.14,551.841C1023.38,554.856 1027.63,555.518 1031.38,555.271C1036.26,554.95 1041.37,553.544 1045.91,555.365C1049.39,556.758 1051.88,559.802 1054.78,562.169C1057.69,564.535 1061.78,566.292 1065.11,564.584C1058.02,562.289 1053.22,555.606 1053.3,548.154C1056.57,548.455 1065.99,548.339 1065.48,542.782C1065.05,538.072 1057.01,541.262 1054.2,541.77Z" style="fill:rgb(63,61,86);fill-rule:nonzero;"/>
                    </g>
                    <g transform="matrix(1,0,0,1,-11.6969,-13.0107)">
                        <path d="M1011.42,580.087C1012,576.902 1015.17,574.09 1014.18,571.007C1013.5,568.876 1011.03,567.823 1008.79,567.771C1006.55,567.718 1004.35,568.385 1002.12,568.448C1000.66,568.37 999.198,568.391 997.744,568.51C993.302,569.24 990.564,573.896 986.377,575.552C983.831,576.559 980.971,576.366 978.324,577.062C972.314,578.642 968.511,584.321 964.31,588.9C957.523,596.264 948.678,601.422 938.926,603.703C935.509,604.494 931.836,605.001 929.12,607.22C925.523,610.159 924.637,615.197 923.837,619.772C921.626,632.408 918.247,644.812 913.744,656.823L928.015,658.645C930.728,658.992 933.539,659.331 936.153,658.527C938.053,657.81 939.852,656.852 941.507,655.676C947.862,651.73 954.976,649.162 962.386,648.139C966.123,647.626 970.041,647.532 973.548,648.921C977.055,650.31 980.064,653.46 980.358,657.22C983.443,656.26 986.819,657.081 989.12,659.351C991.354,661.628 992.818,664.55 993.303,667.702C993.679,669.655 994.055,671.994 995.867,672.813C997.345,673.481 999.04,672.762 1000.66,672.632C1006.14,672.193 1010.7,678.591 1016.09,677.489C1021.87,676.308 1023.29,667.646 1028.93,665.911C1032.17,664.914 1036.72,666.126 1038.27,663.112C1039.64,660.455 1036.91,657.389 1037.19,654.414C1037.54,650.751 1041.86,649.196 1045.19,647.633C1056.67,642.244 1062.12,626.788 1056.56,615.388C1053.26,608.634 1046.78,603.317 1045.58,595.898C1044.65,590.189 1046.9,583.532 1043.27,579.038C1041.41,576.752 1038.28,575.491 1037.18,572.763C1036.48,571.046 1036.76,569.098 1036.39,567.284C1036.02,565.471 1034.43,563.574 1032.64,564.044C1027.44,565.408 1025.79,581.469 1023,585.371C1018.77,591.302 1010.08,587.395 1011.42,580.087Z" style="fill:rgb(63,61,86);fill-rule:nonzero;"/>
                    </g>
                    <g transform="matrix(1,0,0,1,-11.6969,-13.0107)">
                        <path d="M915.322,547.838C913.546,547.34 911.606,546.849 909.903,547.561C908.201,548.273 907.207,550.772 908.573,552.012C919.262,551.596 930.016,551.183 940.613,552.634C952.823,554.307 964.907,558.449 977.171,557.23C970.166,555.164 963.045,553.511 955.845,552.282L943.839,549.988C940.618,549.314 937.364,548.811 934.09,548.482C927.241,547.916 922.057,549.726 915.322,547.838Z" style="fill:rgb(63,61,86);fill-rule:nonzero;"/>
                    </g>
                    <g transform="matrix(1,0,0,1,-11.6969,-13.0107)">
                        <path d="M926.023,510.612C925.135,510.538 924.036,510.474 923.577,511.237C923.139,511.966 923.641,512.929 923.405,513.747C923.083,514.863 921.62,515.149 920.468,514.996C919.316,514.844 918.07,514.48 917.049,515.036C915.988,515.76 915.53,517.107 915.928,518.328C916.346,519.511 917.021,520.587 917.905,521.478C919.414,523.381 921.135,525.106 923.032,526.622C926.706,529.333 931.683,530.64 933.996,534.576C934.323,535.339 934.825,536.014 935.461,536.547C936.572,537.251 938.02,536.715 939.216,536.169L943.408,534.254C944.163,533.982 944.837,533.523 945.368,532.921C946.325,531.621 945.737,529.774 944.933,528.374C944.129,526.974 943.1,525.525 943.273,523.92C943.581,521.058 947.26,519.964 948.773,517.515C950.298,515.047 949.305,511.867 949.481,508.971C949.687,505.584 951.815,501.179 948.391,498.649C945.481,496.498 942.7,498.485 940.61,500.859C936.205,505.866 934.122,511.289 926.023,510.612Z" style="fill:rgb(63,61,86);fill-rule:nonzero;"/>
                    </g>
                    <g transform="matrix(1,0,0,1,-11.6969,-13.0107)">
                        <path d="M951.468,460.009C952.899,462.749 955.883,464.385 957.444,467.053C959.135,469.946 958.942,473.683 960.778,476.487C962.66,479.363 966.449,480.891 967.505,484.162C968.658,487.734 966.043,492.076 968.127,495.197C969.003,496.345 970.367,497.021 971.811,497.021C972.961,497.021 974.07,496.593 974.922,495.821C976.738,493.843 976.647,490.734 974.716,488.867C973.482,487.742 971.709,487.256 970.679,485.941C970.142,485.182 969.784,484.312 969.633,483.395C969.071,480.75 969.161,478.008 969.895,475.405C970.171,474.745 970.241,474.017 970.096,473.316C969.632,471.967 967.806,471.871 966.524,471.246C963.613,469.825 963.683,465.716 964.192,462.517C963.853,464.647 956.266,461.024 955.472,459.817C953.893,457.421 954.752,452.797 954.44,450.149C951.032,451.791 949.718,456.659 951.468,460.009Z" style="fill:rgb(63,61,86);fill-rule:nonzero;"/>
                    </g>
                    <g transform="matrix(1,0,0,1,-11.6969,-13.0107)">
                        <path d="M875.031,502.171C873.631,500.603 871.522,498.963 869.644,499.909C868.212,500.63 867.818,502.612 868.379,504.114C869.063,505.573 870.116,506.829 871.434,507.756C875.347,510.983 879.56,513.895 882.973,517.646C889.082,524.359 892.317,533.417 898.96,539.601C900.296,541.034 902.064,541.991 903.994,542.325C905.93,542.505 908.103,541.266 908.326,539.335C908.509,537.745 907.4,536.321 906.316,535.142C903.736,532.335 900.911,529.752 898.474,526.819C897.35,525.692 896.642,524.215 896.47,522.632C896.458,521.053 897.898,519.4 899.428,519.791C897.567,519.316 896.187,516.216 893.456,515.633C891.173,515.146 890.621,516.559 887.905,515.394C882.724,513.172 878.66,506.233 875.031,502.171Z" style="fill:rgb(63,61,86);fill-rule:nonzero;"/>
                    </g>
                    <g transform="matrix(1,0,0,1,-11.6969,-13.0107)">
                        <path d="M996.764,349.525C995.277,349.083 993.816,348.561 992.387,347.961C988.54,346.806 983.451,349.634 983.963,353.617C984.304,356.264 986.767,358.048 988.127,360.344C990.145,363.748 989.607,368.066 988.547,371.879C988.287,373.059 987.792,374.175 987.091,375.16C986.112,376.201 984.942,377.043 983.645,377.64C978.45,380.553 973.869,384.445 970.155,389.1C969.751,389.53 969.469,390.061 969.34,390.636C969.156,391.981 970.508,392.961 971.273,394.082C972.97,396.574 971.743,399.927 971.911,402.937C971.859,403.802 972.259,404.634 972.966,405.134C973.989,405.654 975.202,404.771 975.757,403.766C977.597,400.431 976.211,395.079 979.664,393.471C980.317,393.167 981.109,393.038 981.544,392.465C982.236,391.554 981.569,390.207 981.919,389.119C982.445,387.485 984.679,387.412 986.394,387.484C989.347,387.608 992.3,387.215 995.118,386.323C996.223,386.06 997.228,385.478 998.006,384.651C999.038,383.362 998.947,381.531 998.74,379.893C997.707,371.728 995.121,363.836 991.121,356.643C994.154,357.031 997.454,357.366 1000.07,355.786C1001.54,354.9 1003.29,352.253 1002.57,350.452C1001.42,347.603 999.341,350.001 996.764,349.525Z" style="fill:rgb(63,61,86);fill-rule:nonzero;"/>
                    </g>
                    <g transform="matrix(1,0,0,1,-11.6969,-13.0107)">
                        <path d="M607.915,394.431C608.278,396.378 608.634,398.428 607.996,400.303C607.358,402.177 605.351,403.744 603.456,403.169C601.985,402.724 601.136,401.245 600.091,400.117C594.283,393.847 581.179,397.477 577.591,389.72C576.127,386.554 577.122,382.761 576.123,379.419C574.831,375.458 570.995,372.853 566.838,373.111C564.988,373.378 563.188,373.915 561.495,374.706C550.15,379.249 538.241,382.228 526.093,383.56C523.785,383.701 521.501,384.116 519.291,384.798C514.303,386.606 510.895,391.23 508.47,395.949C506.045,400.667 504.254,405.776 501.002,409.968C497.585,414.374 492.796,417.459 488.329,420.796C486.609,421.905 485.176,423.407 484.149,425.178C483.18,427.166 483.235,429.479 483.31,431.689L484.223,458.533C484.341,461.985 484.488,465.562 486.033,468.651C487.963,472.51 491.775,475.037 494.42,478.445C497.118,481.948 498.524,486.277 498.399,490.696C498.343,492.473 498.167,494.575 499.551,495.691C500.392,496.237 501.378,496.52 502.381,496.505L538.693,499.477C545.08,500 552.159,500.859 556.329,505.726C558.297,508.022 559.878,511.325 562.893,511.572C564.186,511.677 565.444,511.147 566.738,511.044C570.001,510.786 572.867,513.262 574.676,515.99C577.414,520.147 578.657,525.114 578.201,530.071C577.904,533.183 576.939,536.208 576.731,539.327C575.94,551.195 586.001,561.505 586.196,573.398C586.31,580.393 582.989,586.929 579.752,593.131C584.977,601.047 580.698,611.588 582.779,620.842C584.752,629.622 592.073,636.495 593.897,645.307C594.732,649.341 594.78,654.305 598.337,656.383C599.898,657.144 601.629,657.49 603.362,657.389C613.818,657.513 624.156,655.159 633.527,650.522C637.926,648.339 642.485,645.08 643.253,640.231C643.872,636.319 641.889,631.944 643.907,628.538C646.286,624.522 652.381,624.841 655.881,621.753C661.56,616.745 657.132,607.194 659.432,599.98C661.501,593.496 668.62,590.051 672.149,584.232C673.537,581.729 674.534,579.028 675.104,576.223C676.72,569.519 677.727,562.682 678.11,555.797C678.204,551.613 678.513,547.437 679.034,543.285C682.839,519.647 706.208,503.819 713.795,481.111C714.519,478.943 714.86,476.054 712.93,474.827C711.786,474.281 710.488,474.145 709.256,474.442L692.517,476.553C690.438,476.815 688.234,477.06 686.325,476.196C684.416,475.333 683.047,472.917 684.06,471.083C686.903,465.933 681.055,459.425 678.457,454.148C671.46,439.937 663.127,426.424 653.572,413.791C652.961,413.141 652.577,412.31 652.481,411.422L657.232,411.581C655.628,405.826 652.982,399.529 647.391,397.424C644.241,396.238 640.752,396.648 637.391,396.832C627.764,397.358 617.443,395.904 607.915,394.431Z" style="fill:rgb(63,61,86);fill-rule:nonzero;"/>
                    </g>
                    <g transform="matrix(1,0,0,1,-11.6969,-13.0107)">
                        <path d="M637.399,264.755C639.918,267.431 642.741,270.267 646.386,270.733C652.824,271.557 657.453,264.899 660.4,259.117C660.626,262.163 663.272,264.509 666.323,264.368C667.912,264.101 669.429,263.508 670.778,262.626C683.533,255.656 697.822,251.962 712.357,251.878C712.069,249.609 713.559,247.464 715.786,246.941C718.742,246.355 721.404,248.911 722.83,251.565C724.255,254.219 725.144,257.296 727.409,259.282C729.674,261.269 734.06,261.183 734.954,258.306C735.813,255.544 732.936,253.188 730.545,251.56C728.155,249.931 725.635,246.917 727.245,244.514C739.458,241.811 751.747,239.097 764.244,238.559C766.372,238.634 768.492,238.268 770.473,237.487C772.379,236.551 773.893,234.428 773.381,232.368C767.814,233.677 761.979,231.476 758.663,226.816C776.004,225.385 794.448,224.166 809.816,232.325C811.66,236.284 802.261,239.578 804.776,243.149C805.578,244.288 807.185,244.421 808.577,244.447C819.257,244.646 829.998,244.84 840.557,243.228C844.416,242.639 848.313,241.807 852.187,242.285C858.64,243.08 864.159,247.386 870.507,248.79C873.091,249.361 875.988,249.38 878.166,247.877C880.344,246.375 881.281,242.953 879.496,240.999C885.473,235.141 895.393,236.593 903.278,239.397C911.164,242.202 918.634,246.725 926.98,247.35C932.964,247.798 939.032,246.188 944.946,247.212C948.662,247.855 952.121,249.508 955.753,250.523C962.622,252.444 969.888,252.039 977.021,252.131C995.218,252.377 1013.22,255.953 1030.13,262.684C1032.33,263.4 1034.34,264.591 1036.03,266.172C1037.6,267.857 1038.41,270.475 1037.35,272.523L1019.88,269.97C1021.52,273.211 1025.78,273.763 1029.24,274.881C1032.7,275.999 1036.29,279.819 1034.21,282.801C1030.46,281.608 1027.06,285.355 1025.17,288.802C1023.28,292.249 1020.97,296.378 1017.04,296.588C1013.53,296.776 1009.27,293.782 1006.98,296.455C1010.15,300.45 1012.86,304.786 1015.07,309.382C1017.33,314.1 1018.94,320.045 1015.88,324.29C1015.4,325.048 1014.67,325.614 1013.82,325.892C1011.32,326.525 1009.69,323.467 1007.9,321.613C1005.64,319.277 1002.22,318.616 999.164,317.52C996.105,316.425 992.882,314.27 992.643,311.029C992.494,309.013 993.559,307.138 994.343,305.275C995.661,302.134 996.237,298.731 996.027,295.331C995.855,292.596 995.089,289.751 993.124,287.839C991.16,285.928 987.768,285.322 985.659,287.072C984.675,287.889 983.887,289.196 982.609,289.244C980.351,289.331 978.618,285.394 976.801,286.738C977.014,288.17 976.717,289.631 975.962,290.866C970.542,295.58 962.214,293.586 955.226,295.251C951.903,296.202 948.722,297.592 945.766,299.383C944.66,299.856 943.719,300.646 943.061,301.653C942.189,303.348 943.151,305.519 944.688,306.646C946.319,307.646 948.151,308.272 950.053,308.477C958.572,310.091 967.216,312.588 973.942,318.061C980.668,323.533 985.079,332.579 982.951,340.984L966.15,324.931C966.788,331.671 967.15,338.43 967.236,345.208C967.345,346.531 967.163,347.862 966.704,349.108C965.506,351.754 962.26,352.644 959.415,353.228C956.732,353.738 954.772,356.105 954.772,358.837C954.772,359.415 954.86,359.991 955.033,360.543C956.043,363.837 958.563,366.405 960.871,368.965C963.178,371.524 965.449,374.432 965.751,377.865C966.053,381.298 963.463,385.167 960.026,384.928C957.42,384.747 955.486,382.414 954.375,380.05C953.263,377.686 952.602,375.053 950.932,373.044C945.877,366.965 934.523,369.57 929.994,363.088C927.65,365.748 926.847,369.442 927.877,372.834C929.983,371.516 932.867,372.741 934.45,374.657C936.033,376.573 936.78,379.03 938.023,381.183C939.7,384.087 942.37,386.662 942.604,390.007C942.542,391.272 942.563,392.54 942.667,393.803C943.083,395.83 944.797,397.285 945.985,398.98C948.749,402.923 948.613,408.339 946.831,412.812C945.049,417.286 941.848,421.024 938.678,424.648C933.14,430.978 927.489,437.271 920.924,442.528C919.051,444.028 917.051,445.503 915.885,447.6C914.718,449.697 914.658,452.64 916.451,454.236C915.168,454.3 912.867,454.931 911.584,454.995C911.133,449.849 911.035,444.678 911.291,439.518C906.228,437.087 900.777,443.597 901.431,449.175C902.084,454.753 906.118,459.229 908.991,464.055C911.091,467.584 912.652,471.699 911.951,475.745C911.25,479.792 907.638,483.525 903.546,483.168C897.039,482.6 894.317,473.258 887.872,472.188C887.304,472.055 886.707,472.114 886.176,472.357C885.22,472.882 885.054,474.162 885,475.252C884.736,480.601 884.508,486.163 886.596,491.094C889.651,498.309 897.542,504.369 895.887,512.027C886.969,507.882 882.333,497.881 880.227,488.275C878.122,478.668 877.771,468.584 873.998,459.502C871.132,463.175 865.109,460.139 862.491,456.286C860.009,452.633 858.481,448.408 856.072,444.705C853.664,441.003 849.975,437.688 845.563,437.485C840.938,437.271 836.926,440.446 833.399,443.445C830.498,445.911 827.519,448.474 825.824,451.883C823.356,456.844 824.002,462.693 823.883,468.232C823.754,474.221 822.485,480.539 818.403,484.923C814.322,489.307 806.788,490.834 802.286,486.883C799.936,484.82 798.798,481.738 797.784,478.78C792.898,464.52 788.829,449.992 785.596,435.269C784.839,438.629 781.889,442.961 779.07,440.981C778.437,440.449 777.925,439.789 777.566,439.044C772.308,430.132 762.57,424.786 752.731,421.581C742.892,418.376 732.54,416.881 722.811,413.358C717.358,411.383 712.15,408.789 707.29,405.627C704.769,409.331 704.482,414.136 706.544,418.114C708.702,421.935 713.586,424.146 717.767,422.81C719.927,422.12 721.752,420.62 723.895,419.88C726.039,419.139 728.916,419.503 729.854,421.568C730.751,423.545 729.395,425.936 730.067,428C731.092,431.144 735.833,431.386 737.491,434.247C738.725,436.375 737.71,439.202 735.949,440.919C734.187,442.637 731.837,443.579 729.687,444.774C722.711,448.654 717.75,455.276 711.653,460.428C705.556,465.58 696.955,469.342 689.689,466.037C691.421,457.267 680.974,450.828 679.052,442.098C678.419,439.224 678.747,436.172 677.844,433.371C676.536,429.317 672.939,426.529 669.988,423.457C662.76,415.849 658.909,405.632 659.316,395.146C659.475,391.538 660.138,387.871 659.316,384.354C658.494,380.837 655.582,377.433 651.974,377.593C643.733,377.957 633.351,378.57 629.027,371.545C627.484,369.037 626.812,365.365 629.044,363.444C630.617,362.089 632.941,362.217 635.008,362.42L653.576,364.247C657.919,364.674 662.613,365.026 666.34,362.756C670.067,360.486 671.682,354.459 668.231,351.788C665.709,349.836 661.192,349.942 660.459,346.839C659.849,344.255 662.709,341.322 661.164,339.162C660.057,337.614 657.566,338.043 656.057,339.204C654.548,340.365 653.453,342.063 651.764,342.942C648.801,344.484 645.26,343.016 642.073,342.019C638.885,341.022 634.611,340.937 633.065,343.898C631.336,347.209 634.599,351.548 632.883,354.866C630.614,359.252 622.93,356.755 619.744,360.528C616.087,364.858 622.232,371.315 620.999,376.846C617.8,378.43 613.993,378.216 610.991,376.284C608.036,374.273 606.418,370.789 606.791,367.233C607.096,364.745 608.393,362.205 607.524,359.854C606.821,357.952 604.912,356.821 603.138,355.84L585.094,345.869C583.419,348.977 585.537,352.83 588.186,355.164C590.834,357.498 594.152,359.256 595.892,362.328C598.164,366.721 596.602,372.194 592.354,374.726C591.832,375.086 591.178,375.2 590.565,375.038C589.984,374.696 589.565,374.133 589.405,373.478C586.221,365.331 581.441,357.298 573.799,353.041C566.157,348.785 555.176,349.66 550.165,356.83C548.974,358.533 548.175,360.474 547.139,362.274C541.63,371.84 529.819,376.369 518.785,376.073C517.706,376.133 516.632,375.881 515.692,375.347C513.908,374.115 513.989,371.501 514.262,369.351L515.42,360.227C515.653,358.395 515.99,356.37 517.44,355.226C519.484,353.614 522.433,354.631 525.036,354.594C529.067,354.405 532.57,351.701 533.774,347.85C534.844,343.977 533.679,339.815 530.754,337.061C529.56,335.94 527.959,334.532 528.589,333.022C529.098,332.176 529.956,331.598 530.931,331.445C535.607,330.087 540.548,329.731 545.146,328.129C549.744,326.527 554.203,323.248 555.292,318.502C555.626,317.048 555.778,315.286 557.084,314.565C557.74,314.288 558.444,314.145 559.155,314.142C564.295,313.411 568.072,308.821 567.799,303.636C570.003,302.096 573.09,303.229 575.222,304.867C577.354,306.505 579.236,308.668 581.83,309.374C586.664,310.69 591.336,306.41 596.346,306.39C598.453,306.382 600.634,307.127 602.616,306.412C604.625,305.688 605.825,303.688 607.367,302.21C608.909,300.733 611.615,299.831 613.039,301.423L611.827,292.441C616.765,293.689 622.009,292.741 626.197,289.843L610.525,284.548C609.98,284.412 609.476,284.142 609.06,283.764C607.92,282.537 609.052,280.625 609.979,279.231C612.195,275.894 612.567,270.398 608.922,268.737C606.434,267.604 603.579,268.965 601.191,270.296L589.752,276.674C589.389,278.848 592.047,280.081 593.695,281.545C595.106,282.799 595.914,284.599 595.914,286.486C595.914,290.082 592.98,293.053 589.384,293.097C590.909,295.079 591.451,297.652 590.855,300.081L583.159,300.634C582.295,300.808 581.397,300.633 580.663,300.147C579.84,299.416 579.951,298.135 579.76,297.051C579.3,294.434 576.738,292.6 574.122,292.129C571.507,291.659 568.832,292.262 566.242,292.857C565.143,293.253 563.935,293.225 562.855,292.779C562.236,292.377 561.765,291.782 561.515,291.088C560.38,288.335 561.441,285.099 563.264,282.745C565.088,280.391 567.584,278.67 569.825,276.71C575.186,272.007 579.125,265.897 581.197,259.073C585.434,257.298 589.82,254.886 594.057,253.111C600.588,249.804 607.914,248.384 615.208,249.012L629.556,249.287C633.804,249.368 638.167,249.472 642.095,251.091C646.023,252.711 649.474,256.213 649.746,260.453C649.912,261.428 649.564,262.423 648.826,263.081C648.271,263.384 647.643,263.525 647.012,263.49C643.05,263.629 641.361,264.616 637.399,264.755Z" style="fill:rgb(63,61,86);fill-rule:nonzero;"/>
                    </g>
                    <g transform="matrix(1,0,0,1,-11.6969,-13.0107)">
                        <path d="M523.036,309.723C524.177,308.643 524.62,307.009 524.18,305.5C521.402,304.428 518.244,305.025 516.048,307.036C515.198,307.895 514.466,308.864 513.87,309.916C511.985,312.992 510.317,316.666 511.41,320.104C511.589,320.862 512.067,321.515 512.734,321.916C513.224,322.113 513.752,322.195 514.278,322.158C516.355,322.155 518.43,322.028 520.492,321.776C521.758,321.621 523.228,321.263 523.718,320.085C524.361,318.537 522.804,316.785 523.258,315.17C523.557,314.449 524.009,313.801 524.584,313.272C525.162,312.732 525.452,311.95 525.366,311.164C525.183,310.407 524.023,309.977 523.605,310.635" style="fill:rgb(63,61,86);fill-rule:nonzero;"/>
                    </g>
                    <g transform="matrix(1,0,0,1,-11.6969,-13.0107)">
                        <path d="M533.806,295.759C531.961,295.336 530.059,295.216 528.175,295.406C527.758,295.393 527.346,295.487 526.975,295.678C526.617,295.943 526.356,296.32 526.236,296.749C525.415,299.383 526.773,302.24 529.333,303.268C530.009,303.423 530.657,303.684 531.253,304.04C532.846,305.275 531.831,307.801 532.132,309.794C532.471,312.032 534.637,313.91 534.24,316.138C533.927,317.894 532.052,319.284 532.354,321.041C532.67,322.882 535.005,323.435 536.867,323.582C537.946,323.771 539.057,323.644 540.065,323.216C541.076,322.525 541.795,321.484 542.083,320.294C542.845,318.025 543.165,315.631 543.026,313.242C543.018,312.155 542.745,311.087 542.231,310.13C541.67,309.371 541.049,308.659 540.373,308.002C536.806,303.852 540.562,297.663 533.806,295.759Z" style="fill:rgb(63,61,86);fill-rule:nonzero;"/>
                    </g>
                    <g transform="matrix(1,0,0,1,-11.6969,-13.0107)">
                        <path d="M1002.87,620.795C1002.87,620.795 729.666,463.972 612.049,493.686C612.049,493.686 362.784,520.511 333.895,579.526C333.895,579.526 254.659,331.911 225.77,323.657" style="fill:none;fill-rule:nonzero;stroke:rgb(136,115,254);stroke-opacity:0.8;stroke-width:2px;"/>
                    </g>
                    <g transform="matrix(1,0,0,1,-11.6969,-13.0107)">
                        <path d="M333.895,579.526C379.704,457.369 792.395,322.007 792.395,322.007C733.793,336.864 612.049,493.686 612.049,493.686C612.049,493.686 354.53,306.324 225.77,323.657C225.77,323.657 792.808,342.229 1002.87,620.795" style="fill:none;fill-rule:nonzero;stroke:rgb(136,115,254);stroke-opacity:0.8;stroke-width:2px;"/>
                    </g>
                    <circle cx="214.074" cy="310.647" r="11.968" style="fill:rgb(136,115,254);"/>
                    <circle cx="322.199" cy="566.515" r="11.968" style="fill:rgb(136,115,254);"/>
                    <circle cx="780.698" cy="308.996" r="11.968" style="fill:rgb(136,115,254);"/>
                    <circle cx="991.171" cy="607.784" r="11.968" style="fill:rgb(136,115,254);"/>
                    <circle cx="600.352" cy="480.675" r="11.968" style="fill:rgb(136,115,254);"/>
                </g>
            </g>
        </g>
    </g>
</svg>
