<?xml version="1.0" encoding="UTF-8" standalone="no"?>
<!DOCTYPE svg PUBLIC "-//W3C//DTD SVG 1.1//EN" "http://www.w3.org/Graphics/SVG/1.1/DTD/svg11.dtd">
<svg width="100%" height="100%" viewBox="0 0 340 383" version="1.1" xmlns="http://www.w3.org/2000/svg" xmlns:xlink="http://www.w3.org/1999/xlink" xml:space="preserve" xmlns:serif="http://www.serif.com/" style="fill-rule:evenodd;clip-rule:evenodd;stroke-miterlimit:10;">
    <g transform="matrix(1,0,0,1,-468.902,-2203.16)">
        <g transform="matrix(1.5,0,0,2.74808,0,160.87)">
            <g transform="matrix(0.666667,0,0,0.363891,313.586,743.791)">
                <g transform="matrix(1,0,0,1,168.272,349.478)">
                    <path d="M0,-320L-138.564,-240L-138.564,-80L0,0L138.564,-80L138.564,-240L0,-320Z" style="fill:none;fill-rule:nonzero;stroke:white;stroke-width:6.21px;"/>
                </g>
                <g transform="matrix(1,0,0,1,86.3847,140.009)">
                    <path d="M0,-16.212C-0.679,-12.134 -3.896,-8.916 -7.975,-8.238C-8.133,-8.212 -8.133,-8.001 -7.975,-7.974C-3.896,-7.296 -0.679,-4.078 0,0C0.026,0.159 0.237,0.159 0.264,0C0.941,-4.078 4.16,-7.296 8.237,-7.974C8.396,-8.001 8.396,-8.212 8.237,-8.238C4.16,-8.916 0.941,-12.134 0.264,-16.212C0.237,-16.371 0.026,-16.371 0,-16.212" style="fill:white;fill-rule:nonzero;"/>
                </g>
                <g transform="matrix(1,0,0,1,151.259,81.3151)">
                    <path d="M0,-11.146C-0.466,-8.343 -2.679,-6.13 -5.481,-5.664C-5.591,-5.646 -5.591,-5.501 -5.481,-5.482C-2.679,-5.017 -0.466,-2.804 0,0C0.019,0.109 0.163,0.109 0.182,0C0.647,-2.804 2.86,-5.017 5.663,-5.482C5.772,-5.501 5.772,-5.646 5.663,-5.664C2.86,-6.13 0.647,-8.343 0.182,-11.146C0.163,-11.255 0.019,-11.255 0,-11.146" style="fill:white;fill-rule:nonzero;"/>
                </g>
                <g transform="matrix(1,0,0,1,277.341,171.444)">
                    <path d="M0,-11.465C-0.479,-8.581 -2.756,-6.305 -5.639,-5.825C-5.751,-5.807 -5.751,-5.657 -5.639,-5.639C-2.756,-5.159 -0.479,-2.884 0,0C0.019,0.112 0.168,0.112 0.187,0C0.666,-2.884 2.942,-5.159 5.825,-5.639C5.938,-5.657 5.938,-5.807 5.825,-5.825C2.942,-6.305 0.666,-8.581 0.187,-11.465C0.168,-11.577 0.019,-11.577 0,-11.465" style="fill:white;fill-rule:nonzero;"/>
                </g>
                <g transform="matrix(1,0,0,1,167.066,135.227)">
                    <path d="M0,-11.465C-0.479,-8.581 -2.755,-6.305 -5.639,-5.826C-5.751,-5.807 -5.751,-5.658 -5.639,-5.639C-2.755,-5.16 -0.479,-2.884 0,-0.001C0.019,0.112 0.168,0.112 0.187,-0.001C0.666,-2.884 2.942,-5.16 5.826,-5.639C5.938,-5.658 5.938,-5.807 5.826,-5.826C2.942,-6.305 0.666,-8.581 0.187,-11.465C0.168,-11.577 0.019,-11.577 0,-11.465" style="fill:white;fill-rule:nonzero;"/>
                </g>
                <g transform="matrix(1,0,0,1,116.571,285.773)">
                    <path d="M0,-6.192C-0.26,-4.634 -1.488,-3.405 -3.046,-3.146C-3.106,-3.136 -3.106,-3.055 -3.046,-3.046C-1.488,-2.787 -0.26,-1.557 0,0C0.01,0.061 0.09,0.061 0.101,0C0.359,-1.557 1.589,-2.787 3.146,-3.046C3.207,-3.055 3.207,-3.136 3.146,-3.146C1.589,-3.405 0.359,-4.634 0.101,-6.192C0.09,-6.253 0.01,-6.253 0,-6.192" style="fill:white;fill-rule:nonzero;"/>
                </g>
                <g transform="matrix(1,0,0,1,151.029,172.2)">
                    <path d="M0,-1.011C0.24,-0.263 0.437,0.51 0.586,1.278C0.774,2.272 1.645,2.961 2.618,2.961C2.748,2.961 2.881,2.95 3.013,2.926C4.137,2.71 4.873,1.624 4.66,0.498C4.479,-0.439 4.241,-1.372 3.947,-2.282C3.597,-3.372 2.43,-3.972 1.337,-3.621C0.246,-3.268 -0.351,-2.101 0,-1.011" style="fill:white;fill-rule:nonzero;"/>
                </g>
                <g transform="matrix(1,0,0,1,129.901,163.642)">
                    <path d="M0,-8.451C-0.003,-7.306 0.927,-6.378 2.071,-6.375C8.056,-6.364 13.92,-3.5 17.756,1.292C18.166,1.802 18.769,2.07 19.376,2.07C19.829,2.07 20.289,1.921 20.672,1.616C21.565,0.899 21.708,-0.406 20.993,-1.3C16.382,-7.063 9.309,-10.511 2.079,-10.521L2.073,-10.521C0.932,-10.521 0.003,-9.596 0,-8.451" style="fill:white;fill-rule:nonzero;"/>
                </g>
                <g transform="matrix(1,0,0,1,138.889,229.276)">
                    <path d="M0,-4.146L-9.316,-4.146C-10.461,-4.146 -11.39,-3.218 -11.39,-2.073C-11.39,-0.928 -10.461,0 -9.316,0L0,0C1.145,0 2.073,-0.928 2.073,-2.073C2.073,-3.218 1.145,-4.146 0,-4.146" style="fill:white;fill-rule:nonzero;"/>
                </g>
                <g transform="matrix(1,0,0,1,248.386,149.718)">
                    <path d="M0,116.301L-2.338,113.962L21.705,89.919L24.043,92.257L0,116.301ZM-15.351,100.928L1.862,83.715L5.513,87.365C6.322,88.175 7.637,88.175 8.444,87.365C11.268,84.541 15.782,84.428 18.754,87.006L-5.27,111.03L-15.351,100.928ZM-25.447,96.651L-1.467,120.7C-1.062,121.103 -0.529,121.309 0,121.309C0.531,121.309 1.061,121.103 1.466,120.7L28.441,93.723C29.251,92.916 29.251,91.601 28.441,90.793L22.083,84.433C18.015,80.365 11.673,79.922 7.108,83.097L2.953,78.942C3.579,79.026 4.001,79.079 4.022,79.079C4.473,79.079 4.913,78.934 5.277,78.658C5.715,78.326 6.001,77.833 6.077,77.287L11.235,39.488C11.39,38.355 10.597,37.311 9.462,37.154L0.548,35.936C-5.153,35.158 -10.47,38.647 -12.184,43.936L-32.305,41.193C-33.73,40.998 -35.15,40.942 -36.557,41.009L-36.557,31.844C-36.557,27.478 -38.258,23.379 -41.341,20.302C-44.413,17.222 -48.511,15.524 -52.879,15.524C-57.236,15.524 -61.335,17.222 -64.417,20.305C-67.497,23.388 -69.196,27.487 -69.19,31.844L-69.19,42.912L-77.211,42.912L-85.435,34.689C-84.835,32.238 -84.509,29.681 -84.509,27.049C-84.509,9.374 -98.89,-5.008 -116.564,-5.008C-132.674,-5.008 -146.037,6.934 -148.286,22.429L-163.053,37.197C-165.805,39.947 -167.321,43.609 -167.321,47.502C-167.321,51.395 -165.805,55.056 -163.053,57.806L-129.566,91.293L-129.566,94.763C-129.566,107.334 -119.337,117.564 -106.765,117.564L-85.858,117.564C-76.86,117.564 -69.539,110.245 -69.539,101.246C-69.539,92.246 -76.86,84.927 -85.858,84.927L-96.93,84.927L-96.93,61.935C-96.93,60.786 -97.858,59.861 -99.003,59.861C-100.148,59.861 -101.076,60.786 -101.076,61.935L-101.076,86.142L-111.26,96.325C-115.239,92.991 -120.599,92.032 -125.42,93.655L-125.42,57.852C-122.606,58.662 -119.637,59.108 -116.564,59.108C-107.982,59.108 -100.181,55.709 -94.422,50.196L-57.689,86.928L-62.714,91.951C-63.523,92.762 -63.523,94.074 -62.714,94.883C-61.904,95.694 -60.589,95.694 -59.782,94.883L-36.757,71.858C-36.104,72.948 -35.32,73.964 -34.399,74.882C-31.889,77.396 -28.725,78.862 -25.447,79.293L-25.447,96.651ZM-73.686,101.246C-73.686,106.317 -76.804,110.674 -81.226,112.499L-81.226,89.989C-76.806,91.817 -73.686,96.174 -73.686,101.246M-107.102,113.409C-105.153,108.82 -105.652,103.558 -108.476,99.405L-98.145,89.073L-85.858,89.073C-85.696,89.073 -85.534,89.079 -85.372,89.085L-85.372,113.406C-85.534,113.411 -106.991,113.411 -107.102,113.409M-125.134,97.993C-121.135,96.166 -116.395,96.971 -113.212,100.152C-109.854,103.509 -109.187,108.752 -111.43,112.828C-118.443,111.014 -123.867,105.21 -125.134,97.993M-145.419,69.576L-138.119,62.278L-129.566,70.827L-129.566,85.43L-145.419,69.576ZM-163.175,47.502C-163.175,44.75 -162.113,42.167 -160.189,40.204L-147.252,53.144L-154.552,60.444L-160.121,54.874C-162.09,52.906 -163.175,50.287 -163.175,47.502M-151.62,63.376L-144.32,56.075L-141.048,59.346L-148.351,66.645L-151.62,63.376ZM-129.566,64.966L-157.262,37.27L-148.583,28.591C-147.994,40.979 -140.338,51.54 -129.566,56.34L-129.566,64.966ZM-123.732,0.076C-130.564,8.734 -132.484,19.792 -128.598,28.688C-129.394,29.149 -130.142,29.708 -130.811,30.377C-132.816,32.383 -133.921,35.05 -133.921,37.888C-133.921,40.725 -132.816,43.395 -130.811,45.402C-128.803,47.407 -126.135,48.511 -123.298,48.511C-120.46,48.511 -117.793,47.407 -115.784,45.402C-114.635,44.251 -113.792,42.879 -113.273,41.387C-111.37,41.837 -109.413,42.065 -107.435,42.065C-101.576,42.065 -95.556,40.117 -90.303,36.489C-94.179,47.248 -104.486,54.961 -116.564,54.961C-131.952,54.961 -144.474,42.44 -144.474,27.049C-144.477,14.136 -135.66,3.248 -123.732,0.076M-123.298,31.411C-121.567,31.411 -119.938,32.083 -118.716,33.307C-117.493,34.53 -116.821,36.157 -116.821,37.888C-116.821,39.618 -117.493,41.243 -118.716,42.47C-119.938,43.693 -121.567,44.364 -123.298,44.364C-125.028,44.364 -126.653,43.693 -127.879,42.467C-129.102,41.243 -129.774,39.618 -129.774,37.888C-129.774,36.157 -129.102,34.53 -127.879,33.307C-126.653,32.083 -125.028,31.411 -123.298,31.411M-88.655,27.049C-88.655,28.015 -88.704,28.968 -88.799,29.907C-95.602,36.517 -104.786,39.311 -112.704,37.256C-112.854,34.656 -113.927,32.232 -115.784,30.375C-117.793,28.368 -120.46,27.265 -123.298,27.265C-123.751,27.265 -124.202,27.302 -124.645,27.359C-128.548,18.89 -125.984,7.852 -118.111,-0.021C-117.82,-0.312 -117.534,-0.582 -117.253,-0.845C-117.023,-0.849 -116.794,-0.861 -116.564,-0.861C-101.174,-0.861 -88.655,11.66 -88.655,27.049M-48.373,77.613L-54.758,83.995L-91.611,47.143C-89.665,44.729 -88.061,42.03 -86.871,39.113L-48.373,77.613ZM-67.419,47.059C-67.419,47.059 -57.32,57.137 -57.22,57.207C-57.558,58.343 -57.814,59.51 -57.979,60.702L-58.151,61.972L-73.064,47.059L-67.419,47.059ZM-52.876,19.67C-49.62,19.67 -46.564,20.934 -44.272,23.237C-43.111,24.392 -42.218,25.741 -41.613,27.21L-64.137,27.21C-63.534,25.741 -62.639,24.392 -61.482,23.237C-59.186,20.937 -56.129,19.67 -52.876,19.67M-49.183,45.631C-51.856,47.663 -54.002,50.204 -55.53,53.084L-65.044,43.571C-65.044,43.571 -65.038,31.52 -65.033,31.358L-40.717,31.358C-40.709,31.52 -40.703,41.606 -40.703,41.606C-43.741,42.331 -46.621,43.684 -49.183,45.631M-10.869,48.301C-9.73,48.449 -8.69,47.66 -8.537,46.528C-7.997,42.57 -4.471,39.745 -0.54,39.999L-4.801,71.189L-7.252,68.738C-10.272,65.716 -13.99,63.654 -18.042,62.685L-15.987,47.601L-10.869,48.301ZM2.248,74.671L-1.032,74.223L3.571,40.533L6.847,40.982L2.248,74.671ZM-23.374,66.204C-19.746,66.204 -16.273,67.238 -13.297,69.161C-13.831,70.187 -14.514,71.121 -15.343,71.95C-19.789,76.396 -27.021,76.396 -31.468,71.95C-32.291,71.126 -32.972,70.2 -33.501,69.191C-30.51,67.25 -27.024,66.204 -23.374,66.204M-23.374,62.058C-26.61,62.058 -29.74,62.734 -32.612,64.008L-36.584,58.78C-34.103,56.546 -32.413,53.581 -31.757,50.247C-31.446,48.66 -31.385,47.062 -31.564,45.477L-20.097,47.043L-22.148,62.093C-22.556,62.072 -22.964,62.058 -23.374,62.058M-35.807,45.131C-35.539,46.562 -35.544,48.009 -35.825,49.446C-36.414,52.434 -38.128,55.015 -40.658,56.713C-43.185,58.411 -46.222,59.024 -49.213,58.435C-50.492,58.182 -51.693,57.726 -52.795,57.077C-51.567,53.873 -49.472,51.06 -46.673,48.932C-43.498,46.516 -39.718,45.212 -35.807,45.131M-45.441,74.682L-54.469,65.654L-53.87,61.265C-53.867,61.246 -53.864,61.227 -53.861,61.208C-52.649,61.802 -51.364,62.237 -50.012,62.504C-49.002,62.7 -47.987,62.801 -46.98,62.801C-44.559,62.801 -42.186,62.223 -40.013,61.121L-36.265,66.051C-37.409,66.839 -38.495,67.733 -39.499,68.738L-45.441,74.682ZM-21.301,94.981L-21.301,79.285C-18.048,78.845 -14.908,77.379 -12.41,74.885C-11.485,73.955 -10.69,72.93 -10.032,71.821L-1.069,80.783L-18.285,97.999L-21.301,94.981Z" style="fill:white;fill-rule:nonzero;"/>
                </g>
                <g transform="matrix(-0.994409,0.105595,0.105595,0.994409,148.793,288.388)">
                    <path d="M-66.338,-22.471C-37.818,0.63 -17.502,-3.443 -0.823,-22.471" style="fill:none;fill-rule:nonzero;stroke:white;stroke-width:4.43px;stroke-linecap:round;stroke-linejoin:round;"/>
                </g>
                <g transform="matrix(-0.646358,0.763034,0.763034,0.646358,222,253.545)">
                    <path d="M-7.098,-3.29C-4.105,-3.219 -1.232,-3.22 1.525,-3.29" style="fill:none;fill-rule:nonzero;stroke:white;stroke-width:4.43px;stroke-linecap:round;stroke-linejoin:round;"/>
                </g>
                <g transform="matrix(-0.996337,-0.0855151,-0.0855151,0.996337,147.121,287.667)">
                    <path d="M-50.042,-7.043C-32.966,3.677 -15.831,3.193 0.487,-7.043" style="fill:none;fill-rule:nonzero;stroke:white;stroke-width:4.43px;stroke-linecap:round;stroke-linejoin:round;"/>
                </g>
                <g transform="matrix(-0.804698,0.593685,0.593685,0.804698,207.309,279.96)">
                    <path d="M-2.66,-0.875C-0.663,-0.842 -1.597,-0.777 0.288,-0.875" style="fill:none;fill-rule:nonzero;stroke:white;stroke-width:4.43px;stroke-linecap:round;stroke-linejoin:round;"/>
                </g>
                <g opacity="0.5">
                    <g transform="matrix(1,0,0,1,168.272,349.478)">
                        <path d="M0,-320L-138.564,-240L-138.564,-80L0,0L138.564,-80L138.564,-240L0,-320ZM0,-307.203L127.481,-233.602L127.481,-86.399L0,-12.797L-127.481,-86.399L-127.481,-233.602L0,-307.203Z" style="fill:white;fill-rule:nonzero;"/>
                    </g>
                </g>
                <g>
                    <clipPath id="_clip1">
                        <path d="M40.1,115.477L40.1,263.478L168.272,337.479L296.446,263.478L296.446,115.477L168.272,41.476L40.1,115.477Z" clip-rule="nonzero"/>
                    </clipPath>
                    <g clip-path="url(#_clip1)">
                        <g transform="matrix(-0.0758341,-0.99712,-0.99712,0.0758341,209.874,42.8571)">
                            <path d="M-12.528,-13.234C-24.091,-12.056 -32.505,-3.267 -31.086,3.823C-29.632,11.103 -21.296,12.633 -12.528,11.86C-3.647,11.338 5.098,7.514 6.023,-0.314C6.99,-7.834 -0.998,-14.493 -12.528,-13.234Z" style="fill:none;fill-rule:nonzero;stroke:white;stroke-width:4.43px;stroke-linecap:round;stroke-linejoin:round;"/>
                        </g>
                        <g transform="matrix(0.0899984,-0.995942,-0.995942,-0.0899984,229.884,100.791)">
                            <path d="M-9.329,-6.851C-12.466,-8.002 -14.187,-5.395 -14.475,-1.002C-14.774,3.429 -12.865,8.297 -9.329,9.761C-5.856,11.225 -2.644,8.812 -2.754,4.082C-2.824,-0.669 -6.197,-5.69 -9.329,-6.851Z" style="fill:none;fill-rule:nonzero;stroke:white;stroke-width:4.43px;stroke-linecap:round;stroke-linejoin:round;"/>
                        </g>
                        <g transform="matrix(-0.045625,-0.998959,-0.998959,0.045625,284.106,75.6918)">
                            <path d="M-9.856,-9.925C-15.22,-9.238 -19.343,-4.531 -19.427,0.763C-19.512,6.04 -15.441,10.127 -9.856,9.692C-4.277,9.255 0.432,4.18 0.289,-1.36C0.158,-6.903 -4.515,-10.607 -9.856,-9.925Z" style="fill:none;fill-rule:nonzero;stroke:white;stroke-width:4.43px;stroke-linecap:round;stroke-linejoin:round;"/>
                        </g>
                        <g transform="matrix(0.172097,-0.98508,-0.98508,-0.172097,306.519,12.7624)">
                            <path d="M-16.481,-17.534C-27.215,-19.446 -35.674,-18.483 -36.964,-8.288C-38.244,1.924 -27.535,16.392 -16.481,19.666C-5.507,22.841 -1.456,16.641 0.397,6.061C2.856,-5.351 -4.805,-16.044 -16.481,-17.534Z" style="fill:none;fill-rule:nonzero;stroke:white;stroke-width:4.43px;stroke-linecap:round;stroke-linejoin:round;"/>
                        </g>
                        <g transform="matrix(-0.0238028,-0.999717,-0.999717,0.0238028,272.676,107.779)">
                            <path d="M-6.074,-5.154C-7.798,-4.543 -8.628,-1.602 -8.574,1.364C-8.516,4.326 -7.708,6.56 -6.074,6.358C-4.454,6.15 -2.653,3.223 -2.632,-0.149C-2.59,-3.518 -4.371,-5.759 -6.074,-5.154Z" style="fill:none;fill-rule:nonzero;stroke:white;stroke-width:4.43px;stroke-linecap:round;stroke-linejoin:round;"/>
                        </g>
                        <g transform="matrix(1,0,0,1,269.105,5.0916)">
                            <path d="M0,122.58C-5.927,124.448 -12.228,125.455 -18.76,125.455C-53.661,125.455 -81.954,96.727 -81.954,61.29C-81.954,25.852 -53.661,-2.875 -18.76,-2.875C16.142,-2.875 44.435,25.852 44.435,61.29C44.435,85.632 31.084,106.808 11.413,117.682" style="fill:none;fill-rule:nonzero;stroke:white;stroke-width:4.43px;stroke-linecap:round;stroke-linejoin:round;"/>
                        </g>
                        <g transform="matrix(1,0,0,1,113.128,178.269)">
                            <path d="M0,55.99C0,55.99 -35.783,98.184 -100.505,98.184C-150.186,98.184 31.303,-42.194 -98.861,-34.827" style="fill:none;fill-rule:nonzero;stroke:white;stroke-width:7.54px;stroke-linejoin:round;"/>
                        </g>
                    </g>
                </g>
            </g>
        </g>
    </g>
</svg>
