<?xml version="1.0" encoding="UTF-8" standalone="no"?>
<!DOCTYPE svg PUBLIC "-//W3C//DTD SVG 1.1//EN" "http://www.w3.org/Graphics/SVG/1.1/DTD/svg11.dtd">
<svg width="100%" height="100%" viewBox="0 0 480 334" version="1.1" xmlns="http://www.w3.org/2000/svg" xmlns:xlink="http://www.w3.org/1999/xlink" xml:space="preserve" xmlns:serif="http://www.serif.com/" style="fill-rule:evenodd;clip-rule:evenodd;stroke-miterlimit:10;">
    <g transform="matrix(1,0,0,1,-2595.85,-350.925)">
        <g transform="matrix(1.5,0,0,5.44097,-81.7251,52.0508)">
            <g id="undraw_celebration_0jvk" transform="matrix(0.336489,0,0,0.0927652,1944.85,85.6133)">
                <g transform="matrix(1,0,0,1,-474.9,-330.76)">
                    <clipPath id="_clip1">
                        <rect x="0" y="0" width="949.8" height="661.52"/>
                    </clipPath>
                    <g clip-path="url(#_clip1)">
                        <g transform="matrix(1,0,0,1,-125.1,-119.24)">
                            <path d="M214.55,279.91C234.07,324 209.17,374.77 179.86,413C170.05,425.82 159.22,439.26 157.86,455.34C156.22,475.01 169.54,493.09 185.34,504.91C214.16,526.45 253.52,533.11 287.82,522.24C317.46,512.85 342.38,491.64 372.28,483.09C422.28,468.77 475.28,492.51 518.1,522.09C548.41,543 580.87,568.48 617.41,564C643.12,560.85 664.94,542.8 679.75,521.55C686.9,511.29 693.12,499.79 703.53,492.87C709.72,488.75 716.99,486.57 724.26,485.01C790.65,470.82 861.11,505.45 926.62,487.64C970.87,475.64 1006.15,440.64 1028.09,400.37C1050.03,360.1 1060.27,314.63 1068.8,269.58C1074.86,237.58 1079.89,203.01 1065.96,173.58C1051.22,142.42 1017.1,123.53 982.81,119.99C948.52,116.45 914.13,126.22 882.54,140C843.07,157.26 804.38,181.42 761.3,181.5C731.96,181.56 703.98,170.3 675.93,161.71C629.03,147.36 580.26,140.23 531.66,133.65C485.13,127.35 438.14,121.49 391.33,125.21C358.21,127.84 328.96,140.5 296.82,146.36C275.87,150.18 254.82,147.36 234.26,153.76C208.94,161.68 182.9,180.03 181.5,208.93C180.18,236.44 204.2,256.52 214.55,279.91Z" style="fill:white;fill-opacity:0.1;fill-rule:nonzero;"/>
                        </g>
                        <circle cx="95.13" cy="66.03" r="46.49" style="fill:rgb(136,115,254);"/>
                        <g transform="matrix(1,0,0,1,-125.1,-119.24)">
                            <path d="M727,319.17C722.73,308.04 711.72,281.88 704.47,287.07C695.31,293.63 713.63,322.61 713.63,322.61C714.15,327.93 703.85,339 698.33,344.52L698.33,343.83C698.277,344.04 698.197,344.242 698.09,344.43L697.63,344.18C697.507,344.621 697.285,345.028 696.98,345.37C696.98,344.62 696.93,344.18 696.93,344.18C695.87,348.67 677.37,354.36 677.37,354.36L676.01,354.36C670.87,354.36 657.49,353.2 651.29,343.28C648.083,337.906 643.981,333.12 639.16,329.13C637.509,327.837 635.503,327.076 633.41,326.95C616.28,325.85 602.41,317.18 599.64,315.33L599.13,314.98L599.02,315.3C598.37,314.37 597.74,313.38 597.15,312.36L596.85,311.81C605.292,307.572 610.659,298.916 610.7,289.47L610.7,288.95C612.207,286.345 613,283.389 613,280.38L613,277.38L616.91,273.9C618.7,272.31 620.55,270.63 621.46,268.44C621.825,267.554 621.989,266.597 621.94,265.64C622.118,263.974 621.421,262.33 620.1,261.3C617.1,259.23 612.1,261.3 609.93,258.42C608.93,257.12 609.11,255.35 608.62,253.82C607.62,250.71 604.02,249.03 600.69,248.98C597.36,248.93 594.17,250.14 590.97,251.05C584.247,252.959 577.23,253.616 570.27,252.99C568.387,252.655 566.455,252.723 564.6,253.19C562.304,254.139 560.594,256.128 560,258.54C559.753,259.434 559.605,260.353 559.56,261.28C556.771,264.426 555.227,268.486 555.22,272.69L555.22,280.38C555.226,284.484 556.698,288.454 559.37,291.57C560.008,298.889 563.841,305.568 569.84,309.81L569.84,310.42L569.97,310.5C569.808,312.884 569.44,315.25 568.87,317.57L568.87,317.06C568.87,317.06 554.87,324.51 539.87,324.69L538.22,324.69C535.262,324.59 532.383,325.67 530.22,327.69C525.78,331.87 518,338.48 513.22,338.48C512.22,338.48 486.98,343.41 482.8,344.23L474.99,336.58L474.75,337.03L474.29,336.58C473.436,336.646 472.587,336.77 471.75,336.95C467.75,332.21 459.75,321.19 457.9,306.4C457.9,306.4 475.17,286.73 468.82,268.4C463.4,252.78 448.47,286.26 444.23,296.35C443.488,298.11 443.396,300.078 443.97,301.9L458,347.12C456.664,350.624 456.281,354.42 456.89,358.12L456.73,358.12L466.95,371.23C466.95,371.23 474.64,374.51 486.67,374.45C495.487,374.464 504.225,372.787 512.41,369.51L514.78,369.51L514.33,369.68L526.5,369.68L534.24,393.09C533.98,395.22 530.24,424.95 527.24,431.6C526.35,433.822 525.947,436.209 526.06,438.6C526.218,443.194 526.967,447.748 528.29,452.15L535.07,451.9L534.81,452.43C529.07,464.2 519.48,485.17 513.81,504.77L503.94,524.77L511.34,614.47L511.64,614.47L512.21,614.56C513.01,614.68 514.21,614.86 515.79,615.06L515.21,616.06L498.9,643.06C498.9,643.06 487.27,666.87 513,662.38C513,662.38 522.51,659.62 526.39,643.38L543.31,627.51C543.31,627.51 544.1,616.97 539.31,612.76C539.01,607.89 538.25,593.67 539.42,590.25C540.83,586.11 533.42,538.5 533.42,538.5C533.42,538.5 560.2,482.95 576.42,481.57C577.609,481.486 578.803,481.643 579.93,482.03C593.26,486.37 609.41,518.6 614.16,528.63L614.38,529.09L614.38,529.18L614.56,529.57L614.56,529.68L614.72,530.02L614.72,530.11L614.86,530.42L614.86,530.49L614.98,530.74L614.98,530.84L615.07,531.03L615.07,531.11L615.13,531.25L615.13,531.42L615.18,531.54L617.29,593.99L617.5,594.1L617.6,594.1L617.42,595.39L616.5,601.84C616.5,601.84 628.13,626.34 627.42,629.44C626.71,632.54 635.17,644.97 647.15,641.52C659.13,638.07 652,618.62 652,618.62L640.46,594.84L639.95,593.78C641.1,593.075 642.184,592.268 643.19,591.37C644.196,590.472 639.67,565.84 643.19,560.32C646.71,554.8 647.77,529.61 647.77,529.61C647.77,529.61 645.3,512.36 641.07,504.77L623.35,441.52C628.66,446.46 632.79,448.39 636.24,448.26L636.81,448.26C638.326,448.289 639.824,447.916 641.15,447.18C641.862,446.778 642.532,446.306 643.15,445.77C643.268,445.668 643.378,445.558 643.48,445.44C648.41,441.3 637.84,425.08 631.85,415.44C626.08,406.14 634.03,380.87 634.63,378.99C635.164,378.598 635.737,378.263 636.34,377.99C637.58,377.459 638.911,377.17 640.26,377.14C646,377.34 653.06,380.64 661.8,382.3C667.874,383.333 674.029,383.812 680.19,383.73L680.55,383.73C683,383.73 685.22,383.68 687.02,383.61C688.662,383.545 690.269,383.111 691.72,382.34C692.964,381.615 694.09,380.704 695.06,379.64L710.4,362.31L710,362.5C710.743,360.535 710.743,358.365 710,356.4L726.21,328.4C727.867,325.607 728.158,322.204 727,319.17Z" style="fill:url(#_Linear2);fill-rule:nonzero;"/>
                        </g>
                        <g transform="matrix(1,0,0,1,-125.1,-119.24)">
                            <path d="M544.88,625.14L528.55,640.79C524.81,656.79 515.62,659.5 515.62,659.5C490.79,663.92 502.01,640.5 502.01,640.5L517.76,613.85L519.7,610.56C519.7,610.56 530.93,607.16 538.41,609.2C539.354,609.459 540.227,609.931 540.96,610.58C545.65,614.65 544.88,625.14 544.88,625.14Z" style="fill:rgb(68,65,118);fill-rule:nonzero;"/>
                        </g>
                        <g transform="matrix(1,0,0,1,-125.1,-119.24)">
                            <path d="M645.57,639.09C634,642.49 625.84,630.25 626.57,627.18C627.3,624.11 616,600 616,600L616.88,593.64L617.7,587.75L636.7,589.11L638.49,592.87L649.63,616.32C649.63,616.32 657.14,635.69 645.57,639.09Z" style="fill:rgb(68,65,118);fill-rule:nonzero;"/>
                        </g>
                        <g transform="matrix(1,0,0,1,-125.1,-119.24)">
                            <path d="M541.14,613.24C539.35,616.31 524.84,614.76 517.77,613.8L519.71,610.51C519.71,610.51 530.94,607.11 538.42,609.15C539.364,609.409 540.237,609.881 540.97,610.53C541.07,612.19 541.14,613.24 541.14,613.24Z" style="fill-opacity:0.1;fill-rule:nonzero;"/>
                        </g>
                        <g transform="matrix(1,0,0,1,-125.1,-119.24)">
                            <path d="M638.51,592.85C628.78,599.33 618.42,594.43 616.86,593.62L617.68,587.73L636.68,589.09L638.51,592.85Z" style="fill-opacity:0.1;fill-rule:nonzero;"/>
                        </g>
                        <g transform="matrix(1,0,0,1,-125.1,-119.24)">
                            <path d="M641.15,558.81C637.75,564.25 641.15,589.43 641.15,589.43C629.92,599.64 616.66,592.15 616.66,592.15L614.66,530.58C614.66,530.58 592.55,479.89 576.9,481.25C561.25,482.61 535.4,537.38 535.4,537.38C535.4,537.38 542.54,584.32 541.18,588.38C539.82,592.44 541.18,612.19 541.18,612.19C538.8,616.27 513.97,612.19 513.97,612.19L506.83,523.74L516.31,504C521.76,484.68 531.02,464 536.56,452.4C539.31,446.63 541.15,443.11 541.15,443.11L559.25,439.34L618,427.16L639.11,504C643.19,511.48 645.57,528.49 645.57,528.49C645.57,528.49 644.55,553.37 641.15,558.81Z" style="fill:rgb(86,83,135);fill-rule:nonzero;"/>
                        </g>
                        <g opacity="0.1">
                            <g transform="matrix(1,0,0,1,-125.1,-119.24)">
                                <path d="M622.1,592.15L620.1,530.58C620.1,530.58 597.99,479.89 582.34,481.25C581.64,481.318 580.952,481.473 580.29,481.71C595.55,486.78 614.66,530.58 614.66,530.58L616.66,592.15C620.832,594.275 625.536,595.134 630.19,594.62C627.369,594.281 624.63,593.444 622.1,592.15Z" style="fill-rule:nonzero;"/>
                            </g>
                            <g transform="matrix(1,0,0,1,-125.1,-119.24)">
                                <path d="M519.37,612.22L512.23,523.77L521.75,504C527.2,484.68 536.46,464 542,452.4C544.75,446.63 546.59,443.11 546.59,443.11L564.69,439.34L618.32,428.19L618.03,427.12L559.25,439.34L541.15,443.11C541.15,443.11 539.31,446.63 536.56,452.4C531,464 521.76,484.72 516.31,504L506.79,523.73L513.93,612.18C513.93,612.18 527.49,614.41 535.53,613.92C530.118,613.626 524.725,613.059 519.37,612.22Z" style="fill-rule:nonzero;"/>
                            </g>
                        </g>
                        <g transform="matrix(1,0,0,1,-125.1,-119.24)">
                            <path d="M478,338.21C478,338.21 458.61,339.21 461.33,359.64L466.77,360.32L474.93,351.48L479.01,344L479.01,342.3L478,338.21Z" style="fill:rgb(206,210,223);fill-rule:nonzero;"/>
                        </g>
                        <g transform="matrix(1,0,0,1,-125.1,-119.24)">
                            <path d="M478,338.21C478,338.21 458.61,339.21 461.33,359.64L466.77,360.32L474.93,351.48L479.01,344L479.01,342.3L478,338.21Z" style="fill-opacity:0.1;fill-rule:nonzero;"/>
                        </g>
                        <g transform="matrix(1,0,0,1,-125.1,-119.24)">
                            <path d="M693.71,345.69C693.71,345.69 709.71,354.19 705.62,364.06L700.52,366.06L693.72,362.32L692.72,353.48L693.4,347.36L693.71,345.69Z" style="fill:rgb(206,210,223);fill-rule:nonzero;"/>
                        </g>
                        <g transform="matrix(1,0,0,1,-125.1,-119.24)">
                            <path d="M693.71,345.69C693.71,345.69 709.71,354.19 705.62,364.06L700.52,366.06L693.72,362.32L692.72,353.48L693.4,347.36L693.71,345.69Z" style="fill-opacity:0.1;fill-rule:nonzero;"/>
                        </g>
                        <path d="M486.97,159.77C486.97,148.13 477.52,138.68 465.88,138.68L452.27,138.68C440.63,138.68 431.18,148.13 431.18,159.77C431.18,171.41 440.63,180.86 452.27,180.86L465.88,180.86C477.52,180.86 486.97,171.41 486.97,159.77Z" style="fill:rgb(136,69,94);"/>
                        <g transform="matrix(1,0,0,1,-125.1,-119.24)">
                            <path d="M477.87,341.1L465.96,360.1L464.96,356.72L448.78,304C448.227,302.203 448.315,300.269 449.03,298.53C453.12,288.59 467.54,255.53 472.77,270.98C478.89,288.98 462.22,308.4 462.22,308.4C464.12,324.16 472.97,335.58 476.45,339.54C477.33,340.57 477.87,341.1 477.87,341.1Z" style="fill:rgb(236,140,156);fill-rule:nonzero;"/>
                        </g>
                        <g transform="matrix(1,0,0,1,-125.1,-119.24)">
                            <path d="M691.16,349.26C691.16,349.26 709.87,331.57 709.16,324.43C709.16,324.43 691.47,295.86 700.32,289.43C707.32,284.31 717.95,310.11 722.07,321.08C723.172,324.036 722.912,327.333 721.36,330.08L699,369.67L691.16,349.26Z" style="fill:rgb(236,140,156);fill-rule:nonzero;"/>
                        </g>
                        <g transform="matrix(1,0,0,1,-125.1,-119.24)">
                            <path d="M570.05,299.94C570.05,299.94 573.45,321.71 563.59,329.88C553.73,338.05 591.83,338 591.83,338L605.44,325.41C605.44,325.41 589.79,310.78 594.55,299.9L570.05,299.94Z" style="fill:rgb(236,140,156);fill-rule:nonzero;"/>
                        </g>
                        <g transform="matrix(1,0,0,1,-125.1,-119.24)">
                            <path d="M569.37,324.77C569.37,324.77 584,335.66 598.62,323.41L622.43,372.74L621.07,432.95C621.07,432.95 571.74,458.46 551.33,442.82C530.92,427.18 547.93,419.01 547.93,419.01L543.17,372.75L548.27,342.81C548.27,342.81 557.45,328.52 558.14,328.52C558.83,328.52 569.37,324.77 569.37,324.77Z" style="fill-opacity:0.1;fill-rule:nonzero;"/>
                        </g>
                        <g transform="matrix(1,0,0,1,-125.1,-119.24)">
                            <path d="M569.37,324.09C569.37,324.09 584,335 598.63,322.73L622.44,372.06L621.08,432.27C621.08,432.27 571.75,457.78 551.34,442.14C530.93,426.5 547.94,418.33 547.94,418.33L543.18,372.07L548.28,342.13C548.28,342.13 557.46,327.84 558.15,327.84C558.84,327.84 569.37,324.09 569.37,324.09Z" style="fill:rgb(235,241,246);fill-rule:nonzero;"/>
                        </g>
                        <g transform="matrix(1,0,0,1,-125.1,-119.24)">
                            <path d="M569.37,319C569.37,319 555.5,326.9 540.44,326.51C537.588,326.421 534.815,327.481 532.75,329.45C528.46,333.57 520.95,340.09 516.3,340.09C515.3,340.09 486.36,345.87 486.36,345.87L478.71,338.22C478.71,338.22 467.31,360.5 461.87,359.48L471.74,372.41C471.74,372.41 490.45,380.57 514.94,370.71L529.23,370.71L536.71,393.84C536.71,393.84 532.97,425.14 529.91,431.94C526.85,438.74 530.91,452.01 530.91,452.01L557.78,451.01C557.78,451.01 559.14,437.74 561.18,436.01C563.22,434.28 554.04,375.8 554.04,375.8C554.04,375.8 547.92,342.8 570.37,330.9L569.37,319Z" style="fill-opacity:0.1;fill-rule:nonzero;"/>
                        </g>
                        <g transform="matrix(1,0,0,1,-125.1,-119.24)">
                            <path d="M559.24,439.38C558.25,443.416 557.545,447.516 557.13,451.65L536.56,452.43C539.31,446.66 541.15,443.14 541.15,443.14L559.24,439.38Z" style="fill-opacity:0.1;fill-rule:nonzero;"/>
                        </g>
                        <g transform="matrix(1,0,0,1,-125.1,-119.24)">
                            <path d="M477.87,341.1L465.96,360.1L464.96,356.72C469.33,352.38 474.45,343.31 476.49,339.53C477.33,340.57 477.87,341.1 477.87,341.1Z" style="fill-opacity:0.1;fill-rule:nonzero;"/>
                        </g>
                        <g transform="matrix(1,0,0,1,-125.1,-119.24)">
                            <path d="M569.37,319C569.37,319 554.81,326.9 539.76,326.51C536.908,326.421 534.135,327.481 532.07,329.45C527.78,333.57 520.27,340.09 515.62,340.09C514.62,340.09 485.68,345.87 485.68,345.87L478,338.21C478,338.21 466.6,360.49 461.16,359.47L471.03,372.4C471.03,372.4 489.74,380.56 514.23,370.7L528.52,370.7L536,393.82C536,393.82 532.26,425.12 529.2,431.92C526.14,438.72 530.2,451.99 530.2,451.99L557.07,450.99C557.07,450.99 558.43,437.72 560.47,435.99C562.51,434.26 553.33,375.78 553.33,375.78C553.33,375.78 547.21,342.78 569.66,330.88L569.37,319Z" style="fill:rgb(206,210,223);fill-rule:nonzero;"/>
                        </g>
                        <g transform="matrix(1,0,0,1,-125.1,-119.24)">
                            <path d="M598.63,316.94C598.63,316.94 612.51,327.52 631.04,328.74C633.067,328.867 635.006,329.618 636.59,330.89C641.263,334.855 645.224,339.59 648.3,344.89C655.78,357.14 674.15,355.78 674.15,355.78C674.15,355.78 692.01,350.17 693.03,345.78C693.03,345.78 693.54,369.78 704.77,363.98L690,381C688.119,383.172 685.421,384.472 682.55,384.59C677,384.81 667.36,384.88 659.22,383.3C646.97,380.92 638.13,375.14 631.67,380.24C631.67,380.24 623.17,406.77 628.95,416.3C634.73,425.83 644.95,441.81 640.18,445.9C635.41,449.99 629.63,449.64 620.11,439.78C610.59,429.92 609.56,413.25 609.56,413.25L611.94,370.39C611.94,370.39 602.76,338.07 593.94,331.61L598.63,316.94Z" style="fill-opacity:0.1;fill-rule:nonzero;"/>
                        </g>
                        <g transform="matrix(1,0,0,1,-125.1,-119.24)">
                            <path d="M706.12,363.55L691.31,380.64C690.326,381.774 689.108,382.681 687.74,383.3C686.524,383.849 685.213,384.158 683.88,384.21C678.33,384.44 668.69,384.51 660.55,382.92C649.09,380.69 640.61,375.49 634.27,379C633.821,379.248 633.392,379.532 632.99,379.85C632.588,380.168 624.49,406.38 630.27,415.91C636.05,425.44 646.27,441.42 641.5,445.51C640.702,446.212 639.806,446.795 638.84,447.24C634.56,449.17 629.25,447.5 621.43,439.39C611.91,429.52 610.88,412.86 610.88,412.86L613.26,370C613.26,370 604.08,337.68 595.26,331.22L599.15,317.27C601.83,319.09 615.21,327.64 631.75,328.73C633.777,328.857 635.716,329.608 637.3,330.88C641.973,334.845 645.933,339.58 649.01,344.88C656.49,357.13 674.86,355.77 674.86,355.77C679.264,354.365 683.564,352.654 687.73,350.65C690.34,349.37 692.64,347.97 693.73,346.65C694.036,346.305 694.258,345.895 694.38,345.45C694.502,345.005 694.9,369.33 706.12,363.55Z" style="fill-opacity:0.1;fill-rule:nonzero;"/>
                        </g>
                        <g transform="matrix(1,0,0,1,-125.1,-119.24)">
                            <path d="M705.44,363.89L690.64,381C689.826,381.939 688.851,382.725 687.76,383.32C686.362,384.079 684.809,384.507 683.22,384.57C677.67,384.8 668.03,384.87 659.89,383.28C648.84,381.13 640.55,376.21 634.3,379.02C633.586,379.331 632.914,379.731 632.3,380.21C631.686,380.689 623.8,406.74 629.58,416.27C635.36,425.8 645.58,441.78 640.81,445.87C640.193,446.401 639.523,446.867 638.81,447.26C634.41,449.69 628.97,448.26 620.72,439.75C611.2,429.88 610.17,413.22 610.17,413.22L612.55,370.36C612.55,370.36 603.37,338.04 594.55,331.58L598.63,316.95L599.12,317.29C601.8,319.11 615.18,327.66 631.72,328.75C633.747,328.877 635.686,329.628 637.27,330.9C641.943,334.865 645.903,339.6 648.98,344.9C656.46,357.15 674.83,355.79 674.83,355.79C679.234,354.385 683.534,352.674 687.7,350.67C690.79,349.09 693.31,347.36 693.7,345.78L693.7,346.64C694,350.77 695.5,369 705.44,363.89Z" style="fill:rgb(206,210,223);fill-rule:nonzero;"/>
                        </g>
                        <g transform="matrix(1,0,0,1,-125.1,-119.24)">
                            <path d="M594.85,300.45L569.85,300.45C570.4,304.425 570.557,308.444 570.32,312.45C578.086,317.915 588.272,318.647 596.74,314.35C594.34,309.91 592.88,304.87 594.85,300.45Z" style="fill-opacity:0.1;fill-rule:nonzero;"/>
                        </g>
                        <circle cx="459.92" cy="172.53" r="24.83" style="fill:rgb(236,140,156);"/>
                        <g transform="matrix(1,0,0,1,-125.1,-119.24)">
                            <path d="M579.86,287.35C582.63,287.02 585.4,286.04 588.13,286.59C590.61,287.09 592.72,288.8 595.2,289.32C599.98,290.32 604.42,286.8 608.03,283.52L615.83,276.42C617.56,274.85 619.34,273.2 620.23,271.04C621.12,268.88 620.81,266.04 618.91,264.68C616.06,262.68 611.15,264.68 609.09,261.84C608.16,260.56 608.3,258.84 607.82,257.31C606.82,254.25 603.38,252.58 600.16,252.54C596.94,252.5 593.86,253.68 590.78,254.54C584.292,256.422 577.507,257.07 570.78,256.45C568.964,256.118 567.098,256.182 565.31,256.64C563.08,257.592 561.43,259.55 560.87,261.91C559.33,267.35 561.96,276.12 564.6,280.99C567.24,285.86 574.59,288 579.86,287.35Z" style="fill-opacity:0.1;fill-rule:nonzero;"/>
                        </g>
                        <g transform="matrix(1,0,0,1,-125.1,-119.24)">
                            <path d="M579.86,286.67C582.63,286.34 585.4,285.36 588.13,285.91C590.61,286.41 592.72,288.12 595.2,288.64C599.98,289.64 604.42,286.12 608.03,282.84L615.83,275.74C617.56,274.17 619.34,272.52 620.23,270.36C621.12,268.2 620.81,265.36 618.91,264C616.06,262 611.15,264 609.09,261.16C608.16,259.88 608.3,258.16 607.82,256.63C606.82,253.57 603.38,251.9 600.16,251.86C596.94,251.82 593.86,253 590.78,253.86C584.292,255.742 577.507,256.39 570.78,255.77C568.964,255.438 567.098,255.502 565.31,255.96C563.08,256.912 561.43,258.87 560.87,261.23C559.33,266.67 561.96,275.44 564.6,280.31C567.24,285.18 574.59,287.27 579.86,286.67Z" style="fill:rgb(136,69,94);fill-rule:nonzero;"/>
                        </g>
                        <g transform="matrix(1,0,0,1,-125.1,-119.24)">
                            <path d="M536.55,394C536.55,394 541.99,394.68 544.71,398.08C547.43,401.48 552.19,402.5 552.19,402.5" style="fill-opacity:0.1;fill-rule:nonzero;"/>
                        </g>
                        <g transform="matrix(1,0,0,1,-125.1,-119.24)">
                            <path d="M487.56,349.09C487.56,349.09 492,359 489.26,360C486.52,361 487.56,368.16 487.56,368.16" style="fill-opacity:0.1;fill-rule:nonzero;"/>
                        </g>
                        <g opacity="0.1">
                            <g transform="matrix(1,0,0,1,-125.1,-119.24)">
                                <path d="M489.09,345.69C489.09,345.69 518,339.91 519,339.91C523.66,339.91 531.16,333.39 535.45,329.27C536.755,328.02 538.36,327.128 540.11,326.68L539.74,326.68C536.888,326.591 534.115,327.651 532.05,329.62C527.76,333.74 520.25,340.26 515.6,340.26C514.79,340.26 496.29,343.93 488.78,345.42L489.09,345.69Z" style="fill-rule:nonzero;"/>
                            </g>
                            <g transform="matrix(1,0,0,1,-125.1,-119.24)">
                                <path d="M569.41,320.43L569.41,319.16C562.455,322.706 554.971,325.101 547.25,326.25C554.911,325.568 562.403,323.601 569.41,320.43Z" style="fill-rule:nonzero;"/>
                            </g>
                            <g transform="matrix(1,0,0,1,-125.1,-119.24)">
                                <path d="M533.66,451.82C533.66,451.82 529.58,438.55 532.66,431.75C535.74,424.95 539.46,393.65 539.46,393.65L532,370.52L517.67,370.52L516.8,370.86L528.55,370.86L536,394C536,394 532.26,425.3 529.2,432.1C526.14,438.9 530.2,452.17 530.2,452.17L557.07,451.17L557.07,450.96L533.66,451.82Z" style="fill-rule:nonzero;"/>
                            </g>
                        </g>
                        <g opacity="0.1">
                            <g transform="matrix(1,0,0,1,-125.1,-119.24)">
                                <path d="M641.15,440.43C640.533,440.961 639.863,441.427 639.15,441.82C634.75,444.25 629.31,442.82 621.06,434.31C613.5,426.48 611.3,414.31 610.71,409.7L610.51,413.22C610.51,413.22 611.51,429.89 621.06,439.75C629.31,448.29 634.75,449.69 639.15,447.26C639.863,446.867 640.533,446.401 641.15,445.87C642.58,444.64 642.66,442.33 641.91,439.45C641.724,439.824 641.466,440.157 641.15,440.43Z" style="fill-rule:nonzero;"/>
                            </g>
                            <g transform="matrix(1,0,0,1,-125.1,-119.24)">
                                <path d="M700.63,364.4L691,375.53C690.186,376.469 689.211,377.255 688.12,377.85C686.722,378.609 685.169,379.037 683.58,379.1C678.03,379.33 668.39,379.4 660.25,377.81C649.2,375.66 640.91,370.74 634.66,373.55C633.946,373.861 633.274,374.261 632.66,374.74C632.046,375.219 627.17,391.88 628.01,403.55C628.66,392.64 632.66,380.18 632.66,380.18C633.274,379.701 633.946,379.301 634.66,378.99C640.92,376.18 649.2,381.1 660.25,383.25C668.39,384.83 678.02,384.76 683.58,384.54C685.169,384.477 686.722,384.049 688.12,383.29C689.208,382.704 690.184,381.928 691,381L705.81,363.91C704.257,364.877 702.337,365.058 700.63,364.4Z" style="fill-rule:nonzero;"/>
                            </g>
                        </g>
                        <g transform="matrix(1,0,0,1,-125.1,-119.24)">
                            <path d="M265.74,486.89C265.983,487.126 266.354,487.174 266.65,487.01C266.342,487.015 266.036,486.975 265.74,486.89Z" style="fill:url(#_Linear3);fill-rule:nonzero;"/>
                        </g>
                        <g transform="matrix(1,0,0,1,-125.1,-119.24)">
                            <path d="M367.65,321.24C365.85,320.72 363.28,319.87 360.19,318.79C363.401,314.659 365.751,309.925 367.1,304.87L366.84,304.97C366.93,304.66 367.02,304.36 367.1,304.04C361.17,306.45 354.61,302.37 350.43,297.13C346.25,291.89 343.43,285.39 338.85,280.57C336.941,278.653 334.889,276.884 332.71,275.28C331.36,274.28 329.91,273.15 328.26,273.1C325.59,273.02 323.5,275.64 320.93,276.41C319.239,276.791 317.478,276.725 315.82,276.22C309.19,274.7 302.82,271.89 296.05,271.15C292.428,270.703 288.751,271.117 285.32,272.36C281.92,273.65 280.37,276.22 277.62,278.28C274.62,280.49 268.76,280.44 265.27,280.83C261.035,281.314 256.771,281.491 252.51,281.36C250.062,281.148 247.596,281.238 245.17,281.63C240.1,282.74 236.03,286.77 232.23,290.63C231.193,291.503 230.446,292.672 230.09,293.98C230.041,294.348 230.041,294.722 230.09,295.09C230.052,296.098 230.225,297.103 230.6,298.04C231.77,301.511 233.423,304.8 235.51,307.81C237.06,310.03 238.87,312.12 239.75,314.75C240.167,316.043 240.386,317.392 240.4,318.75C240.357,320.193 240.206,321.63 239.95,323.05C239.279,326.976 238.176,330.816 236.66,334.5C235.719,336.391 235.072,338.414 234.74,340.5C234.711,340.926 234.711,341.354 234.74,341.78C234.49,348.38 241.15,353.13 242.44,359.69C242.546,360.234 242.61,360.786 242.63,361.34C242.49,365.43 240.16,369.43 236.72,371.02C237.02,371.14 237.33,371.24 237.64,371.34C237.344,371.526 237.037,371.693 236.72,371.84C237.35,372.08 237.99,372.29 238.64,372.46C234.731,375.865 231.445,379.926 228.93,384.46C217.36,406 139,448.19 139,448.19L140.16,448.85L139.22,449.46C132.44,453.97 116.53,467.12 130.91,483.75C130.91,483.75 142.14,466.03 150.01,458.48C150.36,458.14 150.71,457.83 151.01,457.54C151.359,458.078 151.468,458.738 151.31,459.36L202.83,430.41C202.83,430.41 221.14,417.59 226.25,414.7C229.847,412.459 233.761,410.774 237.86,409.7L237.26,409.95C239.186,409.42 241.172,409.138 243.17,409.11C252.29,409.25 262.17,415.93 265.42,442.38C269.78,477.8 267.76,484.19 266.36,485.06C266.187,485.047 266.017,485.017 265.85,484.97C265.893,485.008 265.94,485.041 265.99,485.07C265.8,485.057 265.613,485.023 265.43,484.97C265.635,485.158 265.923,485.226 266.19,485.15C266.381,485.208 266.588,485.183 266.76,485.08C266.99,485.093 267.22,485.093 267.45,485.08C267.45,485.407 267.427,485.74 267.38,486.08C267.31,486.08 266.97,486.27 267.38,486.29C267.27,488.29 267.28,490.46 267.38,492.73C262.85,492.98 258.32,493.25 254.38,493.49L254.73,491.62L254.89,490.78C258.37,490.5 261.67,489.48 262.06,486.66C262.91,480.46 254.4,477.15 247.16,476.74C239.92,476.33 196.5,479.22 196.5,479.22C196.5,479.22 189.99,487.65 210.64,490.22C211.253,490.54 211.89,490.873 212.55,491.22C220.64,495.83 231.61,504.32 236.87,508.5L237.6,509.08L235.24,511C248.01,513.89 260.36,562.69 267.17,585C273.98,607.31 288.88,606.5 301.23,603.19C312.8,600.09 314.23,566.49 314.42,562.27L314.42,561.84L335,587.26L336.56,589.19C337.16,589.503 337.753,589.797 338.34,590.07C353.92,597.48 371.13,583.27 366.24,567.07C361.29,550.74 353.61,526.59 348.49,516.38C344.2,507.83 338.66,493.63 335.3,484.74C335.736,484.565 336.161,484.361 336.57,484.13C336.979,483.899 336.49,483.73 336.36,483L336.57,482.89C336.57,482.89 331.57,457.17 331.35,438.89L331.35,437.3C335.07,436.45 337.43,436.12 337.43,436.12L337.5,435.32L337.07,435.41L339.14,411.72C339.14,411.72 346.74,395.55 340.92,388.82C339.151,386.852 337.969,384.426 337.51,381.82C336.51,375.63 337.51,365.3 351.06,356.72C371.92,343.49 380.06,332.72 380.06,332.72C380.06,332.72 380.42,325 367.65,321.24ZM326.22,337.68L326.22,326.73C330.09,326.54 334.04,326.99 337.93,326.73C339.84,326.597 341.732,326.278 343.58,325.78L344.52,326.43C338.829,330.808 332.695,334.578 326.22,337.68ZM267.07,509.32C268.6,510.38 270.14,511.48 271.65,512.59C272.59,517.99 273.42,521.8 273.48,522.07C271.754,517.626 269.608,513.356 267.07,509.32Z" style="fill:url(#_Linear4);fill-rule:nonzero;"/>
                        </g>
                        <g transform="matrix(1,0,0,1,-125.1,-119.24)">
                            <path d="M300.13,500.32L299.23,505.21L298.54,508.95L297.28,515.79L285.06,524.34C285.06,524.34 283.96,523.4 282.14,521.91C277.14,517.79 266.61,509.43 258.88,504.91C256.894,503.642 254.744,502.649 252.49,501.96L300.13,500.32Z" style="fill:rgb(255,189,198);fill-rule:nonzero;"/>
                        </g>
                        <g transform="matrix(1,0,0,1,-125.1,-119.24)">
                            <path d="M300.13,500.32L299.23,505.21C296.536,505.36 293.834,505.222 291.17,504.8L262.66,505.21C261.31,505.13 260.05,505.02 258.87,504.9C256.884,503.632 254.734,502.639 252.48,501.95L300.13,500.32Z" style="fill-opacity:0.1;fill-rule:nonzero;"/>
                        </g>
                        <g transform="matrix(1,0,0,1,-125.1,-119.24)">
                            <path d="M291.17,504C291.17,504 305.43,506.44 306.24,500.33C307.05,494.22 298.91,491 292,490.54C285.09,490.08 243.52,493 243.52,493C243.52,493 236.19,502.77 262.66,504.4L291.17,504Z" style="fill:rgb(118,121,180);fill-rule:nonzero;"/>
                        </g>
                        <g transform="matrix(1,0,0,1,-125.1,-119.24)">
                            <path d="M300.13,500.32L299.23,505.21L298.54,508.95L297.28,515.79L285.06,524.34C285.06,524.34 283.96,523.4 282.14,521.91C277.14,517.79 266.61,509.43 258.88,504.91C256.894,503.642 254.744,502.649 252.49,501.96L300.13,500.32Z" style="fill-opacity:0.1;fill-rule:nonzero;"/>
                        </g>
                        <g transform="matrix(1,0,0,1,-125.1,-119.24)">
                            <path d="M300.13,500.32L299.23,505.21C296.536,505.36 293.834,505.222 291.17,504.8L262.66,505.21C261.31,505.13 260.05,505.02 258.87,504.9C256.884,503.632 254.734,502.639 252.48,501.95L300.13,500.32Z" style="fill-opacity:0.1;fill-rule:nonzero;"/>
                        </g>
                        <g transform="matrix(1,0,0,1,-125.1,-119.24)">
                            <path d="M291.17,504C291.17,504 305.43,506.44 306.24,500.33C307.05,494.22 298.91,491 292,490.54C285.09,490.08 243.52,493 243.52,493C243.52,493 236.19,502.77 262.66,504.4L291.17,504Z" style="fill-opacity:0.1;fill-rule:nonzero;"/>
                        </g>
                        <rect x="122.69" y="183.95" width="74.53" height="88.38" style="fill:rgb(166,100,119);"/>
                        <rect x="122.69" y="183.95" width="74.53" height="88.38" style="fill-opacity:0.1;"/>
                        <g transform="matrix(1,0,0,1,-125.1,-119.24)">
                            <path d="M160.43,454.5C159.2,454.81 157.64,455.99 155.89,457.71C148.36,465.15 137.62,482.6 137.62,482.6C123.86,466.22 139.09,453.27 145.62,448.82C147.2,447.74 148.26,447.16 148.26,447.16L160.43,454.5Z" style="fill:rgb(255,189,198);fill-rule:nonzero;"/>
                        </g>
                        <g transform="matrix(1,0,0,1,-125.1,-119.24)">
                            <path d="M299.32,331.09C299.32,331.09 302.99,356.75 315.61,362.86C328.23,368.97 299.32,380.37 299.32,380.37L259.81,365.71C259.81,365.71 282.21,358.38 277.73,336.79L299.32,331.09Z" style="fill:rgb(255,189,198);fill-rule:nonzero;"/>
                        </g>
                        <g transform="matrix(1,0,0,1,-125.1,-119.24)">
                            <path d="M257,485.45L256.1,490.34L255.41,494.08L254.15,500.92L241.93,509.47C241.93,509.47 240.83,508.53 239.01,507.04C234.01,502.92 223.48,494.56 215.75,490.04C213.764,488.772 211.614,487.779 209.36,487.09L257,485.45Z" style="fill:rgb(255,189,198);fill-rule:nonzero;"/>
                        </g>
                        <g transform="matrix(1,0,0,1,-125.1,-119.24)">
                            <path d="M257,485.45L256.1,490.34C253.406,490.49 250.704,490.352 248.04,489.93L219.53,490.34C218.18,490.26 216.92,490.15 215.74,490.03C213.754,488.762 211.604,487.769 209.35,487.08L257,485.45Z" style="fill-opacity:0.1;fill-rule:nonzero;"/>
                        </g>
                        <g transform="matrix(1,0,0,1,-125.1,-119.24)">
                            <path d="M248,489.12C248,489.12 262.26,491.56 263.07,485.45C263.88,479.34 255.74,476.08 248.81,475.68C241.88,475.28 200.34,478.12 200.34,478.12C200.34,478.12 193.01,487.89 219.48,489.52L248,489.12Z" style="fill:rgb(118,121,180);fill-rule:nonzero;"/>
                        </g>
                        <g transform="matrix(1,0,0,1,-125.1,-119.24)">
                            <path d="M255.37,494.09L254.11,500.93L241.89,509.48C241.89,509.48 240.79,508.54 238.97,507.05L255.13,493.8L255.37,494.09Z" style="fill-opacity:0.1;fill-rule:nonzero;"/>
                        </g>
                        <g transform="matrix(1,0,0,1,-125.1,-119.24)">
                            <path d="M336,587.33C335.44,587.057 334.873,586.767 334.3,586.46L332.81,584.56L313.13,559.56L313.13,560C313,564.15 311.58,597.25 300.52,600.3C288.71,603.56 274.45,604.37 267.94,582.38C261.43,560.39 249.61,512.33 237.39,509.48L255.51,494.61C255.51,494.61 267.51,508.61 272.41,522.09C272.23,521.23 263.94,482.52 270.78,475.68L330.24,475.68C330.24,475.68 339.4,501.82 345.72,514.78C350.62,524.84 357.97,548.62 362.72,564.71C367.42,580.63 351,594.63 336,587.33Z" style="fill:rgb(118,121,180);fill-rule:nonzero;"/>
                        </g>
                        <g transform="matrix(1,0,0,1,-125.1,-119.24)">
                            <path d="M334.34,483C325.17,488.43 284.85,486.22 271.71,485.34L268.14,485.08C267.75,485.08 268.2,484.86 268.2,484.86L268.57,481.16L278.34,456.32L330.68,426C329.62,429.19 329.26,434.08 329.35,439.69C329.61,457.67 334.34,483 334.34,483Z" style="fill-opacity:0.1;fill-rule:nonzero;"/>
                        </g>
                        <g transform="matrix(1,0,0,1,-125.1,-119.24)">
                            <path d="M334.34,481.79C325.17,487.22 284.85,485.01 271.71,484.13L268.14,483.87L267.55,483.87L268.2,483.7L271.42,482.85L278.34,455.15L330.68,424.81C329.62,428 329.26,432.89 329.35,438.5C329.61,456.45 334.34,481.79 334.34,481.79Z" style="fill:rgb(242,241,242);fill-rule:nonzero;"/>
                        </g>
                        <g transform="matrix(1,0,0,1,-125.1,-119.24)">
                            <path d="M329.35,438.46C318.71,440.91 295.29,448.12 286.29,465.46C280.29,477.04 275.29,482.01 271.72,484.09L268.15,483.83L268.21,483.61L271.43,482.76L278.35,455.06L330.69,424.72C329.61,428 329.26,432.85 329.35,438.46Z" style="fill-opacity:0.1;fill-rule:nonzero;"/>
                        </g>
                        <g transform="matrix(1,0,0,1,-125.1,-119.24)">
                            <path d="M148.21,447.17L160.43,454.5C159.2,454.81 157.64,455.99 155.89,457.71C154.89,454.71 148.47,450.59 145.57,448.83C147.15,447.75 148.21,447.17 148.21,447.17Z" style="fill-opacity:0.1;fill-rule:nonzero;"/>
                        </g>
                        <g transform="matrix(1,0,0,1,-125.1,-119.24)">
                            <path d="M266,484.34C265.721,484.496 265.371,484.451 265.14,484.23C265.42,484.309 265.709,484.346 266,484.34Z" style="fill-opacity:0.1;fill-rule:nonzero;"/>
                        </g>
                        <g transform="matrix(1,0,0,1,-125.1,-119.24)">
                            <path d="M293.61,361.23C293.61,361.23 282.61,362.45 274.87,354.31C274.87,354.31 242.29,363.68 231.29,384.86C220.29,406.04 145.35,447.58 145.35,447.58C145.35,447.58 158.35,454.91 157.16,458.58L206.44,430.07C206.44,430.07 223.95,417.44 228.84,414.59C233.73,411.74 260.61,394.23 266.31,441.88C272.01,489.53 266.31,483.88 266.31,483.88C266.31,483.88 274.46,486.73 286.31,463.88C298.16,441.03 334.78,435.78 334.78,435.78L336.78,411.78C336.78,411.78 344.05,395.86 338.48,389.22C336.782,387.266 335.653,384.882 335.22,382.33C334.29,376.23 335.22,366.06 348.22,357.61C368.22,344.61 375.92,333.99 375.92,333.99C375.92,333.99 376.33,326.25 364.11,322.59C351.89,318.93 302.2,298.97 302.2,298.97L300.57,305.89L339.67,333.59C339.67,333.59 320.12,349.47 304.67,349.07C304.61,349 307.46,360.82 293.61,361.23Z" style="fill:rgb(86,83,136);fill-rule:nonzero;"/>
                        </g>
                        <g transform="matrix(1,0,0,1,-125.1,-119.24)">
                            <path d="M301.16,342.26C300.197,338.978 299.445,335.638 298.91,332.26L277.32,338C278.265,342.12 278.096,346.417 276.83,350.45C285.833,352.852 295.447,349.612 301.16,342.25L301.16,342.26Z" style="fill-opacity:0.1;fill-rule:nonzero;"/>
                        </g>
                        <circle cx="158.13" cy="207.57" r="23.22" style="fill:rgb(255,189,198);"/>
                        <g transform="matrix(1,0,0,1,-125.1,-119.24)">
                            <path d="M295.57,274C302.01,274.73 308.14,277.5 314.48,279C316.064,279.497 317.752,279.562 319.37,279.19C321.83,278.43 323.83,275.85 326.37,275.93C327.94,275.93 329.37,277.05 330.63,278.08C332.717,279.664 334.68,281.405 336.5,283.29C340.87,288.04 343.59,294.44 347.58,299.6C351.57,304.76 357.86,308.78 363.53,306.41C359.68,321.41 347.04,332.88 333.38,333.81C327.93,334.18 322.38,333.05 317.07,334.65C315.754,335.186 314.365,335.524 312.95,335.65C309.95,335.65 307.47,332.86 305.57,330.15C301.13,323.77 297.57,316.53 292.57,310.72C290.92,308.8 288.97,306.97 286.64,306.62C284.31,306.27 282.16,307.38 280.08,308.46C276.65,310.24 273.14,312.08 270.48,315.12C267.82,318.16 266.14,322.71 267.24,326.83C267.83,329.05 269.19,331.05 269.24,333.38C269.24,337.08 266.02,339.79 265.37,343.38C265.227,344.896 265.173,346.418 265.21,347.94C264.92,352.88 261.7,356.94 258.32,360.03C257.01,361.24 255.55,362.53 255.17,364.4C254.91,365.67 255.17,367.02 255,368.31C254.51,371.52 251.31,373.14 248.48,373.56C245.175,374.044 241.8,373.644 238.7,372.4C242.7,370.53 245.09,365.2 244.17,360.4C242.91,353.79 236.27,349.05 236.83,342.31C237.143,340.246 237.763,338.24 238.67,336.36C240.119,332.724 241.172,328.942 241.81,325.08C242.464,322.108 242.399,319.022 241.62,316.08C240.77,313.49 239.04,311.43 237.56,309.24C235.556,306.263 233.974,303.022 232.86,299.61C232.456,298.602 232.302,297.511 232.41,296.43C232.732,295.155 233.429,294.006 234.41,293.13C238.05,289.32 241.95,285.35 246.79,284.25C249.103,283.865 251.455,283.774 253.79,283.98C257.867,284.11 261.949,283.936 266,283.46C269.34,283.07 275,283.12 277.82,280.94C280.45,278.94 281.94,276.39 285.19,275.11C288.507,273.896 292.072,273.515 295.57,274Z" style="fill-opacity:0.1;fill-rule:nonzero;"/>
                        </g>
                        <g transform="matrix(1,0,0,1,-125.1,-119.24)">
                            <path d="M308.48,513.76C308.48,513.76 321.92,540.23 317.85,548.38" style="fill-opacity:0.1;fill-rule:nonzero;"/>
                        </g>
                        <g transform="matrix(1,0,0,1,-125.1,-119.24)">
                            <path d="M332.85,584.56L313.17,559.56L313.17,560C313.17,560 312.03,551.92 315.78,554.64C323.99,560.58 337.13,570.32 337.41,572C337.69,573.68 334.75,580.42 332.85,584.56Z" style="fill-opacity:0.1;fill-rule:nonzero;"/>
                        </g>
                        <g opacity="0.1">
                            <g transform="matrix(1,0,0,1,-125.1,-119.24)">
                                <path d="M305,349C305,349 306.66,355.88 301.29,359.32C309.56,357.9 309.92,351.47 309.67,348.67C308.126,348.92 306.563,349.03 305,349Z" style="fill-rule:nonzero;"/>
                            </g>
                            <g transform="matrix(1,0,0,1,-125.1,-119.24)">
                                <path d="M150.25,445.95C150.25,445.95 225.19,404.41 236.19,383.23C244.08,368.03 263.09,358.92 273.19,354.98C265.82,357.45 241.02,366.92 231.7,384.86C220.7,406.04 145.76,447.58 145.76,447.58L150.25,445.95Z" style="fill-rule:nonzero;"/>
                            </g>
                            <g transform="matrix(1,0,0,1,-125.1,-119.24)">
                                <path d="M319.58,345.77C332.33,341.77 344.52,331.9 344.52,331.9L305.42,304.2L306.31,300.4L302.57,298.9L300.94,305.82L340.04,333.52C333.766,338.452 326.891,342.568 319.58,345.77Z" style="fill-rule:nonzero;"/>
                            </g>
                            <g transform="matrix(1,0,0,1,-125.1,-119.24)">
                                <path d="M319.83,439.63C324.826,437.924 329.953,436.63 335.16,435.76L335.23,434.97C329.984,436.122 324.835,437.68 319.83,439.63Z" style="fill-rule:nonzero;"/>
                            </g>
                            <g transform="matrix(1,0,0,1,-125.1,-119.24)">
                                <path d="M272.44,482.3L272.08,482.3C271.801,482.456 271.451,482.411 271.22,482.19C271.5,482.268 271.79,482.305 272.08,482.3C273.42,481.52 275.43,475.44 271.22,440.24C266.72,402.66 249.06,405.61 239.39,409.93C249.27,407.21 262.87,409.56 266.74,441.87C270.95,477.07 268.94,483.16 267.6,483.93C269.337,483.865 271.018,483.299 272.44,482.3Z" style="fill-rule:nonzero;"/>
                            </g>
                            <g transform="matrix(1,0,0,1,-125.1,-119.24)">
                                <path d="M267.6,483.94C267.31,483.945 267.02,483.908 266.74,483.83C266.971,484.051 267.321,484.096 267.6,483.94Z" style="fill-rule:nonzero;"/>
                            </g>
                        </g>
                        <g transform="matrix(1,0,0,1,-125.1,-119.24)">
                            <path d="M295.57,273.21C302.01,273.94 308.14,276.71 314.48,278.21C316.064,278.707 317.752,278.772 319.37,278.4C321.83,277.64 323.83,275.06 326.37,275.14C327.94,275.14 329.37,276.26 330.63,277.29C332.717,278.874 334.68,280.615 336.5,282.5C340.87,287.25 343.59,293.65 347.58,298.81C351.57,303.97 357.86,307.99 363.53,305.62C359.68,320.62 347.04,332.09 333.38,333.02C327.93,333.39 322.38,332.26 317.07,333.86C315.754,334.396 314.365,334.734 312.95,334.86C309.95,334.86 307.47,332.07 305.57,329.36C301.13,322.98 297.57,315.74 292.57,309.93C290.92,308.01 288.97,306.18 286.64,305.83C284.31,305.48 282.16,306.59 280.08,307.67C276.65,309.45 273.14,311.29 270.48,314.33C267.82,317.37 266.14,321.92 267.24,326.04C267.83,328.26 269.19,330.26 269.24,332.59C269.24,336.29 266.02,339 265.37,342.59C265.227,344.106 265.173,345.628 265.21,347.15C264.92,352.09 261.7,356.15 258.32,359.24C257.01,360.45 255.55,361.74 255.17,363.61C254.91,364.88 255.17,366.23 255,367.52C254.51,370.73 251.31,372.35 248.48,372.77C245.175,373.254 241.8,372.854 238.7,371.61C242.7,369.74 245.09,364.41 244.17,359.61C242.91,353 236.27,348.26 236.83,341.52C237.143,339.456 237.763,337.45 238.67,335.57C240.119,331.934 241.172,328.152 241.81,324.29C242.464,321.318 242.399,318.232 241.62,315.29C240.77,312.7 239.04,310.64 237.56,308.45C235.556,305.473 233.974,302.232 232.86,298.82C232.456,297.812 232.302,296.721 232.41,295.64C232.732,294.365 233.429,293.216 234.41,292.34C238.05,288.53 241.95,284.56 246.79,283.46C249.103,283.075 251.455,282.984 253.79,283.19C257.867,283.32 261.949,283.146 266,282.67C269.34,282.28 275,282.33 277.82,280.15C280.45,278.15 281.94,275.6 285.19,274.32C288.507,273.106 292.072,272.725 295.57,273.21Z" style="fill:rgb(166,100,119);fill-rule:nonzero;"/>
                        </g>
                        <g transform="matrix(1,0,0,1,-125.1,-119.24)">
                            <path d="M958.6,221.09L958.6,220.72C958.6,220.6 958.6,220.46 958.54,220.34L958.38,220.34L958.38,219.51C957.98,210.24 945.16,190.51 940.02,196.27C935.52,201.33 942.31,214.13 945.77,219.89L946.08,220.41L945.91,220.3C945.91,220.3 931.6,262.98 929.91,264.64C928.22,266.3 916.44,299.86 900.91,303.64C897.84,304.37 895.29,305.03 893.15,305.64L893.32,305.07C894.32,301.8 895.55,298.71 896.05,295.07C896.55,291.43 896.05,287.02 894.21,285.25C893.31,284.37 892.21,284.25 891.47,282.85C890.99,281.622 890.732,280.318 890.71,279L889.39,262.82L890.31,262.54C895.87,260.76 901.26,256.54 901.89,250.86C901.697,250.933 901.5,250.997 901.3,251.05C901.373,250.72 901.43,250.386 901.47,250.05C896.8,251.89 892.47,247.05 887.97,244.88C880.56,241.25 872.09,244.67 864.44,245.5C855.77,246.45 847.54,242.85 838.68,243.5C833.86,243.87 828.5,247.14 828.76,251.89C828.91,254.5 830.76,256.71 831.52,259.21C833.44,265.26 829.17,271.33 825.43,276.49C822.97,279.88 820.61,284.01 820.19,287.99C811.58,278.99 802.27,268.59 801.19,264.68L776.28,222C776.28,222 775.69,222.63 774.74,223.56C774.59,223.1 774.41,222.56 774.21,222.02C771.03,213.11 762.03,191.52 750.62,195.48C739.21,199.44 755.35,221.57 762.37,230.39L763.37,231.61C762.781,231.755 762.163,231.727 761.59,231.53L789.37,279.18C789.37,279.18 794.42,288.3 799.05,290.78C799.05,290.78 833.56,334.29 833.98,342.99C834.4,351.69 849.5,374.9 849.5,374.9C849.5,374.9 854.55,412.61 845.71,419.24L847.17,419.24C846.75,419.65 846.32,420.1 845.88,420.59C839.33,427.85 830.96,443.41 842.4,469.87C859.23,508.87 861.76,524.15 861.76,524.15C861.76,524.15 829.76,525.81 823.46,527.05C817.88,528.15 796.19,528.92 791.23,529.05C789.46,526.99 784.23,522.43 777.17,529.05C768.33,537.34 762.02,565.05 762.02,565.05C762.02,565.05 758.65,587.43 770.02,581.62C770.02,581.62 783.49,562.97 787.27,562.14C789.15,561.73 791.14,558.96 792.66,556.29L792.74,556.34C792.83,556.34 793.2,556.14 793.8,555.9C796.6,554.79 804.31,552.12 810.39,553.45C813.72,554.18 828,554.35 842.97,554.31C839.59,562.41 833.53,583.31 833.53,583.31C833.53,583.31 831,602.8 839.4,602C845.4,601.41 854.6,586.08 859.4,577.33C862.88,574.78 872.85,565.64 880.22,566.33L929.88,547.27C929.88,547.27 941.66,540.64 935.35,518.68C930.35,501.22 916.12,465.48 910.5,451.55L910.33,451.19C908.97,447.82 908.15,445.82 908.15,445.82C905.841,439.461 904.326,432.841 903.64,426.11C903.59,425.58 903.55,425.04 903.51,424.51C904.206,424.218 904.861,423.838 905.46,423.38C906.059,422.922 900.83,376.56 905.46,371.58L905.54,371.49L905.54,371.43L905.62,371.33L905.8,371.1L906.02,370.82C906.27,370.49 906.57,370.08 906.91,369.58C909.56,365.7 914.5,356.84 913.08,346.38C913.02,345.927 912.947,345.47 912.86,345.01C912.316,342.173 911.345,339.436 909.98,336.89C909.78,335.83 909.656,334.757 909.61,333.68L909.61,330.84C909.61,330.37 909.69,329.84 909.76,329.4L909.76,329.22C909.76,329.04 909.79,328.857 909.85,328.67L909.85,328.44C909.85,328.26 909.93,328.08 909.97,327.9L909.97,327.71C910.03,327.47 910.09,327.23 910.17,326.99L910.17,326.87C910.23,326.67 910.297,326.473 910.37,326.28L910.46,326.05L910.76,325.33C910.84,325.15 910.93,324.97 911.02,324.79L911.09,324.64C911.21,324.42 911.337,324.203 911.47,323.99L911.58,323.82L911.91,323.35L912.07,323.14L912.42,322.72L912.58,322.54C912.76,322.35 912.94,322.16 913.14,321.98C918.61,316.98 943.02,280.13 943.02,280.13C943.02,280.13 948.91,271.84 948.91,266.46C949.24,266.34 959.65,231.64 958.6,221.09ZM893.07,530.84C892.47,525.16 891.87,518.12 891.32,510.84L900.84,525.68C900.84,525.68 899.94,530.2 893.07,530.84Z" style="fill:url(#_Linear5);fill-rule:nonzero;"/>
                        </g>
                        <g transform="matrix(1,0,0,1,-125.1,-119.24)">
                            <path d="M793.81,527.7C793.81,527.7 788.11,518.7 779.55,526.89C770.99,535.08 764.89,562.32 764.89,562.32C764.89,562.32 761.63,584.32 772.63,578.61C772.63,578.61 785.63,560.28 789.33,559.47C793.03,558.66 797.07,548.47 797.07,548.47L793.81,527.7Z" style="fill:rgb(73,53,69);fill-rule:nonzero;"/>
                        </g>
                        <g transform="matrix(1,0,0,1,-125.1,-119.24)">
                            <path d="M854.9,549.69C854.9,549.69 847.16,546.02 844.72,548.88C842.28,551.74 834.13,580.24 834.13,580.24C834.13,580.24 831.69,598.98 839.83,598.16C847.97,597.34 862.23,568 862.23,568L854.9,549.69Z" style="fill:rgb(73,53,69);fill-rule:nonzero;"/>
                        </g>
                        <g transform="matrix(1,0,0,1,-125.1,-119.24)">
                            <path d="M854.9,549.69C854.9,549.69 847.16,546.02 844.72,548.88C842.28,551.74 834.13,580.24 834.13,580.24C834.13,580.24 831.69,598.98 839.83,598.16C847.97,597.34 862.23,568 862.23,568L854.9,549.69Z" style="fill-opacity:0.05;fill-rule:nonzero;"/>
                        </g>
                        <g transform="matrix(1,0,0,1,-125.1,-119.24)">
                            <path d="M881.78,494.3L899.29,521.59C899.29,521.59 898.07,527.7 887.48,526.48L851.23,549.29C851.23,549.29 848.08,577.06 858.15,574.54C859.78,574.13 871.15,562.32 879.33,563.14L927.4,544.4C927.4,544.4 938.8,537.88 932.69,516.3C926.58,494.72 906.38,444.68 906.38,444.68L874.45,462.54L881.78,494.3Z" style="fill:rgb(62,61,119);fill-rule:nonzero;"/>
                        </g>
                        <g transform="matrix(1,0,0,1,-125.1,-119.24)">
                            <path d="M881.78,494.3L899.29,521.59C899.29,521.59 898.07,527.7 887.48,526.48L851.23,549.29C851.23,549.29 848.08,577.06 858.15,574.54C859.78,574.13 871.15,562.32 879.33,563.14L927.4,544.4C927.4,544.4 938.8,537.88 932.69,516.3C926.58,494.72 906.38,444.68 906.38,444.68L874.45,462.54L881.78,494.3Z" style="fill-opacity:0.05;fill-rule:nonzero;"/>
                        </g>
                        <g transform="matrix(1,0,0,1,-125.1,-119.24)">
                            <path d="M892.78,534.62C895.22,550.1 881.38,551.32 881.38,551.32C881.38,551.32 819.06,552.54 811.73,550.91C804.4,549.28 794.62,553.76 794.62,553.76C781.99,546.02 792.18,526.88 792.18,526.88C792.18,526.88 818.25,526.07 824.36,524.88C830.47,523.69 861.42,522 861.42,522C861.42,522 858.98,506.93 842.68,468.65C831.61,442.65 839.68,427.35 846.05,420.22C847.675,418.328 849.557,416.672 851.64,415.3L901.74,417.74C901.686,420.267 901.78,422.794 902.02,425.31C902.876,433.947 905.122,442.389 908.67,450.31C905.82,450.31 887.49,467.42 887.49,467.42C887.49,467.42 890.33,519.15 892.78,534.62Z" style="fill:rgb(62,61,119);fill-rule:nonzero;"/>
                        </g>
                        <g transform="matrix(1,0,0,1,-125.1,-119.24)">
                            <path d="M795.84,528.51C795.84,528.51 821.91,527.7 828.02,526.51C834.13,525.32 865.08,523.66 865.08,523.66C865.08,523.66 862.64,508.59 846.34,470.31C835.27,444.31 843.34,429.01 849.71,421.88C851.335,419.988 853.217,418.332 855.3,416.96L901.72,419.22L901.72,417.77L851.62,415.33C849.537,416.702 847.655,418.358 846.03,420.25C839.69,427.39 831.59,442.68 842.66,468.68C859,506.93 861.42,522 861.42,522C861.42,522 830.42,523.63 824.36,524.85C818.3,526.07 792.18,526.85 792.18,526.85C792.18,526.85 782,546 794.62,553.77C794.62,553.77 795,553.59 795.62,553.33C787.23,544.7 795.84,528.51 795.84,528.51Z" style="fill-opacity:0.1;fill-rule:nonzero;"/>
                        </g>
                        <rect x="720.02" y="146.57" width="25.25" height="63.94" style="fill:rgb(73,53,69);"/>
                        <rect x="720.02" y="146.57" width="25.25" height="63.94" style="fill-opacity:0.1;"/>
                        <g transform="matrix(1,0,0,1,-125.1,-119.24)">
                            <path d="M884.81,256.43C885.68,256.67 886.66,256.7 887.25,257.9C887.616,258.859 887.816,259.874 887.84,260.9L889.43,280.66C889.452,281.954 889.703,283.233 890.17,284.44C890.84,285.78 891.95,285.94 892.82,286.8C894.57,288.54 895.08,292.9 894.6,296.45C894.12,300 892.91,303.04 891.96,306.25C890.6,310.85 889.7,316.02 887.79,319.9C885.88,323.78 882.41,325.9 880.17,322.64C877.93,319.38 878.23,312.8 877.81,307.41C877.11,298.41 873.6,290.65 873.36,281.59C873.16,274.26 875.13,267.42 876.36,260.47C877.24,255.7 877.29,249.91 878.57,245.62C879.64,250.72 881.68,255.57 884.81,256.43Z" style="fill:rgb(73,53,69);fill-rule:nonzero;"/>
                        </g>
                        <g transform="matrix(1,0,0,1,-125.1,-119.24)">
                            <path d="M884.81,256.43C885.68,256.67 886.66,256.7 887.25,257.9C887.616,258.859 887.816,259.874 887.84,260.9L889.43,280.66C889.452,281.954 889.703,283.233 890.17,284.44C890.84,285.78 891.95,285.94 892.82,286.8C894.57,288.54 895.08,292.9 894.6,296.45C894.12,300 892.91,303.04 891.96,306.25C890.6,310.85 889.7,316.02 887.79,319.9C885.88,323.78 882.41,325.9 880.17,322.64C877.93,319.38 878.23,312.8 877.81,307.41C877.11,298.41 873.6,290.65 873.36,281.59C873.16,274.26 875.13,267.42 876.36,260.47C877.24,255.7 877.29,249.91 878.57,245.62C879.64,250.72 881.68,255.57 884.81,256.43Z" style="fill-opacity:0.1;fill-rule:nonzero;"/>
                        </g>
                        <g transform="matrix(1,0,0,1,-125.1,-119.24)">
                            <path d="M777.92,228.34L768.15,236.49C768.15,236.49 766.99,235.13 765.26,232.93C758.47,224.26 742.86,202.51 753.89,198.62C764.92,194.73 773.64,215.94 776.72,224.7C777.5,226.92 777.92,228.34 777.92,228.34Z" style="fill:rgb(199,116,133);fill-rule:nonzero;"/>
                        </g>
                        <g transform="matrix(1,0,0,1,-125.1,-119.24)">
                            <path d="M954.28,225.49C950.21,231.6 944.51,225.49 944.51,225.49C944.51,225.49 943.78,224.4 942.75,222.64C939.4,216.97 932.83,204.4 937.18,199.42C942.18,193.73 954.57,213.15 954.95,222.26C955.068,223.38 954.833,224.509 954.28,225.49Z" style="fill:rgb(199,116,133);fill-rule:nonzero;"/>
                        </g>
                        <g transform="matrix(1,0,0,1,-125.1,-119.24)">
                            <path d="M854.08,291.47C854.08,291.47 862.23,317.54 859.78,325.27C857.33,333 877.3,342 877.3,342L900.11,342C900.11,342 908.26,325.3 906.22,320.41C904.18,315.52 886.67,311.86 886.67,311.86C886.67,311.86 876.49,311.86 876.9,284.57L854.08,291.47Z" style="fill:rgb(199,116,133);fill-rule:nonzero;"/>
                        </g>
                        <g transform="matrix(1,0,0,1,-125.1,-119.24)">
                            <path d="M777.92,228.34L768.15,236.49C768.15,236.49 766.99,235.13 765.26,232.93C768.81,232.3 774.32,227.12 776.73,224.7C777.5,226.92 777.92,228.34 777.92,228.34Z" style="fill-opacity:0.1;fill-rule:nonzero;"/>
                        </g>
                        <g transform="matrix(1,0,0,1,-125.1,-119.24)">
                            <path d="M954.28,225.49C950.21,231.6 944.51,225.49 944.51,225.49C944.51,225.49 943.78,224.4 942.75,222.64L942.88,222.23C945.52,224.12 953.73,222.51 954.95,222.23C955.074,223.36 954.84,224.501 954.28,225.49Z" style="fill-opacity:0.1;fill-rule:nonzero;"/>
                        </g>
                        <g transform="matrix(1,0,0,1,-125.1,-119.24)">
                            <path d="M902,425.3C889.4,431.05 848.46,420.81 846,420.2C847.625,418.308 849.507,416.652 851.59,415.28L901.69,417.72C901.646,420.251 901.749,422.782 902,425.3Z" style="fill-opacity:0.1;fill-rule:nonzero;"/>
                        </g>
                        <g transform="matrix(1,0,0,1,-125.1,-119.24)">
                            <path d="M859.38,313.87C859.38,313.87 849.61,317.13 835.76,304.5C835.76,304.5 804.76,273.95 802.76,266.62L778.76,224.62C778.76,224.62 768.58,235.62 764.5,233.99L791.38,280.83C791.38,280.83 796.27,289.83 800.75,292.23C800.75,292.23 834.15,335 834.55,343.55C834.95,352.1 849.6,375 849.6,375C849.6,375 854.49,412.06 845.93,418.58C845.93,418.58 893.58,430.8 903.76,422.65C903.76,422.65 899.28,376.65 903.76,371.74C903.76,371.74 917.61,355.45 908.24,337.53C908.24,337.53 906.24,327.76 911.5,322.87C916.76,317.98 940.42,281.73 940.42,281.73C940.42,281.73 946.12,273.58 946.12,268.29C946.12,268.29 956.71,232.45 955.12,223.08C955.12,223.08 945.75,225.08 942.9,223.08C942.9,223.08 929.05,265.08 927.42,266.66C925.79,268.24 914.42,301.28 899.32,304.95C884.22,308.62 881.81,310.24 881.81,310.24C881.81,310.24 911.13,328.57 896.88,336.71C882.63,344.85 859.38,313.87 859.38,313.87Z" style="fill:rgb(255,170,196);fill-rule:nonzero;"/>
                        </g>
                        <g transform="matrix(1,0,0,1,-125.1,-119.24)">
                            <path d="M877.89,297.74C877.406,293.903 877.209,290.036 877.3,286.17L854.49,293.09C855.09,294.61 855.568,296.174 855.92,297.77C858.53,298.92 862.05,301.64 865.08,301.64C869.663,301.79 874.168,300.418 877.89,297.74Z" style="fill-opacity:0.1;fill-rule:nonzero;"/>
                        </g>
                        <circle cx="739.57" cy="160.01" r="21.18" style="fill:rgb(199,116,133);"/>
                        <g transform="matrix(1,0,0,1,-125.1,-119.24)">
                            <path d="M839.47,246.62C834.81,246.98 829.61,250.2 829.87,254.87C830.01,257.44 831.77,259.61 832.54,262.07C834.39,268.02 830.27,273.99 826.65,279.07C823.03,284.15 819.65,290.88 822.75,296.26C823.634,297.555 824.588,298.801 825.61,299.99C829.44,305.16 829.39,312.14 831.09,318.35C835.572,334.751 852.307,344.923 868.93,341.35C865.9,337.482 864.387,332.635 864.68,327.73C864.91,324.17 866.06,320.45 864.68,317.16C862.9,312.93 857.68,311.26 854.99,307.56C852.3,303.86 852.48,298.73 853.78,294.32C855.08,289.91 857.33,285.82 858.41,281.32C858.677,280.007 859.01,278.709 859.41,277.43C861.29,272.09 866.91,268.99 872.41,267.66C877.91,266.33 883.69,266.25 889.06,264.5C894.43,262.75 899.65,258.65 900.27,253.02C895.75,254.83 891.56,250.11 887.2,247.94C880.02,244.38 871.83,247.73 864.43,248.55C856,249.49 848,246 839.47,246.62Z" style="fill-opacity:0.1;fill-rule:nonzero;"/>
                        </g>
                        <g transform="matrix(1,0,0,1,-125.1,-119.24)">
                            <path d="M839.06,245.81C834.4,246.17 829.2,249.39 829.46,254.06C829.6,256.63 831.36,258.8 832.13,261.26C833.98,267.21 829.86,273.18 826.24,278.26C822.62,283.34 819.24,290.07 822.34,295.45C823.224,296.745 824.178,297.991 825.2,299.18C829.03,304.35 828.98,311.33 830.68,317.54C835.162,333.941 851.897,344.113 868.52,340.54C865.49,336.672 863.977,331.825 864.27,326.92C864.5,323.36 865.65,319.64 864.27,316.35C862.49,312.12 857.27,310.45 854.58,306.75C851.89,303.05 852.07,297.92 853.37,293.51C854.67,289.1 856.92,285.01 858,280.51C858.267,279.197 858.6,277.899 859,276.62C860.88,271.28 866.5,268.18 872,266.85C877.5,265.52 883.28,265.44 888.65,263.69C894.02,261.94 899.24,257.84 899.86,252.21C895.34,254.02 891.15,249.3 886.79,247.13C879.61,243.57 871.42,246.92 864.02,247.74C855.61,248.67 847.64,245.14 839.06,245.81Z" style="fill:rgb(73,53,69);fill-rule:nonzero;"/>
                        </g>
                        <g transform="matrix(1,0,0,1,-125.1,-119.24)">
                            <path d="M885.65,326.3C885.65,326.3 894.13,333.87 895.8,337.21" style="fill-opacity:0.1;fill-rule:nonzero;"/>
                        </g>
                        <g transform="matrix(1,0,0,1,-125.1,-119.24)">
                            <path d="M904,371.51C904,371.51 893.41,371.51 888.52,372.73C883.63,373.95 871.82,372.73 871.82,372.73" style="fill-opacity:0.1;fill-rule:nonzero;"/>
                        </g>
                        <g opacity="0.1">
                            <g transform="matrix(1,0,0,1,-125.1,-119.24)">
                                <path d="M896.85,336.68C895.937,337.202 894.949,337.58 893.92,337.8C896.575,338.389 899.357,337.99 901.74,336.68C916,328.53 886.67,310.21 886.67,310.21L881.78,310.21C881.78,310.21 911.11,328.54 896.85,336.68Z" style="fill-rule:nonzero;"/>
                            </g>
                            <g transform="matrix(1,0,0,1,-125.1,-119.24)">
                                <path d="M955.19,223.79C955.19,223.53 955.13,223.28 955.09,223.05C953.415,223.397 951.723,223.654 950.02,223.82C951.739,224.009 953.474,223.999 955.19,223.79Z" style="fill-rule:nonzero;"/>
                            </g>
                            <g transform="matrix(1,0,0,1,-125.1,-119.24)">
                                <path d="M850.83,418.55C859.38,412.03 854.5,374.97 854.5,374.97C854.5,374.97 839.84,352.16 839.43,343.61C839.02,335.06 805.63,292.29 805.63,292.29C801.15,289.85 796.26,280.89 796.26,280.89C796.26,280.89 768.56,235.68 764.49,234.05L791.37,280.89C791.37,280.89 796.26,289.89 800.74,292.29C800.74,292.29 834.14,335.06 834.54,343.61C834.94,352.16 849.6,375 849.6,375C849.6,375 854.49,412.06 845.93,418.58C845.93,418.58 875.22,426.09 892.78,425.41C875.18,424.79 850.83,418.55 850.83,418.55Z" style="fill-rule:nonzero;"/>
                            </g>
                            <g transform="matrix(1,0,0,1,-125.1,-119.24)">
                                <path d="M859.62,314.19L859.38,313.88C859.101,313.962 858.817,314.026 858.53,314.07C858.91,314.12 859.27,314.16 859.62,314.19Z" style="fill-rule:nonzero;"/>
                            </g>
                        </g>
                        <g opacity="0.1">
                            <g transform="matrix(1,0,0,1,-125.1,-119.24)">
                                <path d="M955.09,223L954.84,223.05C954.41,235.56 945.73,264.95 945.73,264.95C945.73,270.24 940.03,278.39 940.03,278.39C940.03,278.39 916.41,314.64 911.11,319.53C905.81,324.42 907.85,334.19 907.85,334.19L907.9,334.29C907.74,331 908.14,325.9 911.51,322.78C916.8,317.89 940.43,281.64 940.43,281.64C940.43,281.64 946.13,273.49 946.13,268.2C946.13,268.26 956.72,232.42 955.09,223Z" style="fill-rule:nonzero;"/>
                            </g>
                            <g transform="matrix(1,0,0,1,-125.1,-119.24)">
                                <path d="M903.37,368.45C903.98,371.91 903.57,368.25 903.78,371.71C903.78,371.71 913.78,359.98 911.05,345.48C911.87,358.44 903.37,368.45 903.37,368.45Z" style="fill-rule:nonzero;"/>
                            </g>
                        </g>
                        <ellipse cx="469.79" cy="620.44" rx="427.67" ry="41.08" style="fill:white;fill-opacity:0.1;"/>
                        <g transform="matrix(1,0,0,1,-125.1,-119.24)">
                            <path d="M429.11,698C429.11,698 414.55,648.55 431.84,612.16C439.192,596.943 441.411,579.744 438.16,563.16C436.554,555.297 434.231,547.599 431.22,540.16" style="fill:none;fill-rule:nonzero;stroke:rgb(83,84,97);stroke-width:2px;"/>
                        </g>
                        <g transform="matrix(1,0,0,1,-125.1,-119.24)">
                            <path d="M442,517.18C442,523.24 431,540.81 431,540.81C431,540.81 420,523.24 420,517.18C419.98,516.91 419.97,516.639 419.97,516.368C419.97,510.334 424.936,505.368 430.97,505.368C437.004,505.368 441.97,510.334 441.97,516.368C441.97,516.639 441.96,516.91 441.94,517.18L442,517.18Z" style="fill:rgb(136,115,254);fill-rule:nonzero;"/>
                        </g>
                        <g transform="matrix(1,0,0,1,-125.1,-119.24)">
                            <path d="M460.11,550.74C456.82,555.83 438.06,564.61 438.06,564.61C438.06,564.61 438.4,543.9 441.69,538.81C443.623,535.309 447.32,533.128 451.319,533.128C457.354,533.128 462.319,538.093 462.319,544.128C462.319,546.513 461.544,548.834 460.11,550.74Z" style="fill:rgb(136,115,254);fill-rule:nonzero;"/>
                        </g>
                        <g transform="matrix(1,0,0,1,-125.1,-119.24)">
                            <path d="M459.32,608.11C453.91,610.84 433.32,608.95 433.32,608.95C433.32,608.95 444.07,591.24 449.48,588.51C451.19,587.483 453.148,586.941 455.142,586.941C461.177,586.941 466.142,591.906 466.142,597.941C466.142,602.378 463.458,606.399 459.36,608.1L459.32,608.11Z" style="fill:rgb(136,115,254);fill-rule:nonzero;"/>
                        </g>
                        <g transform="matrix(1,0,0,1,-125.1,-119.24)">
                            <path d="M448.95,651.37C444.08,654.97 423.42,656.6 423.42,656.6C423.42,656.6 431.02,637.33 435.9,633.72C437.622,632.674 439.598,632.121 441.612,632.121C447.647,632.121 452.612,637.086 452.612,643.121C452.612,646.27 451.259,649.273 448.9,651.36L448.95,651.37Z" style="fill:rgb(136,115,254);fill-rule:nonzero;"/>
                        </g>
                        <g transform="matrix(1,0,0,1,-125.1,-119.24)">
                            <path d="M415,565.79C419.35,570.01 439.6,574.39 439.6,574.39C439.6,574.39 434.6,554.28 430.29,550.05C428.204,547.712 425.215,546.373 422.082,546.373C416.047,546.373 411.082,551.338 411.082,557.373C411.082,560.617 412.517,563.701 415,565.79Z" style="fill:rgb(136,115,254);fill-rule:nonzero;"/>
                        </g>
                        <g transform="matrix(1,0,0,1,-125.1,-119.24)">
                            <path d="M403.53,616.55C408.94,619.28 429.53,617.39 429.53,617.39C429.53,617.39 418.82,599.68 413.41,597C412.073,596.445 410.64,596.159 409.192,596.159C403.158,596.159 398.192,601.125 398.192,607.159C398.192,611.018 400.222,614.604 403.53,616.59L403.53,616.55Z" style="fill:rgb(136,115,254);fill-rule:nonzero;"/>
                        </g>
                        <g transform="matrix(1,0,0,1,-125.1,-119.24)">
                            <path d="M399.13,667.41C404,671.01 424.66,672.64 424.66,672.64C424.66,672.64 417.06,653.37 412.18,649.76C410.17,647.982 407.576,646.999 404.892,646.999C398.858,646.999 393.892,651.965 393.892,657.999C393.892,661.837 395.9,665.407 399.18,667.4L399.13,667.41Z" style="fill:rgb(136,115,254);fill-rule:nonzero;"/>
                        </g>
                        <g transform="matrix(1,0,0,1,-125.1,-119.24)">
                            <path d="M442,517.18C442,523.24 431,540.81 431,540.81C431,540.81 420,523.24 420,517.18C419.98,516.91 419.97,516.639 419.97,516.368C419.97,510.334 424.936,505.368 430.97,505.368C437.004,505.368 441.97,510.334 441.97,516.368C441.97,516.639 441.96,516.91 441.94,517.18L442,517.18Z" style="fill:rgb(136,115,254);fill-opacity:0.1;fill-rule:nonzero;"/>
                        </g>
                        <g transform="matrix(1,0,0,1,-125.1,-119.24)">
                            <path d="M460.11,550.74C456.82,555.83 438.06,564.61 438.06,564.61C438.06,564.61 438.4,543.9 441.69,538.81C443.623,535.309 447.32,533.128 451.319,533.128C457.354,533.128 462.319,538.093 462.319,544.128C462.319,546.513 461.544,548.834 460.11,550.74Z" style="fill:rgb(136,115,254);fill-opacity:0.1;fill-rule:nonzero;"/>
                        </g>
                        <g transform="matrix(1,0,0,1,-125.1,-119.24)">
                            <path d="M459.32,608.11C453.91,610.84 433.32,608.95 433.32,608.95C433.32,608.95 444.07,591.24 449.48,588.51C451.19,587.483 453.148,586.941 455.142,586.941C461.177,586.941 466.142,591.906 466.142,597.941C466.142,602.378 463.458,606.399 459.36,608.1L459.32,608.11Z" style="fill:rgb(136,115,254);fill-opacity:0.1;fill-rule:nonzero;"/>
                        </g>
                        <g transform="matrix(1,0,0,1,-125.1,-119.24)">
                            <path d="M448.95,651.37C444.08,654.97 423.42,656.6 423.42,656.6C423.42,656.6 431.02,637.33 435.9,633.72C437.622,632.674 439.598,632.121 441.612,632.121C447.647,632.121 452.612,637.086 452.612,643.121C452.612,646.27 451.259,649.273 448.9,651.36L448.95,651.37Z" style="fill:rgb(136,115,254);fill-opacity:0.1;fill-rule:nonzero;"/>
                        </g>
                        <g transform="matrix(1,0,0,1,-125.1,-119.24)">
                            <path d="M415,565.79C419.35,570.01 439.6,574.39 439.6,574.39C439.6,574.39 434.6,554.28 430.29,550.05C428.204,547.712 425.215,546.373 422.082,546.373C416.047,546.373 411.082,551.338 411.082,557.373C411.082,560.617 412.517,563.701 415,565.79Z" style="fill:rgb(136,115,254);fill-opacity:0.1;fill-rule:nonzero;"/>
                        </g>
                        <g transform="matrix(1,0,0,1,-125.1,-119.24)">
                            <path d="M403.53,616.55C408.94,619.28 429.53,617.39 429.53,617.39C429.53,617.39 418.82,599.68 413.41,597C412.073,596.445 410.64,596.159 409.192,596.159C403.158,596.159 398.192,601.125 398.192,607.159C398.192,611.018 400.222,614.604 403.53,616.59L403.53,616.55Z" style="fill:rgb(136,115,254);fill-opacity:0.1;fill-rule:nonzero;"/>
                        </g>
                        <g transform="matrix(1,0,0,1,-125.1,-119.24)">
                            <path d="M399.13,667.41C404,671.01 424.66,672.64 424.66,672.64C424.66,672.64 417.06,653.37 412.18,649.76C410.17,647.982 407.576,646.999 404.892,646.999C398.858,646.999 393.892,651.965 393.892,657.999C393.892,661.837 395.9,665.407 399.18,667.4L399.13,667.41Z" style="fill:rgb(136,115,254);fill-opacity:0.1;fill-rule:nonzero;"/>
                        </g>
                        <g transform="matrix(1,0,0,1,-125.1,-119.24)">
                            <path d="M723.75,698.71C723.75,698.71 709.19,649.26 726.48,612.87C733.832,597.653 736.051,580.454 732.8,563.87C731.194,556.007 728.871,548.309 725.86,540.87" style="fill:none;fill-rule:nonzero;stroke:rgb(83,84,97);stroke-width:2px;"/>
                        </g>
                        <g transform="matrix(1,0,0,1,-125.1,-119.24)">
                            <path d="M736.62,517.88C736.62,523.94 725.62,541.51 725.62,541.51C725.62,541.51 714.62,523.94 714.62,517.88C715.043,512.167 719.861,507.692 725.59,507.692C731.319,507.692 736.137,512.167 736.56,517.88L736.62,517.88Z" style="fill:rgb(136,115,254);fill-rule:nonzero;"/>
                        </g>
                        <g transform="matrix(1,0,0,1,-125.1,-119.24)">
                            <path d="M754.76,551.44C751.47,556.53 732.71,565.31 732.71,565.31C732.71,565.31 733.05,544.6 736.34,539.51C738.273,536.009 741.97,533.828 745.969,533.828C752.004,533.828 756.969,538.793 756.969,544.828C756.969,547.213 756.194,549.534 754.76,551.44Z" style="fill:rgb(136,115,254);fill-rule:nonzero;"/>
                        </g>
                        <g transform="matrix(1,0,0,1,-125.1,-119.24)">
                            <path d="M754,608.81C748.59,611.54 728,609.65 728,609.65C728,609.65 738.75,591.94 744.16,589.21C745.878,588.17 747.848,587.621 749.856,587.621C755.89,587.621 760.856,592.586 760.856,598.621C760.856,603.086 758.137,607.128 754,608.81Z" style="fill:rgb(136,115,254);fill-rule:nonzero;"/>
                        </g>
                        <g transform="matrix(1,0,0,1,-125.1,-119.24)">
                            <path d="M743.59,652.07C738.72,655.67 718.06,657.3 718.06,657.3C718.06,657.3 725.66,638.03 730.54,634.42C732.262,633.374 734.238,632.821 736.252,632.821C742.287,632.821 747.252,637.786 747.252,643.821C747.252,646.97 745.899,649.973 743.54,652.06L743.59,652.07Z" style="fill:rgb(136,115,254);fill-rule:nonzero;"/>
                        </g>
                        <g transform="matrix(1,0,0,1,-125.1,-119.24)">
                            <path d="M709.66,566.49C714.01,570.71 734.26,575.09 734.26,575.09C734.26,575.09 729.26,554.98 724.95,550.75C722.864,548.412 719.875,547.073 716.742,547.073C710.707,547.073 705.742,552.038 705.742,558.073C705.742,561.317 707.177,564.401 709.66,566.49Z" style="fill:rgb(136,115,254);fill-rule:nonzero;"/>
                        </g>
                        <g transform="matrix(1,0,0,1,-125.1,-119.24)">
                            <path d="M698.17,617.25C703.58,619.98 724.17,618.09 724.17,618.09C724.17,618.09 713.42,600.38 708.01,597.65C706.673,597.095 705.24,596.809 703.792,596.809C697.758,596.809 692.792,601.775 692.792,607.809C692.792,611.668 694.822,615.254 698.13,617.24L698.17,617.25Z" style="fill:rgb(136,115,254);fill-rule:nonzero;"/>
                        </g>
                        <g transform="matrix(1,0,0,1,-125.1,-119.24)">
                            <path d="M693.78,668.11C698.65,671.71 719.31,673.34 719.31,673.34C719.31,673.34 711.71,654.07 706.83,650.46C705.108,649.414 703.132,648.861 701.118,648.861C695.083,648.861 690.118,653.826 690.118,659.861C690.118,663.01 691.471,666.013 693.83,668.1L693.78,668.11Z" style="fill:rgb(136,115,254);fill-rule:nonzero;"/>
                        </g>
                        <g transform="matrix(1,0,0,1,-125.1,-119.24)">
                            <path d="M736.62,517.88C736.62,523.94 725.62,541.51 725.62,541.51C725.62,541.51 714.62,523.94 714.62,517.88C715.043,512.167 719.861,507.692 725.59,507.692C731.319,507.692 736.137,512.167 736.56,517.88L736.62,517.88Z" style="fill:rgb(136,115,254);fill-opacity:0.1;fill-rule:nonzero;"/>
                        </g>
                        <g transform="matrix(1,0,0,1,-125.1,-119.24)">
                            <path d="M754.76,551.44C751.47,556.53 732.71,565.31 732.71,565.31C732.71,565.31 733.05,544.6 736.34,539.51C738.273,536.009 741.97,533.828 745.969,533.828C752.004,533.828 756.969,538.793 756.969,544.828C756.969,547.213 756.194,549.534 754.76,551.44Z" style="fill:rgb(136,115,254);fill-opacity:0.1;fill-rule:nonzero;"/>
                        </g>
                        <g transform="matrix(1,0,0,1,-125.1,-119.24)">
                            <path d="M754,608.81C748.59,611.54 728,609.65 728,609.65C728,609.65 738.75,591.94 744.16,589.21C745.878,588.17 747.848,587.621 749.856,587.621C755.89,587.621 760.856,592.586 760.856,598.621C760.856,603.086 758.137,607.128 754,608.81Z" style="fill:rgb(136,115,254);fill-opacity:0.1;fill-rule:nonzero;"/>
                        </g>
                        <g transform="matrix(1,0,0,1,-125.1,-119.24)">
                            <path d="M743.59,652.07C738.72,655.67 718.06,657.3 718.06,657.3C718.06,657.3 725.66,638.03 730.54,634.42C732.262,633.374 734.238,632.821 736.252,632.821C742.287,632.821 747.252,637.786 747.252,643.821C747.252,646.97 745.899,649.973 743.54,652.06L743.59,652.07Z" style="fill:rgb(136,115,254);fill-opacity:0.1;fill-rule:nonzero;"/>
                        </g>
                        <g transform="matrix(1,0,0,1,-125.1,-119.24)">
                            <path d="M709.66,566.49C714.01,570.71 734.26,575.09 734.26,575.09C734.26,575.09 729.26,554.98 724.95,550.75C722.864,548.412 719.875,547.073 716.742,547.073C710.707,547.073 705.742,552.038 705.742,558.073C705.742,561.317 707.177,564.401 709.66,566.49Z" style="fill:rgb(136,115,254);fill-opacity:0.1;fill-rule:nonzero;"/>
                        </g>
                        <g transform="matrix(1,0,0,1,-125.1,-119.24)">
                            <path d="M698.17,617.25C703.58,619.98 724.17,618.09 724.17,618.09C724.17,618.09 713.42,600.38 708.01,597.65C706.673,597.095 705.24,596.809 703.792,596.809C697.758,596.809 692.792,601.775 692.792,607.809C692.792,611.668 694.822,615.254 698.13,617.24L698.17,617.25Z" style="fill:rgb(136,115,254);fill-opacity:0.1;fill-rule:nonzero;"/>
                        </g>
                        <g transform="matrix(1,0,0,1,-125.1,-119.24)">
                            <path d="M693.78,668.11C698.65,671.71 719.31,673.34 719.31,673.34C719.31,673.34 711.71,654.07 706.83,650.46C705.108,649.414 703.132,648.861 701.118,648.861C695.083,648.861 690.118,653.826 690.118,659.861C690.118,663.01 691.471,666.013 693.83,668.1L693.78,668.11Z" style="fill:rgb(136,115,254);fill-opacity:0.1;fill-rule:nonzero;"/>
                        </g>
                        <g transform="matrix(1,0,0,1,-125.1,-119.24)">
                            <path d="M795,134.55L788.72,134.55C788.79,134.553 788.86,134.555 788.93,134.555C791.343,134.555 793.33,132.569 793.33,130.155C793.33,127.741 791.343,125.755 788.93,125.755C788.86,125.755 788.79,125.757 788.72,125.76L737.8,125.76C735.468,125.871 733.61,127.82 733.61,130.155C733.61,132.49 735.468,134.439 737.8,134.55L744.08,134.55C741.748,134.661 739.89,136.61 739.89,138.945C739.89,141.28 741.748,143.229 744.08,143.34L735.29,143.34C735.22,143.337 735.15,143.335 735.08,143.335C732.667,143.335 730.68,145.321 730.68,147.735C730.68,150.149 732.667,152.135 735.08,152.135C735.15,152.135 735.22,152.133 735.29,152.13L786.17,152.13C786.24,152.133 786.31,152.135 786.38,152.135C788.793,152.135 790.78,150.149 790.78,147.735C790.78,145.321 788.793,143.335 786.38,143.335C786.31,143.335 786.24,143.337 786.17,143.34L795,143.34C797.332,143.229 799.19,141.28 799.19,138.945C799.19,136.61 797.332,134.661 795,134.55Z" style="fill:rgb(222,227,243);fill-opacity:0.5;fill-rule:nonzero;"/>
                        </g>
                        <g transform="matrix(1,0,0,1,-125.1,-119.24)">
                            <path d="M500.78,160.19L496,160.19C496.061,160.193 496.122,160.195 496.183,160.195C498.021,160.195 499.533,158.683 499.533,156.845C499.533,155.007 498.021,153.495 496.183,153.495C496.122,153.495 496.061,153.497 496,153.5L457.28,153.5C455.514,153.597 454.113,155.076 454.113,156.845C454.113,158.614 455.514,160.093 457.28,160.19L462.06,160.19C461.999,160.187 461.938,160.185 461.877,160.185C460.039,160.185 458.527,161.697 458.527,163.535C458.527,165.373 460.039,166.885 461.877,166.885C461.938,166.885 461.999,166.883 462.06,166.88L455.37,166.88C455.309,166.877 455.248,166.875 455.187,166.875C453.349,166.875 451.837,168.387 451.837,170.225C451.837,172.063 453.349,173.575 455.187,173.575C455.248,173.575 455.309,173.573 455.37,173.57L494.09,173.57C494.151,173.573 494.212,173.575 494.273,173.575C496.111,173.575 497.623,172.063 497.623,170.225C497.623,168.387 496.111,166.875 494.273,166.875C494.212,166.875 494.151,166.877 494.09,166.88L500.78,166.88C502.546,166.783 503.947,165.304 503.947,163.535C503.947,161.766 502.546,160.287 500.78,160.19Z" style="fill:rgb(222,227,243);fill-opacity:0.5;fill-rule:nonzero;"/>
                        </g>
                        <g transform="matrix(1,0,0,1,-125.1,-119.24)">
                            <path d="M175.78,634C175.78,634 193.28,668.35 179.02,687.14C164.76,705.93 180.32,757.14 180.32,757.14" style="fill:none;fill-rule:nonzero;stroke:rgb(136,115,254);stroke-width:1px;"/>
                        </g>
                        <g transform="matrix(1,0,0,1,-125.1,-119.24)">
                            <path d="M181,623.26C181,629.88 176.14,635.26 176.14,635.26C176.14,635.26 171.28,629.89 171.28,623.26C171.28,616.63 176.14,611.26 176.14,611.26C176.14,611.26 181,616.64 181,623.26Z" style="fill:rgb(136,115,254);fill-rule:nonzero;"/>
                        </g>
                        <g transform="matrix(1,0,0,1,-125.1,-119.24)">
                            <path d="M184.85,634C184.85,634 167.35,668.35 181.61,687.14C195.87,705.93 180.31,757.14 180.31,757.14" style="fill:none;fill-rule:nonzero;stroke:rgb(136,115,254);stroke-width:1px;"/>
                        </g>
                        <g transform="matrix(1,0,0,1,-125.1,-119.24)">
                            <path d="M179.67,623.26C179.67,629.88 184.53,635.26 184.53,635.26C184.53,635.26 189.39,629.89 189.39,623.26C189.39,616.63 184.53,611.26 184.53,611.26C184.53,611.26 179.67,616.64 179.67,623.26Z" style="fill:rgb(136,115,254);fill-rule:nonzero;"/>
                        </g>
                        <g transform="matrix(1,0,0,1,-125.1,-119.24)">
                            <path d="M179.67,623.26C179.67,629.88 184.53,635.26 184.53,635.26C184.53,635.26 189.39,629.89 189.39,623.26C189.39,616.63 184.53,611.26 184.53,611.26C184.53,611.26 179.67,616.64 179.67,623.26Z" style="fill-opacity:0.1;fill-rule:nonzero;"/>
                        </g>
                        <g transform="matrix(1,0,0,1,-125.1,-119.24)">
                            <path d="M192,634C192,634 209.5,668.35 195.24,687.14C180.98,705.93 196.54,757.14 196.54,757.14" style="fill:none;fill-rule:nonzero;stroke:rgb(136,115,254);stroke-width:1px;"/>
                        </g>
                        <g transform="matrix(1,0,0,1,-125.1,-119.24)">
                            <path d="M197.17,623.26C197.17,629.88 192.31,635.26 192.31,635.26C192.31,635.26 187.45,629.89 187.45,623.26C187.45,616.63 192.31,611.26 192.31,611.26C192.31,611.26 197.17,616.64 197.17,623.26Z" style="fill:rgb(136,115,254);fill-rule:nonzero;"/>
                        </g>
                        <g transform="matrix(1,0,0,1,-125.1,-119.24)">
                            <path d="M194.44,650.78C189.85,655.55 182.62,656.05 182.62,656.05C182.62,656.05 182.84,648.81 187.43,644.05C192.02,639.29 199.25,638.78 199.25,638.78C199.25,638.78 199,646 194.44,650.78Z" style="fill:rgb(136,115,254);fill-rule:nonzero;"/>
                        </g>
                        <g transform="matrix(1,0,0,1,-125.1,-119.24)">
                            <path d="M194.9,674.48C190.31,679.25 183.08,679.75 183.08,679.75C183.08,679.75 183.3,672.51 187.89,667.75C192.48,662.99 199.71,662.48 199.71,662.48C199.71,662.48 199.49,669.7 194.9,674.48Z" style="fill:rgb(136,115,254);fill-rule:nonzero;"/>
                        </g>
                        <g transform="matrix(1,0,0,1,-125.1,-119.24)">
                            <path d="M170,687.51C174.34,692.51 174.19,699.75 174.19,699.75C174.19,699.75 167,698.88 162.66,693.88C158.32,688.88 158.47,681.64 158.47,681.64C158.47,681.64 165.66,682.51 170,687.51Z" style="fill:rgb(136,115,254);fill-rule:nonzero;"/>
                        </g>
                        <g transform="matrix(1,0,0,1,-125.1,-119.24)">
                            <path d="M174,637C179.52,640.66 181.31,647.68 181.31,647.68C181.31,647.68 174.15,648.77 168.63,645.11C163.11,641.45 161.32,634.43 161.32,634.43C161.32,634.43 168.51,633.32 174,637Z" style="fill:rgb(136,115,254);fill-rule:nonzero;"/>
                        </g>
                        <g transform="matrix(1,0,0,1,-125.1,-119.24)">
                            <path d="M174,637C179.52,640.66 181.31,647.68 181.31,647.68C181.31,647.68 174.15,648.77 168.63,645.11C163.11,641.45 161.32,634.43 161.32,634.43C161.32,634.43 168.51,633.32 174,637Z" style="fill-opacity:0.1;fill-rule:nonzero;"/>
                        </g>
                        <g transform="matrix(1,0,0,1,-125.1,-119.24)">
                            <path d="M201.05,634C201.05,634 183.55,668.35 197.81,687.14C212.07,705.93 196.51,757.14 196.51,757.14" style="fill:none;fill-rule:nonzero;stroke:rgb(136,115,254);stroke-width:1px;"/>
                        </g>
                        <g transform="matrix(1,0,0,1,-125.1,-119.24)">
                            <path d="M195.87,623.26C195.87,629.88 200.73,635.26 200.73,635.26C200.73,635.26 205.59,629.89 205.59,623.26C205.59,616.63 200.73,611.26 200.73,611.26C200.73,611.26 195.87,616.64 195.87,623.26Z" style="fill:rgb(136,115,254);fill-rule:nonzero;"/>
                        </g>
                        <g transform="matrix(1,0,0,1,-125.1,-119.24)">
                            <path d="M195.87,623.26C195.87,629.88 200.73,635.26 200.73,635.26C200.73,635.26 205.59,629.89 205.59,623.26C205.59,616.63 200.73,611.26 200.73,611.26C200.73,611.26 195.87,616.64 195.87,623.26Z" style="fill-opacity:0.1;fill-rule:nonzero;"/>
                        </g>
                        <g transform="matrix(1,0,0,1,-125.1,-119.24)">
                            <path d="M197.27,651.29C192.62,656.01 192.27,663.29 192.27,663.29C192.27,663.29 199.5,662.88 204.15,658.16C208.8,653.44 209.15,646.16 209.15,646.16C209.15,646.16 201.92,646.57 197.27,651.29Z" style="fill:rgb(136,115,254);fill-rule:nonzero;"/>
                        </g>
                        <g transform="matrix(1,0,0,1,-125.1,-119.24)">
                            <path d="M197.27,651.29C192.62,656.01 192.27,663.29 192.27,663.29C192.27,663.29 199.5,662.88 204.15,658.16C208.8,653.44 209.15,646.16 209.15,646.16C209.15,646.16 201.92,646.57 197.27,651.29Z" style="fill-opacity:0.1;fill-rule:nonzero;"/>
                        </g>
                        <g transform="matrix(1,0,0,1,-125.1,-119.24)">
                            <path d="M206.38,684.1C201.73,688.82 201.38,696.1 201.38,696.1C201.38,696.1 208.61,695.69 213.26,690.97C217.91,686.25 218.26,678.97 218.26,678.97C218.26,678.97 211,679.38 206.38,684.1Z" style="fill:rgb(136,115,254);fill-rule:nonzero;"/>
                        </g>
                        <g transform="matrix(1,0,0,1,-125.1,-119.24)">
                            <path d="M193,676.89C193,676.89 203.53,660.29 218.32,659.89" style="fill:none;fill-rule:nonzero;stroke:rgb(136,115,254);stroke-width:1px;"/>
                        </g>
                        <g transform="matrix(1,0,0,1,-125.1,-119.24)">
                            <path d="M184.77,666.86C184.77,666.86 174.24,650.26 159.45,649.86" style="fill:none;fill-rule:nonzero;stroke:rgb(136,115,254);stroke-width:1px;"/>
                        </g>
                        <g transform="matrix(1,0,0,1,-125.1,-119.24)">
                            <path d="M183.4,690.56C183.4,690.56 193.93,673.96 208.72,673.56" style="fill:none;fill-rule:nonzero;stroke:rgb(136,115,254);stroke-width:1px;"/>
                        </g>
                        <circle cx="92.71" cy="540.56" r="2.73" style="fill:rgb(136,115,254);"/>
                        <circle cx="34.61" cy="530.76" r="2.73" style="fill:rgb(136,115,254);"/>
                        <g transform="matrix(1,0,0,1,-125.1,-119.24)">
                            <path d="M191.15,696C191.15,696 180.62,679.4 165.83,679" style="fill:none;fill-rule:nonzero;stroke:rgb(136,115,254);stroke-width:1px;"/>
                        </g>
                        <circle cx="40.99" cy="559.92" r="2.73" style="fill:rgb(136,115,254);"/>
                        <circle cx="83.82" cy="554.46" r="2.73" style="fill:rgb(136,115,254);"/>
                        <g transform="matrix(1,0,0,1,-125.1,-119.24)">
                            <path d="M249.38,737.15C249.38,737.15 224,732.07 217.22,725.3C210.44,718.53 180,706.69 176.61,715.15C173.22,723.61 130.92,752.38 159.69,757.46C188.46,762.54 227.38,764.23 235.84,760.84C244.3,757.45 249.38,737.15 249.38,737.15Z" style="fill:rgb(168,168,168);fill-rule:nonzero;"/>
                        </g>
                        <g transform="matrix(1,0,0,1,-125.1,-119.24)">
                            <path d="M159.69,754.31C188.46,759.39 227.38,761.08 235.84,757.69C242.28,755.11 246.76,742.69 248.53,736.97L249.38,737.15C249.38,737.15 244.3,757.46 235.84,760.84C227.38,764.22 188.46,762.53 159.69,757.46C151.39,755.99 149.01,752.55 149.91,748.2C150.61,751 153.51,753.22 159.69,754.31Z" style="fill-opacity:0.2;fill-rule:nonzero;"/>
                        </g>
                        <g transform="matrix(1,0,0,1,-125.1,-119.24)">
                            <path d="M1019.93,641.78C1019.93,641.78 1028.31,652.78 1016.06,669.28C1003.81,685.78 993.71,699.79 997.8,710.11C997.8,710.11 1016.28,679.38 1031.32,678.95C1046.36,678.52 1036.48,660.25 1019.93,641.78Z" style="fill:rgb(136,115,254);fill-rule:nonzero;"/>
                        </g>
                        <g transform="matrix(1,0,0,1,-125.1,-119.24)">
                            <path d="M1019.93,641.78C1020.66,642.84 1021.24,643.998 1021.64,645.22C1036.32,662.46 1044.13,678.55 1030.03,678.96C1016.89,679.34 1001.13,702.83 997.35,708.77C997.475,709.228 997.625,709.679 997.8,710.12C997.975,710.561 1016.28,679.39 1031.32,678.96C1046.36,678.53 1036.48,660.25 1019.93,641.78Z" style="fill-opacity:0.1;fill-rule:nonzero;"/>
                        </g>
                        <g transform="matrix(1,0,0,1,-125.1,-119.24)">
                            <path d="M1035.51,655.74C1035.51,659.6 1035.08,662.74 1034.51,662.74C1033.94,662.74 1033.51,659.61 1033.51,655.74C1033.51,651.87 1034.05,653.74 1034.58,653.74C1035.11,653.74 1035.51,651.89 1035.51,655.74Z" style="fill:rgb(255,208,55);fill-rule:nonzero;"/>
                        </g>
                        <g transform="matrix(1,0,0,1,-125.1,-119.24)">
                            <path d="M1040.86,660.35C1037.47,662.2 1034.52,663.35 1034.27,662.84C1034.02,662.33 1036.55,660.49 1039.94,658.65C1043.33,656.81 1041.99,658.15 1042.25,658.65C1042.51,659.15 1044.24,658.5 1040.86,660.35Z" style="fill:rgb(255,208,55);fill-rule:nonzero;"/>
                        </g>
                        <g transform="matrix(1,0,0,1,-125.1,-119.24)">
                            <path d="M975.67,641.78C975.67,641.78 967.29,652.78 979.54,669.28C991.79,685.78 1001.89,699.79 997.8,710.11C997.8,710.11 979.32,679.38 964.28,678.95C949.24,678.52 959.12,660.25 975.67,641.78Z" style="fill:rgb(136,115,254);fill-rule:nonzero;"/>
                        </g>
                        <g transform="matrix(1,0,0,1,-125.1,-119.24)">
                            <path d="M975.67,641.78C974.94,642.84 974.364,643.998 973.96,645.22C959.28,662.46 951.47,678.55 965.57,678.96C978.71,679.34 994.47,702.83 998.25,708.77C998.125,709.228 997.975,709.679 997.8,710.12C997.625,710.561 979.32,679.39 964.28,678.96C949.24,678.53 959.12,660.25 975.67,641.78Z" style="fill-opacity:0.1;fill-rule:nonzero;"/>
                        </g>
                        <g transform="matrix(1,0,0,1,-125.1,-119.24)">
                            <path d="M960.09,655.74C960.09,659.6 960.52,662.74 961.09,662.74C961.66,662.74 962.09,659.61 962.09,655.74C962.09,651.87 961.55,653.74 961.02,653.74C960.49,653.74 960.09,651.89 960.09,655.74Z" style="fill:rgb(255,208,55);fill-rule:nonzero;"/>
                        </g>
                        <g transform="matrix(1,0,0,1,-125.1,-119.24)">
                            <path d="M954.74,660.35C958.13,662.2 961.08,663.35 961.33,662.84C961.58,662.33 959.05,660.49 955.66,658.65C952.27,656.81 953.61,658.15 953.35,658.65C953.09,659.15 951.35,658.5 954.74,660.35Z" style="fill:rgb(255,208,55);fill-rule:nonzero;"/>
                        </g>
                        <g transform="matrix(1,0,0,1,-125.1,-119.24)">
                            <path d="M962.76,708.67C962.76,708.67 986.19,707.95 993.25,702.92C1000.31,697.89 1029.25,691.92 1031.04,699.92C1032.83,707.92 1066.25,740.03 1039.8,740.24C1013.35,740.45 978.34,736.12 971.29,731.83C964.24,727.54 962.76,708.67 962.76,708.67Z" style="fill:rgb(168,168,168);fill-rule:nonzero;"/>
                        </g>
                        <g transform="matrix(1,0,0,1,-125.1,-119.24)">
                            <path d="M1040.27,737.47C1013.82,737.68 978.81,733.35 971.76,729.06C966.39,725.79 964.25,714.06 963.54,708.65L962.76,708.65C962.76,708.65 964.24,727.55 971.29,731.84C978.34,736.13 1013.35,740.47 1039.8,740.25C1047.44,740.19 1050.07,737.47 1049.93,733.45C1048.87,735.9 1046,737.42 1040.27,737.47Z" style="fill-opacity:0.2;fill-rule:nonzero;"/>
                        </g>
                        <g transform="matrix(1,0,0,1,-125.1,-119.24)">
                            <path d="M302.94,193.88L296.66,193.88C296.73,193.883 296.8,193.885 296.87,193.885C299.283,193.885 301.27,191.899 301.27,189.485C301.27,187.071 299.283,185.085 296.87,185.085C296.8,185.085 296.73,185.087 296.66,185.09L245.78,185.09C243.448,185.201 241.59,187.15 241.59,189.485C241.59,191.82 243.448,193.769 245.78,193.88L252.06,193.88C249.728,193.991 247.87,195.94 247.87,198.275C247.87,200.61 249.728,202.559 252.06,202.67L243.27,202.67C240.938,202.781 239.08,204.73 239.08,207.065C239.08,209.4 240.938,211.349 243.27,211.46L294.15,211.46C294.22,211.463 294.29,211.465 294.36,211.465C296.773,211.465 298.76,209.479 298.76,207.065C298.76,204.651 296.773,202.665 294.36,202.665C294.29,202.665 294.22,202.667 294.15,202.67L302.94,202.67C305.272,202.559 307.13,200.61 307.13,198.275C307.13,195.94 305.272,193.991 302.94,193.88Z" style="fill:rgb(222,227,243);fill-opacity:0.5;fill-rule:nonzero;"/>
                        </g>
                    </g>
                </g>
            </g>
        </g>
    </g>
    <defs>
        <linearGradient id="_Linear2" x1="0" y1="0" x2="1" y2="0" gradientUnits="userSpaceOnUse" gradientTransform="matrix(2.53502e-14,-414,414,2.53502e-14,585.6,663)"><stop offset="0" style="stop-color:rgb(128,128,128);stop-opacity:0.25"/><stop offset="0.54" style="stop-color:rgb(128,128,128);stop-opacity:0.12"/><stop offset="1" style="stop-color:rgb(128,128,128);stop-opacity:0.1"/></linearGradient>
        <linearGradient id="_Linear3" x1="0" y1="0" x2="1" y2="0" gradientUnits="userSpaceOnUse" gradientTransform="matrix(1.34711e-17,-0.22,0.22,1.34711e-17,266.19,487.11)"><stop offset="0" style="stop-color:rgb(128,128,128);stop-opacity:0.25"/><stop offset="0.54" style="stop-color:rgb(128,128,128);stop-opacity:0.12"/><stop offset="1" style="stop-color:rgb(128,128,128);stop-opacity:0.1"/></linearGradient>
        <linearGradient id="_Linear4" x1="0" y1="0" x2="1" y2="0" gradientUnits="userSpaceOnUse" gradientTransform="matrix(2.04516e-14,-334,334,2.04516e-14,252.55,605)"><stop offset="0" style="stop-color:rgb(128,128,128);stop-opacity:0.25"/><stop offset="0.54" style="stop-color:rgb(128,128,128);stop-opacity:0.12"/><stop offset="1" style="stop-color:rgb(128,128,128);stop-opacity:0.1"/></linearGradient>
        <linearGradient id="_Linear5" x1="0" y1="0" x2="1" y2="0" gradientUnits="userSpaceOnUse" gradientTransform="matrix(2.49216e-14,-407,407,2.49216e-14,852.66,602)"><stop offset="0" style="stop-color:rgb(128,128,128);stop-opacity:0.25"/><stop offset="0.54" style="stop-color:rgb(128,128,128);stop-opacity:0.12"/><stop offset="1" style="stop-color:rgb(128,128,128);stop-opacity:0.1"/></linearGradient>
    </defs>
</svg>
